<svg xmlns="http://www.w3.org/2000/svg" viewBox="0 0 73.15 55.6" width="72"><title>styles</title><path d="M70.1 55.6H42.55a3 3 0 0 1-3-3v-9.46a1 1 0 0 1 2 0v9.46a1 1 0 0 0 1 1h27.6a1 1 0 0 0 1-1V3a1 1 0 0 0-1-1h-27.6a1 1 0 0 0-1 1v10.8a1 1 0 1 1-2 0V3a3 3 0 0 1 3-3h27.6a3 3 0 0 1 3 3v49.6a3 3 0 0 1-3 3h-.05zM30.55 47.8H3a3 3 0 0 1-3-3V3a3 3 0 0 1 3-3h27.55a3 3 0 0 1 3 3v10.8a1 1 0 0 1-2 0V3a1 1 0 0 0-1-1H3a1 1 0 0 0-1 1v41.8a1 1 0 0 0 1 1h27.55a1 1 0 0 0 1-1v-1.62a1 1 0 0 1 2 0v1.62a3 3 0 0 1-3 3z" fill="#79b8ff"></path><path fill="#79b8ff" d="M40.5 8.6h31v2h-31zM1.6 8.6h31v2h-31z"></path><path d="M62.3 38.15H21.9a3 3 0 0 1-3-3v-13.9a3 3 0 0 1 3-3h40.4a3 3 0 0 1 3 3v13.9a3 3 0 0 1-3 3zm-40.4-17.9a1 1 0 0 0-1 1v13.9a1 1 0 0 0 1 1h40.4a1 1 0 0 0 1-1v-13.9a1 1 0 0 0-1-1H21.9z" fill="#2088ff"></path><path d="M31.3 32.25h-3.64a2.39 2.39 0 0 1-2.11-2.3v-3.5a2.33 2.33 0 0 1 2.3-2.3h3.5a2.33 2.33 0 0 1 2.2 2.3v3.5a2.33 2.33 0 0 1-2.25 2.3zm-3.41-2h3.41a.32.32 0 0 0 .3-.3v-3.5a.32.32 0 0 0-.3-.3h-3.5a.32.32 0 0 0-.3.3v3.5a.43.43 0 0 0 .39.3zM57.1 29.15H38.7a1 1 0 0 1 0-2h18.4a1 1 0 0 1 0 2zM15.92 29.22a1 1 0 0 1-.45-.11l-.47-.2a6.86 6.86 0 0 1-.66-.26 1 1 0 0 1 .89-1.79l.47.2a6.86 6.86 0 0 1 .66.28 1 1 0 0 1-.44 1.88zM11.95 26.76a1 1 0 0 1-.71-.29 12.44 12.44 0 0 1-1.69-2.06 1 1 0 0 1 1.68-1.08A10.39 10.39 0 0 0 12.65 25a1 1 0 0 1-.7 1.76zM9.29 21.83a1 1 0 0 1-1-.76 6.13 6.13 0 0 1-.12-1.47 1 1 0 0 1 2 0 4.78 4.78 0 0 0 .06 1 1 1 0 0 1-.74 1.2z" fill="#2088ff"></path></svg>
