<svg xmlns="http://www.w3.org/2000/svg" viewBox="0 0 1116 474" width="1116" height="474" style="width:100%;height:100%">
  <defs>
    <clipPath id="a">
      <path d="M0 0h1116v474H0z"></path>
    </clipPath>
    <clipPath id="d">
      <path d="M0 0h1080v1080H0z"></path>
    </clipPath>
    <clipPath id="c">
      <path d="M0 0h1080v1080H0z"></path>
    </clipPath>
    <clipPath id="b">
      <path d="M0 0h1080v1080H0z"></path>
    </clipPath>
  </defs>
  <g clip-path="url(#a)">
    <g style="user-select:none">
      <path fill="#22272e" d="M0 474h1116V0H0v474z"></path>
      <path stroke="#2087FF" stroke-width="2" d="M855 186a9 9 0 0 1 9 9 9 9 0 0 1-9 9 9 9 0 0 1-9-9 9 9 0 0 1 9-9z" fill="none"></path>
      <path fill="#044288" d="M852 186a2 2 0 1 0-.001-4.001A2 2 0 0 0 852 186zM864 186a2 2 0 1 0-.001-4.001A2 2 0 0 0 864 186zM876 186a2 2 0 1 0-.001-4.001A2 2 0 0 0 876 186zM888 186a2 2 0 1 0-.001-4.001A2 2 0 0 0 888 186zM900 186a2 2 0 1 0-.001-4.001A2 2 0 0 0 900 186zM852 174a2 2 0 1 0-.001-4.001A2 2 0 0 0 852 174zM864 174a2 2 0 1 0-.001-4.001A2 2 0 0 0 864 174zM876 174a2 2 0 1 0-.001-4.001A2 2 0 0 0 876 174zM888 174a2 2 0 1 0-.001-4.001A2 2 0 0 0 888 174zM900 174a2 2 0 1 0-.001-4.001A2 2 0 0 0 900 174zM852 162a2 2 0 1 0-.001-4.001A2 2 0 0 0 852 162zM864 162a2 2 0 1 0-.001-4.001A2 2 0 0 0 864 162zM876 162a2 2 0 1 0-.001-4.001A2 2 0 0 0 876 162zM888 162a2 2 0 1 0-.001-4.001A2 2 0 0 0 888 162zM900 162a2 2 0 1 0-.001-4.001A2 2 0 0 0 900 162zM840 186a2 2 0 1 0-.001-4.001A2 2 0 0 0 840 186zM840 174a2 2 0 1 0-.001-4.001A2 2 0 0 0 840 174zM840 162a2 2 0 1 0-.001-4.001A2 2 0 0 0 840 162zM852 150a2 2 0 1 0-.001-4.001A2 2 0 0 0 852 150zM864 150a2 2 0 1 0-.001-4.001A2 2 0 0 0 864 150zM876 150a2 2 0 1 0-.001-4.001A2 2 0 0 0 876 150zM888 150a2 2 0 1 0-.001-4.001A2 2 0 0 0 888 150zM900 150a2 2 0 1 0-.001-4.001A2 2 0 0 0 900 150zM840 150a2 2 0 1 0-.001-4.001A2 2 0 0 0 840 150zM852 138a2 2 0 1 0-.001-4.001A2 2 0 0 0 852 138zM864 138a2 2 0 1 0-.001-4.001A2 2 0 0 0 864 138zM876 138a2 2 0 1 0-.001-4.001A2 2 0 0 0 876 138zM888 138a2 2 0 1 0-.001-4.001A2 2 0 0 0 888 138zM900 138a2 2 0 1 0-.001-4.001A2 2 0 0 0 900 138zM840 138a2 2 0 1 0-.001-4.001A2 2 0 0 0 840 138zM852 126a2 2 0 1 0-.001-4.001A2 2 0 0 0 852 126zM864 126a2 2 0 1 0-.001-4.001A2 2 0 0 0 864 126zM876 126a2 2 0 1 0-.001-4.001A2 2 0 0 0 876 126zM888 126a2 2 0 1 0-.001-4.001A2 2 0 0 0 888 126zM900 126a2 2 0 1 0-.001-4.001A2 2 0 0 0 900 126zM840 126a2 2 0 1 0-.001-4.001A2 2 0 0 0 840 126zM852 114a2 2 0 1 0-.001-4.001A2 2 0 0 0 852 114zM864 114a2 2 0 1 0-.001-4.001A2 2 0 0 0 864 114zM876 114a2 2 0 1 0-.001-4.001A2 2 0 0 0 876 114zM888 114a2 2 0 1 0-.001-4.001A2 2 0 0 0 888 114zM900 114a2 2 0 1 0-.001-4.001A2 2 0 0 0 900 114zM840 114a2 2 0 1 0-.001-4.001A2 2 0 0 0 840 114zM912 186a2 2 0 1 0-.001-4.001A2 2 0 0 0 912 186zM912 174a2 2 0 1 0-.001-4.001A2 2 0 0 0 912 174zM912 162a2 2 0 1 0-.001-4.001A2 2 0 0 0 912 162zM912 150a2 2 0 1 0-.001-4.001A2 2 0 0 0 912 150zM912 138a2 2 0 1 0-.001-4.001A2 2 0 0 0 912 138zM912 126a2 2 0 1 0-.001-4.001A2 2 0 0 0 912 126zM912 114a2 2 0 1 0-.001-4.001A2 2 0 0 0 912 114zM924 186a2 2 0 1 0-.001-4.001A2 2 0 0 0 924 186zM924 174a2 2 0 1 0-.001-4.001A2 2 0 0 0 924 174zM924 162a2 2 0 1 0-.001-4.001A2 2 0 0 0 924 162zM924 150a2 2 0 1 0-.001-4.001A2 2 0 0 0 924 150zM924 138a2 2 0 1 0-.001-4.001A2 2 0 0 0 924 138zM924 126a2 2 0 1 0-.001-4.001A2 2 0 0 0 924 126zM924 114a2 2 0 1 0-.001-4.001A2 2 0 0 0 924 114zM936 186a2 2 0 1 0-.001-4.001A2 2 0 0 0 936 186zM936 174a2 2 0 1 0-.001-4.001A2 2 0 0 0 936 174zM936 162a2 2 0 1 0-.001-4.001A2 2 0 0 0 936 162zM936 150a2 2 0 1 0-.001-4.001A2 2 0 0 0 936 150zM936 138a2 2 0 1 0-.001-4.001A2 2 0 0 0 936 138zM936 126a2 2 0 1 0-.001-4.001A2 2 0 0 0 936 126zM936 114a2 2 0 1 0-.001-4.001A2 2 0 0 0 936 114zM948 186a2 2 0 1 0-.001-4.001A2 2 0 0 0 948 186zM948 174a2 2 0 1 0-.001-4.001A2 2 0 0 0 948 174zM948 162a2 2 0 1 0-.001-4.001A2 2 0 0 0 948 162zM948 150a2 2 0 1 0-.001-4.001A2 2 0 0 0 948 150zM948 138a2 2 0 1 0-.001-4.001A2 2 0 0 0 948 138zM948 126a2 2 0 1 0-.001-4.001A2 2 0 0 0 948 126zM948 114a2 2 0 1 0-.001-4.001A2 2 0 0 0 948 114zM960 186a2 2 0 1 0-.001-4.001A2 2 0 0 0 960 186zM960 174a2 2 0 1 0-.001-4.001A2 2 0 0 0 960 174zM960 162a2 2 0 1 0-.001-4.001A2 2 0 0 0 960 162zM960 150a2 2 0 1 0-.001-4.001A2 2 0 0 0 960 150zM960 138a2 2 0 1 0-.001-4.001A2 2 0 0 0 960 138zM960 126a2 2 0 1 0-.001-4.001A2 2 0 0 0 960 126zM960 114a2 2 0 1 0-.001-4.001A2 2 0 0 0 960 114zM972 186a2 2 0 1 0-.001-4.001A2 2 0 0 0 972 186zM972 174a2 2 0 1 0-.001-4.001A2 2 0 0 0 972 174zM972 162a2 2 0 1 0-.001-4.001A2 2 0 0 0 972 162zM972 150a2 2 0 1 0-.001-4.001A2 2 0 0 0 972 150zM972 138a2 2 0 1 0-.001-4.001A2 2 0 0 0 972 138zM972 126a2 2 0 1 0-.001-4.001A2 2 0 0 0 972 126zM972 114a2 2 0 1 0-.001-4.001A2 2 0 0 0 972 114zM984 186a2 2 0 1 0-.001-4.001A2 2 0 0 0 984 186zM996 186a2 2 0 1 0-.001-4.001A2 2 0 0 0 996 186zM996 174a2 2 0 1 0-.001-4.001A2 2 0 0 0 996 174zM996 162a2 2 0 1 0-.001-4.001A2 2 0 0 0 996 162zM996 150a2 2 0 1 0-.001-4.001A2 2 0 0 0 996 150zM996 138a2 2 0 1 0-.001-4.001A2 2 0 0 0 996 138zM996 126a2 2 0 1 0-.001-4.001A2 2 0 0 0 996 126zM996 114a2 2 0 1 0-.001-4.001A2 2 0 0 0 996 114zM984 174a2 2 0 1 0-.001-4.001A2 2 0 0 0 984 174zM984 162a2 2 0 1 0-.001-4.001A2 2 0 0 0 984 162zM984 150a2 2 0 1 0-.001-4.001A2 2 0 0 0 984 150zM984 138a2 2 0 1 0-.001-4.001A2 2 0 0 0 984 138zM984 126a2 2 0 1 0-.001-4.001A2 2 0 0 0 984 126zM984 114a2 2 0 1 0-.001-4.001A2 2 0 0 0 984 114zM1020 186a2 2 0 1 0-.001-4.001A2 2 0 0 0 1020 186zM1032 186a2 2 0 1 0-.001-4.001A2 2 0 0 0 1032 186zM1044 186a2 2 0 1 0-.001-4.001A2 2 0 0 0 1044 186zM1056 186a2 2 0 1 0-.001-4.001A2 2 0 0 0 1056 186zM1068 186a2 2 0 1 0-.001-4.001A2 2 0 0 0 1068 186zM1020 174a2 2 0 1 0-.001-4.001A2 2 0 0 0 1020 174zM1032 174a2 2 0 1 0-.001-4.001A2 2 0 0 0 1032 174zM1044 174a2 2 0 1 0-.001-4.001A2 2 0 0 0 1044 174zM1056 174a2 2 0 1 0-.001-4.001A2 2 0 0 0 1056 174zM1068 174a2 2 0 1 0-.001-4.001A2 2 0 0 0 1068 174zM1020 162a2 2 0 1 0-.001-4.001A2 2 0 0 0 1020 162zM1032 162a2 2 0 1 0-.001-4.001A2 2 0 0 0 1032 162zM1044 162a2 2 0 1 0-.001-4.001A2 2 0 0 0 1044 162zM1056 162a2 2 0 1 0-.001-4.001A2 2 0 0 0 1056 162zM1068 162a2 2 0 1 0-.001-4.001A2 2 0 0 0 1068 162zM1008 186a2 2 0 1 0-.001-4.001A2 2 0 0 0 1008 186zM1008 174a2 2 0 1 0-.001-4.001A2 2 0 0 0 1008 174zM1008 162a2 2 0 1 0-.001-4.001A2 2 0 0 0 1008 162zM1020 150a2 2 0 1 0-.001-4.001A2 2 0 0 0 1020 150zM1032 150a2 2 0 1 0-.001-4.001A2 2 0 0 0 1032 150zM1044 150a2 2 0 1 0-.001-4.001A2 2 0 0 0 1044 150zM1056 150a2 2 0 1 0-.001-4.001A2 2 0 0 0 1056 150zM1068 150a2 2 0 1 0-.001-4.001A2 2 0 0 0 1068 150zM1008 150a2 2 0 1 0-.001-4.001A2 2 0 0 0 1008 150zM1020 138a2 2 0 1 0-.001-4.001A2 2 0 0 0 1020 138zM1032 138a2 2 0 1 0-.001-4.001A2 2 0 0 0 1032 138zM1044 138a2 2 0 1 0-.001-4.001A2 2 0 0 0 1044 138zM1056 138a2 2 0 1 0-.001-4.001A2 2 0 0 0 1056 138zM1068 138a2 2 0 1 0-.001-4.001A2 2 0 0 0 1068 138zM1008 138a2 2 0 1 0-.001-4.001A2 2 0 0 0 1008 138zM1020 126a2 2 0 1 0-.001-4.001A2 2 0 0 0 1020 126zM1032 126a2 2 0 1 0-.001-4.001A2 2 0 0 0 1032 126zM1044 126a2 2 0 1 0-.001-4.001A2 2 0 0 0 1044 126zM1056 126a2 2 0 1 0-.001-4.001A2 2 0 0 0 1056 126zM1068 126a2 2 0 1 0-.001-4.001A2 2 0 0 0 1068 126zM1008 126a2 2 0 1 0-.001-4.001A2 2 0 0 0 1008 126zM1020 114a2 2 0 1 0-.001-4.001A2 2 0 0 0 1020 114zM1032 114a2 2 0 1 0-.001-4.001A2 2 0 0 0 1032 114zM1044 114a2 2 0 1 0-.001-4.001A2 2 0 0 0 1044 114zM1056 114a2 2 0 1 0-.001-4.001A2 2 0 0 0 1056 114zM1068 114a2 2 0 1 0-.001-4.001A2 2 0 0 0 1068 114zM1008 114a2 2 0 1 0-.001-4.001A2 2 0 0 0 1008 114zM1080 186a2 2 0 1 0-.001-4.001A2 2 0 0 0 1080 186zM1080 174a2 2 0 1 0-.001-4.001A2 2 0 0 0 1080 174zM1080 162a2 2 0 1 0-.001-4.001A2 2 0 0 0 1080 162zM1080 150a2 2 0 1 0-.001-4.001A2 2 0 0 0 1080 150zM1080 138a2 2 0 1 0-.001-4.001A2 2 0 0 0 1080 138zM1080 126a2 2 0 1 0-.001-4.001A2 2 0 0 0 1080 126zM1080 114a2 2 0 1 0-.001-4.001A2 2 0 0 0 1080 114zM852 354a2 2 0 1 0-.001-4.001A2 2 0 0 0 852 354zM864 354a2 2 0 1 0-.001-4.001A2 2 0 0 0 864 354zM876 354a2 2 0 1 0-.001-4.001A2 2 0 0 0 876 354zM888 354a2 2 0 1 0-.001-4.001A2 2 0 0 0 888 354zM900 354a2 2 0 1 0-.001-4.001A2 2 0 0 0 900 354zM852 342a2 2 0 1 0-.001-4.001A2 2 0 0 0 852 342zM864 342a2 2 0 1 0-.001-4.001A2 2 0 0 0 864 342zM876 342a2 2 0 1 0-.001-4.001A2 2 0 0 0 876 342zM888 342a2 2 0 1 0-.001-4.001A2 2 0 0 0 888 342zM900 342a2 2 0 1 0-.001-4.001A2 2 0 0 0 900 342zM852 330a2 2 0 1 0-.001-4.001A2 2 0 0 0 852 330zM864 330a2 2 0 1 0-.001-4.001A2 2 0 0 0 864 330zM876 330a2 2 0 1 0-.001-4.001A2 2 0 0 0 876 330zM888 330a2 2 0 1 0-.001-4.001A2 2 0 0 0 888 330zM900 330a2 2 0 1 0-.001-4.001A2 2 0 0 0 900 330zM840 354a2 2 0 1 0-.001-4.001A2 2 0 0 0 840 354zM840 342a2 2 0 1 0-.001-4.001A2 2 0 0 0 840 342zM840 330a2 2 0 1 0-.001-4.001A2 2 0 0 0 840 330zM852 318a2 2 0 1 0-.001-4.001A2 2 0 0 0 852 318zM864 318a2 2 0 1 0-.001-4.001A2 2 0 0 0 864 318zM876 318a2 2 0 1 0-.001-4.001A2 2 0 0 0 876 318zM888 318a2 2 0 1 0-.001-4.001A2 2 0 0 0 888 318zM900 318a2 2 0 1 0-.001-4.001A2 2 0 0 0 900 318zM840 318a2 2 0 1 0-.001-4.001A2 2 0 0 0 840 318zM852 306a2 2 0 1 0-.001-4.001A2 2 0 0 0 852 306zM864 306a2 2 0 1 0-.001-4.001A2 2 0 0 0 864 306zM876 306a2 2 0 1 0-.001-4.001A2 2 0 0 0 876 306zM888 306a2 2 0 1 0-.001-4.001A2 2 0 0 0 888 306zM900 306a2 2 0 1 0-.001-4.001A2 2 0 0 0 900 306zM840 306a2 2 0 1 0-.001-4.001A2 2 0 0 0 840 306zM852 294a2 2 0 1 0-.001-4.001A2 2 0 0 0 852 294zM864 294a2 2 0 1 0-.001-4.001A2 2 0 0 0 864 294zM876 294a2 2 0 1 0-.001-4.001A2 2 0 0 0 876 294zM888 294a2 2 0 1 0-.001-4.001A2 2 0 0 0 888 294zM900 294a2 2 0 1 0-.001-4.001A2 2 0 0 0 900 294zM840 294a2 2 0 1 0-.001-4.001A2 2 0 0 0 840 294zM852 282a2 2 0 1 0-.001-4.001A2 2 0 0 0 852 282zM864 282a2 2 0 1 0-.001-4.001A2 2 0 0 0 864 282zM876 282a2 2 0 1 0-.001-4.001A2 2 0 0 0 876 282zM888 282a2 2 0 1 0-.001-4.001A2 2 0 0 0 888 282zM900 282a2 2 0 1 0-.001-4.001A2 2 0 0 0 900 282zM840 282a2 2 0 1 0-.001-4.001A2 2 0 0 0 840 282zM852 270a2 2 0 1 0-.001-4.001A2 2 0 0 0 852 270zM864 270a2 2 0 1 0-.001-4.001A2 2 0 0 0 864 270zM876 270a2 2 0 1 0-.001-4.001A2 2 0 0 0 876 270zM888 270a2 2 0 1 0-.001-4.001A2 2 0 0 0 888 270zM900 270a2 2 0 1 0-.001-4.001A2 2 0 0 0 900 270zM840 270a2 2 0 1 0-.001-4.001A2 2 0 0 0 840 270zM852 258a2 2 0 1 0-.001-4.001A2 2 0 0 0 852 258zM864 258a2 2 0 1 0-.001-4.001A2 2 0 0 0 864 258zM876 258a2 2 0 1 0-.001-4.001A2 2 0 0 0 876 258zM888 258a2 2 0 1 0-.001-4.001A2 2 0 0 0 888 258zM900 258a2 2 0 1 0-.001-4.001A2 2 0 0 0 900 258zM840 258a2 2 0 1 0-.001-4.001A2 2 0 0 0 840 258zM852 246a2 2 0 1 0-.001-4.001A2 2 0 0 0 852 246zM864 246a2 2 0 1 0-.001-4.001A2 2 0 0 0 864 246zM876 246a2 2 0 1 0-.001-4.001A2 2 0 0 0 876 246zM888 246a2 2 0 1 0-.001-4.001A2 2 0 0 0 888 246zM900 246a2 2 0 1 0-.001-4.001A2 2 0 0 0 900 246zM840 246a2 2 0 1 0-.001-4.001A2 2 0 0 0 840 246zM852 234a2 2 0 1 0-.001-4.001A2 2 0 0 0 852 234zM864 234a2 2 0 1 0-.001-4.001A2 2 0 0 0 864 234zM876 234a2 2 0 1 0-.001-4.001A2 2 0 0 0 876 234zM888 234a2 2 0 1 0-.001-4.001A2 2 0 0 0 888 234zM900 234a2 2 0 1 0-.001-4.001A2 2 0 0 0 900 234zM840 234a2 2 0 1 0-.001-4.001A2 2 0 0 0 840 234zM852 222a2 2 0 1 0-.001-4.001A2 2 0 0 0 852 222zM864 222a2 2 0 1 0-.001-4.001A2 2 0 0 0 864 222zM876 222a2 2 0 1 0-.001-4.001A2 2 0 0 0 876 222zM888 222a2 2 0 1 0-.001-4.001A2 2 0 0 0 888 222zM900 222a2 2 0 1 0-.001-4.001A2 2 0 0 0 900 222zM840 222a2 2 0 1 0-.001-4.001A2 2 0 0 0 840 222zM852 210a2 2 0 1 0-.001-4.001A2 2 0 0 0 852 210zM864 210a2 2 0 1 0-.001-4.001A2 2 0 0 0 864 210zM876 210a2 2 0 1 0-.001-4.001A2 2 0 0 0 876 210zM888 210a2 2 0 1 0-.001-4.001A2 2 0 0 0 888 210zM900 210a2 2 0 1 0-.001-4.001A2 2 0 0 0 900 210zM840 210a2 2 0 1 0-.001-4.001A2 2 0 0 0 840 210zM912 354a2 2 0 1 0-.001-4.001A2 2 0 0 0 912 354zM912 342a2 2 0 1 0-.001-4.001A2 2 0 0 0 912 342zM912 330a2 2 0 1 0-.001-4.001A2 2 0 0 0 912 330zM912 318a2 2 0 1 0-.001-4.001A2 2 0 0 0 912 318zM912 306a2 2 0 1 0-.001-4.001A2 2 0 0 0 912 306zM912 294a2 2 0 1 0-.001-4.001A2 2 0 0 0 912 294zM912 282a2 2 0 1 0-.001-4.001A2 2 0 0 0 912 282zM912 270a2 2 0 1 0-.001-4.001A2 2 0 0 0 912 270zM912 258a2 2 0 1 0-.001-4.001A2 2 0 0 0 912 258zM912 246a2 2 0 1 0-.001-4.001A2 2 0 0 0 912 246zM912 234a2 2 0 1 0-.001-4.001A2 2 0 0 0 912 234zM912 222a2 2 0 1 0-.001-4.001A2 2 0 0 0 912 222zM912 210a2 2 0 1 0-.001-4.001A2 2 0 0 0 912 210zM924 354a2 2 0 1 0-.001-4.001A2 2 0 0 0 924 354zM924 342a2 2 0 1 0-.001-4.001A2 2 0 0 0 924 342zM924 330a2 2 0 1 0-.001-4.001A2 2 0 0 0 924 330zM924 318a2 2 0 1 0-.001-4.001A2 2 0 0 0 924 318zM924 306a2 2 0 1 0-.001-4.001A2 2 0 0 0 924 306zM924 294a2 2 0 1 0-.001-4.001A2 2 0 0 0 924 294zM924 282a2 2 0 1 0-.001-4.001A2 2 0 0 0 924 282zM924 270a2 2 0 1 0-.001-4.001A2 2 0 0 0 924 270zM924 258a2 2 0 1 0-.001-4.001A2 2 0 0 0 924 258zM924 246a2 2 0 1 0-.001-4.001A2 2 0 0 0 924 246zM924 234a2 2 0 1 0-.001-4.001A2 2 0 0 0 924 234zM924 222a2 2 0 1 0-.001-4.001A2 2 0 0 0 924 222zM924 210a2 2 0 1 0-.001-4.001A2 2 0 0 0 924 210zM936 354a2 2 0 1 0-.001-4.001A2 2 0 0 0 936 354zM936 342a2 2 0 1 0-.001-4.001A2 2 0 0 0 936 342zM936 330a2 2 0 1 0-.001-4.001A2 2 0 0 0 936 330zM936 318a2 2 0 1 0-.001-4.001A2 2 0 0 0 936 318zM936 306a2 2 0 1 0-.001-4.001A2 2 0 0 0 936 306zM936 294a2 2 0 1 0-.001-4.001A2 2 0 0 0 936 294zM936 282a2 2 0 1 0-.001-4.001A2 2 0 0 0 936 282zM936 270a2 2 0 1 0-.001-4.001A2 2 0 0 0 936 270zM936 258a2 2 0 1 0-.001-4.001A2 2 0 0 0 936 258zM936 246a2 2 0 1 0-.001-4.001A2 2 0 0 0 936 246zM936 234a2 2 0 1 0-.001-4.001A2 2 0 0 0 936 234zM936 222a2 2 0 1 0-.001-4.001A2 2 0 0 0 936 222zM936 210a2 2 0 1 0-.001-4.001A2 2 0 0 0 936 210zM948 354a2 2 0 1 0-.001-4.001A2 2 0 0 0 948 354zM948 342a2 2 0 1 0-.001-4.001A2 2 0 0 0 948 342zM948 330a2 2 0 1 0-.001-4.001A2 2 0 0 0 948 330zM948 318a2 2 0 1 0-.001-4.001A2 2 0 0 0 948 318zM948 306a2 2 0 1 0-.001-4.001A2 2 0 0 0 948 306zM948 294a2 2 0 1 0-.001-4.001A2 2 0 0 0 948 294zM948 282a2 2 0 1 0-.001-4.001A2 2 0 0 0 948 282zM948 270a2 2 0 1 0-.001-4.001A2 2 0 0 0 948 270zM948 258a2 2 0 1 0-.001-4.001A2 2 0 0 0 948 258zM948 246a2 2 0 1 0-.001-4.001A2 2 0 0 0 948 246zM948 234a2 2 0 1 0-.001-4.001A2 2 0 0 0 948 234zM948 222a2 2 0 1 0-.001-4.001A2 2 0 0 0 948 222zM948 210a2 2 0 1 0-.001-4.001A2 2 0 0 0 948 210zM960 354a2 2 0 1 0-.001-4.001A2 2 0 0 0 960 354zM960 342a2 2 0 1 0-.001-4.001A2 2 0 0 0 960 342zM960 330a2 2 0 1 0-.001-4.001A2 2 0 0 0 960 330zM960 318a2 2 0 1 0-.001-4.001A2 2 0 0 0 960 318zM960 306a2 2 0 1 0-.001-4.001A2 2 0 0 0 960 306zM960 294a2 2 0 1 0-.001-4.001A2 2 0 0 0 960 294zM960 282a2 2 0 1 0-.001-4.001A2 2 0 0 0 960 282zM960 270a2 2 0 1 0-.001-4.001A2 2 0 0 0 960 270zM960 258a2 2 0 1 0-.001-4.001A2 2 0 0 0 960 258zM960 246a2 2 0 1 0-.001-4.001A2 2 0 0 0 960 246zM960 234a2 2 0 1 0-.001-4.001A2 2 0 0 0 960 234zM960 222a2 2 0 1 0-.001-4.001A2 2 0 0 0 960 222zM960 210a2 2 0 1 0-.001-4.001A2 2 0 0 0 960 210zM972 354a2 2 0 1 0-.001-4.001A2 2 0 0 0 972 354zM972 342a2 2 0 1 0-.001-4.001A2 2 0 0 0 972 342zM972 330a2 2 0 1 0-.001-4.001A2 2 0 0 0 972 330zM972 318a2 2 0 1 0-.001-4.001A2 2 0 0 0 972 318zM972 306a2 2 0 1 0-.001-4.001A2 2 0 0 0 972 306zM972 294a2 2 0 1 0-.001-4.001A2 2 0 0 0 972 294zM972 282a2 2 0 1 0-.001-4.001A2 2 0 0 0 972 282zM972 270a2 2 0 1 0-.001-4.001A2 2 0 0 0 972 270zM972 258a2 2 0 1 0-.001-4.001A2 2 0 0 0 972 258zM972 246a2 2 0 1 0-.001-4.001A2 2 0 0 0 972 246zM972 234a2 2 0 1 0-.001-4.001A2 2 0 0 0 972 234zM972 222a2 2 0 1 0-.001-4.001A2 2 0 0 0 972 222zM972 210a2 2 0 1 0-.001-4.001A2 2 0 0 0 972 210zM984 354a2 2 0 1 0-.001-4.001A2 2 0 0 0 984 354zM996 354a2 2 0 1 0-.001-4.001A2 2 0 0 0 996 354zM996 342a2 2 0 1 0-.001-4.001A2 2 0 0 0 996 342zM996 330a2 2 0 1 0-.001-4.001A2 2 0 0 0 996 330zM996 318a2 2 0 1 0-.001-4.001A2 2 0 0 0 996 318zM996 306a2 2 0 1 0-.001-4.001A2 2 0 0 0 996 306zM996 294a2 2 0 1 0-.001-4.001A2 2 0 0 0 996 294zM996 282a2 2 0 1 0-.001-4.001A2 2 0 0 0 996 282zM996 270a2 2 0 1 0-.001-4.001A2 2 0 0 0 996 270zM996 258a2 2 0 1 0-.001-4.001A2 2 0 0 0 996 258zM996 246a2 2 0 1 0-.001-4.001A2 2 0 0 0 996 246zM996 234a2 2 0 1 0-.001-4.001A2 2 0 0 0 996 234zM996 222a2 2 0 1 0-.001-4.001A2 2 0 0 0 996 222zM996 210a2 2 0 1 0-.001-4.001A2 2 0 0 0 996 210zM984 342a2 2 0 1 0-.001-4.001A2 2 0 0 0 984 342zM984 330a2 2 0 1 0-.001-4.001A2 2 0 0 0 984 330zM984 318a2 2 0 1 0-.001-4.001A2 2 0 0 0 984 318zM984 306a2 2 0 1 0-.001-4.001A2 2 0 0 0 984 306zM984 294a2 2 0 1 0-.001-4.001A2 2 0 0 0 984 294zM984 282a2 2 0 1 0-.001-4.001A2 2 0 0 0 984 282zM984 270a2 2 0 1 0-.001-4.001A2 2 0 0 0 984 270zM984 258a2 2 0 1 0-.001-4.001A2 2 0 0 0 984 258zM984 246a2 2 0 1 0-.001-4.001A2 2 0 0 0 984 246zM984 234a2 2 0 1 0-.001-4.001A2 2 0 0 0 984 234zM984 222a2 2 0 1 0-.001-4.001A2 2 0 0 0 984 222zM984 210a2 2 0 1 0-.001-4.001A2 2 0 0 0 984 210zM852 198a2 2 0 1 0-.001-4.001A2 2 0 0 0 852 198zM864 198a2 2 0 1 0-.001-4.001A2 2 0 0 0 864 198zM876 198a2 2 0 1 0-.001-4.001A2 2 0 0 0 876 198zM888 198a2 2 0 1 0-.001-4.001A2 2 0 0 0 888 198zM900 198a2 2 0 1 0-.001-4.001A2 2 0 0 0 900 198zM840 198a2 2 0 1 0-.001-4.001A2 2 0 0 0 840 198zM912 198a2 2 0 1 0-.001-4.001A2 2 0 0 0 912 198zM924 198a2 2 0 1 0-.001-4.001A2 2 0 0 0 924 198zM936 198a2 2 0 1 0-.001-4.001A2 2 0 0 0 936 198zM948 198a2 2 0 1 0-.001-4.001A2 2 0 0 0 948 198zM960 198a2 2 0 1 0-.001-4.001A2 2 0 0 0 960 198zM972 198a2 2 0 1 0-.001-4.001A2 2 0 0 0 972 198zM996 198a2 2 0 1 0-.001-4.001A2 2 0 0 0 996 198zM984 198a2 2 0 1 0-.001-4.001A2 2 0 0 0 984 198zM1020 354a2 2 0 1 0-.001-4.001A2 2 0 0 0 1020 354zM1032 354a2 2 0 1 0-.001-4.001A2 2 0 0 0 1032 354zM1044 354a2 2 0 1 0-.001-4.001A2 2 0 0 0 1044 354zM1056 354a2 2 0 1 0-.001-4.001A2 2 0 0 0 1056 354zM1068 354a2 2 0 1 0-.001-4.001A2 2 0 0 0 1068 354zM1020 342a2 2 0 1 0-.001-4.001A2 2 0 0 0 1020 342zM1032 342a2 2 0 1 0-.001-4.001A2 2 0 0 0 1032 342zM1044 342a2 2 0 1 0-.001-4.001A2 2 0 0 0 1044 342zM1056 342a2 2 0 1 0-.001-4.001A2 2 0 0 0 1056 342zM1068 342a2 2 0 1 0-.001-4.001A2 2 0 0 0 1068 342zM1020 330a2 2 0 1 0-.001-4.001A2 2 0 0 0 1020 330zM1032 330a2 2 0 1 0-.001-4.001A2 2 0 0 0 1032 330zM1044 330a2 2 0 1 0-.001-4.001A2 2 0 0 0 1044 330zM1056 330a2 2 0 1 0-.001-4.001A2 2 0 0 0 1056 330zM1068 330a2 2 0 1 0-.001-4.001A2 2 0 0 0 1068 330zM1008 354a2 2 0 1 0-.001-4.001A2 2 0 0 0 1008 354zM1008 342a2 2 0 1 0-.001-4.001A2 2 0 0 0 1008 342zM1008 330a2 2 0 1 0-.001-4.001A2 2 0 0 0 1008 330zM1020 318a2 2 0 1 0-.001-4.001A2 2 0 0 0 1020 318zM1032 318a2 2 0 1 0-.001-4.001A2 2 0 0 0 1032 318zM1044 318a2 2 0 1 0-.001-4.001A2 2 0 0 0 1044 318zM1056 318a2 2 0 1 0-.001-4.001A2 2 0 0 0 1056 318zM1068 318a2 2 0 1 0-.001-4.001A2 2 0 0 0 1068 318zM1008 318a2 2 0 1 0-.001-4.001A2 2 0 0 0 1008 318zM1020 306a2 2 0 1 0-.001-4.001A2 2 0 0 0 1020 306zM1032 306a2 2 0 1 0-.001-4.001A2 2 0 0 0 1032 306zM1044 306a2 2 0 1 0-.001-4.001A2 2 0 0 0 1044 306zM1056 306a2 2 0 1 0-.001-4.001A2 2 0 0 0 1056 306zM1068 306a2 2 0 1 0-.001-4.001A2 2 0 0 0 1068 306zM1008 306a2 2 0 1 0-.001-4.001A2 2 0 0 0 1008 306zM1020 294a2 2 0 1 0-.001-4.001A2 2 0 0 0 1020 294zM1032 294a2 2 0 1 0-.001-4.001A2 2 0 0 0 1032 294zM1044 294a2 2 0 1 0-.001-4.001A2 2 0 0 0 1044 294zM1056 294a2 2 0 1 0-.001-4.001A2 2 0 0 0 1056 294zM1068 294a2 2 0 1 0-.001-4.001A2 2 0 0 0 1068 294zM1008 294a2 2 0 1 0-.001-4.001A2 2 0 0 0 1008 294zM1020 282a2 2 0 1 0-.001-4.001A2 2 0 0 0 1020 282zM1032 282a2 2 0 1 0-.001-4.001A2 2 0 0 0 1032 282zM1044 282a2 2 0 1 0-.001-4.001A2 2 0 0 0 1044 282zM1056 282a2 2 0 1 0-.001-4.001A2 2 0 0 0 1056 282zM1068 282a2 2 0 1 0-.001-4.001A2 2 0 0 0 1068 282zM1008 282a2 2 0 1 0-.001-4.001A2 2 0 0 0 1008 282zM1020 270a2 2 0 1 0-.001-4.001A2 2 0 0 0 1020 270zM1032 270a2 2 0 1 0-.001-4.001A2 2 0 0 0 1032 270zM1044 270a2 2 0 1 0-.001-4.001A2 2 0 0 0 1044 270zM1056 270a2 2 0 1 0-.001-4.001A2 2 0 0 0 1056 270zM1068 270a2 2 0 1 0-.001-4.001A2 2 0 0 0 1068 270zM1008 270a2 2 0 1 0-.001-4.001A2 2 0 0 0 1008 270zM1020 258a2 2 0 1 0-.001-4.001A2 2 0 0 0 1020 258zM1032 258a2 2 0 1 0-.001-4.001A2 2 0 0 0 1032 258zM1044 258a2 2 0 1 0-.001-4.001A2 2 0 0 0 1044 258zM1056 258a2 2 0 1 0-.001-4.001A2 2 0 0 0 1056 258zM1068 258a2 2 0 1 0-.001-4.001A2 2 0 0 0 1068 258zM1008 258a2 2 0 1 0-.001-4.001A2 2 0 0 0 1008 258zM1020 246a2 2 0 1 0-.001-4.001A2 2 0 0 0 1020 246zM1032 246a2 2 0 1 0-.001-4.001A2 2 0 0 0 1032 246zM1044 246a2 2 0 1 0-.001-4.001A2 2 0 0 0 1044 246zM1056 246a2 2 0 1 0-.001-4.001A2 2 0 0 0 1056 246zM1068 246a2 2 0 1 0-.001-4.001A2 2 0 0 0 1068 246zM1008 246a2 2 0 1 0-.001-4.001A2 2 0 0 0 1008 246zM1020 234a2 2 0 1 0-.001-4.001A2 2 0 0 0 1020 234zM1032 234a2 2 0 1 0-.001-4.001A2 2 0 0 0 1032 234zM1044 234a2 2 0 1 0-.001-4.001A2 2 0 0 0 1044 234zM1056 234a2 2 0 1 0-.001-4.001A2 2 0 0 0 1056 234zM1068 234a2 2 0 1 0-.001-4.001A2 2 0 0 0 1068 234zM1008 234a2 2 0 1 0-.001-4.001A2 2 0 0 0 1008 234zM1020 222a2 2 0 1 0-.001-4.001A2 2 0 0 0 1020 222zM1032 222a2 2 0 1 0-.001-4.001A2 2 0 0 0 1032 222zM1044 222a2 2 0 1 0-.001-4.001A2 2 0 0 0 1044 222zM1056 222a2 2 0 1 0-.001-4.001A2 2 0 0 0 1056 222zM1068 222a2 2 0 1 0-.001-4.001A2 2 0 0 0 1068 222zM1008 222a2 2 0 1 0-.001-4.001A2 2 0 0 0 1008 222zM1020 210a2 2 0 1 0-.001-4.001A2 2 0 0 0 1020 210zM1032 210a2 2 0 1 0-.001-4.001A2 2 0 0 0 1032 210zM1044 210a2 2 0 1 0-.001-4.001A2 2 0 0 0 1044 210zM1056 210a2 2 0 1 0-.001-4.001A2 2 0 0 0 1056 210zM1068 210a2 2 0 1 0-.001-4.001A2 2 0 0 0 1068 210zM1008 210a2 2 0 1 0-.001-4.001A2 2 0 0 0 1008 210zM1080 354a2 2 0 1 0-.001-4.001A2 2 0 0 0 1080 354zM1080 342a2 2 0 1 0-.001-4.001A2 2 0 0 0 1080 342zM1080 330a2 2 0 1 0-.001-4.001A2 2 0 0 0 1080 330zM1080 318a2 2 0 1 0-.001-4.001A2 2 0 0 0 1080 318zM1080 306a2 2 0 1 0-.001-4.001A2 2 0 0 0 1080 306zM1080 294a2 2 0 1 0-.001-4.001A2 2 0 0 0 1080 294zM1080 282a2 2 0 1 0-.001-4.001A2 2 0 0 0 1080 282zM1080 270a2 2 0 1 0-.001-4.001A2 2 0 0 0 1080 270zM1080 258a2 2 0 1 0-.001-4.001A2 2 0 0 0 1080 258zM1080 246a2 2 0 1 0-.001-4.001A2 2 0 0 0 1080 246zM1080 234a2 2 0 1 0-.001-4.001A2 2 0 0 0 1080 234zM1080 222a2 2 0 1 0-.001-4.001A2 2 0 0 0 1080 222zM1080 210a2 2 0 1 0-.001-4.001A2 2 0 0 0 1080 210zM1020 198a2 2 0 1 0-.001-4.001A2 2 0 0 0 1020 198zM1032 198a2 2 0 1 0-.001-4.001A2 2 0 0 0 1032 198zM1044 198a2 2 0 1 0-.001-4.001A2 2 0 0 0 1044 198zM1056 198a2 2 0 1 0-.001-4.001A2 2 0 0 0 1056 198zM1068 198a2 2 0 1 0-.001-4.001A2 2 0 0 0 1068 198zM1008 198a2 2 0 1 0-.001-4.001A2 2 0 0 0 1008 198zM1080 198a2 2 0 1 0-.001-4.001A2 2 0 0 0 1080 198z"></path>
      <path fill="#22272e" d="M806.5 385.5h255v-255h-255v255z"></path>
      <path stroke="#79B8FF" d="M806.5 385.5h255v-255h-255v255z" fill="none"></path>
      <path fill="#005CC5" d="M878 325h37.065v36H878v-36zM939.7760000000001 325H1038v36h-98.224v-36z"></path>
      <path fill="#044288" d="M790 227h91v24h-91v-24zM905 227h30v24h-30v-24zM476 272a2 2 0 1 1-.001 4.001A2 2 0 0 1 476 272zM488 272a2 2 0 1 1-.001 4.001A2 2 0 0 1 488 272zM500 272a2 2 0 1 1-.001 4.001A2 2 0 0 1 500 272zM512 272a2 2 0 1 1-.001 4.001A2 2 0 0 1 512 272zM524 272a2 2 0 1 1-.001 4.001A2 2 0 0 1 524 272zM476 284a2 2 0 1 1-.001 4.001A2 2 0 0 1 476 284zM488 284a2 2 0 1 1-.001 4.001A2 2 0 0 1 488 284zM500 284a2 2 0 1 1-.001 4.001A2 2 0 0 1 500 284zM512 284a2 2 0 1 1-.001 4.001A2 2 0 0 1 512 284zM524 284a2 2 0 1 1-.001 4.001A2 2 0 0 1 524 284zM476 296a2 2 0 1 1-.001 4.001A2 2 0 0 1 476 296zM488 296a2 2 0 1 1-.001 4.001A2 2 0 0 1 488 296zM500 296a2 2 0 1 1-.001 4.001A2 2 0 0 1 500 296zM512 296a2 2 0 1 1-.001 4.001A2 2 0 0 1 512 296zM524 296a2 2 0 1 1-.001 4.001A2 2 0 0 1 524 296zM464 272a2 2 0 1 1-.001 4.001A2 2 0 0 1 464 272zM464 284a2 2 0 1 1-.001 4.001A2 2 0 0 1 464 284zM464 296a2 2 0 1 1-.001 4.001A2 2 0 0 1 464 296zM476 308a2 2 0 1 1-.001 4.001A2 2 0 0 1 476 308zM488 308a2 2 0 1 1-.001 4.001A2 2 0 0 1 488 308zM500 308a2 2 0 1 1-.001 4.001A2 2 0 0 1 500 308zM512 308a2 2 0 1 1-.001 4.001A2 2 0 0 1 512 308zM524 308a2 2 0 1 1-.001 4.001A2 2 0 0 1 524 308zM464 308a2 2 0 1 1-.001 4.001A2 2 0 0 1 464 308zM476 320a2 2 0 1 1-.001 4.001A2 2 0 0 1 476 320zM488 320a2 2 0 1 1-.001 4.001A2 2 0 0 1 488 320zM500 320a2 2 0 1 1-.001 4.001A2 2 0 0 1 500 320zM512 320a2 2 0 1 1-.001 4.001A2 2 0 0 1 512 320zM524 320a2 2 0 1 1-.001 4.001A2 2 0 0 1 524 320zM464 320a2 2 0 1 1-.001 4.001A2 2 0 0 1 464 320zM476 332a2 2 0 1 1-.001 4.001A2 2 0 0 1 476 332zM488 332a2 2 0 1 1-.001 4.001A2 2 0 0 1 488 332zM500 332a2 2 0 1 1-.001 4.001A2 2 0 0 1 500 332zM512 332a2 2 0 1 1-.001 4.001A2 2 0 0 1 512 332zM524 332a2 2 0 1 1-.001 4.001A2 2 0 0 1 524 332zM464 332a2 2 0 1 1-.001 4.001A2 2 0 0 1 464 332zM476 344a2 2 0 1 1-.001 4.001A2 2 0 0 1 476 344zM488 344a2 2 0 1 1-.001 4.001A2 2 0 0 1 488 344zM500 344a2 2 0 1 1-.001 4.001A2 2 0 0 1 500 344zM512 344a2 2 0 1 1-.001 4.001A2 2 0 0 1 512 344zM524 344a2 2 0 1 1-.001 4.001A2 2 0 0 1 524 344zM464 344a2 2 0 1 1-.001 4.001A2 2 0 0 1 464 344zM536 272a2 2 0 1 1-.001 4.001A2 2 0 0 1 536 272zM536 284a2 2 0 1 1-.001 4.001A2 2 0 0 1 536 284zM536 296a2 2 0 1 1-.001 4.001A2 2 0 0 1 536 296zM536 308a2 2 0 1 1-.001 4.001A2 2 0 0 1 536 308zM536 320a2 2 0 1 1-.001 4.001A2 2 0 0 1 536 320zM536 332a2 2 0 1 1-.001 4.001A2 2 0 0 1 536 332zM536 344a2 2 0 1 1-.001 4.001A2 2 0 0 1 536 344zM548 272a2 2 0 1 1-.001 4.001A2 2 0 0 1 548 272zM548 284a2 2 0 1 1-.001 4.001A2 2 0 0 1 548 284zM548 296a2 2 0 1 1-.001 4.001A2 2 0 0 1 548 296zM548 308a2 2 0 1 1-.001 4.001A2 2 0 0 1 548 308zM548 320a2 2 0 1 1-.001 4.001A2 2 0 0 1 548 320zM548 332a2 2 0 1 1-.001 4.001A2 2 0 0 1 548 332zM548 344a2 2 0 1 1-.001 4.001A2 2 0 0 1 548 344zM560 272a2 2 0 1 1-.001 4.001A2 2 0 0 1 560 272zM560 284a2 2 0 1 1-.001 4.001A2 2 0 0 1 560 284zM560 296a2 2 0 1 1-.001 4.001A2 2 0 0 1 560 296zM560 308a2 2 0 1 1-.001 4.001A2 2 0 0 1 560 308zM560 320a2 2 0 1 1-.001 4.001A2 2 0 0 1 560 320zM560 332a2 2 0 1 1-.001 4.001A2 2 0 0 1 560 332zM560 344a2 2 0 1 1-.001 4.001A2 2 0 0 1 560 344zM572 272a2 2 0 1 1-.001 4.001A2 2 0 0 1 572 272zM572 284a2 2 0 1 1-.001 4.001A2 2 0 0 1 572 284zM572 296a2 2 0 1 1-.001 4.001A2 2 0 0 1 572 296zM572 308a2 2 0 1 1-.001 4.001A2 2 0 0 1 572 308zM572 320a2 2 0 1 1-.001 4.001A2 2 0 0 1 572 320zM572 332a2 2 0 1 1-.001 4.001A2 2 0 0 1 572 332zM572 344a2 2 0 1 1-.001 4.001A2 2 0 0 1 572 344zM584 272a2 2 0 1 1-.001 4.001A2 2 0 0 1 584 272zM584 284a2 2 0 1 1-.001 4.001A2 2 0 0 1 584 284zM584 296a2 2 0 1 1-.001 4.001A2 2 0 0 1 584 296zM584 308a2 2 0 1 1-.001 4.001A2 2 0 0 1 584 308zM584 320a2 2 0 1 1-.001 4.001A2 2 0 0 1 584 320zM584 332a2 2 0 1 1-.001 4.001A2 2 0 0 1 584 332zM584 344a2 2 0 1 1-.001 4.001A2 2 0 0 1 584 344zM596 272a2 2 0 1 1-.001 4.001A2 2 0 0 1 596 272zM596 284a2 2 0 1 1-.001 4.001A2 2 0 0 1 596 284zM596 296a2 2 0 1 1-.001 4.001A2 2 0 0 1 596 296zM596 308a2 2 0 1 1-.001 4.001A2 2 0 0 1 596 308zM596 320a2 2 0 1 1-.001 4.001A2 2 0 0 1 596 320zM596 332a2 2 0 1 1-.001 4.001A2 2 0 0 1 596 332zM596 344a2 2 0 1 1-.001 4.001A2 2 0 0 1 596 344zM608 272a2 2 0 1 1-.001 4.001A2 2 0 0 1 608 272zM620 272a2 2 0 1 1-.001 4.001A2 2 0 0 1 620 272zM620 284a2 2 0 1 1-.001 4.001A2 2 0 0 1 620 284zM620 296a2 2 0 1 1-.001 4.001A2 2 0 0 1 620 296zM620 308a2 2 0 1 1-.001 4.001A2 2 0 0 1 620 308zM620 320a2 2 0 1 1-.001 4.001A2 2 0 0 1 620 320zM620 332a2 2 0 1 1-.001 4.001A2 2 0 0 1 620 332zM620 344a2 2 0 1 1-.001 4.001A2 2 0 0 1 620 344zM608 284a2 2 0 1 1-.001 4.001A2 2 0 0 1 608 284zM608 296a2 2 0 1 1-.001 4.001A2 2 0 0 1 608 296zM608 308a2 2 0 1 1-.001 4.001A2 2 0 0 1 608 308zM608 320a2 2 0 1 1-.001 4.001A2 2 0 0 1 608 320zM608 332a2 2 0 1 1-.001 4.001A2 2 0 0 1 608 332zM608 344a2 2 0 1 1-.001 4.001A2 2 0 0 1 608 344zM644 272a2 2 0 1 1-.001 4.001A2 2 0 0 1 644 272zM656 272a2 2 0 1 1-.001 4.001A2 2 0 0 1 656 272zM668 272a2 2 0 1 1-.001 4.001A2 2 0 0 1 668 272zM680 272a2 2 0 1 1-.001 4.001A2 2 0 0 1 680 272zM692 272a2 2 0 1 1-.001 4.001A2 2 0 0 1 692 272zM644 284a2 2 0 1 1-.001 4.001A2 2 0 0 1 644 284zM656 284a2 2 0 1 1-.001 4.001A2 2 0 0 1 656 284zM668 284a2 2 0 1 1-.001 4.001A2 2 0 0 1 668 284zM680 284a2 2 0 1 1-.001 4.001A2 2 0 0 1 680 284zM692 284a2 2 0 1 1-.001 4.001A2 2 0 0 1 692 284zM644 296a2 2 0 1 1-.001 4.001A2 2 0 0 1 644 296zM656 296a2 2 0 1 1-.001 4.001A2 2 0 0 1 656 296zM668 296a2 2 0 1 1-.001 4.001A2 2 0 0 1 668 296zM680 296a2 2 0 1 1-.001 4.001A2 2 0 0 1 680 296zM692 296a2 2 0 1 1-.001 4.001A2 2 0 0 1 692 296zM632 272a2 2 0 1 1-.001 4.001A2 2 0 0 1 632 272zM632 284a2 2 0 1 1-.001 4.001A2 2 0 0 1 632 284zM632 296a2 2 0 1 1-.001 4.001A2 2 0 0 1 632 296zM644 308a2 2 0 1 1-.001 4.001A2 2 0 0 1 644 308zM656 308a2 2 0 1 1-.001 4.001A2 2 0 0 1 656 308zM668 308a2 2 0 1 1-.001 4.001A2 2 0 0 1 668 308zM680 308a2 2 0 1 1-.001 4.001A2 2 0 0 1 680 308zM692 308a2 2 0 1 1-.001 4.001A2 2 0 0 1 692 308zM632 308a2 2 0 1 1-.001 4.001A2 2 0 0 1 632 308zM644 320a2 2 0 1 1-.001 4.001A2 2 0 0 1 644 320zM656 320a2 2 0 1 1-.001 4.001A2 2 0 0 1 656 320zM668 320a2 2 0 1 1-.001 4.001A2 2 0 0 1 668 320zM680 320a2 2 0 1 1-.001 4.001A2 2 0 0 1 680 320zM692 320a2 2 0 1 1-.001 4.001A2 2 0 0 1 692 320zM632 320a2 2 0 1 1-.001 4.001A2 2 0 0 1 632 320zM644 332a2 2 0 1 1-.001 4.001A2 2 0 0 1 644 332zM656 332a2 2 0 1 1-.001 4.001A2 2 0 0 1 656 332zM668 332a2 2 0 1 1-.001 4.001A2 2 0 0 1 668 332zM680 332a2 2 0 1 1-.001 4.001A2 2 0 0 1 680 332zM692 332a2 2 0 1 1-.001 4.001A2 2 0 0 1 692 332zM632 332a2 2 0 1 1-.001 4.001A2 2 0 0 1 632 332zM644 344a2 2 0 1 1-.001 4.001A2 2 0 0 1 644 344zM656 344a2 2 0 1 1-.001 4.001A2 2 0 0 1 656 344zM668 344a2 2 0 1 1-.001 4.001A2 2 0 0 1 668 344zM680 344a2 2 0 1 1-.001 4.001A2 2 0 0 1 680 344zM692 344a2 2 0 1 1-.001 4.001A2 2 0 0 1 692 344zM632 344a2 2 0 1 1-.001 4.001A2 2 0 0 1 632 344zM704 272a2 2 0 1 1-.001 4.001A2 2 0 0 1 704 272zM704 284a2 2 0 1 1-.001 4.001A2 2 0 0 1 704 284zM704 296a2 2 0 1 1-.001 4.001A2 2 0 0 1 704 296zM704 308a2 2 0 1 1-.001 4.001A2 2 0 0 1 704 308zM704 320a2 2 0 1 1-.001 4.001A2 2 0 0 1 704 320zM704 332a2 2 0 1 1-.001 4.001A2 2 0 0 1 704 332zM704 344a2 2 0 1 1-.001 4.001A2 2 0 0 1 704 344zM476 104a2 2 0 1 1-.001 4.001A2 2 0 0 1 476 104zM488 104a2 2 0 1 1-.001 4.001A2 2 0 0 1 488 104zM500 104a2 2 0 1 1-.001 4.001A2 2 0 0 1 500 104zM512 104a2 2 0 1 1-.001 4.001A2 2 0 0 1 512 104zM524 104a2 2 0 1 1-.001 4.001A2 2 0 0 1 524 104zM476 116a2 2 0 1 1-.001 4.001A2 2 0 0 1 476 116zM488 116a2 2 0 1 1-.001 4.001A2 2 0 0 1 488 116zM500 116a2 2 0 1 1-.001 4.001A2 2 0 0 1 500 116zM512 116a2 2 0 1 1-.001 4.001A2 2 0 0 1 512 116zM524 116a2 2 0 1 1-.001 4.001A2 2 0 0 1 524 116zM476 128a2 2 0 1 1-.001 4.001A2 2 0 0 1 476 128zM488 128a2 2 0 1 1-.001 4.001A2 2 0 0 1 488 128zM500 128a2 2 0 1 1-.001 4.001A2 2 0 0 1 500 128zM512 128a2 2 0 1 1-.001 4.001A2 2 0 0 1 512 128zM524 128a2 2 0 1 1-.001 4.001A2 2 0 0 1 524 128zM464 104a2 2 0 1 1-.001 4.001A2 2 0 0 1 464 104zM464 116a2 2 0 1 1-.001 4.001A2 2 0 0 1 464 116zM464 128a2 2 0 1 1-.001 4.001A2 2 0 0 1 464 128zM476 140a2 2 0 1 1-.001 4.001A2 2 0 0 1 476 140zM488 140a2 2 0 1 1-.001 4.001A2 2 0 0 1 488 140zM500 140a2 2 0 1 1-.001 4.001A2 2 0 0 1 500 140zM512 140a2 2 0 1 1-.001 4.001A2 2 0 0 1 512 140zM524 140a2 2 0 1 1-.001 4.001A2 2 0 0 1 524 140zM464 140a2 2 0 1 1-.001 4.001A2 2 0 0 1 464 140zM476 152a2 2 0 1 1-.001 4.001A2 2 0 0 1 476 152zM488 152a2 2 0 1 1-.001 4.001A2 2 0 0 1 488 152zM500 152a2 2 0 1 1-.001 4.001A2 2 0 0 1 500 152zM512 152a2 2 0 1 1-.001 4.001A2 2 0 0 1 512 152zM524 152a2 2 0 1 1-.001 4.001A2 2 0 0 1 524 152zM464 152a2 2 0 1 1-.001 4.001A2 2 0 0 1 464 152zM476 164a2 2 0 1 1-.001 4.001A2 2 0 0 1 476 164zM488 164a2 2 0 1 1-.001 4.001A2 2 0 0 1 488 164zM500 164a2 2 0 1 1-.001 4.001A2 2 0 0 1 500 164zM512 164a2 2 0 1 1-.001 4.001A2 2 0 0 1 512 164zM524 164a2 2 0 1 1-.001 4.001A2 2 0 0 1 524 164zM464 164a2 2 0 1 1-.001 4.001A2 2 0 0 1 464 164zM476 176a2 2 0 1 1-.001 4.001A2 2 0 0 1 476 176zM488 176a2 2 0 1 1-.001 4.001A2 2 0 0 1 488 176zM500 176a2 2 0 1 1-.001 4.001A2 2 0 0 1 500 176zM512 176a2 2 0 1 1-.001 4.001A2 2 0 0 1 512 176zM524 176a2 2 0 1 1-.001 4.001A2 2 0 0 1 524 176zM464 176a2 2 0 1 1-.001 4.001A2 2 0 0 1 464 176zM476 188a2 2 0 1 1-.001 4.001A2 2 0 0 1 476 188zM488 188a2 2 0 1 1-.001 4.001A2 2 0 0 1 488 188zM500 188a2 2 0 1 1-.001 4.001A2 2 0 0 1 500 188zM512 188a2 2 0 1 1-.001 4.001A2 2 0 0 1 512 188zM524 188a2 2 0 1 1-.001 4.001A2 2 0 0 1 524 188zM464 188a2 2 0 1 1-.001 4.001A2 2 0 0 1 464 188zM476 200a2 2 0 1 1-.001 4.001A2 2 0 0 1 476 200zM488 200a2 2 0 1 1-.001 4.001A2 2 0 0 1 488 200zM500 200a2 2 0 1 1-.001 4.001A2 2 0 0 1 500 200zM512 200a2 2 0 1 1-.001 4.001A2 2 0 0 1 512 200zM524 200a2 2 0 1 1-.001 4.001A2 2 0 0 1 524 200zM464 200a2 2 0 1 1-.001 4.001A2 2 0 0 1 464 200zM476 212a2 2 0 1 1-.001 4.001A2 2 0 0 1 476 212zM488 212a2 2 0 1 1-.001 4.001A2 2 0 0 1 488 212zM500 212a2 2 0 1 1-.001 4.001A2 2 0 0 1 500 212zM512 212a2 2 0 1 1-.001 4.001A2 2 0 0 1 512 212zM524 212a2 2 0 1 1-.001 4.001A2 2 0 0 1 524 212zM464 212a2 2 0 1 1-.001 4.001A2 2 0 0 1 464 212zM476 224a2 2 0 1 1-.001 4.001A2 2 0 0 1 476 224zM488 224a2 2 0 1 1-.001 4.001A2 2 0 0 1 488 224zM500 224a2 2 0 1 1-.001 4.001A2 2 0 0 1 500 224zM512 224a2 2 0 1 1-.001 4.001A2 2 0 0 1 512 224zM524 224a2 2 0 1 1-.001 4.001A2 2 0 0 1 524 224zM464 224a2 2 0 1 1-.001 4.001A2 2 0 0 1 464 224zM476 236a2 2 0 1 1-.001 4.001A2 2 0 0 1 476 236zM488 236a2 2 0 1 1-.001 4.001A2 2 0 0 1 488 236zM500 236a2 2 0 1 1-.001 4.001A2 2 0 0 1 500 236zM512 236a2 2 0 1 1-.001 4.001A2 2 0 0 1 512 236zM524 236a2 2 0 1 1-.001 4.001A2 2 0 0 1 524 236zM464 236a2 2 0 1 1-.001 4.001A2 2 0 0 1 464 236zM476 248a2 2 0 1 1-.001 4.001A2 2 0 0 1 476 248zM488 248a2 2 0 1 1-.001 4.001A2 2 0 0 1 488 248zM500 248a2 2 0 1 1-.001 4.001A2 2 0 0 1 500 248zM512 248a2 2 0 1 1-.001 4.001A2 2 0 0 1 512 248zM524 248a2 2 0 1 1-.001 4.001A2 2 0 0 1 524 248zM464 248a2 2 0 1 1-.001 4.001A2 2 0 0 1 464 248zM536 104a2 2 0 1 1-.001 4.001A2 2 0 0 1 536 104zM536 116a2 2 0 1 1-.001 4.001A2 2 0 0 1 536 116zM536 128a2 2 0 1 1-.001 4.001A2 2 0 0 1 536 128zM536 140a2 2 0 1 1-.001 4.001A2 2 0 0 1 536 140zM536 152a2 2 0 1 1-.001 4.001A2 2 0 0 1 536 152zM536 164a2 2 0 1 1-.001 4.001A2 2 0 0 1 536 164zM536 176a2 2 0 1 1-.001 4.001A2 2 0 0 1 536 176zM536 188a2 2 0 1 1-.001 4.001A2 2 0 0 1 536 188zM536 200a2 2 0 1 1-.001 4.001A2 2 0 0 1 536 200zM536 212a2 2 0 1 1-.001 4.001A2 2 0 0 1 536 212zM536 224a2 2 0 1 1-.001 4.001A2 2 0 0 1 536 224zM536 236a2 2 0 1 1-.001 4.001A2 2 0 0 1 536 236zM536 248a2 2 0 1 1-.001 4.001A2 2 0 0 1 536 248zM548 104a2 2 0 1 1-.001 4.001A2 2 0 0 1 548 104zM548 116a2 2 0 1 1-.001 4.001A2 2 0 0 1 548 116zM548 128a2 2 0 1 1-.001 4.001A2 2 0 0 1 548 128zM548 140a2 2 0 1 1-.001 4.001A2 2 0 0 1 548 140zM548 152a2 2 0 1 1-.001 4.001A2 2 0 0 1 548 152zM548 164a2 2 0 1 1-.001 4.001A2 2 0 0 1 548 164zM548 176a2 2 0 1 1-.001 4.001A2 2 0 0 1 548 176zM548 188a2 2 0 1 1-.001 4.001A2 2 0 0 1 548 188zM548 200a2 2 0 1 1-.001 4.001A2 2 0 0 1 548 200zM548 212a2 2 0 1 1-.001 4.001A2 2 0 0 1 548 212zM548 224a2 2 0 1 1-.001 4.001A2 2 0 0 1 548 224zM548 236a2 2 0 1 1-.001 4.001A2 2 0 0 1 548 236zM548 248a2 2 0 1 1-.001 4.001A2 2 0 0 1 548 248zM560 104a2 2 0 1 1-.001 4.001A2 2 0 0 1 560 104zM560 116a2 2 0 1 1-.001 4.001A2 2 0 0 1 560 116zM560 128a2 2 0 1 1-.001 4.001A2 2 0 0 1 560 128zM560 140a2 2 0 1 1-.001 4.001A2 2 0 0 1 560 140zM560 152a2 2 0 1 1-.001 4.001A2 2 0 0 1 560 152zM560 164a2 2 0 1 1-.001 4.001A2 2 0 0 1 560 164zM560 176a2 2 0 1 1-.001 4.001A2 2 0 0 1 560 176zM560 188a2 2 0 1 1-.001 4.001A2 2 0 0 1 560 188zM560 200a2 2 0 1 1-.001 4.001A2 2 0 0 1 560 200zM560 212a2 2 0 1 1-.001 4.001A2 2 0 0 1 560 212zM560 224a2 2 0 1 1-.001 4.001A2 2 0 0 1 560 224zM560 236a2 2 0 1 1-.001 4.001A2 2 0 0 1 560 236zM560 248a2 2 0 1 1-.001 4.001A2 2 0 0 1 560 248zM572 104a2 2 0 1 1-.001 4.001A2 2 0 0 1 572 104zM572 116a2 2 0 1 1-.001 4.001A2 2 0 0 1 572 116zM572 128a2 2 0 1 1-.001 4.001A2 2 0 0 1 572 128zM572 140a2 2 0 1 1-.001 4.001A2 2 0 0 1 572 140zM572 152a2 2 0 1 1-.001 4.001A2 2 0 0 1 572 152zM572 164a2 2 0 1 1-.001 4.001A2 2 0 0 1 572 164zM572 176a2 2 0 1 1-.001 4.001A2 2 0 0 1 572 176zM572 188a2 2 0 1 1-.001 4.001A2 2 0 0 1 572 188zM572 200a2 2 0 1 1-.001 4.001A2 2 0 0 1 572 200zM572 212a2 2 0 1 1-.001 4.001A2 2 0 0 1 572 212zM572 224a2 2 0 1 1-.001 4.001A2 2 0 0 1 572 224zM572 236a2 2 0 1 1-.001 4.001A2 2 0 0 1 572 236zM572 248a2 2 0 1 1-.001 4.001A2 2 0 0 1 572 248zM584 104a2 2 0 1 1-.001 4.001A2 2 0 0 1 584 104zM584 116a2 2 0 1 1-.001 4.001A2 2 0 0 1 584 116zM584 128a2 2 0 1 1-.001 4.001A2 2 0 0 1 584 128zM584 140a2 2 0 1 1-.001 4.001A2 2 0 0 1 584 140zM584 152a2 2 0 1 1-.001 4.001A2 2 0 0 1 584 152zM584 164a2 2 0 1 1-.001 4.001A2 2 0 0 1 584 164zM584 176a2 2 0 1 1-.001 4.001A2 2 0 0 1 584 176zM584 188a2 2 0 1 1-.001 4.001A2 2 0 0 1 584 188zM584 200a2 2 0 1 1-.001 4.001A2 2 0 0 1 584 200zM584 212a2 2 0 1 1-.001 4.001A2 2 0 0 1 584 212zM584 224a2 2 0 1 1-.001 4.001A2 2 0 0 1 584 224zM584 236a2 2 0 1 1-.001 4.001A2 2 0 0 1 584 236zM584 248a2 2 0 1 1-.001 4.001A2 2 0 0 1 584 248zM596 104a2 2 0 1 1-.001 4.001A2 2 0 0 1 596 104zM596 116a2 2 0 1 1-.001 4.001A2 2 0 0 1 596 116zM596 128a2 2 0 1 1-.001 4.001A2 2 0 0 1 596 128zM596 140a2 2 0 1 1-.001 4.001A2 2 0 0 1 596 140zM596 152a2 2 0 1 1-.001 4.001A2 2 0 0 1 596 152zM596 164a2 2 0 1 1-.001 4.001A2 2 0 0 1 596 164zM596 176a2 2 0 1 1-.001 4.001A2 2 0 0 1 596 176zM596 188a2 2 0 1 1-.001 4.001A2 2 0 0 1 596 188zM596 200a2 2 0 1 1-.001 4.001A2 2 0 0 1 596 200zM596 212a2 2 0 1 1-.001 4.001A2 2 0 0 1 596 212zM596 224a2 2 0 1 1-.001 4.001A2 2 0 0 1 596 224zM596 236a2 2 0 1 1-.001 4.001A2 2 0 0 1 596 236zM596 248a2 2 0 1 1-.001 4.001A2 2 0 0 1 596 248zM608 104a2 2 0 1 1-.001 4.001A2 2 0 0 1 608 104zM620 104a2 2 0 1 1-.001 4.001A2 2 0 0 1 620 104zM620 116a2 2 0 1 1-.001 4.001A2 2 0 0 1 620 116zM620 128a2 2 0 1 1-.001 4.001A2 2 0 0 1 620 128zM620 140a2 2 0 1 1-.001 4.001A2 2 0 0 1 620 140zM620 152a2 2 0 1 1-.001 4.001A2 2 0 0 1 620 152zM620 164a2 2 0 1 1-.001 4.001A2 2 0 0 1 620 164zM620 176a2 2 0 1 1-.001 4.001A2 2 0 0 1 620 176zM620 188a2 2 0 1 1-.001 4.001A2 2 0 0 1 620 188zM620 200a2 2 0 1 1-.001 4.001A2 2 0 0 1 620 200zM620 212a2 2 0 1 1-.001 4.001A2 2 0 0 1 620 212zM620 224a2 2 0 1 1-.001 4.001A2 2 0 0 1 620 224zM620 236a2 2 0 1 1-.001 4.001A2 2 0 0 1 620 236zM620 248a2 2 0 1 1-.001 4.001A2 2 0 0 1 620 248zM608 116a2 2 0 1 1-.001 4.001A2 2 0 0 1 608 116zM608 128a2 2 0 1 1-.001 4.001A2 2 0 0 1 608 128zM608 140a2 2 0 1 1-.001 4.001A2 2 0 0 1 608 140zM608 152a2 2 0 1 1-.001 4.001A2 2 0 0 1 608 152zM608 164a2 2 0 1 1-.001 4.001A2 2 0 0 1 608 164zM608 176a2 2 0 1 1-.001 4.001A2 2 0 0 1 608 176zM608 188a2 2 0 1 1-.001 4.001A2 2 0 0 1 608 188zM608 200a2 2 0 1 1-.001 4.001A2 2 0 0 1 608 200zM608 212a2 2 0 1 1-.001 4.001A2 2 0 0 1 608 212zM608 224a2 2 0 1 1-.001 4.001A2 2 0 0 1 608 224zM608 236a2 2 0 1 1-.001 4.001A2 2 0 0 1 608 236zM608 248a2 2 0 1 1-.001 4.001A2 2 0 0 1 608 248zM476 260a2 2 0 1 1-.001 4.001A2 2 0 0 1 476 260zM488 260a2 2 0 1 1-.001 4.001A2 2 0 0 1 488 260zM500 260a2 2 0 1 1-.001 4.001A2 2 0 0 1 500 260zM512 260a2 2 0 1 1-.001 4.001A2 2 0 0 1 512 260zM524 260a2 2 0 1 1-.001 4.001A2 2 0 0 1 524 260zM464 260a2 2 0 1 1-.001 4.001A2 2 0 0 1 464 260zM536 260a2 2 0 1 1-.001 4.001A2 2 0 0 1 536 260zM548 260a2 2 0 1 1-.001 4.001A2 2 0 0 1 548 260zM560 260a2 2 0 1 1-.001 4.001A2 2 0 0 1 560 260zM572 260a2 2 0 1 1-.001 4.001A2 2 0 0 1 572 260zM584 260a2 2 0 1 1-.001 4.001A2 2 0 0 1 584 260zM596 260a2 2 0 1 1-.001 4.001A2 2 0 0 1 596 260zM620 260a2 2 0 1 1-.001 4.001A2 2 0 0 1 620 260zM608 260a2 2 0 1 1-.001 4.001A2 2 0 0 1 608 260zM644 104a2 2 0 1 1-.001 4.001A2 2 0 0 1 644 104zM656 104a2 2 0 1 1-.001 4.001A2 2 0 0 1 656 104zM668 104a2 2 0 1 1-.001 4.001A2 2 0 0 1 668 104zM680 104a2 2 0 1 1-.001 4.001A2 2 0 0 1 680 104zM692 104a2 2 0 1 1-.001 4.001A2 2 0 0 1 692 104zM644 116a2 2 0 1 1-.001 4.001A2 2 0 0 1 644 116zM656 116a2 2 0 1 1-.001 4.001A2 2 0 0 1 656 116zM668 116a2 2 0 1 1-.001 4.001A2 2 0 0 1 668 116zM680 116a2 2 0 1 1-.001 4.001A2 2 0 0 1 680 116zM692 116a2 2 0 1 1-.001 4.001A2 2 0 0 1 692 116zM644 128a2 2 0 1 1-.001 4.001A2 2 0 0 1 644 128zM656 128a2 2 0 1 1-.001 4.001A2 2 0 0 1 656 128zM668 128a2 2 0 1 1-.001 4.001A2 2 0 0 1 668 128zM680 128a2 2 0 1 1-.001 4.001A2 2 0 0 1 680 128zM692 128a2 2 0 1 1-.001 4.001A2 2 0 0 1 692 128zM632 104a2 2 0 1 1-.001 4.001A2 2 0 0 1 632 104zM632 116a2 2 0 1 1-.001 4.001A2 2 0 0 1 632 116zM632 128a2 2 0 1 1-.001 4.001A2 2 0 0 1 632 128zM644 140a2 2 0 1 1-.001 4.001A2 2 0 0 1 644 140zM656 140a2 2 0 1 1-.001 4.001A2 2 0 0 1 656 140zM668 140a2 2 0 1 1-.001 4.001A2 2 0 0 1 668 140zM680 140a2 2 0 1 1-.001 4.001A2 2 0 0 1 680 140zM692 140a2 2 0 1 1-.001 4.001A2 2 0 0 1 692 140zM632 140a2 2 0 1 1-.001 4.001A2 2 0 0 1 632 140zM644 152a2 2 0 1 1-.001 4.001A2 2 0 0 1 644 152zM656 152a2 2 0 1 1-.001 4.001A2 2 0 0 1 656 152zM668 152a2 2 0 1 1-.001 4.001A2 2 0 0 1 668 152zM680 152a2 2 0 1 1-.001 4.001A2 2 0 0 1 680 152zM692 152a2 2 0 1 1-.001 4.001A2 2 0 0 1 692 152zM632 152a2 2 0 1 1-.001 4.001A2 2 0 0 1 632 152zM644 164a2 2 0 1 1-.001 4.001A2 2 0 0 1 644 164zM656 164a2 2 0 1 1-.001 4.001A2 2 0 0 1 656 164zM668 164a2 2 0 1 1-.001 4.001A2 2 0 0 1 668 164zM680 164a2 2 0 1 1-.001 4.001A2 2 0 0 1 680 164zM692 164a2 2 0 1 1-.001 4.001A2 2 0 0 1 692 164zM632 164a2 2 0 1 1-.001 4.001A2 2 0 0 1 632 164zM644 176a2 2 0 1 1-.001 4.001A2 2 0 0 1 644 176zM656 176a2 2 0 1 1-.001 4.001A2 2 0 0 1 656 176zM668 176a2 2 0 1 1-.001 4.001A2 2 0 0 1 668 176zM680 176a2 2 0 1 1-.001 4.001A2 2 0 0 1 680 176zM692 176a2 2 0 1 1-.001 4.001A2 2 0 0 1 692 176zM632 176a2 2 0 1 1-.001 4.001A2 2 0 0 1 632 176zM644 188a2 2 0 1 1-.001 4.001A2 2 0 0 1 644 188zM656 188a2 2 0 1 1-.001 4.001A2 2 0 0 1 656 188zM668 188a2 2 0 1 1-.001 4.001A2 2 0 0 1 668 188zM680 188a2 2 0 1 1-.001 4.001A2 2 0 0 1 680 188zM692 188a2 2 0 1 1-.001 4.001A2 2 0 0 1 692 188zM632 188a2 2 0 1 1-.001 4.001A2 2 0 0 1 632 188zM644 200a2 2 0 1 1-.001 4.001A2 2 0 0 1 644 200zM656 200a2 2 0 1 1-.001 4.001A2 2 0 0 1 656 200zM668 200a2 2 0 1 1-.001 4.001A2 2 0 0 1 668 200zM680 200a2 2 0 1 1-.001 4.001A2 2 0 0 1 680 200zM692 200a2 2 0 1 1-.001 4.001A2 2 0 0 1 692 200zM632 200a2 2 0 1 1-.001 4.001A2 2 0 0 1 632 200zM644 212a2 2 0 1 1-.001 4.001A2 2 0 0 1 644 212zM656 212a2 2 0 1 1-.001 4.001A2 2 0 0 1 656 212zM668 212a2 2 0 1 1-.001 4.001A2 2 0 0 1 668 212zM680 212a2 2 0 1 1-.001 4.001A2 2 0 0 1 680 212zM692 212a2 2 0 1 1-.001 4.001A2 2 0 0 1 692 212zM632 212a2 2 0 1 1-.001 4.001A2 2 0 0 1 632 212zM644 224a2 2 0 1 1-.001 4.001A2 2 0 0 1 644 224zM656 224a2 2 0 1 1-.001 4.001A2 2 0 0 1 656 224zM668 224a2 2 0 1 1-.001 4.001A2 2 0 0 1 668 224zM680 224a2 2 0 1 1-.001 4.001A2 2 0 0 1 680 224zM692 224a2 2 0 1 1-.001 4.001A2 2 0 0 1 692 224zM632 224a2 2 0 1 1-.001 4.001A2 2 0 0 1 632 224zM644 236a2 2 0 1 1-.001 4.001A2 2 0 0 1 644 236zM656 236a2 2 0 1 1-.001 4.001A2 2 0 0 1 656 236zM668 236a2 2 0 1 1-.001 4.001A2 2 0 0 1 668 236zM680 236a2 2 0 1 1-.001 4.001A2 2 0 0 1 680 236zM692 236a2 2 0 1 1-.001 4.001A2 2 0 0 1 692 236zM632 236a2 2 0 1 1-.001 4.001A2 2 0 0 1 632 236zM644 248a2 2 0 1 1-.001 4.001A2 2 0 0 1 644 248zM656 248a2 2 0 1 1-.001 4.001A2 2 0 0 1 656 248zM668 248a2 2 0 1 1-.001 4.001A2 2 0 0 1 668 248zM680 248a2 2 0 1 1-.001 4.001A2 2 0 0 1 680 248zM692 248a2 2 0 1 1-.001 4.001A2 2 0 0 1 692 248zM632 248a2 2 0 1 1-.001 4.001A2 2 0 0 1 632 248zM704 104a2 2 0 1 1-.001 4.001A2 2 0 0 1 704 104zM704 116a2 2 0 1 1-.001 4.001A2 2 0 0 1 704 116zM704 128a2 2 0 1 1-.001 4.001A2 2 0 0 1 704 128zM704 140a2 2 0 1 1-.001 4.001A2 2 0 0 1 704 140zM704 152a2 2 0 1 1-.001 4.001A2 2 0 0 1 704 152zM704 164a2 2 0 1 1-.001 4.001A2 2 0 0 1 704 164zM704 176a2 2 0 1 1-.001 4.001A2 2 0 0 1 704 176zM704 188a2 2 0 1 1-.001 4.001A2 2 0 0 1 704 188zM704 200a2 2 0 1 1-.001 4.001A2 2 0 0 1 704 200zM704 212a2 2 0 1 1-.001 4.001A2 2 0 0 1 704 212zM704 224a2 2 0 1 1-.001 4.001A2 2 0 0 1 704 224zM704 236a2 2 0 1 1-.001 4.001A2 2 0 0 1 704 236zM704 248a2 2 0 1 1-.001 4.001A2 2 0 0 1 704 248zM644 260a2 2 0 1 1-.001 4.001A2 2 0 0 1 644 260zM656 260a2 2 0 1 1-.001 4.001A2 2 0 0 1 656 260zM668 260a2 2 0 1 1-.001 4.001A2 2 0 0 1 668 260zM680 260a2 2 0 1 1-.001 4.001A2 2 0 0 1 680 260zM692 260a2 2 0 1 1-.001 4.001A2 2 0 0 1 692 260zM632 260a2 2 0 1 1-.001 4.001A2 2 0 0 1 632 260zM704 260a2 2 0 1 1-.001 4.001A2 2 0 0 1 704 260z"></path>
      <path fill="#22272e" d="M430.5 72.5h255v255h-255v-255z"></path>
      <path stroke="#79B8FF" d="M430.5 72.5h255v255h-255v-255z" fill="none"></path>
      <path fill="#005CC5" d="M591.531 282h8.859l-24.938-67.64h-8.343L542.171 282h8.86l6.796-19.359h26.907L591.531 282zm-20.391-57.375h.281l10.828 30.845h-21.937l10.828-30.845zM623.187 275.907c-5.859 0-9.75-3.047-9.75-7.688 0-4.594 3.751-7.5 10.314-7.922l13.031-.797v3.985c0 7.03-5.907 12.422-13.595 12.422zM621.36 282.844c6.562 0 12.75-3.656 15.656-9.234h.188V282h7.733v-33.703c0-9.703-7.218-15.891-18.655-15.891-11.531 0-18.75 6.469-19.313 14.906h7.875c1.032-4.781 4.969-7.734 11.25-7.734 6.75 0 10.688 3.562 10.688 9.516v4.078l-13.97.797c-11.25.656-17.671 5.906-17.671 14.25 0 8.766 6.516 14.625 16.219 14.625zM541 286h105v2H541v-2z"></path>
      <path fill="#044288" d="M391 149h29.094v23.772H391V149zM478.875 149h29.688v23.772h-29.688V149zM532.312 149h30.282v23.772h-30.282V149zM443.84299999999996 149h11.282v23.772h-11.282V149z"></path>
      <path stroke-linecap="round" stroke-linejoin="round" stroke="#2087FF" stroke-width="2" d="M654 112l-4 6.928h-8L638 112l4-6.928h8l4 6.928z" fill="none"></path>
      <path fill="#044288" d="M155.28199999999998 333h-29.973v24h29.973v-24zM264 354a2 2 0 1 0 .001 4.001A2 2 0 0 0 264 354zM252 354a2 2 0 1 0 .001 4.001A2 2 0 0 0 252 354zM240 354a2 2 0 1 0 .001 4.001A2 2 0 0 0 240 354zM228 354a2 2 0 1 0 .001 4.001A2 2 0 0 0 228 354zM216 354a2 2 0 1 0 .001 4.001A2 2 0 0 0 216 354zM264 366a2 2 0 1 0 .001 4.001A2 2 0 0 0 264 366zM252 366a2 2 0 1 0 .001 4.001A2 2 0 0 0 252 366zM240 366a2 2 0 1 0 .001 4.001A2 2 0 0 0 240 366zM228 366a2 2 0 1 0 .001 4.001A2 2 0 0 0 228 366zM216 366a2 2 0 1 0 .001 4.001A2 2 0 0 0 216 366zM264 378a2 2 0 1 0 .001 4.001A2 2 0 0 0 264 378zM252 378a2 2 0 1 0 .001 4.001A2 2 0 0 0 252 378zM240 378a2 2 0 1 0 .001 4.001A2 2 0 0 0 240 378zM228 378a2 2 0 1 0 .001 4.001A2 2 0 0 0 228 378zM216 378a2 2 0 1 0 .001 4.001A2 2 0 0 0 216 378zM276 354a2 2 0 1 0 .001 4.001A2 2 0 0 0 276 354zM276 366a2 2 0 1 0 .001 4.001A2 2 0 0 0 276 366zM276 378a2 2 0 1 0 .001 4.001A2 2 0 0 0 276 378zM264 390a2 2 0 1 0 .001 4.001A2 2 0 0 0 264 390zM252 390a2 2 0 1 0 .001 4.001A2 2 0 0 0 252 390zM240 390a2 2 0 1 0 .001 4.001A2 2 0 0 0 240 390zM228 390a2 2 0 1 0 .001 4.001A2 2 0 0 0 228 390zM216 390a2 2 0 1 0 .001 4.001A2 2 0 0 0 216 390zM276 390a2 2 0 1 0 .001 4.001A2 2 0 0 0 276 390zM264 402a2 2 0 1 0 .001 4.001A2 2 0 0 0 264 402zM252 402a2 2 0 1 0 .001 4.001A2 2 0 0 0 252 402zM240 402a2 2 0 1 0 .001 4.001A2 2 0 0 0 240 402zM228 402a2 2 0 1 0 .001 4.001A2 2 0 0 0 228 402zM216 402a2 2 0 1 0 .001 4.001A2 2 0 0 0 216 402zM276 402a2 2 0 1 0 .001 4.001A2 2 0 0 0 276 402zM264 414a2 2 0 1 0 .001 4.001A2 2 0 0 0 264 414zM252 414a2 2 0 1 0 .001 4.001A2 2 0 0 0 252 414zM240 414a2 2 0 1 0 .001 4.001A2 2 0 0 0 240 414zM228 414a2 2 0 1 0 .001 4.001A2 2 0 0 0 228 414zM216 414a2 2 0 1 0 .001 4.001A2 2 0 0 0 216 414zM276 414a2 2 0 1 0 .001 4.001A2 2 0 0 0 276 414zM264 426a2 2 0 1 0 .001 4.001A2 2 0 0 0 264 426zM252 426a2 2 0 1 0 .001 4.001A2 2 0 0 0 252 426zM240 426a2 2 0 1 0 .001 4.001A2 2 0 0 0 240 426zM228 426a2 2 0 1 0 .001 4.001A2 2 0 0 0 228 426zM216 426a2 2 0 1 0 .001 4.001A2 2 0 0 0 216 426zM276 426a2 2 0 1 0 .001 4.001A2 2 0 0 0 276 426zM204 354a2 2 0 1 0 .001 4.001A2 2 0 0 0 204 354zM204 366a2 2 0 1 0 .001 4.001A2 2 0 0 0 204 366zM204 378a2 2 0 1 0 .001 4.001A2 2 0 0 0 204 378zM204 390a2 2 0 1 0 .001 4.001A2 2 0 0 0 204 390zM204 402a2 2 0 1 0 .001 4.001A2 2 0 0 0 204 402zM204 414a2 2 0 1 0 .001 4.001A2 2 0 0 0 204 414zM204 426a2 2 0 1 0 .001 4.001A2 2 0 0 0 204 426zM192 354a2 2 0 1 0 .001 4.001A2 2 0 0 0 192 354zM192 366a2 2 0 1 0 .001 4.001A2 2 0 0 0 192 366zM192 378a2 2 0 1 0 .001 4.001A2 2 0 0 0 192 378zM192 390a2 2 0 1 0 .001 4.001A2 2 0 0 0 192 390zM192 402a2 2 0 1 0 .001 4.001A2 2 0 0 0 192 402zM192 414a2 2 0 1 0 .001 4.001A2 2 0 0 0 192 414zM192 426a2 2 0 1 0 .001 4.001A2 2 0 0 0 192 426zM180 354a2 2 0 1 0 .001 4.001A2 2 0 0 0 180 354zM180 366a2 2 0 1 0 .001 4.001A2 2 0 0 0 180 366zM180 378a2 2 0 1 0 .001 4.001A2 2 0 0 0 180 378zM180 390a2 2 0 1 0 .001 4.001A2 2 0 0 0 180 390zM180 402a2 2 0 1 0 .001 4.001A2 2 0 0 0 180 402zM180 414a2 2 0 1 0 .001 4.001A2 2 0 0 0 180 414zM180 426a2 2 0 1 0 .001 4.001A2 2 0 0 0 180 426zM168 354a2 2 0 1 0 .001 4.001A2 2 0 0 0 168 354zM168 366a2 2 0 1 0 .001 4.001A2 2 0 0 0 168 366zM168 378a2 2 0 1 0 .001 4.001A2 2 0 0 0 168 378zM168 390a2 2 0 1 0 .001 4.001A2 2 0 0 0 168 390zM168 402a2 2 0 1 0 .001 4.001A2 2 0 0 0 168 402zM168 414a2 2 0 1 0 .001 4.001A2 2 0 0 0 168 414zM168 426a2 2 0 1 0 .001 4.001A2 2 0 0 0 168 426z"></path>
      <path fill="#044288" d="M156 354a2 2 0 1 0 .001 4.001A2 2 0 0 0 156 354zM156 366a2 2 0 1 0 .001 4.001A2 2 0 0 0 156 366zM156 378a2 2 0 1 0 .001 4.001A2 2 0 0 0 156 378zM156 390a2 2 0 1 0 .001 4.001A2 2 0 0 0 156 390zM156 402a2 2 0 1 0 .001 4.001A2 2 0 0 0 156 402zM156 414a2 2 0 1 0 .001 4.001A2 2 0 0 0 156 414zM156 426a2 2 0 1 0 .001 4.001A2 2 0 0 0 156 426zM144 354a2 2 0 1 0 .001 4.001A2 2 0 0 0 144 354zM144 366a2 2 0 1 0 .001 4.001A2 2 0 0 0 144 366zM144 378a2 2 0 1 0 .001 4.001A2 2 0 0 0 144 378zM144 390a2 2 0 1 0 .001 4.001A2 2 0 0 0 144 390zM144 402a2 2 0 1 0 .001 4.001A2 2 0 0 0 144 402zM144 414a2 2 0 1 0 .001 4.001A2 2 0 0 0 144 414zM144 426a2 2 0 1 0 .001 4.001A2 2 0 0 0 144 426zM132 354a2 2 0 1 0 .001 4.001A2 2 0 0 0 132 354zM120 354a2 2 0 1 0 .001 4.001A2 2 0 0 0 120 354zM120 366a2 2 0 1 0 .001 4.001A2 2 0 0 0 120 366zM120 378a2 2 0 1 0 .001 4.001A2 2 0 0 0 120 378zM120 390a2 2 0 1 0 .001 4.001A2 2 0 0 0 120 390zM120 402a2 2 0 1 0 .001 4.001A2 2 0 0 0 120 402zM120 414a2 2 0 1 0 .001 4.001A2 2 0 0 0 120 414zM120 426a2 2 0 1 0 .001 4.001A2 2 0 0 0 120 426zM132 366a2 2 0 1 0 .001 4.001A2 2 0 0 0 132 366zM132 378a2 2 0 1 0 .001 4.001A2 2 0 0 0 132 378zM132 390a2 2 0 1 0 .001 4.001A2 2 0 0 0 132 390zM132 402a2 2 0 1 0 .001 4.001A2 2 0 0 0 132 402zM132 414a2 2 0 1 0 .001 4.001A2 2 0 0 0 132 414zM132 426a2 2 0 1 0 .001 4.001A2 2 0 0 0 132 426zM96 354a2 2 0 1 0 .001 4.001A2 2 0 0 0 96 354zM84 354a2 2 0 1 0 .001 4.001A2 2 0 0 0 84 354zM72 354a2 2 0 1 0 .001 4.001A2 2 0 0 0 72 354zM60 354a2 2 0 1 0 .001 4.001A2 2 0 0 0 60 354zM48 354a2 2 0 1 0 .001 4.001A2 2 0 0 0 48 354zM96 366a2 2 0 1 0 .001 4.001A2 2 0 0 0 96 366zM84 366a2 2 0 1 0 .001 4.001A2 2 0 0 0 84 366zM72 366a2 2 0 1 0 .001 4.001A2 2 0 0 0 72 366zM60 366a2 2 0 1 0 .001 4.001A2 2 0 0 0 60 366zM48 366a2 2 0 1 0 .001 4.001A2 2 0 0 0 48 366zM96 378a2 2 0 1 0 .001 4.001A2 2 0 0 0 96 378zM84 378a2 2 0 1 0 .001 4.001A2 2 0 0 0 84 378zM72 378a2 2 0 1 0 .001 4.001A2 2 0 0 0 72 378zM60 378a2 2 0 1 0 .001 4.001A2 2 0 0 0 60 378zM48 378a2 2 0 1 0 .001 4.001A2 2 0 0 0 48 378zM108 354a2 2 0 1 0 .001 4.001A2 2 0 0 0 108 354zM108 366a2 2 0 1 0 .001 4.001A2 2 0 0 0 108 366zM108 378a2 2 0 1 0 .001 4.001A2 2 0 0 0 108 378zM96 390a2 2 0 1 0 .001 4.001A2 2 0 0 0 96 390zM84 390a2 2 0 1 0 .001 4.001A2 2 0 0 0 84 390zM72 390a2 2 0 1 0 .001 4.001A2 2 0 0 0 72 390zM60 390a2 2 0 1 0 .001 4.001A2 2 0 0 0 60 390zM48 390a2 2 0 1 0 .001 4.001A2 2 0 0 0 48 390zM108 390a2 2 0 1 0 .001 4.001A2 2 0 0 0 108 390zM96 402a2 2 0 1 0 .001 4.001A2 2 0 0 0 96 402zM84 402a2 2 0 1 0 .001 4.001A2 2 0 0 0 84 402zM72 402a2 2 0 1 0 .001 4.001A2 2 0 0 0 72 402zM60 402a2 2 0 1 0 .001 4.001A2 2 0 0 0 60 402zM48 402a2 2 0 1 0 .001 4.001A2 2 0 0 0 48 402zM108 402a2 2 0 1 0 .001 4.001A2 2 0 0 0 108 402zM96 414a2 2 0 1 0 .001 4.001A2 2 0 0 0 96 414zM84 414a2 2 0 1 0 .001 4.001A2 2 0 0 0 84 414zM72 414a2 2 0 1 0 .001 4.001A2 2 0 0 0 72 414zM60 414a2 2 0 1 0 .001 4.001A2 2 0 0 0 60 414zM48 414a2 2 0 1 0 .001 4.001A2 2 0 0 0 48 414zM108 414a2 2 0 1 0 .001 4.001A2 2 0 0 0 108 414zM96 426a2 2 0 1 0 .001 4.001A2 2 0 0 0 96 426zM84 426a2 2 0 1 0 .001 4.001A2 2 0 0 0 84 426zM72 426a2 2 0 1 0 .001 4.001A2 2 0 0 0 72 426zM60 426a2 2 0 1 0 .001 4.001A2 2 0 0 0 60 426zM48 426a2 2 0 1 0 .001 4.001A2 2 0 0 0 48 426zM108 426a2 2 0 1 0 .001 4.001A2 2 0 0 0 108 426zM36 354a2 2 0 1 0 .001 4.001A2 2 0 0 0 36 354zM36 366a2 2 0 1 0 .001 4.001A2 2 0 0 0 36 366zM36 378a2 2 0 1 0 .001 4.001A2 2 0 0 0 36 378zM36 390a2 2 0 1 0 .001 4.001A2 2 0 0 0 36 390zM36 402a2 2 0 1 0 .001 4.001A2 2 0 0 0 36 402zM36 414a2 2 0 1 0 .001 4.001A2 2 0 0 0 36 414zM36 426a2 2 0 1 0 .001 4.001A2 2 0 0 0 36 426zM264 186a2 2 0 1 0 .001 4.001A2 2 0 0 0 264 186zM252 186a2 2 0 1 0 .001 4.001A2 2 0 0 0 252 186zM240 186a2 2 0 1 0 .001 4.001A2 2 0 0 0 240 186zM228 186a2 2 0 1 0 .001 4.001A2 2 0 0 0 228 186zM216 186a2 2 0 1 0 .001 4.001A2 2 0 0 0 216 186zM264 198a2 2 0 1 0 .001 4.001A2 2 0 0 0 264 198zM252 198a2 2 0 1 0 .001 4.001A2 2 0 0 0 252 198zM240 198a2 2 0 1 0 .001 4.001A2 2 0 0 0 240 198zM228 198a2 2 0 1 0 .001 4.001A2 2 0 0 0 228 198zM216 198a2 2 0 1 0 .001 4.001A2 2 0 0 0 216 198zM264 210a2 2 0 1 0 .001 4.001A2 2 0 0 0 264 210zM252 210a2 2 0 1 0 .001 4.001A2 2 0 0 0 252 210zM240 210a2 2 0 1 0 .001 4.001A2 2 0 0 0 240 210zM228 210a2 2 0 1 0 .001 4.001A2 2 0 0 0 228 210zM216 210a2 2 0 1 0 .001 4.001A2 2 0 0 0 216 210zM276 186a2 2 0 1 0 .001 4.001A2 2 0 0 0 276 186zM276 198a2 2 0 1 0 .001 4.001A2 2 0 0 0 276 198zM276 210a2 2 0 1 0 .001 4.001A2 2 0 0 0 276 210zM264 222a2 2 0 1 0 .001 4.001A2 2 0 0 0 264 222zM252 222a2 2 0 1 0 .001 4.001A2 2 0 0 0 252 222zM240 222a2 2 0 1 0 .001 4.001A2 2 0 0 0 240 222zM228 222a2 2 0 1 0 .001 4.001A2 2 0 0 0 228 222zM216 222a2 2 0 1 0 .001 4.001A2 2 0 0 0 216 222zM276 222a2 2 0 1 0 .001 4.001A2 2 0 0 0 276 222zM264 234a2 2 0 1 0 .001 4.001A2 2 0 0 0 264 234zM252 234a2 2 0 1 0 .001 4.001A2 2 0 0 0 252 234zM240 234a2 2 0 1 0 .001 4.001A2 2 0 0 0 240 234zM228 234a2 2 0 1 0 .001 4.001A2 2 0 0 0 228 234zM216 234a2 2 0 1 0 .001 4.001A2 2 0 0 0 216 234zM276 234a2 2 0 1 0 .001 4.001A2 2 0 0 0 276 234zM264 246a2 2 0 1 0 .001 4.001A2 2 0 0 0 264 246zM252 246a2 2 0 1 0 .001 4.001A2 2 0 0 0 252 246zM240 246a2 2 0 1 0 .001 4.001A2 2 0 0 0 240 246zM228 246a2 2 0 1 0 .001 4.001A2 2 0 0 0 228 246zM216 246a2 2 0 1 0 .001 4.001A2 2 0 0 0 216 246zM276 246a2 2 0 1 0 .001 4.001A2 2 0 0 0 276 246zM264 258a2 2 0 1 0 .001 4.001A2 2 0 0 0 264 258zM252 258a2 2 0 1 0 .001 4.001A2 2 0 0 0 252 258zM240 258a2 2 0 1 0 .001 4.001A2 2 0 0 0 240 258zM228 258a2 2 0 1 0 .001 4.001A2 2 0 0 0 228 258zM216 258a2 2 0 1 0 .001 4.001A2 2 0 0 0 216 258zM276 258a2 2 0 1 0 .001 4.001A2 2 0 0 0 276 258zM264 270a2 2 0 1 0 .001 4.001A2 2 0 0 0 264 270zM252 270a2 2 0 1 0 .001 4.001A2 2 0 0 0 252 270zM240 270a2 2 0 1 0 .001 4.001A2 2 0 0 0 240 270zM228 270a2 2 0 1 0 .001 4.001A2 2 0 0 0 228 270zM216 270a2 2 0 1 0 .001 4.001A2 2 0 0 0 216 270zM276 270a2 2 0 1 0 .001 4.001A2 2 0 0 0 276 270zM264 282a2 2 0 1 0 .001 4.001A2 2 0 0 0 264 282zM252 282a2 2 0 1 0 .001 4.001A2 2 0 0 0 252 282zM240 282a2 2 0 1 0 .001 4.001A2 2 0 0 0 240 282zM228 282a2 2 0 1 0 .001 4.001A2 2 0 0 0 228 282zM216 282a2 2 0 1 0 .001 4.001A2 2 0 0 0 216 282zM276 282a2 2 0 1 0 .001 4.001A2 2 0 0 0 276 282zM264 294a2 2 0 1 0 .001 4.001A2 2 0 0 0 264 294zM252 294a2 2 0 1 0 .001 4.001A2 2 0 0 0 252 294zM240 294a2 2 0 1 0 .001 4.001A2 2 0 0 0 240 294zM228 294a2 2 0 1 0 .001 4.001A2 2 0 0 0 228 294zM216 294a2 2 0 1 0 .001 4.001A2 2 0 0 0 216 294zM276 294a2 2 0 1 0 .001 4.001A2 2 0 0 0 276 294zM264 306a2 2 0 1 0 .001 4.001A2 2 0 0 0 264 306zM252 306a2 2 0 1 0 .001 4.001A2 2 0 0 0 252 306zM240 306a2 2 0 1 0 .001 4.001A2 2 0 0 0 240 306zM228 306a2 2 0 1 0 .001 4.001A2 2 0 0 0 228 306zM216 306a2 2 0 1 0 .001 4.001A2 2 0 0 0 216 306zM276 306a2 2 0 1 0 .001 4.001A2 2 0 0 0 276 306zM264 318a2 2 0 1 0 .001 4.001A2 2 0 0 0 264 318zM252 318a2 2 0 1 0 .001 4.001A2 2 0 0 0 252 318zM240 318a2 2 0 1 0 .001 4.001A2 2 0 0 0 240 318zM228 318a2 2 0 1 0 .001 4.001A2 2 0 0 0 228 318zM216 318a2 2 0 1 0 .001 4.001A2 2 0 0 0 216 318zM276 318a2 2 0 1 0 .001 4.001A2 2 0 0 0 276 318zM264 330a2 2 0 1 0 .001 4.001A2 2 0 0 0 264 330zM252 330a2 2 0 1 0 .001 4.001A2 2 0 0 0 252 330zM240 330a2 2 0 1 0 .001 4.001A2 2 0 0 0 240 330zM228 330a2 2 0 1 0 .001 4.001A2 2 0 0 0 228 330zM216 330a2 2 0 1 0 .001 4.001A2 2 0 0 0 216 330zM276 330a2 2 0 1 0 .001 4.001A2 2 0 0 0 276 330zM204 186a2 2 0 1 0 .001 4.001A2 2 0 0 0 204 186zM204 198a2 2 0 1 0 .001 4.001A2 2 0 0 0 204 198zM204 210a2 2 0 1 0 .001 4.001A2 2 0 0 0 204 210zM204 222a2 2 0 1 0 .001 4.001A2 2 0 0 0 204 222zM204 234a2 2 0 1 0 .001 4.001A2 2 0 0 0 204 234zM204 246a2 2 0 1 0 .001 4.001A2 2 0 0 0 204 246zM204 258a2 2 0 1 0 .001 4.001A2 2 0 0 0 204 258zM204 270a2 2 0 1 0 .001 4.001A2 2 0 0 0 204 270zM204 282a2 2 0 1 0 .001 4.001A2 2 0 0 0 204 282zM204 294a2 2 0 1 0 .001 4.001A2 2 0 0 0 204 294zM204 306a2 2 0 1 0 .001 4.001A2 2 0 0 0 204 306zM204 318a2 2 0 1 0 .001 4.001A2 2 0 0 0 204 318zM204 330a2 2 0 1 0 .001 4.001A2 2 0 0 0 204 330zM192 186a2 2 0 1 0 .001 4.001A2 2 0 0 0 192 186zM192 198a2 2 0 1 0 .001 4.001A2 2 0 0 0 192 198zM192 210a2 2 0 1 0 .001 4.001A2 2 0 0 0 192 210zM192 222a2 2 0 1 0 .001 4.001A2 2 0 0 0 192 222zM192 234a2 2 0 1 0 .001 4.001A2 2 0 0 0 192 234zM192 246a2 2 0 1 0 .001 4.001A2 2 0 0 0 192 246zM192 258a2 2 0 1 0 .001 4.001A2 2 0 0 0 192 258zM192 270a2 2 0 1 0 .001 4.001A2 2 0 0 0 192 270zM192 282a2 2 0 1 0 .001 4.001A2 2 0 0 0 192 282zM192 294a2 2 0 1 0 .001 4.001A2 2 0 0 0 192 294zM192 306a2 2 0 1 0 .001 4.001A2 2 0 0 0 192 306zM192 318a2 2 0 1 0 .001 4.001A2 2 0 0 0 192 318zM192 330a2 2 0 1 0 .001 4.001A2 2 0 0 0 192 330zM180 186a2 2 0 1 0 .001 4.001A2 2 0 0 0 180 186zM180 198a2 2 0 1 0 .001 4.001A2 2 0 0 0 180 198zM180 210a2 2 0 1 0 .001 4.001A2 2 0 0 0 180 210zM180 222a2 2 0 1 0 .001 4.001A2 2 0 0 0 180 222zM180 234a2 2 0 1 0 .001 4.001A2 2 0 0 0 180 234zM180 246a2 2 0 1 0 .001 4.001A2 2 0 0 0 180 246zM180 258a2 2 0 1 0 .001 4.001A2 2 0 0 0 180 258zM180 270a2 2 0 1 0 .001 4.001A2 2 0 0 0 180 270zM180 282a2 2 0 1 0 .001 4.001A2 2 0 0 0 180 282zM180 294a2 2 0 1 0 .001 4.001A2 2 0 0 0 180 294zM180 306a2 2 0 1 0 .001 4.001A2 2 0 0 0 180 306zM180 318a2 2 0 1 0 .001 4.001A2 2 0 0 0 180 318zM180 330a2 2 0 1 0 .001 4.001A2 2 0 0 0 180 330zM168 186a2 2 0 1 0 .001 4.001A2 2 0 0 0 168 186zM168 198a2 2 0 1 0 .001 4.001A2 2 0 0 0 168 198zM168 210a2 2 0 1 0 .001 4.001A2 2 0 0 0 168 210zM168 222a2 2 0 1 0 .001 4.001A2 2 0 0 0 168 222zM168 234a2 2 0 1 0 .001 4.001A2 2 0 0 0 168 234zM168 246a2 2 0 1 0 .001 4.001A2 2 0 0 0 168 246zM168 258a2 2 0 1 0 .001 4.001A2 2 0 0 0 168 258zM168 270a2 2 0 1 0 .001 4.001A2 2 0 0 0 168 270zM168 282a2 2 0 1 0 .001 4.001A2 2 0 0 0 168 282zM168 294a2 2 0 1 0 .001 4.001A2 2 0 0 0 168 294zM168 306a2 2 0 1 0 .001 4.001A2 2 0 0 0 168 306zM168 318a2 2 0 1 0 .001 4.001A2 2 0 0 0 168 318zM168 330a2 2 0 1 0 .001 4.001A2 2 0 0 0 168 330zM156 186a2 2 0 1 0 .001 4.001A2 2 0 0 0 156 186zM156 198a2 2 0 1 0 .001 4.001A2 2 0 0 0 156 198zM156 210a2 2 0 1 0 .001 4.001A2 2 0 0 0 156 210zM156 222a2 2 0 1 0 .001 4.001A2 2 0 0 0 156 222zM156 234a2 2 0 1 0 .001 4.001A2 2 0 0 0 156 234zM156 246a2 2 0 1 0 .001 4.001A2 2 0 0 0 156 246zM156 258a2 2 0 1 0 .001 4.001A2 2 0 0 0 156 258zM156 270a2 2 0 1 0 .001 4.001A2 2 0 0 0 156 270zM156 282a2 2 0 1 0 .001 4.001A2 2 0 0 0 156 282zM156 294a2 2 0 1 0 .001 4.001A2 2 0 0 0 156 294zM156 306a2 2 0 1 0 .001 4.001A2 2 0 0 0 156 306zM156 318a2 2 0 1 0 .001 4.001A2 2 0 0 0 156 318zM156 330a2 2 0 1 0 .001 4.001A2 2 0 0 0 156 330zM144 186a2 2 0 1 0 .001 4.001A2 2 0 0 0 144 186zM144 198a2 2 0 1 0 .001 4.001A2 2 0 0 0 144 198zM144 210a2 2 0 1 0 .001 4.001A2 2 0 0 0 144 210zM144 222a2 2 0 1 0 .001 4.001A2 2 0 0 0 144 222zM144 234a2 2 0 1 0 .001 4.001A2 2 0 0 0 144 234zM144 246a2 2 0 1 0 .001 4.001A2 2 0 0 0 144 246zM144 258a2 2 0 1 0 .001 4.001A2 2 0 0 0 144 258zM144 270a2 2 0 1 0 .001 4.001A2 2 0 0 0 144 270zM144 282a2 2 0 1 0 .001 4.001A2 2 0 0 0 144 282zM144 294a2 2 0 1 0 .001 4.001A2 2 0 0 0 144 294zM144 306a2 2 0 1 0 .001 4.001A2 2 0 0 0 144 306zM144 318a2 2 0 1 0 .001 4.001A2 2 0 0 0 144 318zM144 330a2 2 0 1 0 .001 4.001A2 2 0 0 0 144 330zM132 186a2 2 0 1 0 .001 4.001A2 2 0 0 0 132 186zM120 186a2 2 0 1 0 .001 4.001A2 2 0 0 0 120 186zM120 198a2 2 0 1 0 .001 4.001A2 2 0 0 0 120 198zM120 210a2 2 0 1 0 .001 4.001A2 2 0 0 0 120 210zM120 222a2 2 0 1 0 .001 4.001A2 2 0 0 0 120 222zM120 234a2 2 0 1 0 .001 4.001A2 2 0 0 0 120 234zM120 246a2 2 0 1 0 .001 4.001A2 2 0 0 0 120 246zM120 258a2 2 0 1 0 .001 4.001A2 2 0 0 0 120 258zM120 270a2 2 0 1 0 .001 4.001A2 2 0 0 0 120 270zM120 282a2 2 0 1 0 .001 4.001A2 2 0 0 0 120 282zM120 294a2 2 0 1 0 .001 4.001A2 2 0 0 0 120 294zM120 306a2 2 0 1 0 .001 4.001A2 2 0 0 0 120 306zM120 318a2 2 0 1 0 .001 4.001A2 2 0 0 0 120 318zM120 330a2 2 0 1 0 .001 4.001A2 2 0 0 0 120 330zM132 198a2 2 0 1 0 .001 4.001A2 2 0 0 0 132 198zM132 210a2 2 0 1 0 .001 4.001A2 2 0 0 0 132 210zM132 222a2 2 0 1 0 .001 4.001A2 2 0 0 0 132 222zM132 234a2 2 0 1 0 .001 4.001A2 2 0 0 0 132 234zM132 246a2 2 0 1 0 .001 4.001A2 2 0 0 0 132 246zM132 258a2 2 0 1 0 .001 4.001A2 2 0 0 0 132 258zM132 270a2 2 0 1 0 .001 4.001A2 2 0 0 0 132 270zM132 282a2 2 0 1 0 .001 4.001A2 2 0 0 0 132 282zM132 294a2 2 0 1 0 .001 4.001A2 2 0 0 0 132 294zM132 306a2 2 0 1 0 .001 4.001A2 2 0 0 0 132 306zM132 318a2 2 0 1 0 .001 4.001A2 2 0 0 0 132 318zM132 330a2 2 0 1 0 .001 4.001A2 2 0 0 0 132 330zM264 342a2 2 0 1 0 .001 4.001A2 2 0 0 0 264 342zM252 342a2 2 0 1 0 .001 4.001A2 2 0 0 0 252 342zM240 342a2 2 0 1 0 .001 4.001A2 2 0 0 0 240 342zM228 342a2 2 0 1 0 .001 4.001A2 2 0 0 0 228 342zM216 342a2 2 0 1 0 .001 4.001A2 2 0 0 0 216 342zM276 342a2 2 0 1 0 .001 4.001A2 2 0 0 0 276 342zM204 342a2 2 0 1 0 .001 4.001A2 2 0 0 0 204 342zM192 342a2 2 0 1 0 .001 4.001A2 2 0 0 0 192 342zM180 342a2 2 0 1 0 .001 4.001A2 2 0 0 0 180 342zM168 342a2 2 0 1 0 .001 4.001A2 2 0 0 0 168 342zM156 342a2 2 0 1 0 .001 4.001A2 2 0 0 0 156 342zM144 342a2 2 0 1 0 .001 4.001A2 2 0 0 0 144 342zM120 342a2 2 0 1 0 .001 4.001A2 2 0 0 0 120 342zM132 342a2 2 0 1 0 .001 4.001A2 2 0 0 0 132 342zM96 186a2 2 0 1 0 .001 4.001A2 2 0 0 0 96 186zM84 186a2 2 0 1 0 .001 4.001A2 2 0 0 0 84 186zM72 186a2 2 0 1 0 .001 4.001A2 2 0 0 0 72 186zM60 186a2 2 0 1 0 .001 4.001A2 2 0 0 0 60 186zM48 186a2 2 0 1 0 .001 4.001A2 2 0 0 0 48 186zM96 198a2 2 0 1 0 .001 4.001A2 2 0 0 0 96 198zM84 198a2 2 0 1 0 .001 4.001A2 2 0 0 0 84 198zM72 198a2 2 0 1 0 .001 4.001A2 2 0 0 0 72 198zM60 198a2 2 0 1 0 .001 4.001A2 2 0 0 0 60 198zM48 198a2 2 0 1 0 .001 4.001A2 2 0 0 0 48 198zM96 210a2 2 0 1 0 .001 4.001A2 2 0 0 0 96 210zM84 210a2 2 0 1 0 .001 4.001A2 2 0 0 0 84 210zM72 210a2 2 0 1 0 .001 4.001A2 2 0 0 0 72 210zM60 210a2 2 0 1 0 .001 4.001A2 2 0 0 0 60 210zM48 210a2 2 0 1 0 .001 4.001A2 2 0 0 0 48 210zM108 186a2 2 0 1 0 .001 4.001A2 2 0 0 0 108 186zM108 198a2 2 0 1 0 .001 4.001A2 2 0 0 0 108 198zM108 210a2 2 0 1 0 .001 4.001A2 2 0 0 0 108 210zM96 222a2 2 0 1 0 .001 4.001A2 2 0 0 0 96 222zM84 222a2 2 0 1 0 .001 4.001A2 2 0 0 0 84 222zM72 222a2 2 0 1 0 .001 4.001A2 2 0 0 0 72 222zM60 222a2 2 0 1 0 .001 4.001A2 2 0 0 0 60 222zM48 222a2 2 0 1 0 .001 4.001A2 2 0 0 0 48 222zM108 222a2 2 0 1 0 .001 4.001A2 2 0 0 0 108 222zM96 234a2 2 0 1 0 .001 4.001A2 2 0 0 0 96 234zM84 234a2 2 0 1 0 .001 4.001A2 2 0 0 0 84 234zM72 234a2 2 0 1 0 .001 4.001A2 2 0 0 0 72 234zM60 234a2 2 0 1 0 .001 4.001A2 2 0 0 0 60 234zM48 234a2 2 0 1 0 .001 4.001A2 2 0 0 0 48 234zM108 234a2 2 0 1 0 .001 4.001A2 2 0 0 0 108 234zM96 246a2 2 0 1 0 .001 4.001A2 2 0 0 0 96 246zM84 246a2 2 0 1 0 .001 4.001A2 2 0 0 0 84 246zM72 246a2 2 0 1 0 .001 4.001A2 2 0 0 0 72 246zM60 246a2 2 0 1 0 .001 4.001A2 2 0 0 0 60 246zM48 246a2 2 0 1 0 .001 4.001A2 2 0 0 0 48 246zM108 246a2 2 0 1 0 .001 4.001A2 2 0 0 0 108 246zM96 258a2 2 0 1 0 .001 4.001A2 2 0 0 0 96 258zM84 258a2 2 0 1 0 .001 4.001A2 2 0 0 0 84 258zM72 258a2 2 0 1 0 .001 4.001A2 2 0 0 0 72 258zM60 258a2 2 0 1 0 .001 4.001A2 2 0 0 0 60 258zM48 258a2 2 0 1 0 .001 4.001A2 2 0 0 0 48 258zM108 258a2 2 0 1 0 .001 4.001A2 2 0 0 0 108 258zM96 270a2 2 0 1 0 .001 4.001A2 2 0 0 0 96 270zM84 270a2 2 0 1 0 .001 4.001A2 2 0 0 0 84 270zM72 270a2 2 0 1 0 .001 4.001A2 2 0 0 0 72 270zM60 270a2 2 0 1 0 .001 4.001A2 2 0 0 0 60 270zM48 270a2 2 0 1 0 .001 4.001A2 2 0 0 0 48 270zM108 270a2 2 0 1 0 .001 4.001A2 2 0 0 0 108 270zM96 282a2 2 0 1 0 .001 4.001A2 2 0 0 0 96 282zM84 282a2 2 0 1 0 .001 4.001A2 2 0 0 0 84 282zM72 282a2 2 0 1 0 .001 4.001A2 2 0 0 0 72 282zM60 282a2 2 0 1 0 .001 4.001A2 2 0 0 0 60 282zM48 282a2 2 0 1 0 .001 4.001A2 2 0 0 0 48 282zM108 282a2 2 0 1 0 .001 4.001A2 2 0 0 0 108 282zM96 294a2 2 0 1 0 .001 4.001A2 2 0 0 0 96 294zM84 294a2 2 0 1 0 .001 4.001A2 2 0 0 0 84 294zM72 294a2 2 0 1 0 .001 4.001A2 2 0 0 0 72 294zM60 294a2 2 0 1 0 .001 4.001A2 2 0 0 0 60 294zM48 294a2 2 0 1 0 .001 4.001A2 2 0 0 0 48 294zM108 294a2 2 0 1 0 .001 4.001A2 2 0 0 0 108 294zM96 306a2 2 0 1 0 .001 4.001A2 2 0 0 0 96 306zM84 306a2 2 0 1 0 .001 4.001A2 2 0 0 0 84 306zM72 306a2 2 0 1 0 .001 4.001A2 2 0 0 0 72 306zM60 306a2 2 0 1 0 .001 4.001A2 2 0 0 0 60 306zM48 306a2 2 0 1 0 .001 4.001A2 2 0 0 0 48 306zM108 306a2 2 0 1 0 .001 4.001A2 2 0 0 0 108 306zM96 318a2 2 0 1 0 .001 4.001A2 2 0 0 0 96 318zM84 318a2 2 0 1 0 .001 4.001A2 2 0 0 0 84 318zM72 318a2 2 0 1 0 .001 4.001A2 2 0 0 0 72 318zM60 318a2 2 0 1 0 .001 4.001A2 2 0 0 0 60 318zM48 318a2 2 0 1 0 .001 4.001A2 2 0 0 0 48 318zM108 318a2 2 0 1 0 .001 4.001A2 2 0 0 0 108 318zM96 330a2 2 0 1 0 .001 4.001A2 2 0 0 0 96 330zM84 330a2 2 0 1 0 .001 4.001A2 2 0 0 0 84 330zM72 330a2 2 0 1 0 .001 4.001A2 2 0 0 0 72 330zM60 330a2 2 0 1 0 .001 4.001A2 2 0 0 0 60 330zM48 330a2 2 0 1 0 .001 4.001A2 2 0 0 0 48 330zM108 330a2 2 0 1 0 .001 4.001A2 2 0 0 0 108 330zM36 186a2 2 0 1 0 .001 4.001A2 2 0 0 0 36 186zM36 198a2 2 0 1 0 .001 4.001A2 2 0 0 0 36 198zM36 210a2 2 0 1 0 .001 4.001A2 2 0 0 0 36 210zM36 222a2 2 0 1 0 .001 4.001A2 2 0 0 0 36 222zM36 234a2 2 0 1 0 .001 4.001A2 2 0 0 0 36 234zM36 246a2 2 0 1 0 .001 4.001A2 2 0 0 0 36 246zM36 258a2 2 0 1 0 .001 4.001A2 2 0 0 0 36 258zM36 270a2 2 0 1 0 .001 4.001A2 2 0 0 0 36 270zM36 282a2 2 0 1 0 .001 4.001A2 2 0 0 0 36 282zM36 294a2 2 0 1 0 .001 4.001A2 2 0 0 0 36 294zM36 306a2 2 0 1 0 .001 4.001A2 2 0 0 0 36 306zM36 318a2 2 0 1 0 .001 4.001A2 2 0 0 0 36 318zM36 330a2 2 0 1 0 .001 4.001A2 2 0 0 0 36 330zM96 342a2 2 0 1 0 .001 4.001A2 2 0 0 0 96 342zM84 342a2 2 0 1 0 .001 4.001A2 2 0 0 0 84 342zM72 342a2 2 0 1 0 .001 4.001A2 2 0 0 0 72 342zM60 342a2 2 0 1 0 .001 4.001A2 2 0 0 0 60 342zM48 342a2 2 0 1 0 .001 4.001A2 2 0 0 0 48 342zM108 342a2 2 0 1 0 .001 4.001A2 2 0 0 0 108 342zM36 342a2 2 0 1 0 .001 4.001A2 2 0 0 0 36 342z"></path>
      <path fill="#22272e" d="M309.5 154.5h-255v255h255v-255z"></path>
      <path stroke="#79B8FF" d="M309.5 154.5h-255v255h255v-255z" fill="none"></path>
      <path fill="#044288" d="M244 333h-29.373v24H244v-24zM101.33200000000001 333H70.76v24h30.572v-24z"></path>
      <g>
        <path fill="#044288" d="M190.649 333h-11.39v24h11.39v-24z"></path>
      </g>
      <g>
        <path fill="#005CC5" d="M257 278h-37.066v36H257v-36z"></path>
      </g>
      <g>
        <path fill="#005CC5" d="M195.224 278H97v36h98.224v-36z"></path>
      </g>
    </g>
    <path stroke="#C7E0FF" d="M202 193c0-64.5 55.766-138.576 138-119.5 35.069 8.135 51.5 43.5-16 87.5-64.278 41.9-66.688 142.516 16 151C490.131 327.403 575.578 30.617 720.5 35.5c93.657 3.155 10.91 133.039 35 197.5 19.925 53.317 94.5 58.5 115.5 58.5" fill="none"></path>
    
    <g style="user-select:none">
      <path fill="#79B8FF" d="M898.143 274.75h-34.286c-1.571 0-2.857 1.294-2.857 2.875v28.75c0 1.581 1.286 2.875 2.857 2.875h34.286c1.571 0 2.857-1.294 2.857-2.875v-28.75c0-1.581-1.286-2.875-2.857-2.875zM900 307h-38v-31h38v31z"></path>
      <path fill="#79B8FF" d="M862 307h38v-31h-38v31zm19-29.375h17.143v2.875H881v-2.875zm-5.714 0h2.856v2.875h-2.856v-2.875zm-5.715 0h2.857v2.875h-2.857v-2.875zm-5.714 0h2.856v2.875h-2.856v-2.875zm0 5.75h34.285v23h-34.285v-23z"></path>
      <path fill="#22272e" d="M878.143 277.625h-2.856v2.876h2.856v-2.876zM872.429 277.625h-2.857v2.876h2.857v-2.876zM866.7139999999999 277.625h-2.856v2.876h2.856v-2.876zM898.143 283.375h-34.285v23h34.285v-23zM898.143 277.625H881v2.876h17.143v-2.876zM339 309h28v7h-28v-7z"></path>
      <path fill="#79B8FF" d="M365.85699999999997 302.375h-12.858a2.14 2.14 0 0 0-2.142 2.125v17a2.14 2.14 0 0 0 2.142 2.125h12.858a2.14 2.14 0 0 0 2.142-2.125v-17a2.14 2.14 0 0 0-2.142-2.125z"></path>
      <path fill="#22272e" d="M363.713 319.375h-8.57v-12.75h8.57v12.75z"></path>
      <path fill="#79B8FF" d="M346.571 304.5h2.143v2.125h-2.143v12.75h2.143v2.125h-2.143c-1.178 0-2.143-.956-2.143-2.125v-12.75c0-1.169.965-2.125 2.143-2.125zM340.143 306.625h2.143v2.125h-2.143v8.5h2.143v2.125h-2.143c-1.179 0-2.143-.956-2.143-2.125v-8.5c0-1.169.964-2.125 2.143-2.125z"></path>
      <path fill="#22272e" d="M306.5 66.5l-3 .795v3.66l-3 .795v-3.66l-3 .825V79.04l9-2.385V66.5zM287 76.655l9 2.385V68.915l-9-2.415v10.155z"></path>
      <path fill="#79B8FF" d="M306.875 63.95l-9.75-2.61a2.1 2.1 0 0 0-.75 0l-9.75 2.61c-.675.195-1.125.78-1.125 1.455V76.61c0 .675.45 1.26 1.125 1.455l9.75 2.595c.24.075.51.075.75 0l9.75-2.595c.675-.195 1.125-.78 1.125-1.455V65.405c0-.675-.45-1.26-1.125-1.455zm-.375 12.705l-9 2.385V68.915l3-.825v3.66l3-.795v-3.66l3-.795v10.155zM296 79.04l-9-2.385V66.5l9 2.415V79.04zM296.75 62.405L306.5 65l-3 .795-9.75-2.595 3-.795zM290.75 63.995l9.75 2.595-3.75 1.005L287 65l3.75-1.005zM221.17499999999998 207.651l-2.7-3.35a3.756 3.756 0 0 1-.775-1.926l-.475-4.25a3.772 3.772 0 0 0-3.325-3.324l-4.25-.475c-.75-.075-1.4-.401-1.95-.826l-3.35-2.699a3.76 3.76 0 0 0-4.701 0l-3.35 2.699c-.55.425-1.2.701-1.925.776l-4.25.474a3.774 3.774 0 0 0-3.325 3.326l-.475 4.25c-.075.75-.4 1.4-.825 1.95l-2.7 3.349a3.76 3.76 0 0 0 0 4.701l2.7 3.35c.425.55.7 1.2.775 1.925l.475 4.25a3.773 3.773 0 0 0 3.325 3.325l4.25.475c.75.075 1.4.4 1.95.825l3.35 2.7a3.76 3.76 0 0 0 4.7 0l3.351-2.7c.55-.425 1.2-.7 1.925-.775l4.25-.475a3.773 3.773 0 0 0 3.325-3.325l.475-4.25c.075-.75.4-1.4.825-1.95l2.7-3.35a3.76 3.76 0 0 0 0-4.7zM198.249 220l-8.75-8.75 3.75-3.75 5 5L210.75 200l3.75 3.875L198.249 220z"></path>
      <path fill="#22272e" d="M743 162h15.529l6.471 6.265V188h-22v-26z"></path>
      <path fill="#79B8FF" d="M759 160h-15c-1.1 0-2 .9-2 2v24c0 1.1.9 2 2 2h20c1.1 0 2-.9 2-2v-19l-7-7zm5 26h-20v-24h14l6 6v18z"></path>
      <path fill="#79B8FF" d="M751 170l-5 5 5 5 1-2-3-3 3-3.04-1-1.96zM756 172l3 3-3 3.04 1 1.96 5-5-5-5-1 2z"></path>
      <path fill="#C7E0FF" d="M127.322 267.124c0-10.614-8.394-19.239-18.774-19.239v1c9.804 0 17.774 8.153 17.774 18.239h1z"></path>
      <path fill="#2087FF" d="M132.695 323.067h17.841c.494-6.066.774-12.078.774-17.896 0-50.325-19.805-77.777-29.981-77.777-9.66 0-27.987 24.757-29.821 70.32 2.172 7.563 8.982 13.079 17.041 13.079 9.804 0 17.773-8.154 17.773-18.239v-25.431h1v25.431c0 10.613-8.393 19.239-18.773 19.239-7.653 0-14.214-4.697-17.14-11.414-.04 1.574-.063 3.17-.063 4.792 0 40.129 13.006 89.385 21.774 103.008l.174.271h3.238v-68.822c0-9.135 7.225-16.561 16.163-16.561zm-9.288-43.229c0 6.548-5.179 11.878-11.595 11.878-6.415 0-11.595-5.33-11.595-11.878v-21.415h1v21.415c0 6.02 4.756 10.878 10.595 10.878 5.84 0 10.595-4.858 10.595-10.878v-21.415h1v21.415z"></path>
      <path fill="#2087FF" d="M134.501 359.707v20.076c0 2.905 1.6 5.413 3.934 6.67 3.025-9.777 5.94-21.651 8.23-34.277h-4.833c-4.037 0-7.331 3.359-7.331 7.531z"></path>
      <path fill="#C7E0FF" d="M122.406 279.83799999999997c0 6.02-4.755 10.878-10.595 10.878-5.839 0-10.595-4.858-10.595-10.878v-21.414h-1v21.414c0 6.548 5.18 11.878 11.595 11.878 6.416 0 11.595-5.33 11.595-11.878v-21.414h-1v21.414z"></path>
      <path fill="#C7E0FF" d="M108.548 311.793c10.38 0 18.774-8.626 18.774-19.239v-25.431h-1v25.431c0 10.085-7.97 18.239-17.774 18.239-8.06 0-14.869-5.516-17.041-13.079-.036.885-.076 1.764-.099 2.665 2.926 6.717 9.487 11.414 17.14 11.414zM132.695 323.067c-8.938 0-16.163 7.427-16.163 16.562v68.822h1v-68.822c0-8.607 6.801-15.562 15.163-15.562h17.761c.029-.334.052-.666.08-1h-17.841z"></path>
      <path fill="#2087FF" d="M126.974 386.475v-36.139c0-6.178 4.888-11.208 10.943-11.208h10.827a286.332 286.332 0 0 0 1.712-15.061h-17.761c-8.362 0-15.163 6.955-15.163 15.561v68.823h11.831l.175-.272c1.626-2.527 3.399-6.285 5.207-10.978-4.502-1.395-7.771-5.675-7.771-10.726z"></path>
      <path fill="#2087FF" d="M137.917 340.12800000000004c-5.48 0-9.943 4.559-9.943 10.208v36.139c0 4.64 3.013 8.538 7.124 9.785a170.87 170.87 0 0 0 3.032-8.843c-2.745-1.398-4.629-4.293-4.629-7.635v-20.076c0-4.7 3.718-8.531 8.331-8.531h5.011c.647-3.632 1.225-7.33 1.755-11.047h-.239-10.442z"></path>
      <path fill="#C7E0FF" d="M148.36 339.128h-10.442c-6.055 0-10.943 5.029-10.943 11.208v36.139c0 5.05 3.268 9.331 7.769 10.725.118-.305.237-.627.355-.94-4.112-1.247-7.124-5.145-7.124-9.785v-36.139c0-5.649 4.463-10.208 9.943-10.208H148.599c.047-.334.098-.666.144-1h-.383z"></path>
      <path fill="#C7E0FF" d="M133.501 359.706v20.076c0 3.342 1.884 6.236 4.629 7.635.101-.323.204-.637.305-.965-2.334-1.257-3.934-3.765-3.934-6.67v-20.076c0-4.172 3.294-7.531 7.331-7.531h4.833l.178-1h-5.011c-4.613 0-8.331 3.831-8.331 8.531z"></path>
      <path fill="#044288" d="M146.747 268.48699999999997H95.909c6.387-27.025 18.885-40.5 25.419-40.5 6.535 0 19.032 13.475 25.419 40.5z"></path>
      <path stroke="#044288" stroke-width="1.184" d="M146.747 268.48699999999997H95.909c6.387-27.025 18.885-40.5 25.419-40.5 6.535 0 19.032 13.475 25.419 40.5z" fill="none"></path>
      <path fill="#032E61" d="M113.25899999999999 232.476c1.629.878 4.633 1.466 8.069 1.466 3.437 0 6.441-.588 8.071-1.466-3.054-2.994-5.894-4.49-8.071-4.49-2.177 0-5.015 1.496-8.069 4.49z"></path>
      <path fill="#005CC5" d="M153.601 198.873c0 17.67-14.316 31.996-31.976 31.996-17.66 0-31.976-14.326-31.976-31.996 0-20.664 30.644-45.327 31.976-61.324 1.333 15.997 31.976 41.327 31.976 61.324z"></path>
      <path stroke-linecap="round" stroke-linejoin="round" stroke="#005CC5" stroke-width="1.184" d="M153.601 198.873c0 17.67-14.316 31.996-31.976 31.996-17.66 0-31.976-14.326-31.976-31.996 0-20.664 30.644-45.327 31.976-61.324 1.333 15.997 31.976 41.327 31.976 61.324z" fill="none"></path>
      <g>
        <path fill="#2087FF" d="M121.625 230.869c9.48 0 17.994-4.131 23.849-10.689a36.341 36.341 0 0 0 2.314-12.787c0-20.097-16.27-36.388-36.338-36.388-3.717 0-7.302.56-10.679 1.599-6.081 8.851-11.123 17.891-11.123 26.271 0 17.67 14.317 31.994 31.977 31.994z"></path>
        <path stroke="#2087FF" stroke-width="1.184" d="M121.625 230.869c9.48 0 17.994-4.131 23.849-10.689a36.341 36.341 0 0 0 2.314-12.787c0-20.097-16.27-36.388-36.338-36.388-3.717 0-7.302.56-10.679 1.599-6.081 8.851-11.123 17.891-11.123 26.271 0 17.67 14.317 31.994 31.977 31.994z" fill="none"></path>
      </g>
    </g>
    <path stroke-linecap="round" stroke-linejoin="round" stroke="#C7E0FF" d="M747 365.199c2 0 2-3.99 4-3.99s2 3.99 4 3.99 2-3.99 4-3.99 2 3.99 4 3.99 2-3.99 4-3.99M609 166.665c2 0 2-3.99 4-3.99s2 3.99 4 3.99 2-3.99 4-3.99 2 3.99 4 3.99 2-3.99 4-3.99" fill="none"></path>
    <path stroke-linejoin="round" stroke="#2087FF" stroke-width="2.00012" d="M1013.952 190.108l-12.41-20.544 20.5-12.375 12.41 20.544-20.5 12.375z" fill="none"></path>
    <g style="user-select:none">
      <path fill="#22272e" d="M542 393.5c9.941 0 18 8.059 18 18s-8.059 18-18 18-18-8.059-18-18 8.059-18 18-18z"></path>
      <path stroke="#C7E0FF" d="M542 393.5c9.941 0 18 8.059 18 18s-8.059 18-18 18-18-8.059-18-18 8.059-18 18-18z" fill="none"></path>
    </g>
    <path stroke-linejoin="round" stroke="#C7E0FF" d="M466.777 288.423l-3.402 13.828 13.825 3.419 3.403-13.83-13.826-3.417z" fill="none" stroke-width="1.00006"></path>
    <path stroke-linejoin="round" stroke="#2087FF" stroke-width="2.00012" d="M74.632 111.95599999999999l-15.512 3.848-3.808-15.522 15.513-3.848 3.807 15.522z" fill="none"></path>
    <path stroke-linejoin="round" stroke="#2087FF" stroke-width="2" d="M8 7H-8L0-7 8 7z" fill="none" transform="matrix(-.5171 .856 -.8492 -.513 504.245 437.753)"></path>
    <g clip-path="url(#b)" transform="matrix(.26 0 0 .26 33.6 109.6)">
      <path stroke-linecap="round" stroke="#2188FF" stroke-width="7.46" d="M509.457 554.916c-14.622-.324-14.752-29.635-29.44-29.836-14.76.213-14.813 29.84-29.68 29.84-14.868 0-14.92-29.639-29.691-29.84-14.76.213-14.812 29.84-29.68 29.84-14.696 0-14.916-28.945-29.172-29.821" fill="none"></path>
    </g>
    <g clip-path="url(#c)" transform="rotate(180 584.7 99.7) scale(.26)">
      <path stroke-linecap="round" stroke="#2188FF" stroke-width="7.46" d="M509.457 554.916c-14.622-.324-14.752-29.635-29.44-29.836-14.76.213-14.813 29.84-29.68 29.84-14.868 0-14.92-29.639-29.691-29.84-14.76.213-14.812 29.84-29.68 29.84-14.696 0-14.916-28.945-29.172-29.821" fill="none"></path>
    </g>
    <g clip-path="url(#d)" transform="matrix(0 -.32 .32 0 796.2 364.8)">
      <path stroke-linecap="round" stroke="#C8E1FF" d="M509.457 554.916c-14.622-.324-14.752-29.635-29.44-29.836-14.76.213-14.813 29.84-29.68 29.84-14.868 0-14.92-29.639-29.691-29.84-14.76.213-14.812 29.84-29.68 29.84-14.696 0-14.916-28.945-29.172-29.821" fill="none" stroke-width="3.73"></path>
    </g>
  </g>
</svg>
