<svg width="1068" height="427" viewBox="0 0 1068 427" fill="none" xmlns="http://www.w3.org/2000/svg">
<g clip-path="url(#clip0)">
<rect width="276" height="276" transform="matrix(1 0 0 -1 782 362)" fill="#1B1F23"/>
<g clip-path="url(#clip1)">
<circle r="2" transform="matrix(1 0 0 -1 828 160)" fill="#044289"/>
<circle r="2" transform="matrix(1 0 0 -1 840 160)" fill="#044289"/>
<circle r="2" transform="matrix(1 0 0 -1 852 160)" fill="#044289"/>
<circle r="2" transform="matrix(1 0 0 -1 864 160)" fill="#044289"/>
<circle r="2" transform="matrix(1 0 0 -1 876 160)" fill="#044289"/>
<circle r="2" transform="matrix(1 0 0 -1 828 148)" fill="#044289"/>
<circle r="2" transform="matrix(1 0 0 -1 840 148)" fill="#044289"/>
<circle r="2" transform="matrix(1 0 0 -1 852 148)" fill="#044289"/>
<circle r="2" transform="matrix(1 0 0 -1 864 148)" fill="#044289"/>
<circle r="2" transform="matrix(1 0 0 -1 876 148)" fill="#044289"/>
<circle r="2" transform="matrix(1 0 0 -1 828 136)" fill="#044289"/>
<circle r="2" transform="matrix(1 0 0 -1 840 136)" fill="#044289"/>
<circle r="2" transform="matrix(1 0 0 -1 852 136)" fill="#044289"/>
<circle r="2" transform="matrix(1 0 0 -1 864 136)" fill="#044289"/>
<circle r="2" transform="matrix(1 0 0 -1 876 136)" fill="#044289"/>
<circle r="2" transform="matrix(1 0 0 -1 816 160)" fill="#044289"/>
<circle r="2" transform="matrix(1 0 0 -1 816 148)" fill="#044289"/>
<circle r="2" transform="matrix(1 0 0 -1 816 136)" fill="#044289"/>
<circle r="2" transform="matrix(1 0 0 -1 828 124)" fill="#044289"/>
<circle r="2" transform="matrix(1 0 0 -1 840 124)" fill="#044289"/>
<circle r="2" transform="matrix(1 0 0 -1 852 124)" fill="#044289"/>
<circle r="2" transform="matrix(1 0 0 -1 864 124)" fill="#044289"/>
<circle r="2" transform="matrix(1 0 0 -1 876 124)" fill="#044289"/>
<circle r="2" transform="matrix(1 0 0 -1 816 124)" fill="#044289"/>
<circle r="2" transform="matrix(1 0 0 -1 828 112)" fill="#044289"/>
<circle r="2" transform="matrix(1 0 0 -1 840 112)" fill="#044289"/>
<circle r="2" transform="matrix(1 0 0 -1 852 112)" fill="#044289"/>
<circle r="2" transform="matrix(1 0 0 -1 864 112)" fill="#044289"/>
<circle r="2" transform="matrix(1 0 0 -1 876 112)" fill="#044289"/>
<circle r="2" transform="matrix(1 0 0 -1 816 112)" fill="#044289"/>
<circle r="2" transform="matrix(1 0 0 -1 828 100)" fill="#044289"/>
<circle r="2" transform="matrix(1 0 0 -1 840 100)" fill="#044289"/>
<circle r="2" transform="matrix(1 0 0 -1 852 100)" fill="#044289"/>
<circle r="2" transform="matrix(1 0 0 -1 864 100)" fill="#044289"/>
<circle r="2" transform="matrix(1 0 0 -1 876 100)" fill="#044289"/>
<circle r="2" transform="matrix(1 0 0 -1 816 100)" fill="#044289"/>
<circle r="2" transform="matrix(1 0 0 -1 828 88)" fill="#044289"/>
<circle r="2" transform="matrix(1 0 0 -1 840 88)" fill="#044289"/>
<circle r="2" transform="matrix(1 0 0 -1 852 88)" fill="#044289"/>
<circle r="2" transform="matrix(1 0 0 -1 864 88)" fill="#044289"/>
<circle r="2" transform="matrix(1 0 0 -1 876 88)" fill="#044289"/>
<circle r="2" transform="matrix(1 0 0 -1 816 88)" fill="#044289"/>
<circle r="2" transform="matrix(1 0 0 -1 888 160)" fill="#044289"/>
<circle r="2" transform="matrix(1 0 0 -1 888 148)" fill="#044289"/>
<circle r="2" transform="matrix(1 0 0 -1 888 136)" fill="#044289"/>
<circle r="2" transform="matrix(1 0 0 -1 888 124)" fill="#044289"/>
<circle r="2" transform="matrix(1 0 0 -1 888 112)" fill="#044289"/>
<circle r="2" transform="matrix(1 0 0 -1 888 100)" fill="#044289"/>
<circle r="2" transform="matrix(1 0 0 -1 888 88)" fill="#044289"/>
<circle r="2" transform="matrix(1 0 0 -1 900 160)" fill="#044289"/>
<circle r="2" transform="matrix(1 0 0 -1 900 148)" fill="#044289"/>
<circle r="2" transform="matrix(1 0 0 -1 900 136)" fill="#044289"/>
<circle r="2" transform="matrix(1 0 0 -1 900 124)" fill="#044289"/>
<circle r="2" transform="matrix(1 0 0 -1 900 112)" fill="#044289"/>
<circle r="2" transform="matrix(1 0 0 -1 900 100)" fill="#044289"/>
<circle r="2" transform="matrix(1 0 0 -1 900 88)" fill="#044289"/>
<circle r="2" transform="matrix(1 0 0 -1 912 160)" fill="#044289"/>
<circle r="2" transform="matrix(1 0 0 -1 912 148)" fill="#044289"/>
<circle r="2" transform="matrix(1 0 0 -1 912 136)" fill="#044289"/>
<circle r="2" transform="matrix(1 0 0 -1 912 124)" fill="#044289"/>
<circle r="2" transform="matrix(1 0 0 -1 912 112)" fill="#044289"/>
<circle r="2" transform="matrix(1 0 0 -1 912 100)" fill="#044289"/>
<circle r="2" transform="matrix(1 0 0 -1 912 88)" fill="#044289"/>
<circle r="2" transform="matrix(1 0 0 -1 924 160)" fill="#044289"/>
<circle r="2" transform="matrix(1 0 0 -1 924 148)" fill="#044289"/>
<circle r="2" transform="matrix(1 0 0 -1 924 136)" fill="#044289"/>
<circle r="2" transform="matrix(1 0 0 -1 924 124)" fill="#044289"/>
<circle r="2" transform="matrix(1 0 0 -1 924 112)" fill="#044289"/>
<circle r="2" transform="matrix(1 0 0 -1 924 100)" fill="#044289"/>
<circle r="2" transform="matrix(1 0 0 -1 924 88)" fill="#044289"/>
<circle r="2" transform="matrix(1 0 0 -1 936 160)" fill="#044289"/>
<circle r="2" transform="matrix(1 0 0 -1 936 148)" fill="#044289"/>
<circle r="2" transform="matrix(1 0 0 -1 936 136)" fill="#044289"/>
<circle r="2" transform="matrix(1 0 0 -1 936 124)" fill="#044289"/>
<circle r="2" transform="matrix(1 0 0 -1 936 112)" fill="#044289"/>
<circle r="2" transform="matrix(1 0 0 -1 936 100)" fill="#044289"/>
<circle r="2" transform="matrix(1 0 0 -1 936 88)" fill="#044289"/>
<circle r="2" transform="matrix(1 0 0 -1 948 160)" fill="#044289"/>
<circle r="2" transform="matrix(1 0 0 -1 948 148)" fill="#044289"/>
<circle r="2" transform="matrix(1 0 0 -1 948 136)" fill="#044289"/>
<circle r="2" transform="matrix(1 0 0 -1 948 124)" fill="#044289"/>
<circle r="2" transform="matrix(1 0 0 -1 948 112)" fill="#044289"/>
<circle r="2" transform="matrix(1 0 0 -1 948 100)" fill="#044289"/>
<circle r="2" transform="matrix(1 0 0 -1 948 88)" fill="#044289"/>
<circle r="2" transform="matrix(1 0 0 -1 960 160)" fill="#044289"/>
<circle r="2" transform="matrix(1 0 0 -1 972 160)" fill="#044289"/>
<circle r="2" transform="matrix(1 0 0 -1 972 148)" fill="#044289"/>
<circle r="2" transform="matrix(1 0 0 -1 972 136)" fill="#044289"/>
<circle r="2" transform="matrix(1 0 0 -1 972 124)" fill="#044289"/>
<circle r="2" transform="matrix(1 0 0 -1 972 112)" fill="#044289"/>
<circle r="2" transform="matrix(1 0 0 -1 972 100)" fill="#044289"/>
<circle r="2" transform="matrix(1 0 0 -1 972 88)" fill="#044289"/>
<circle r="2" transform="matrix(1 0 0 -1 960 148)" fill="#044289"/>
<circle r="2" transform="matrix(1 0 0 -1 960 136)" fill="#044289"/>
<circle r="2" transform="matrix(1 0 0 -1 960 124)" fill="#044289"/>
<circle r="2" transform="matrix(1 0 0 -1 960 112)" fill="#044289"/>
<circle r="2" transform="matrix(1 0 0 -1 960 100)" fill="#044289"/>
<circle r="2" transform="matrix(1 0 0 -1 960 88)" fill="#044289"/>
<circle r="2" transform="matrix(1 0 0 -1 996 160)" fill="#044289"/>
<circle r="2" transform="matrix(1 0 0 -1 1008 160)" fill="#044289"/>
<circle r="2" transform="matrix(1 0 0 -1 1020 160)" fill="#044289"/>
<circle r="2" transform="matrix(1 0 0 -1 1032 160)" fill="#044289"/>
<circle r="2" transform="matrix(1 0 0 -1 1044 160)" fill="#044289"/>
<circle r="2" transform="matrix(1 0 0 -1 996 148)" fill="#044289"/>
<circle r="2" transform="matrix(1 0 0 -1 1008 148)" fill="#044289"/>
<circle r="2" transform="matrix(1 0 0 -1 1020 148)" fill="#044289"/>
<circle r="2" transform="matrix(1 0 0 -1 1032 148)" fill="#044289"/>
<circle r="2" transform="matrix(1 0 0 -1 1044 148)" fill="#044289"/>
<circle r="2" transform="matrix(1 0 0 -1 996 136)" fill="#044289"/>
<circle r="2" transform="matrix(1 0 0 -1 1008 136)" fill="#044289"/>
<circle r="2" transform="matrix(1 0 0 -1 1020 136)" fill="#044289"/>
<circle r="2" transform="matrix(1 0 0 -1 1032 136)" fill="#044289"/>
<circle r="2" transform="matrix(1 0 0 -1 1044 136)" fill="#044289"/>
<circle r="2" transform="matrix(1 0 0 -1 984 160)" fill="#044289"/>
<circle r="2" transform="matrix(1 0 0 -1 984 148)" fill="#044289"/>
<circle r="2" transform="matrix(1 0 0 -1 984 136)" fill="#044289"/>
<circle r="2" transform="matrix(1 0 0 -1 996 124)" fill="#044289"/>
<circle r="2" transform="matrix(1 0 0 -1 1008 124)" fill="#044289"/>
<circle r="2" transform="matrix(1 0 0 -1 1020 124)" fill="#044289"/>
<circle r="2" transform="matrix(1 0 0 -1 1032 124)" fill="#044289"/>
<circle r="2" transform="matrix(1 0 0 -1 1044 124)" fill="#044289"/>
<circle r="2" transform="matrix(1 0 0 -1 984 124)" fill="#044289"/>
<circle r="2" transform="matrix(1 0 0 -1 996 112)" fill="#044289"/>
<circle r="2" transform="matrix(1 0 0 -1 1008 112)" fill="#044289"/>
<circle r="2" transform="matrix(1 0 0 -1 1020 112)" fill="#044289"/>
<circle r="2" transform="matrix(1 0 0 -1 1032 112)" fill="#044289"/>
<circle r="2" transform="matrix(1 0 0 -1 1044 112)" fill="#044289"/>
<circle r="2" transform="matrix(1 0 0 -1 984 112)" fill="#044289"/>
<circle r="2" transform="matrix(1 0 0 -1 996 100)" fill="#044289"/>
<circle r="2" transform="matrix(1 0 0 -1 1008 100)" fill="#044289"/>
<circle r="2" transform="matrix(1 0 0 -1 1020 100)" fill="#044289"/>
<circle r="2" transform="matrix(1 0 0 -1 1032 100)" fill="#044289"/>
<circle r="2" transform="matrix(1 0 0 -1 1044 100)" fill="#044289"/>
<circle r="2" transform="matrix(1 0 0 -1 984 100)" fill="#044289"/>
<circle r="2" transform="matrix(1 0 0 -1 996 88)" fill="#044289"/>
<circle r="2" transform="matrix(1 0 0 -1 1008 88)" fill="#044289"/>
<circle r="2" transform="matrix(1 0 0 -1 1020 88)" fill="#044289"/>
<circle r="2" transform="matrix(1 0 0 -1 1032 88)" fill="#044289"/>
<circle r="2" transform="matrix(1 0 0 -1 1044 88)" fill="#044289"/>
<circle r="2" transform="matrix(1 0 0 -1 984 88)" fill="#044289"/>
<circle r="2" transform="matrix(1 0 0 -1 1056 160)" fill="#044289"/>
<circle r="2" transform="matrix(1 0 0 -1 1056 148)" fill="#044289"/>
<circle r="2" transform="matrix(1 0 0 -1 1056 136)" fill="#044289"/>
<circle r="2" transform="matrix(1 0 0 -1 1056 124)" fill="#044289"/>
<circle r="2" transform="matrix(1 0 0 -1 1056 112)" fill="#044289"/>
<circle r="2" transform="matrix(1 0 0 -1 1056 100)" fill="#044289"/>
<circle r="2" transform="matrix(1 0 0 -1 1056 88)" fill="#044289"/>
<circle r="2" transform="matrix(1 0 0 -1 828 328)" fill="#044289"/>
<circle r="2" transform="matrix(1 0 0 -1 840 328)" fill="#044289"/>
<circle r="2" transform="matrix(1 0 0 -1 852 328)" fill="#044289"/>
<circle r="2" transform="matrix(1 0 0 -1 864 328)" fill="#044289"/>
<circle r="2" transform="matrix(1 0 0 -1 876 328)" fill="#044289"/>
<circle r="2" transform="matrix(1 0 0 -1 828 316)" fill="#044289"/>
<circle r="2" transform="matrix(1 0 0 -1 840 316)" fill="#044289"/>
<circle r="2" transform="matrix(1 0 0 -1 852 316)" fill="#044289"/>
<circle r="2" transform="matrix(1 0 0 -1 864 316)" fill="#044289"/>
<circle r="2" transform="matrix(1 0 0 -1 876 316)" fill="#044289"/>
<circle r="2" transform="matrix(1 0 0 -1 828 304)" fill="#044289"/>
<circle r="2" transform="matrix(1 0 0 -1 840 304)" fill="#044289"/>
<circle r="2" transform="matrix(1 0 0 -1 852 304)" fill="#044289"/>
<circle r="2" transform="matrix(1 0 0 -1 864 304)" fill="#044289"/>
<circle r="2" transform="matrix(1 0 0 -1 876 304)" fill="#044289"/>
<circle r="2" transform="matrix(1 0 0 -1 816 328)" fill="#044289"/>
<circle r="2" transform="matrix(1 0 0 -1 816 316)" fill="#044289"/>
<circle r="2" transform="matrix(1 0 0 -1 816 304)" fill="#044289"/>
<circle r="2" transform="matrix(1 0 0 -1 828 292)" fill="#044289"/>
<circle r="2" transform="matrix(1 0 0 -1 840 292)" fill="#044289"/>
<circle r="2" transform="matrix(1 0 0 -1 852 292)" fill="#044289"/>
<circle r="2" transform="matrix(1 0 0 -1 864 292)" fill="#044289"/>
<circle r="2" transform="matrix(1 0 0 -1 876 292)" fill="#044289"/>
<circle r="2" transform="matrix(1 0 0 -1 816 292)" fill="#044289"/>
<circle r="2" transform="matrix(1 0 0 -1 828 280)" fill="#044289"/>
<circle r="2" transform="matrix(1 0 0 -1 840 280)" fill="#044289"/>
<circle r="2" transform="matrix(1 0 0 -1 852 280)" fill="#044289"/>
<circle r="2" transform="matrix(1 0 0 -1 864 280)" fill="#044289"/>
<circle r="2" transform="matrix(1 0 0 -1 876 280)" fill="#044289"/>
<circle r="2" transform="matrix(1 0 0 -1 816 280)" fill="#044289"/>
<circle r="2" transform="matrix(1 0 0 -1 828 268)" fill="#044289"/>
<circle r="2" transform="matrix(1 0 0 -1 840 268)" fill="#044289"/>
<circle r="2" transform="matrix(1 0 0 -1 852 268)" fill="#044289"/>
<circle r="2" transform="matrix(1 0 0 -1 864 268)" fill="#044289"/>
<circle r="2" transform="matrix(1 0 0 -1 876 268)" fill="#044289"/>
<circle r="2" transform="matrix(1 0 0 -1 816 268)" fill="#044289"/>
<circle r="2" transform="matrix(1 0 0 -1 828 256)" fill="#044289"/>
<circle r="2" transform="matrix(1 0 0 -1 840 256)" fill="#044289"/>
<circle r="2" transform="matrix(1 0 0 -1 852 256)" fill="#044289"/>
<circle r="2" transform="matrix(1 0 0 -1 864 256)" fill="#044289"/>
<circle r="2" transform="matrix(1 0 0 -1 876 256)" fill="#044289"/>
<circle r="2" transform="matrix(1 0 0 -1 816 256)" fill="#044289"/>
<circle r="2" transform="matrix(1 0 0 -1 828 244)" fill="#044289"/>
<circle r="2" transform="matrix(1 0 0 -1 840 244)" fill="#044289"/>
<circle r="2" transform="matrix(1 0 0 -1 852 244)" fill="#044289"/>
<circle r="2" transform="matrix(1 0 0 -1 864 244)" fill="#044289"/>
<circle r="2" transform="matrix(1 0 0 -1 876 244)" fill="#044289"/>
<circle r="2" transform="matrix(1 0 0 -1 816 244)" fill="#044289"/>
<circle r="2" transform="matrix(1 0 0 -1 828 232)" fill="#044289"/>
<circle r="2" transform="matrix(1 0 0 -1 840 232)" fill="#044289"/>
<circle r="2" transform="matrix(1 0 0 -1 852 232)" fill="#044289"/>
<circle r="2" transform="matrix(1 0 0 -1 864 232)" fill="#044289"/>
<circle r="2" transform="matrix(1 0 0 -1 876 232)" fill="#044289"/>
<circle r="2" transform="matrix(1 0 0 -1 816 232)" fill="#044289"/>
<circle r="2" transform="matrix(1 0 0 -1 828 220)" fill="#044289"/>
<circle r="2" transform="matrix(1 0 0 -1 840 220)" fill="#044289"/>
<circle r="2" transform="matrix(1 0 0 -1 852 220)" fill="#044289"/>
<circle r="2" transform="matrix(1 0 0 -1 864 220)" fill="#044289"/>
<circle r="2" transform="matrix(1 0 0 -1 876 220)" fill="#044289"/>
<circle r="2" transform="matrix(1 0 0 -1 816 220)" fill="#044289"/>
<circle r="2" transform="matrix(1 0 0 -1 828 208)" fill="#044289"/>
<circle r="2" transform="matrix(1 0 0 -1 840 208)" fill="#044289"/>
<circle r="2" transform="matrix(1 0 0 -1 852 208)" fill="#044289"/>
<circle r="2" transform="matrix(1 0 0 -1 864 208)" fill="#044289"/>
<circle r="2" transform="matrix(1 0 0 -1 876 208)" fill="#044289"/>
<circle r="2" transform="matrix(1 0 0 -1 816 208)" fill="#044289"/>
<circle r="2" transform="matrix(1 0 0 -1 828 196)" fill="#044289"/>
<circle r="2" transform="matrix(1 0 0 -1 840 196)" fill="#044289"/>
<circle r="2" transform="matrix(1 0 0 -1 852 196)" fill="#044289"/>
<circle r="2" transform="matrix(1 0 0 -1 864 196)" fill="#044289"/>
<circle r="2" transform="matrix(1 0 0 -1 876 196)" fill="#044289"/>
<circle r="2" transform="matrix(1 0 0 -1 816 196)" fill="#044289"/>
<circle r="2" transform="matrix(1 0 0 -1 828 184)" fill="#044289"/>
<circle r="2" transform="matrix(1 0 0 -1 840 184)" fill="#044289"/>
<circle r="2" transform="matrix(1 0 0 -1 852 184)" fill="#044289"/>
<circle r="2" transform="matrix(1 0 0 -1 864 184)" fill="#044289"/>
<circle r="2" transform="matrix(1 0 0 -1 876 184)" fill="#044289"/>
<circle r="2" transform="matrix(1 0 0 -1 816 184)" fill="#044289"/>
<circle r="2" transform="matrix(1 0 0 -1 888 328)" fill="#044289"/>
<circle r="2" transform="matrix(1 0 0 -1 888 316)" fill="#044289"/>
<circle r="2" transform="matrix(1 0 0 -1 888 304)" fill="#044289"/>
<circle r="2" transform="matrix(1 0 0 -1 888 292)" fill="#044289"/>
<circle r="2" transform="matrix(1 0 0 -1 888 280)" fill="#044289"/>
<circle r="2" transform="matrix(1 0 0 -1 888 268)" fill="#044289"/>
<circle r="2" transform="matrix(1 0 0 -1 888 256)" fill="#044289"/>
<circle r="2" transform="matrix(1 0 0 -1 888 244)" fill="#044289"/>
<circle r="2" transform="matrix(1 0 0 -1 888 232)" fill="#044289"/>
<circle r="2" transform="matrix(1 0 0 -1 888 220)" fill="#044289"/>
<circle r="2" transform="matrix(1 0 0 -1 888 208)" fill="#044289"/>
<circle r="2" transform="matrix(1 0 0 -1 888 196)" fill="#044289"/>
<circle r="2" transform="matrix(1 0 0 -1 888 184)" fill="#044289"/>
<circle r="2" transform="matrix(1 0 0 -1 900 328)" fill="#044289"/>
<circle r="2" transform="matrix(1 0 0 -1 900 316)" fill="#044289"/>
<circle r="2" transform="matrix(1 0 0 -1 900 304)" fill="#044289"/>
<circle r="2" transform="matrix(1 0 0 -1 900 292)" fill="#044289"/>
<circle r="2" transform="matrix(1 0 0 -1 900 280)" fill="#044289"/>
<circle r="2" transform="matrix(1 0 0 -1 900 268)" fill="#044289"/>
<circle r="2" transform="matrix(1 0 0 -1 900 256)" fill="#044289"/>
<circle r="2" transform="matrix(1 0 0 -1 900 244)" fill="#044289"/>
<circle r="2" transform="matrix(1 0 0 -1 900 232)" fill="#044289"/>
<circle r="2" transform="matrix(1 0 0 -1 900 220)" fill="#044289"/>
<circle r="2" transform="matrix(1 0 0 -1 900 208)" fill="#044289"/>
<circle r="2" transform="matrix(1 0 0 -1 900 196)" fill="#044289"/>
<circle r="2" transform="matrix(1 0 0 -1 900 184)" fill="#044289"/>
<circle r="2" transform="matrix(1 0 0 -1 912 328)" fill="#044289"/>
<circle r="2" transform="matrix(1 0 0 -1 912 316)" fill="#044289"/>
<circle r="2" transform="matrix(1 0 0 -1 912 304)" fill="#044289"/>
<circle r="2" transform="matrix(1 0 0 -1 912 292)" fill="#044289"/>
<circle r="2" transform="matrix(1 0 0 -1 912 280)" fill="#044289"/>
<circle r="2" transform="matrix(1 0 0 -1 912 268)" fill="#044289"/>
<circle r="2" transform="matrix(1 0 0 -1 912 256)" fill="#044289"/>
<circle r="2" transform="matrix(1 0 0 -1 912 244)" fill="#044289"/>
<circle r="2" transform="matrix(1 0 0 -1 912 232)" fill="#044289"/>
<circle r="2" transform="matrix(1 0 0 -1 912 220)" fill="#044289"/>
<circle r="2" transform="matrix(1 0 0 -1 912 208)" fill="#044289"/>
<circle r="2" transform="matrix(1 0 0 -1 912 196)" fill="#044289"/>
<circle r="2" transform="matrix(1 0 0 -1 912 184)" fill="#044289"/>
<circle r="2" transform="matrix(1 0 0 -1 924 328)" fill="#044289"/>
<circle r="2" transform="matrix(1 0 0 -1 924 316)" fill="#044289"/>
<circle r="2" transform="matrix(1 0 0 -1 924 304)" fill="#044289"/>
<circle r="2" transform="matrix(1 0 0 -1 924 292)" fill="#044289"/>
<circle r="2" transform="matrix(1 0 0 -1 924 280)" fill="#044289"/>
<circle r="2" transform="matrix(1 0 0 -1 924 268)" fill="#044289"/>
<circle r="2" transform="matrix(1 0 0 -1 924 256)" fill="#044289"/>
<circle r="2" transform="matrix(1 0 0 -1 924 244)" fill="#044289"/>
<circle r="2" transform="matrix(1 0 0 -1 924 232)" fill="#044289"/>
<circle r="2" transform="matrix(1 0 0 -1 924 220)" fill="#044289"/>
<circle r="2" transform="matrix(1 0 0 -1 924 208)" fill="#044289"/>
<circle r="2" transform="matrix(1 0 0 -1 924 196)" fill="#044289"/>
<circle r="2" transform="matrix(1 0 0 -1 924 184)" fill="#044289"/>
<circle r="2" transform="matrix(1 0 0 -1 936 328)" fill="#044289"/>
<circle r="2" transform="matrix(1 0 0 -1 936 316)" fill="#044289"/>
<circle r="2" transform="matrix(1 0 0 -1 936 304)" fill="#044289"/>
<circle r="2" transform="matrix(1 0 0 -1 936 292)" fill="#044289"/>
<circle r="2" transform="matrix(1 0 0 -1 936 280)" fill="#044289"/>
<circle r="2" transform="matrix(1 0 0 -1 936 268)" fill="#044289"/>
<circle r="2" transform="matrix(1 0 0 -1 936 256)" fill="#044289"/>
<circle r="2" transform="matrix(1 0 0 -1 936 244)" fill="#044289"/>
<circle r="2" transform="matrix(1 0 0 -1 936 232)" fill="#044289"/>
<circle r="2" transform="matrix(1 0 0 -1 936 220)" fill="#044289"/>
<circle r="2" transform="matrix(1 0 0 -1 936 208)" fill="#044289"/>
<circle r="2" transform="matrix(1 0 0 -1 936 196)" fill="#044289"/>
<circle r="2" transform="matrix(1 0 0 -1 936 184)" fill="#044289"/>
<circle r="2" transform="matrix(1 0 0 -1 948 328)" fill="#044289"/>
<circle r="2" transform="matrix(1 0 0 -1 948 316)" fill="#044289"/>
<circle r="2" transform="matrix(1 0 0 -1 948 304)" fill="#044289"/>
<circle r="2" transform="matrix(1 0 0 -1 948 292)" fill="#044289"/>
<circle r="2" transform="matrix(1 0 0 -1 948 280)" fill="#044289"/>
<circle r="2" transform="matrix(1 0 0 -1 948 268)" fill="#044289"/>
<circle r="2" transform="matrix(1 0 0 -1 948 256)" fill="#044289"/>
<circle r="2" transform="matrix(1 0 0 -1 948 244)" fill="#044289"/>
<circle r="2" transform="matrix(1 0 0 -1 948 232)" fill="#044289"/>
<circle r="2" transform="matrix(1 0 0 -1 948 220)" fill="#044289"/>
<circle r="2" transform="matrix(1 0 0 -1 948 208)" fill="#044289"/>
<circle r="2" transform="matrix(1 0 0 -1 948 196)" fill="#044289"/>
<circle r="2" transform="matrix(1 0 0 -1 948 184)" fill="#044289"/>
<circle r="2" transform="matrix(1 0 0 -1 960 328)" fill="#044289"/>
<circle r="2" transform="matrix(1 0 0 -1 972 328)" fill="#044289"/>
<circle r="2" transform="matrix(1 0 0 -1 972 316)" fill="#044289"/>
<circle r="2" transform="matrix(1 0 0 -1 972 304)" fill="#044289"/>
<circle r="2" transform="matrix(1 0 0 -1 972 292)" fill="#044289"/>
<circle r="2" transform="matrix(1 0 0 -1 972 280)" fill="#044289"/>
<circle r="2" transform="matrix(1 0 0 -1 972 268)" fill="#044289"/>
<circle r="2" transform="matrix(1 0 0 -1 972 256)" fill="#044289"/>
<circle r="2" transform="matrix(1 0 0 -1 972 244)" fill="#044289"/>
<circle r="2" transform="matrix(1 0 0 -1 972 232)" fill="#044289"/>
<circle r="2" transform="matrix(1 0 0 -1 972 220)" fill="#044289"/>
<circle r="2" transform="matrix(1 0 0 -1 972 208)" fill="#044289"/>
<circle r="2" transform="matrix(1 0 0 -1 972 196)" fill="#044289"/>
<circle r="2" transform="matrix(1 0 0 -1 972 184)" fill="#044289"/>
<circle r="2" transform="matrix(1 0 0 -1 960 316)" fill="#044289"/>
<circle r="2" transform="matrix(1 0 0 -1 960 304)" fill="#044289"/>
<circle r="2" transform="matrix(1 0 0 -1 960 292)" fill="#044289"/>
<circle r="2" transform="matrix(1 0 0 -1 960 280)" fill="#044289"/>
<circle r="2" transform="matrix(1 0 0 -1 960 268)" fill="#044289"/>
<circle r="2" transform="matrix(1 0 0 -1 960 256)" fill="#044289"/>
<circle r="2" transform="matrix(1 0 0 -1 960 244)" fill="#044289"/>
<circle r="2" transform="matrix(1 0 0 -1 960 232)" fill="#044289"/>
<circle r="2" transform="matrix(1 0 0 -1 960 220)" fill="#044289"/>
<circle r="2" transform="matrix(1 0 0 -1 960 208)" fill="#044289"/>
<circle r="2" transform="matrix(1 0 0 -1 960 196)" fill="#044289"/>
<circle r="2" transform="matrix(1 0 0 -1 960 184)" fill="#044289"/>
<circle r="2" transform="matrix(1 0 0 -1 828 172)" fill="#044289"/>
<circle r="2" transform="matrix(1 0 0 -1 840 172)" fill="#044289"/>
<circle r="2" transform="matrix(1 0 0 -1 852 172)" fill="#044289"/>
<circle r="2" transform="matrix(1 0 0 -1 864 172)" fill="#044289"/>
<circle r="2" transform="matrix(1 0 0 -1 876 172)" fill="#044289"/>
<circle r="2" transform="matrix(1 0 0 -1 816 172)" fill="#044289"/>
<circle r="2" transform="matrix(1 0 0 -1 888 172)" fill="#044289"/>
<circle r="2" transform="matrix(1 0 0 -1 900 172)" fill="#044289"/>
<circle r="2" transform="matrix(1 0 0 -1 912 172)" fill="#044289"/>
<circle r="2" transform="matrix(1 0 0 -1 924 172)" fill="#044289"/>
<circle r="2" transform="matrix(1 0 0 -1 936 172)" fill="#044289"/>
<circle r="2" transform="matrix(1 0 0 -1 948 172)" fill="#044289"/>
<circle r="2" transform="matrix(1 0 0 -1 972 172)" fill="#044289"/>
<circle r="2" transform="matrix(1 0 0 -1 960 172)" fill="#044289"/>
<circle r="2" transform="matrix(1 0 0 -1 996 328)" fill="#044289"/>
<circle r="2" transform="matrix(1 0 0 -1 1008 328)" fill="#044289"/>
<circle r="2" transform="matrix(1 0 0 -1 1020 328)" fill="#044289"/>
<circle r="2" transform="matrix(1 0 0 -1 1032 328)" fill="#044289"/>
<circle r="2" transform="matrix(1 0 0 -1 1044 328)" fill="#044289"/>
<circle r="2" transform="matrix(1 0 0 -1 996 316)" fill="#044289"/>
<circle r="2" transform="matrix(1 0 0 -1 1008 316)" fill="#044289"/>
<circle r="2" transform="matrix(1 0 0 -1 1020 316)" fill="#044289"/>
<circle r="2" transform="matrix(1 0 0 -1 1032 316)" fill="#044289"/>
<circle r="2" transform="matrix(1 0 0 -1 1044 316)" fill="#044289"/>
<circle r="2" transform="matrix(1 0 0 -1 996 304)" fill="#044289"/>
<circle r="2" transform="matrix(1 0 0 -1 1008 304)" fill="#044289"/>
<circle r="2" transform="matrix(1 0 0 -1 1020 304)" fill="#044289"/>
<circle r="2" transform="matrix(1 0 0 -1 1032 304)" fill="#044289"/>
<circle r="2" transform="matrix(1 0 0 -1 1044 304)" fill="#044289"/>
<circle r="2" transform="matrix(1 0 0 -1 984 328)" fill="#044289"/>
<circle r="2" transform="matrix(1 0 0 -1 984 316)" fill="#044289"/>
<circle r="2" transform="matrix(1 0 0 -1 984 304)" fill="#044289"/>
<circle r="2" transform="matrix(1 0 0 -1 996 292)" fill="#044289"/>
<circle r="2" transform="matrix(1 0 0 -1 1008 292)" fill="#044289"/>
<circle r="2" transform="matrix(1 0 0 -1 1020 292)" fill="#044289"/>
<circle r="2" transform="matrix(1 0 0 -1 1032 292)" fill="#044289"/>
<circle r="2" transform="matrix(1 0 0 -1 1044 292)" fill="#044289"/>
<circle r="2" transform="matrix(1 0 0 -1 984 292)" fill="#044289"/>
<circle r="2" transform="matrix(1 0 0 -1 996 280)" fill="#044289"/>
<circle r="2" transform="matrix(1 0 0 -1 1008 280)" fill="#044289"/>
<circle r="2" transform="matrix(1 0 0 -1 1020 280)" fill="#044289"/>
<circle r="2" transform="matrix(1 0 0 -1 1032 280)" fill="#044289"/>
<circle r="2" transform="matrix(1 0 0 -1 1044 280)" fill="#044289"/>
<circle r="2" transform="matrix(1 0 0 -1 984 280)" fill="#044289"/>
<circle r="2" transform="matrix(1 0 0 -1 996 268)" fill="#044289"/>
<circle r="2" transform="matrix(1 0 0 -1 1008 268)" fill="#044289"/>
<circle r="2" transform="matrix(1 0 0 -1 1020 268)" fill="#044289"/>
<circle r="2" transform="matrix(1 0 0 -1 1032 268)" fill="#044289"/>
<circle r="2" transform="matrix(1 0 0 -1 1044 268)" fill="#044289"/>
<circle r="2" transform="matrix(1 0 0 -1 984 268)" fill="#044289"/>
<circle r="2" transform="matrix(1 0 0 -1 996 256)" fill="#044289"/>
<circle r="2" transform="matrix(1 0 0 -1 1008 256)" fill="#044289"/>
<circle r="2" transform="matrix(1 0 0 -1 1020 256)" fill="#044289"/>
<circle r="2" transform="matrix(1 0 0 -1 1032 256)" fill="#044289"/>
<circle r="2" transform="matrix(1 0 0 -1 1044 256)" fill="#044289"/>
<circle r="2" transform="matrix(1 0 0 -1 984 256)" fill="#044289"/>
<circle r="2" transform="matrix(1 0 0 -1 996 244)" fill="#044289"/>
<circle r="2" transform="matrix(1 0 0 -1 1008 244)" fill="#044289"/>
<circle r="2" transform="matrix(1 0 0 -1 1020 244)" fill="#044289"/>
<circle r="2" transform="matrix(1 0 0 -1 1032 244)" fill="#044289"/>
<circle r="2" transform="matrix(1 0 0 -1 1044 244)" fill="#044289"/>
<circle r="2" transform="matrix(1 0 0 -1 984 244)" fill="#044289"/>
<circle r="2" transform="matrix(1 0 0 -1 996 232)" fill="#044289"/>
<circle r="2" transform="matrix(1 0 0 -1 1008 232)" fill="#044289"/>
<circle r="2" transform="matrix(1 0 0 -1 1020 232)" fill="#044289"/>
<circle r="2" transform="matrix(1 0 0 -1 1032 232)" fill="#044289"/>
<circle r="2" transform="matrix(1 0 0 -1 1044 232)" fill="#044289"/>
<circle r="2" transform="matrix(1 0 0 -1 984 232)" fill="#044289"/>
<circle r="2" transform="matrix(1 0 0 -1 996 220)" fill="#044289"/>
<circle r="2" transform="matrix(1 0 0 -1 1008 220)" fill="#044289"/>
<circle r="2" transform="matrix(1 0 0 -1 1020 220)" fill="#044289"/>
<circle r="2" transform="matrix(1 0 0 -1 1032 220)" fill="#044289"/>
<circle r="2" transform="matrix(1 0 0 -1 1044 220)" fill="#044289"/>
<circle r="2" transform="matrix(1 0 0 -1 984 220)" fill="#044289"/>
<circle r="2" transform="matrix(1 0 0 -1 996 208)" fill="#044289"/>
<circle r="2" transform="matrix(1 0 0 -1 1008 208)" fill="#044289"/>
<circle r="2" transform="matrix(1 0 0 -1 1020 208)" fill="#044289"/>
<circle r="2" transform="matrix(1 0 0 -1 1032 208)" fill="#044289"/>
<circle r="2" transform="matrix(1 0 0 -1 1044 208)" fill="#044289"/>
<circle r="2" transform="matrix(1 0 0 -1 984 208)" fill="#044289"/>
<circle r="2" transform="matrix(1 0 0 -1 996 196)" fill="#044289"/>
<circle r="2" transform="matrix(1 0 0 -1 1008 196)" fill="#044289"/>
<circle r="2" transform="matrix(1 0 0 -1 1020 196)" fill="#044289"/>
<circle r="2" transform="matrix(1 0 0 -1 1032 196)" fill="#044289"/>
<circle r="2" transform="matrix(1 0 0 -1 1044 196)" fill="#044289"/>
<circle r="2" transform="matrix(1 0 0 -1 984 196)" fill="#044289"/>
<circle r="2" transform="matrix(1 0 0 -1 996 184)" fill="#044289"/>
<circle r="2" transform="matrix(1 0 0 -1 1008 184)" fill="#044289"/>
<circle r="2" transform="matrix(1 0 0 -1 1020 184)" fill="#044289"/>
<circle r="2" transform="matrix(1 0 0 -1 1032 184)" fill="#044289"/>
<circle r="2" transform="matrix(1 0 0 -1 1044 184)" fill="#044289"/>
<circle r="2" transform="matrix(1 0 0 -1 984 184)" fill="#044289"/>
<circle r="2" transform="matrix(1 0 0 -1 1056 328)" fill="#044289"/>
<circle r="2" transform="matrix(1 0 0 -1 1056 316)" fill="#044289"/>
<circle r="2" transform="matrix(1 0 0 -1 1056 304)" fill="#044289"/>
<circle r="2" transform="matrix(1 0 0 -1 1056 292)" fill="#044289"/>
<circle r="2" transform="matrix(1 0 0 -1 1056 280)" fill="#044289"/>
<circle r="2" transform="matrix(1 0 0 -1 1056 268)" fill="#044289"/>
<circle r="2" transform="matrix(1 0 0 -1 1056 256)" fill="#044289"/>
<circle r="2" transform="matrix(1 0 0 -1 1056 244)" fill="#044289"/>
<circle r="2" transform="matrix(1 0 0 -1 1056 232)" fill="#044289"/>
<circle r="2" transform="matrix(1 0 0 -1 1056 220)" fill="#044289"/>
<circle r="2" transform="matrix(1 0 0 -1 1056 208)" fill="#044289"/>
<circle r="2" transform="matrix(1 0 0 -1 1056 196)" fill="#044289"/>
<circle r="2" transform="matrix(1 0 0 -1 1056 184)" fill="#044289"/>
<circle r="2" transform="matrix(1 0 0 -1 996 172)" fill="#044289"/>
<circle r="2" transform="matrix(1 0 0 -1 1008 172)" fill="#044289"/>
<circle r="2" transform="matrix(1 0 0 -1 1020 172)" fill="#044289"/>
<circle r="2" transform="matrix(1 0 0 -1 1032 172)" fill="#044289"/>
<circle r="2" transform="matrix(1 0 0 -1 1044 172)" fill="#044289"/>
<circle r="2" transform="matrix(1 0 0 -1 984 172)" fill="#044289"/>
<circle r="2" transform="matrix(1 0 0 -1 1056 172)" fill="#044289"/>
</g>
<rect x="0.5" y="-0.5" width="255" height="255" transform="matrix(1 0 0 -1 782 361)" fill="#1B1F23" stroke="#79B8FF"/>
</g>
<circle cx="831" cy="171" r="9" stroke="#2188FF" stroke-width="2"/>
<rect x="854" y="301" width="37.0656" height="36" fill="#005CC5"/>
<rect x="915.776" y="301" width="98.2239" height="36" fill="#005CC5"/>
<rect x="766" y="203" width="91" height="24" fill="#044289"/>
<rect x="881" y="203" width="30" height="24" fill="#044289"/>
<rect width="24" height="24" transform="matrix(1 0 -0.000289166 1 982.005 138)" stroke="#2188FF" stroke-width="2" stroke-linejoin="round"/>
<path d="M950 178C950 182.8 941 182.8 941 187.6C941 192.4 950 192.4 950 197.2C950 202 941 202 941 206.8C941 211.6 950 211.6 950 216.4C950 221.2 941 221.2 941 226" stroke="#C8E1FF" stroke-linecap="round" stroke-linejoin="round"/>
<g clip-path="url(#clip2)">
<rect width="276" height="276" transform="translate(406 48)" fill="#1B1F23"/>
<g clip-path="url(#clip3)">
<circle cx="452" cy="250" r="2" fill="#044289"/>
<circle cx="464" cy="250" r="2" fill="#044289"/>
<circle cx="476" cy="250" r="2" fill="#044289"/>
<circle cx="488" cy="250" r="2" fill="#044289"/>
<circle cx="500" cy="250" r="2" fill="#044289"/>
<circle cx="452" cy="262" r="2" fill="#044289"/>
<circle cx="464" cy="262" r="2" fill="#044289"/>
<circle cx="476" cy="262" r="2" fill="#044289"/>
<circle cx="488" cy="262" r="2" fill="#044289"/>
<circle cx="500" cy="262" r="2" fill="#044289"/>
<circle cx="452" cy="274" r="2" fill="#044289"/>
<circle cx="464" cy="274" r="2" fill="#044289"/>
<circle cx="476" cy="274" r="2" fill="#044289"/>
<circle cx="488" cy="274" r="2" fill="#044289"/>
<circle cx="500" cy="274" r="2" fill="#044289"/>
<circle cx="440" cy="250" r="2" fill="#044289"/>
<circle cx="440" cy="262" r="2" fill="#044289"/>
<circle cx="440" cy="274" r="2" fill="#044289"/>
<circle cx="452" cy="286" r="2" fill="#044289"/>
<circle cx="464" cy="286" r="2" fill="#044289"/>
<circle cx="476" cy="286" r="2" fill="#044289"/>
<circle cx="488" cy="286" r="2" fill="#044289"/>
<circle cx="500" cy="286" r="2" fill="#044289"/>
<circle cx="440" cy="286" r="2" fill="#044289"/>
<circle cx="452" cy="298" r="2" fill="#044289"/>
<circle cx="464" cy="298" r="2" fill="#044289"/>
<circle cx="476" cy="298" r="2" fill="#044289"/>
<circle cx="488" cy="298" r="2" fill="#044289"/>
<circle cx="500" cy="298" r="2" fill="#044289"/>
<circle cx="440" cy="298" r="2" fill="#044289"/>
<circle cx="452" cy="310" r="2" fill="#044289"/>
<circle cx="464" cy="310" r="2" fill="#044289"/>
<circle cx="476" cy="310" r="2" fill="#044289"/>
<circle cx="488" cy="310" r="2" fill="#044289"/>
<circle cx="500" cy="310" r="2" fill="#044289"/>
<circle cx="440" cy="310" r="2" fill="#044289"/>
<circle cx="452" cy="322" r="2" fill="#044289"/>
<circle cx="464" cy="322" r="2" fill="#044289"/>
<circle cx="476" cy="322" r="2" fill="#044289"/>
<circle cx="488" cy="322" r="2" fill="#044289"/>
<circle cx="500" cy="322" r="2" fill="#044289"/>
<circle cx="440" cy="322" r="2" fill="#044289"/>
<circle cx="512" cy="250" r="2" fill="#044289"/>
<circle cx="512" cy="262" r="2" fill="#044289"/>
<circle cx="512" cy="274" r="2" fill="#044289"/>
<circle cx="512" cy="286" r="2" fill="#044289"/>
<circle cx="512" cy="298" r="2" fill="#044289"/>
<circle cx="512" cy="310" r="2" fill="#044289"/>
<circle cx="512" cy="322" r="2" fill="#044289"/>
<circle cx="524" cy="250" r="2" fill="#044289"/>
<circle cx="524" cy="262" r="2" fill="#044289"/>
<circle cx="524" cy="274" r="2" fill="#044289"/>
<circle cx="524" cy="286" r="2" fill="#044289"/>
<circle cx="524" cy="298" r="2" fill="#044289"/>
<circle cx="524" cy="310" r="2" fill="#044289"/>
<circle cx="524" cy="322" r="2" fill="#044289"/>
<circle cx="536" cy="250" r="2" fill="#044289"/>
<circle cx="536" cy="262" r="2" fill="#044289"/>
<circle cx="536" cy="274" r="2" fill="#044289"/>
<circle cx="536" cy="286" r="2" fill="#044289"/>
<circle cx="536" cy="298" r="2" fill="#044289"/>
<circle cx="536" cy="310" r="2" fill="#044289"/>
<circle cx="536" cy="322" r="2" fill="#044289"/>
<circle cx="548" cy="250" r="2" fill="#044289"/>
<circle cx="548" cy="262" r="2" fill="#044289"/>
<circle cx="548" cy="274" r="2" fill="#044289"/>
<circle cx="548" cy="286" r="2" fill="#044289"/>
<circle cx="548" cy="298" r="2" fill="#044289"/>
<circle cx="548" cy="310" r="2" fill="#044289"/>
<circle cx="548" cy="322" r="2" fill="#044289"/>
<circle cx="560" cy="250" r="2" fill="#044289"/>
<circle cx="560" cy="262" r="2" fill="#044289"/>
<circle cx="560" cy="274" r="2" fill="#044289"/>
<circle cx="560" cy="286" r="2" fill="#044289"/>
<circle cx="560" cy="298" r="2" fill="#044289"/>
<circle cx="560" cy="310" r="2" fill="#044289"/>
<circle cx="560" cy="322" r="2" fill="#044289"/>
<circle cx="572" cy="250" r="2" fill="#044289"/>
<circle cx="572" cy="262" r="2" fill="#044289"/>
<circle cx="572" cy="274" r="2" fill="#044289"/>
<circle cx="572" cy="286" r="2" fill="#044289"/>
<circle cx="572" cy="298" r="2" fill="#044289"/>
<circle cx="572" cy="310" r="2" fill="#044289"/>
<circle cx="572" cy="322" r="2" fill="#044289"/>
<circle cx="584" cy="250" r="2" fill="#044289"/>
<circle cx="596" cy="250" r="2" fill="#044289"/>
<circle cx="596" cy="262" r="2" fill="#044289"/>
<circle cx="596" cy="274" r="2" fill="#044289"/>
<circle cx="596" cy="286" r="2" fill="#044289"/>
<circle cx="596" cy="298" r="2" fill="#044289"/>
<circle cx="596" cy="310" r="2" fill="#044289"/>
<circle cx="596" cy="322" r="2" fill="#044289"/>
<circle cx="584" cy="262" r="2" fill="#044289"/>
<circle cx="584" cy="274" r="2" fill="#044289"/>
<circle cx="584" cy="286" r="2" fill="#044289"/>
<circle cx="584" cy="298" r="2" fill="#044289"/>
<circle cx="584" cy="310" r="2" fill="#044289"/>
<circle cx="584" cy="322" r="2" fill="#044289"/>
<circle cx="620" cy="250" r="2" fill="#044289"/>
<circle cx="632" cy="250" r="2" fill="#044289"/>
<circle cx="644" cy="250" r="2" fill="#044289"/>
<circle cx="656" cy="250" r="2" fill="#044289"/>
<circle cx="668" cy="250" r="2" fill="#044289"/>
<circle cx="620" cy="262" r="2" fill="#044289"/>
<circle cx="632" cy="262" r="2" fill="#044289"/>
<circle cx="644" cy="262" r="2" fill="#044289"/>
<circle cx="656" cy="262" r="2" fill="#044289"/>
<circle cx="668" cy="262" r="2" fill="#044289"/>
<circle cx="620" cy="274" r="2" fill="#044289"/>
<circle cx="632" cy="274" r="2" fill="#044289"/>
<circle cx="644" cy="274" r="2" fill="#044289"/>
<circle cx="656" cy="274" r="2" fill="#044289"/>
<circle cx="668" cy="274" r="2" fill="#044289"/>
<circle cx="608" cy="250" r="2" fill="#044289"/>
<circle cx="608" cy="262" r="2" fill="#044289"/>
<circle cx="608" cy="274" r="2" fill="#044289"/>
<circle cx="620" cy="286" r="2" fill="#044289"/>
<circle cx="632" cy="286" r="2" fill="#044289"/>
<circle cx="644" cy="286" r="2" fill="#044289"/>
<circle cx="656" cy="286" r="2" fill="#044289"/>
<circle cx="668" cy="286" r="2" fill="#044289"/>
<circle cx="608" cy="286" r="2" fill="#044289"/>
<circle cx="620" cy="298" r="2" fill="#044289"/>
<circle cx="632" cy="298" r="2" fill="#044289"/>
<circle cx="644" cy="298" r="2" fill="#044289"/>
<circle cx="656" cy="298" r="2" fill="#044289"/>
<circle cx="668" cy="298" r="2" fill="#044289"/>
<circle cx="608" cy="298" r="2" fill="#044289"/>
<circle cx="620" cy="310" r="2" fill="#044289"/>
<circle cx="632" cy="310" r="2" fill="#044289"/>
<circle cx="644" cy="310" r="2" fill="#044289"/>
<circle cx="656" cy="310" r="2" fill="#044289"/>
<circle cx="668" cy="310" r="2" fill="#044289"/>
<circle cx="608" cy="310" r="2" fill="#044289"/>
<circle cx="620" cy="322" r="2" fill="#044289"/>
<circle cx="632" cy="322" r="2" fill="#044289"/>
<circle cx="644" cy="322" r="2" fill="#044289"/>
<circle cx="656" cy="322" r="2" fill="#044289"/>
<circle cx="668" cy="322" r="2" fill="#044289"/>
<circle cx="608" cy="322" r="2" fill="#044289"/>
<circle cx="680" cy="250" r="2" fill="#044289"/>
<circle cx="680" cy="262" r="2" fill="#044289"/>
<circle cx="680" cy="274" r="2" fill="#044289"/>
<circle cx="680" cy="286" r="2" fill="#044289"/>
<circle cx="680" cy="298" r="2" fill="#044289"/>
<circle cx="680" cy="310" r="2" fill="#044289"/>
<circle cx="680" cy="322" r="2" fill="#044289"/>
<circle cx="452" cy="82" r="2" fill="#044289"/>
<circle cx="464" cy="82" r="2" fill="#044289"/>
<circle cx="476" cy="82" r="2" fill="#044289"/>
<circle cx="488" cy="82" r="2" fill="#044289"/>
<circle cx="500" cy="82" r="2" fill="#044289"/>
<circle cx="452" cy="94" r="2" fill="#044289"/>
<circle cx="464" cy="94" r="2" fill="#044289"/>
<circle cx="476" cy="94" r="2" fill="#044289"/>
<circle cx="488" cy="94" r="2" fill="#044289"/>
<circle cx="500" cy="94" r="2" fill="#044289"/>
<circle cx="452" cy="106" r="2" fill="#044289"/>
<circle cx="464" cy="106" r="2" fill="#044289"/>
<circle cx="476" cy="106" r="2" fill="#044289"/>
<circle cx="488" cy="106" r="2" fill="#044289"/>
<circle cx="500" cy="106" r="2" fill="#044289"/>
<circle cx="440" cy="82" r="2" fill="#044289"/>
<circle cx="440" cy="94" r="2" fill="#044289"/>
<circle cx="440" cy="106" r="2" fill="#044289"/>
<circle cx="452" cy="118" r="2" fill="#044289"/>
<circle cx="464" cy="118" r="2" fill="#044289"/>
<circle cx="476" cy="118" r="2" fill="#044289"/>
<circle cx="488" cy="118" r="2" fill="#044289"/>
<circle cx="500" cy="118" r="2" fill="#044289"/>
<circle cx="440" cy="118" r="2" fill="#044289"/>
<circle cx="452" cy="130" r="2" fill="#044289"/>
<circle cx="464" cy="130" r="2" fill="#044289"/>
<circle cx="476" cy="130" r="2" fill="#044289"/>
<circle cx="488" cy="130" r="2" fill="#044289"/>
<circle cx="500" cy="130" r="2" fill="#044289"/>
<circle cx="440" cy="130" r="2" fill="#044289"/>
<circle cx="452" cy="142" r="2" fill="#044289"/>
<circle cx="464" cy="142" r="2" fill="#044289"/>
<circle cx="476" cy="142" r="2" fill="#044289"/>
<circle cx="488" cy="142" r="2" fill="#044289"/>
<circle cx="500" cy="142" r="2" fill="#044289"/>
<circle cx="440" cy="142" r="2" fill="#044289"/>
<circle cx="452" cy="154" r="2" fill="#044289"/>
<circle cx="464" cy="154" r="2" fill="#044289"/>
<circle cx="476" cy="154" r="2" fill="#044289"/>
<circle cx="488" cy="154" r="2" fill="#044289"/>
<circle cx="500" cy="154" r="2" fill="#044289"/>
<circle cx="440" cy="154" r="2" fill="#044289"/>
<circle cx="452" cy="166" r="2" fill="#044289"/>
<circle cx="464" cy="166" r="2" fill="#044289"/>
<circle cx="476" cy="166" r="2" fill="#044289"/>
<circle cx="488" cy="166" r="2" fill="#044289"/>
<circle cx="500" cy="166" r="2" fill="#044289"/>
<circle cx="440" cy="166" r="2" fill="#044289"/>
<circle cx="452" cy="178" r="2" fill="#044289"/>
<circle cx="464" cy="178" r="2" fill="#044289"/>
<circle cx="476" cy="178" r="2" fill="#044289"/>
<circle cx="488" cy="178" r="2" fill="#044289"/>
<circle cx="500" cy="178" r="2" fill="#044289"/>
<circle cx="440" cy="178" r="2" fill="#044289"/>
<circle cx="452" cy="190" r="2" fill="#044289"/>
<circle cx="464" cy="190" r="2" fill="#044289"/>
<circle cx="476" cy="190" r="2" fill="#044289"/>
<circle cx="488" cy="190" r="2" fill="#044289"/>
<circle cx="500" cy="190" r="2" fill="#044289"/>
<circle cx="440" cy="190" r="2" fill="#044289"/>
<circle cx="452" cy="202" r="2" fill="#044289"/>
<circle cx="464" cy="202" r="2" fill="#044289"/>
<circle cx="476" cy="202" r="2" fill="#044289"/>
<circle cx="488" cy="202" r="2" fill="#044289"/>
<circle cx="500" cy="202" r="2" fill="#044289"/>
<circle cx="440" cy="202" r="2" fill="#044289"/>
<circle cx="452" cy="214" r="2" fill="#044289"/>
<circle cx="464" cy="214" r="2" fill="#044289"/>
<circle cx="476" cy="214" r="2" fill="#044289"/>
<circle cx="488" cy="214" r="2" fill="#044289"/>
<circle cx="500" cy="214" r="2" fill="#044289"/>
<circle cx="440" cy="214" r="2" fill="#044289"/>
<circle cx="452" cy="226" r="2" fill="#044289"/>
<circle cx="464" cy="226" r="2" fill="#044289"/>
<circle cx="476" cy="226" r="2" fill="#044289"/>
<circle cx="488" cy="226" r="2" fill="#044289"/>
<circle cx="500" cy="226" r="2" fill="#044289"/>
<circle cx="440" cy="226" r="2" fill="#044289"/>
<circle cx="512" cy="82" r="2" fill="#044289"/>
<circle cx="512" cy="94" r="2" fill="#044289"/>
<circle cx="512" cy="106" r="2" fill="#044289"/>
<circle cx="512" cy="118" r="2" fill="#044289"/>
<circle cx="512" cy="130" r="2" fill="#044289"/>
<circle cx="512" cy="142" r="2" fill="#044289"/>
<circle cx="512" cy="154" r="2" fill="#044289"/>
<circle cx="512" cy="166" r="2" fill="#044289"/>
<circle cx="512" cy="178" r="2" fill="#044289"/>
<circle cx="512" cy="190" r="2" fill="#044289"/>
<circle cx="512" cy="202" r="2" fill="#044289"/>
<circle cx="512" cy="214" r="2" fill="#044289"/>
<circle cx="512" cy="226" r="2" fill="#044289"/>
<circle cx="524" cy="82" r="2" fill="#044289"/>
<circle cx="524" cy="94" r="2" fill="#044289"/>
<circle cx="524" cy="106" r="2" fill="#044289"/>
<circle cx="524" cy="118" r="2" fill="#044289"/>
<circle cx="524" cy="130" r="2" fill="#044289"/>
<circle cx="524" cy="142" r="2" fill="#044289"/>
<circle cx="524" cy="154" r="2" fill="#044289"/>
<circle cx="524" cy="166" r="2" fill="#044289"/>
<circle cx="524" cy="178" r="2" fill="#044289"/>
<circle cx="524" cy="190" r="2" fill="#044289"/>
<circle cx="524" cy="202" r="2" fill="#044289"/>
<circle cx="524" cy="214" r="2" fill="#044289"/>
<circle cx="524" cy="226" r="2" fill="#044289"/>
<circle cx="536" cy="82" r="2" fill="#044289"/>
<circle cx="536" cy="94" r="2" fill="#044289"/>
<circle cx="536" cy="106" r="2" fill="#044289"/>
<circle cx="536" cy="118" r="2" fill="#044289"/>
<circle cx="536" cy="130" r="2" fill="#044289"/>
<circle cx="536" cy="142" r="2" fill="#044289"/>
<circle cx="536" cy="154" r="2" fill="#044289"/>
<circle cx="536" cy="166" r="2" fill="#044289"/>
<circle cx="536" cy="178" r="2" fill="#044289"/>
<circle cx="536" cy="190" r="2" fill="#044289"/>
<circle cx="536" cy="202" r="2" fill="#044289"/>
<circle cx="536" cy="214" r="2" fill="#044289"/>
<circle cx="536" cy="226" r="2" fill="#044289"/>
<circle cx="548" cy="82" r="2" fill="#044289"/>
<circle cx="548" cy="94" r="2" fill="#044289"/>
<circle cx="548" cy="106" r="2" fill="#044289"/>
<circle cx="548" cy="118" r="2" fill="#044289"/>
<circle cx="548" cy="130" r="2" fill="#044289"/>
<circle cx="548" cy="142" r="2" fill="#044289"/>
<circle cx="548" cy="154" r="2" fill="#044289"/>
<circle cx="548" cy="166" r="2" fill="#044289"/>
<circle cx="548" cy="178" r="2" fill="#044289"/>
<circle cx="548" cy="190" r="2" fill="#044289"/>
<circle cx="548" cy="202" r="2" fill="#044289"/>
<circle cx="548" cy="214" r="2" fill="#044289"/>
<circle cx="548" cy="226" r="2" fill="#044289"/>
<circle cx="560" cy="82" r="2" fill="#044289"/>
<circle cx="560" cy="94" r="2" fill="#044289"/>
<circle cx="560" cy="106" r="2" fill="#044289"/>
<circle cx="560" cy="118" r="2" fill="#044289"/>
<circle cx="560" cy="130" r="2" fill="#044289"/>
<circle cx="560" cy="142" r="2" fill="#044289"/>
<circle cx="560" cy="154" r="2" fill="#044289"/>
<circle cx="560" cy="166" r="2" fill="#044289"/>
<circle cx="560" cy="178" r="2" fill="#044289"/>
<circle cx="560" cy="190" r="2" fill="#044289"/>
<circle cx="560" cy="202" r="2" fill="#044289"/>
<circle cx="560" cy="214" r="2" fill="#044289"/>
<circle cx="560" cy="226" r="2" fill="#044289"/>
<circle cx="572" cy="82" r="2" fill="#044289"/>
<circle cx="572" cy="94" r="2" fill="#044289"/>
<circle cx="572" cy="106" r="2" fill="#044289"/>
<circle cx="572" cy="118" r="2" fill="#044289"/>
<circle cx="572" cy="130" r="2" fill="#044289"/>
<circle cx="572" cy="142" r="2" fill="#044289"/>
<circle cx="572" cy="154" r="2" fill="#044289"/>
<circle cx="572" cy="166" r="2" fill="#044289"/>
<circle cx="572" cy="178" r="2" fill="#044289"/>
<circle cx="572" cy="190" r="2" fill="#044289"/>
<circle cx="572" cy="202" r="2" fill="#044289"/>
<circle cx="572" cy="214" r="2" fill="#044289"/>
<circle cx="572" cy="226" r="2" fill="#044289"/>
<circle cx="584" cy="82" r="2" fill="#044289"/>
<circle cx="596" cy="82" r="2" fill="#044289"/>
<circle cx="596" cy="94" r="2" fill="#044289"/>
<circle cx="596" cy="106" r="2" fill="#044289"/>
<circle cx="596" cy="118" r="2" fill="#044289"/>
<circle cx="596" cy="130" r="2" fill="#044289"/>
<circle cx="596" cy="142" r="2" fill="#044289"/>
<circle cx="596" cy="154" r="2" fill="#044289"/>
<circle cx="596" cy="166" r="2" fill="#044289"/>
<circle cx="596" cy="178" r="2" fill="#044289"/>
<circle cx="596" cy="190" r="2" fill="#044289"/>
<circle cx="596" cy="202" r="2" fill="#044289"/>
<circle cx="596" cy="214" r="2" fill="#044289"/>
<circle cx="596" cy="226" r="2" fill="#044289"/>
<circle cx="584" cy="94" r="2" fill="#044289"/>
<circle cx="584" cy="106" r="2" fill="#044289"/>
<circle cx="584" cy="118" r="2" fill="#044289"/>
<circle cx="584" cy="130" r="2" fill="#044289"/>
<circle cx="584" cy="142" r="2" fill="#044289"/>
<circle cx="584" cy="154" r="2" fill="#044289"/>
<circle cx="584" cy="166" r="2" fill="#044289"/>
<circle cx="584" cy="178" r="2" fill="#044289"/>
<circle cx="584" cy="190" r="2" fill="#044289"/>
<circle cx="584" cy="202" r="2" fill="#044289"/>
<circle cx="584" cy="214" r="2" fill="#044289"/>
<circle cx="584" cy="226" r="2" fill="#044289"/>
<circle cx="452" cy="238" r="2" fill="#044289"/>
<circle cx="464" cy="238" r="2" fill="#044289"/>
<circle cx="476" cy="238" r="2" fill="#044289"/>
<circle cx="488" cy="238" r="2" fill="#044289"/>
<circle cx="500" cy="238" r="2" fill="#044289"/>
<circle cx="440" cy="238" r="2" fill="#044289"/>
<circle cx="512" cy="238" r="2" fill="#044289"/>
<circle cx="524" cy="238" r="2" fill="#044289"/>
<circle cx="536" cy="238" r="2" fill="#044289"/>
<circle cx="548" cy="238" r="2" fill="#044289"/>
<circle cx="560" cy="238" r="2" fill="#044289"/>
<circle cx="572" cy="238" r="2" fill="#044289"/>
<circle cx="596" cy="238" r="2" fill="#044289"/>
<circle cx="584" cy="238" r="2" fill="#044289"/>
<circle cx="620" cy="82" r="2" fill="#044289"/>
<circle cx="632" cy="82" r="2" fill="#044289"/>
<circle cx="644" cy="82" r="2" fill="#044289"/>
<circle cx="656" cy="82" r="2" fill="#044289"/>
<circle cx="668" cy="82" r="2" fill="#044289"/>
<circle cx="620" cy="94" r="2" fill="#044289"/>
<circle cx="632" cy="94" r="2" fill="#044289"/>
<circle cx="644" cy="94" r="2" fill="#044289"/>
<circle cx="656" cy="94" r="2" fill="#044289"/>
<circle cx="668" cy="94" r="2" fill="#044289"/>
<circle cx="620" cy="106" r="2" fill="#044289"/>
<circle cx="632" cy="106" r="2" fill="#044289"/>
<circle cx="644" cy="106" r="2" fill="#044289"/>
<circle cx="656" cy="106" r="2" fill="#044289"/>
<circle cx="668" cy="106" r="2" fill="#044289"/>
<circle cx="608" cy="82" r="2" fill="#044289"/>
<circle cx="608" cy="94" r="2" fill="#044289"/>
<circle cx="608" cy="106" r="2" fill="#044289"/>
<circle cx="620" cy="118" r="2" fill="#044289"/>
<circle cx="632" cy="118" r="2" fill="#044289"/>
<circle cx="644" cy="118" r="2" fill="#044289"/>
<circle cx="656" cy="118" r="2" fill="#044289"/>
<circle cx="668" cy="118" r="2" fill="#044289"/>
<circle cx="608" cy="118" r="2" fill="#044289"/>
<circle cx="620" cy="130" r="2" fill="#044289"/>
<circle cx="632" cy="130" r="2" fill="#044289"/>
<circle cx="644" cy="130" r="2" fill="#044289"/>
<circle cx="656" cy="130" r="2" fill="#044289"/>
<circle cx="668" cy="130" r="2" fill="#044289"/>
<circle cx="608" cy="130" r="2" fill="#044289"/>
<circle cx="620" cy="142" r="2" fill="#044289"/>
<circle cx="632" cy="142" r="2" fill="#044289"/>
<circle cx="644" cy="142" r="2" fill="#044289"/>
<circle cx="656" cy="142" r="2" fill="#044289"/>
<circle cx="668" cy="142" r="2" fill="#044289"/>
<circle cx="608" cy="142" r="2" fill="#044289"/>
<circle cx="620" cy="154" r="2" fill="#044289"/>
<circle cx="632" cy="154" r="2" fill="#044289"/>
<circle cx="644" cy="154" r="2" fill="#044289"/>
<circle cx="656" cy="154" r="2" fill="#044289"/>
<circle cx="668" cy="154" r="2" fill="#044289"/>
<circle cx="608" cy="154" r="2" fill="#044289"/>
<circle cx="620" cy="166" r="2" fill="#044289"/>
<circle cx="632" cy="166" r="2" fill="#044289"/>
<circle cx="644" cy="166" r="2" fill="#044289"/>
<circle cx="656" cy="166" r="2" fill="#044289"/>
<circle cx="668" cy="166" r="2" fill="#044289"/>
<circle cx="608" cy="166" r="2" fill="#044289"/>
<circle cx="620" cy="178" r="2" fill="#044289"/>
<circle cx="632" cy="178" r="2" fill="#044289"/>
<circle cx="644" cy="178" r="2" fill="#044289"/>
<circle cx="656" cy="178" r="2" fill="#044289"/>
<circle cx="668" cy="178" r="2" fill="#044289"/>
<circle cx="608" cy="178" r="2" fill="#044289"/>
<circle cx="620" cy="190" r="2" fill="#044289"/>
<circle cx="632" cy="190" r="2" fill="#044289"/>
<circle cx="644" cy="190" r="2" fill="#044289"/>
<circle cx="656" cy="190" r="2" fill="#044289"/>
<circle cx="668" cy="190" r="2" fill="#044289"/>
<circle cx="608" cy="190" r="2" fill="#044289"/>
<circle cx="620" cy="202" r="2" fill="#044289"/>
<circle cx="632" cy="202" r="2" fill="#044289"/>
<circle cx="644" cy="202" r="2" fill="#044289"/>
<circle cx="656" cy="202" r="2" fill="#044289"/>
<circle cx="668" cy="202" r="2" fill="#044289"/>
<circle cx="608" cy="202" r="2" fill="#044289"/>
<circle cx="620" cy="214" r="2" fill="#044289"/>
<circle cx="632" cy="214" r="2" fill="#044289"/>
<circle cx="644" cy="214" r="2" fill="#044289"/>
<circle cx="656" cy="214" r="2" fill="#044289"/>
<circle cx="668" cy="214" r="2" fill="#044289"/>
<circle cx="608" cy="214" r="2" fill="#044289"/>
<circle cx="620" cy="226" r="2" fill="#044289"/>
<circle cx="632" cy="226" r="2" fill="#044289"/>
<circle cx="644" cy="226" r="2" fill="#044289"/>
<circle cx="656" cy="226" r="2" fill="#044289"/>
<circle cx="668" cy="226" r="2" fill="#044289"/>
<circle cx="608" cy="226" r="2" fill="#044289"/>
<circle cx="680" cy="82" r="2" fill="#044289"/>
<circle cx="680" cy="94" r="2" fill="#044289"/>
<circle cx="680" cy="106" r="2" fill="#044289"/>
<circle cx="680" cy="118" r="2" fill="#044289"/>
<circle cx="680" cy="130" r="2" fill="#044289"/>
<circle cx="680" cy="142" r="2" fill="#044289"/>
<circle cx="680" cy="154" r="2" fill="#044289"/>
<circle cx="680" cy="166" r="2" fill="#044289"/>
<circle cx="680" cy="178" r="2" fill="#044289"/>
<circle cx="680" cy="190" r="2" fill="#044289"/>
<circle cx="680" cy="202" r="2" fill="#044289"/>
<circle cx="680" cy="214" r="2" fill="#044289"/>
<circle cx="680" cy="226" r="2" fill="#044289"/>
<circle cx="620" cy="238" r="2" fill="#044289"/>
<circle cx="632" cy="238" r="2" fill="#044289"/>
<circle cx="644" cy="238" r="2" fill="#044289"/>
<circle cx="656" cy="238" r="2" fill="#044289"/>
<circle cx="668" cy="238" r="2" fill="#044289"/>
<circle cx="608" cy="238" r="2" fill="#044289"/>
<circle cx="680" cy="238" r="2" fill="#044289"/>
</g>
<rect x="406.5" y="48.5" width="255" height="255" fill="#1B1F23" stroke="#79B8FF"/>
</g>
<rect width="14.2566" height="14.2566" transform="matrix(-0.70678 -0.707433 -0.706576 0.707638 458.063 273.688)" stroke="#C8E1FF" stroke-linejoin="round"/>
<path d="M630 87.9998L626 94.928H618L614 87.9998L618 81.0716H626L630 87.9998Z" stroke="#2188FF" stroke-width="2" stroke-linecap="round" stroke-linejoin="round"/>
<path d="M585 143C587 143 587 139 589 139C591 139 591 143 593 143C595 143 595 139 597 139C599 139 599 143 601 143C603 143 603 139 605 139" stroke="#C8E1FF" stroke-linecap="round" stroke-linejoin="round"/>
<path d="M567.531 258H576.391L551.453 190.359H543.109L518.172 258H527.031L533.828 238.64H560.734L567.531 258ZM547.141 200.625H547.422L558.25 231.469H536.312L547.141 200.625Z" fill="#005CC5"/>
<path d="M599.188 251.906C593.328 251.906 589.438 248.859 589.438 244.219C589.438 239.625 593.188 236.719 599.75 236.297L612.781 235.5V239.484C612.781 246.515 606.875 251.906 599.188 251.906ZM597.359 258.844C603.922 258.844 610.109 255.187 613.016 249.609H613.203V258H620.938V224.297C620.938 214.594 613.719 208.406 602.281 208.406C590.75 208.406 583.531 214.875 582.969 223.312H590.844C591.875 218.531 595.812 215.578 602.094 215.578C608.844 215.578 612.781 219.14 612.781 225.094V229.172L598.812 229.969C587.562 230.625 581.141 235.875 581.141 244.219C581.141 252.984 587.656 258.844 597.359 258.844Z" fill="#005CC5"/>
<rect x="517" y="262" width="105" height="2" fill="#005CC5"/>
<g clip-path="url(#clip4)">
<rect width="276" height="276" transform="matrix(-1 0 0 1 286 130)" fill="#1B1F23"/>
<g clip-path="url(#clip5)">
<circle r="2" transform="matrix(-1 0 0 1 240 332)" fill="#044289"/>
<circle r="2" transform="matrix(-1 0 0 1 228 332)" fill="#044289"/>
<circle r="2" transform="matrix(-1 0 0 1 216 332)" fill="#044289"/>
<circle r="2" transform="matrix(-1 0 0 1 204 332)" fill="#044289"/>
<circle r="2" transform="matrix(-1 0 0 1 192 332)" fill="#044289"/>
<circle r="2" transform="matrix(-1 0 0 1 240 344)" fill="#044289"/>
<circle r="2" transform="matrix(-1 0 0 1 228 344)" fill="#044289"/>
<circle r="2" transform="matrix(-1 0 0 1 216 344)" fill="#044289"/>
<circle r="2" transform="matrix(-1 0 0 1 204 344)" fill="#044289"/>
<circle r="2" transform="matrix(-1 0 0 1 192 344)" fill="#044289"/>
<circle r="2" transform="matrix(-1 0 0 1 240 356)" fill="#044289"/>
<circle r="2" transform="matrix(-1 0 0 1 228 356)" fill="#044289"/>
<circle r="2" transform="matrix(-1 0 0 1 216 356)" fill="#044289"/>
<circle r="2" transform="matrix(-1 0 0 1 204 356)" fill="#044289"/>
<circle r="2" transform="matrix(-1 0 0 1 192 356)" fill="#044289"/>
<circle r="2" transform="matrix(-1 0 0 1 252 332)" fill="#044289"/>
<circle r="2" transform="matrix(-1 0 0 1 252 344)" fill="#044289"/>
<circle r="2" transform="matrix(-1 0 0 1 252 356)" fill="#044289"/>
<circle r="2" transform="matrix(-1 0 0 1 240 368)" fill="#044289"/>
<circle r="2" transform="matrix(-1 0 0 1 228 368)" fill="#044289"/>
<circle r="2" transform="matrix(-1 0 0 1 216 368)" fill="#044289"/>
<circle r="2" transform="matrix(-1 0 0 1 204 368)" fill="#044289"/>
<circle r="2" transform="matrix(-1 0 0 1 192 368)" fill="#044289"/>
<circle r="2" transform="matrix(-1 0 0 1 252 368)" fill="#044289"/>
<circle r="2" transform="matrix(-1 0 0 1 240 380)" fill="#044289"/>
<circle r="2" transform="matrix(-1 0 0 1 228 380)" fill="#044289"/>
<circle r="2" transform="matrix(-1 0 0 1 216 380)" fill="#044289"/>
<circle r="2" transform="matrix(-1 0 0 1 204 380)" fill="#044289"/>
<circle r="2" transform="matrix(-1 0 0 1 192 380)" fill="#044289"/>
<circle r="2" transform="matrix(-1 0 0 1 252 380)" fill="#044289"/>
<circle r="2" transform="matrix(-1 0 0 1 240 392)" fill="#044289"/>
<circle r="2" transform="matrix(-1 0 0 1 228 392)" fill="#044289"/>
<circle r="2" transform="matrix(-1 0 0 1 216 392)" fill="#044289"/>
<circle r="2" transform="matrix(-1 0 0 1 204 392)" fill="#044289"/>
<circle r="2" transform="matrix(-1 0 0 1 192 392)" fill="#044289"/>
<circle r="2" transform="matrix(-1 0 0 1 252 392)" fill="#044289"/>
<circle r="2" transform="matrix(-1 0 0 1 240 404)" fill="#044289"/>
<circle r="2" transform="matrix(-1 0 0 1 228 404)" fill="#044289"/>
<circle r="2" transform="matrix(-1 0 0 1 216 404)" fill="#044289"/>
<circle r="2" transform="matrix(-1 0 0 1 204 404)" fill="#044289"/>
<circle r="2" transform="matrix(-1 0 0 1 192 404)" fill="#044289"/>
<circle r="2" transform="matrix(-1 0 0 1 252 404)" fill="#044289"/>
<circle r="2" transform="matrix(-1 0 0 1 180 332)" fill="#044289"/>
<circle r="2" transform="matrix(-1 0 0 1 180 344)" fill="#044289"/>
<circle r="2" transform="matrix(-1 0 0 1 180 356)" fill="#044289"/>
<circle r="2" transform="matrix(-1 0 0 1 180 368)" fill="#044289"/>
<circle r="2" transform="matrix(-1 0 0 1 180 380)" fill="#044289"/>
<circle r="2" transform="matrix(-1 0 0 1 180 392)" fill="#044289"/>
<circle r="2" transform="matrix(-1 0 0 1 180 404)" fill="#044289"/>
<circle r="2" transform="matrix(-1 0 0 1 168 332)" fill="#044289"/>
<circle r="2" transform="matrix(-1 0 0 1 168 344)" fill="#044289"/>
<circle r="2" transform="matrix(-1 0 0 1 168 356)" fill="#044289"/>
<circle r="2" transform="matrix(-1 0 0 1 168 368)" fill="#044289"/>
<circle r="2" transform="matrix(-1 0 0 1 168 380)" fill="#044289"/>
<circle r="2" transform="matrix(-1 0 0 1 168 392)" fill="#044289"/>
<circle r="2" transform="matrix(-1 0 0 1 168 404)" fill="#044289"/>
<circle r="2" transform="matrix(-1 0 0 1 156 332)" fill="#044289"/>
<circle r="2" transform="matrix(-1 0 0 1 156 344)" fill="#044289"/>
<circle r="2" transform="matrix(-1 0 0 1 156 356)" fill="#044289"/>
<circle r="2" transform="matrix(-1 0 0 1 156 368)" fill="#044289"/>
<circle r="2" transform="matrix(-1 0 0 1 156 380)" fill="#044289"/>
<circle r="2" transform="matrix(-1 0 0 1 156 392)" fill="#044289"/>
<circle r="2" transform="matrix(-1 0 0 1 156 404)" fill="#044289"/>
<circle r="2" transform="matrix(-1 0 0 1 144 332)" fill="#044289"/>
<circle r="2" transform="matrix(-1 0 0 1 144 344)" fill="#044289"/>
<circle r="2" transform="matrix(-1 0 0 1 144 356)" fill="#044289"/>
<circle r="2" transform="matrix(-1 0 0 1 144 368)" fill="#044289"/>
<circle r="2" transform="matrix(-1 0 0 1 144 380)" fill="#044289"/>
<circle r="2" transform="matrix(-1 0 0 1 144 392)" fill="#044289"/>
<circle r="2" transform="matrix(-1 0 0 1 144 404)" fill="#044289"/>
<circle r="2" transform="matrix(-1 0 0 1 132 332)" fill="#044289"/>
<circle r="2" transform="matrix(-1 0 0 1 132 344)" fill="#044289"/>
<circle r="2" transform="matrix(-1 0 0 1 132 356)" fill="#044289"/>
<circle r="2" transform="matrix(-1 0 0 1 132 368)" fill="#044289"/>
<circle r="2" transform="matrix(-1 0 0 1 132 380)" fill="#044289"/>
<circle r="2" transform="matrix(-1 0 0 1 132 392)" fill="#044289"/>
<circle r="2" transform="matrix(-1 0 0 1 132 404)" fill="#044289"/>
<circle r="2" transform="matrix(-1 0 0 1 120 332)" fill="#044289"/>
<circle r="2" transform="matrix(-1 0 0 1 120 344)" fill="#044289"/>
<circle r="2" transform="matrix(-1 0 0 1 120 356)" fill="#044289"/>
<circle r="2" transform="matrix(-1 0 0 1 120 368)" fill="#044289"/>
<circle r="2" transform="matrix(-1 0 0 1 120 380)" fill="#044289"/>
<circle r="2" transform="matrix(-1 0 0 1 120 392)" fill="#044289"/>
<circle r="2" transform="matrix(-1 0 0 1 120 404)" fill="#044289"/>
<circle r="2" transform="matrix(-1 0 0 1 108 332)" fill="#044289"/>
<circle r="2" transform="matrix(-1 0 0 1 96 332)" fill="#044289"/>
<circle r="2" transform="matrix(-1 0 0 1 96 344)" fill="#044289"/>
<circle r="2" transform="matrix(-1 0 0 1 96 356)" fill="#044289"/>
<circle r="2" transform="matrix(-1 0 0 1 96 368)" fill="#044289"/>
<circle r="2" transform="matrix(-1 0 0 1 96 380)" fill="#044289"/>
<circle r="2" transform="matrix(-1 0 0 1 96 392)" fill="#044289"/>
<circle r="2" transform="matrix(-1 0 0 1 96 404)" fill="#044289"/>
<circle r="2" transform="matrix(-1 0 0 1 108 344)" fill="#044289"/>
<circle r="2" transform="matrix(-1 0 0 1 108 356)" fill="#044289"/>
<circle r="2" transform="matrix(-1 0 0 1 108 368)" fill="#044289"/>
<circle r="2" transform="matrix(-1 0 0 1 108 380)" fill="#044289"/>
<circle r="2" transform="matrix(-1 0 0 1 108 392)" fill="#044289"/>
<circle r="2" transform="matrix(-1 0 0 1 108 404)" fill="#044289"/>
<circle r="2" transform="matrix(-1 0 0 1 72 332)" fill="#044289"/>
<circle r="2" transform="matrix(-1 0 0 1 60 332)" fill="#044289"/>
<circle r="2" transform="matrix(-1 0 0 1 48 332)" fill="#044289"/>
<circle r="2" transform="matrix(-1 0 0 1 36 332)" fill="#044289"/>
<circle r="2" transform="matrix(-1 0 0 1 24 332)" fill="#044289"/>
<circle r="2" transform="matrix(-1 0 0 1 72 344)" fill="#044289"/>
<circle r="2" transform="matrix(-1 0 0 1 60 344)" fill="#044289"/>
<circle r="2" transform="matrix(-1 0 0 1 48 344)" fill="#044289"/>
<circle r="2" transform="matrix(-1 0 0 1 36 344)" fill="#044289"/>
<circle r="2" transform="matrix(-1 0 0 1 24 344)" fill="#044289"/>
<circle r="2" transform="matrix(-1 0 0 1 72 356)" fill="#044289"/>
<circle r="2" transform="matrix(-1 0 0 1 60 356)" fill="#044289"/>
<circle r="2" transform="matrix(-1 0 0 1 48 356)" fill="#044289"/>
<circle r="2" transform="matrix(-1 0 0 1 36 356)" fill="#044289"/>
<circle r="2" transform="matrix(-1 0 0 1 24 356)" fill="#044289"/>
<circle r="2" transform="matrix(-1 0 0 1 84 332)" fill="#044289"/>
<circle r="2" transform="matrix(-1 0 0 1 84 344)" fill="#044289"/>
<circle r="2" transform="matrix(-1 0 0 1 84 356)" fill="#044289"/>
<circle r="2" transform="matrix(-1 0 0 1 72 368)" fill="#044289"/>
<circle r="2" transform="matrix(-1 0 0 1 60 368)" fill="#044289"/>
<circle r="2" transform="matrix(-1 0 0 1 48 368)" fill="#044289"/>
<circle r="2" transform="matrix(-1 0 0 1 36 368)" fill="#044289"/>
<circle r="2" transform="matrix(-1 0 0 1 24 368)" fill="#044289"/>
<circle r="2" transform="matrix(-1 0 0 1 84 368)" fill="#044289"/>
<circle r="2" transform="matrix(-1 0 0 1 72 380)" fill="#044289"/>
<circle r="2" transform="matrix(-1 0 0 1 60 380)" fill="#044289"/>
<circle r="2" transform="matrix(-1 0 0 1 48 380)" fill="#044289"/>
<circle r="2" transform="matrix(-1 0 0 1 36 380)" fill="#044289"/>
<circle r="2" transform="matrix(-1 0 0 1 24 380)" fill="#044289"/>
<circle r="2" transform="matrix(-1 0 0 1 84 380)" fill="#044289"/>
<circle r="2" transform="matrix(-1 0 0 1 72 392)" fill="#044289"/>
<circle r="2" transform="matrix(-1 0 0 1 60 392)" fill="#044289"/>
<circle r="2" transform="matrix(-1 0 0 1 48 392)" fill="#044289"/>
<circle r="2" transform="matrix(-1 0 0 1 36 392)" fill="#044289"/>
<circle r="2" transform="matrix(-1 0 0 1 24 392)" fill="#044289"/>
<circle r="2" transform="matrix(-1 0 0 1 84 392)" fill="#044289"/>
<circle r="2" transform="matrix(-1 0 0 1 72 404)" fill="#044289"/>
<circle r="2" transform="matrix(-1 0 0 1 60 404)" fill="#044289"/>
<circle r="2" transform="matrix(-1 0 0 1 48 404)" fill="#044289"/>
<circle r="2" transform="matrix(-1 0 0 1 36 404)" fill="#044289"/>
<circle r="2" transform="matrix(-1 0 0 1 24 404)" fill="#044289"/>
<circle r="2" transform="matrix(-1 0 0 1 84 404)" fill="#044289"/>
<circle r="2" transform="matrix(-1 0 0 1 12 332)" fill="#044289"/>
<circle r="2" transform="matrix(-1 0 0 1 12 344)" fill="#044289"/>
<circle r="2" transform="matrix(-1 0 0 1 12 356)" fill="#044289"/>
<circle r="2" transform="matrix(-1 0 0 1 12 368)" fill="#044289"/>
<circle r="2" transform="matrix(-1 0 0 1 12 380)" fill="#044289"/>
<circle r="2" transform="matrix(-1 0 0 1 12 392)" fill="#044289"/>
<circle r="2" transform="matrix(-1 0 0 1 12 404)" fill="#044289"/>
<circle r="2" transform="matrix(-1 0 0 1 240 164)" fill="#044289"/>
<circle r="2" transform="matrix(-1 0 0 1 228 164)" fill="#044289"/>
<circle r="2" transform="matrix(-1 0 0 1 216 164)" fill="#044289"/>
<circle r="2" transform="matrix(-1 0 0 1 204 164)" fill="#044289"/>
<circle r="2" transform="matrix(-1 0 0 1 192 164)" fill="#044289"/>
<circle r="2" transform="matrix(-1 0 0 1 240 176)" fill="#044289"/>
<circle r="2" transform="matrix(-1 0 0 1 228 176)" fill="#044289"/>
<circle r="2" transform="matrix(-1 0 0 1 216 176)" fill="#044289"/>
<circle r="2" transform="matrix(-1 0 0 1 204 176)" fill="#044289"/>
<circle r="2" transform="matrix(-1 0 0 1 192 176)" fill="#044289"/>
<circle r="2" transform="matrix(-1 0 0 1 240 188)" fill="#044289"/>
<circle r="2" transform="matrix(-1 0 0 1 228 188)" fill="#044289"/>
<circle r="2" transform="matrix(-1 0 0 1 216 188)" fill="#044289"/>
<circle r="2" transform="matrix(-1 0 0 1 204 188)" fill="#044289"/>
<circle r="2" transform="matrix(-1 0 0 1 192 188)" fill="#044289"/>
<circle r="2" transform="matrix(-1 0 0 1 252 164)" fill="#044289"/>
<circle r="2" transform="matrix(-1 0 0 1 252 176)" fill="#044289"/>
<circle r="2" transform="matrix(-1 0 0 1 252 188)" fill="#044289"/>
<circle r="2" transform="matrix(-1 0 0 1 240 200)" fill="#044289"/>
<circle r="2" transform="matrix(-1 0 0 1 228 200)" fill="#044289"/>
<circle r="2" transform="matrix(-1 0 0 1 216 200)" fill="#044289"/>
<circle r="2" transform="matrix(-1 0 0 1 204 200)" fill="#044289"/>
<circle r="2" transform="matrix(-1 0 0 1 192 200)" fill="#044289"/>
<circle r="2" transform="matrix(-1 0 0 1 252 200)" fill="#044289"/>
<circle r="2" transform="matrix(-1 0 0 1 240 212)" fill="#044289"/>
<circle r="2" transform="matrix(-1 0 0 1 228 212)" fill="#044289"/>
<circle r="2" transform="matrix(-1 0 0 1 216 212)" fill="#044289"/>
<circle r="2" transform="matrix(-1 0 0 1 204 212)" fill="#044289"/>
<circle r="2" transform="matrix(-1 0 0 1 192 212)" fill="#044289"/>
<circle r="2" transform="matrix(-1 0 0 1 252 212)" fill="#044289"/>
<circle r="2" transform="matrix(-1 0 0 1 240 224)" fill="#044289"/>
<circle r="2" transform="matrix(-1 0 0 1 228 224)" fill="#044289"/>
<circle r="2" transform="matrix(-1 0 0 1 216 224)" fill="#044289"/>
<circle r="2" transform="matrix(-1 0 0 1 204 224)" fill="#044289"/>
<circle r="2" transform="matrix(-1 0 0 1 192 224)" fill="#044289"/>
<circle r="2" transform="matrix(-1 0 0 1 252 224)" fill="#044289"/>
<circle r="2" transform="matrix(-1 0 0 1 240 236)" fill="#044289"/>
<circle r="2" transform="matrix(-1 0 0 1 228 236)" fill="#044289"/>
<circle r="2" transform="matrix(-1 0 0 1 216 236)" fill="#044289"/>
<circle r="2" transform="matrix(-1 0 0 1 204 236)" fill="#044289"/>
<circle r="2" transform="matrix(-1 0 0 1 192 236)" fill="#044289"/>
<circle r="2" transform="matrix(-1 0 0 1 252 236)" fill="#044289"/>
<circle r="2" transform="matrix(-1 0 0 1 240 248)" fill="#044289"/>
<circle r="2" transform="matrix(-1 0 0 1 228 248)" fill="#044289"/>
<circle r="2" transform="matrix(-1 0 0 1 216 248)" fill="#044289"/>
<circle r="2" transform="matrix(-1 0 0 1 204 248)" fill="#044289"/>
<circle r="2" transform="matrix(-1 0 0 1 192 248)" fill="#044289"/>
<circle r="2" transform="matrix(-1 0 0 1 252 248)" fill="#044289"/>
<circle r="2" transform="matrix(-1 0 0 1 240 260)" fill="#044289"/>
<circle r="2" transform="matrix(-1 0 0 1 228 260)" fill="#044289"/>
<circle r="2" transform="matrix(-1 0 0 1 216 260)" fill="#044289"/>
<circle r="2" transform="matrix(-1 0 0 1 204 260)" fill="#044289"/>
<circle r="2" transform="matrix(-1 0 0 1 192 260)" fill="#044289"/>
<circle r="2" transform="matrix(-1 0 0 1 252 260)" fill="#044289"/>
<circle r="2" transform="matrix(-1 0 0 1 240 272)" fill="#044289"/>
<circle r="2" transform="matrix(-1 0 0 1 228 272)" fill="#044289"/>
<circle r="2" transform="matrix(-1 0 0 1 216 272)" fill="#044289"/>
<circle r="2" transform="matrix(-1 0 0 1 204 272)" fill="#044289"/>
<circle r="2" transform="matrix(-1 0 0 1 192 272)" fill="#044289"/>
<circle r="2" transform="matrix(-1 0 0 1 252 272)" fill="#044289"/>
<circle r="2" transform="matrix(-1 0 0 1 240 284)" fill="#044289"/>
<circle r="2" transform="matrix(-1 0 0 1 228 284)" fill="#044289"/>
<circle r="2" transform="matrix(-1 0 0 1 216 284)" fill="#044289"/>
<circle r="2" transform="matrix(-1 0 0 1 204 284)" fill="#044289"/>
<circle r="2" transform="matrix(-1 0 0 1 192 284)" fill="#044289"/>
<circle r="2" transform="matrix(-1 0 0 1 252 284)" fill="#044289"/>
<circle r="2" transform="matrix(-1 0 0 1 240 296)" fill="#044289"/>
<circle r="2" transform="matrix(-1 0 0 1 228 296)" fill="#044289"/>
<circle r="2" transform="matrix(-1 0 0 1 216 296)" fill="#044289"/>
<circle r="2" transform="matrix(-1 0 0 1 204 296)" fill="#044289"/>
<circle r="2" transform="matrix(-1 0 0 1 192 296)" fill="#044289"/>
<circle r="2" transform="matrix(-1 0 0 1 252 296)" fill="#044289"/>
<circle r="2" transform="matrix(-1 0 0 1 240 308)" fill="#044289"/>
<circle r="2" transform="matrix(-1 0 0 1 228 308)" fill="#044289"/>
<circle r="2" transform="matrix(-1 0 0 1 216 308)" fill="#044289"/>
<circle r="2" transform="matrix(-1 0 0 1 204 308)" fill="#044289"/>
<circle r="2" transform="matrix(-1 0 0 1 192 308)" fill="#044289"/>
<circle r="2" transform="matrix(-1 0 0 1 252 308)" fill="#044289"/>
<circle r="2" transform="matrix(-1 0 0 1 180 164)" fill="#044289"/>
<circle r="2" transform="matrix(-1 0 0 1 180 176)" fill="#044289"/>
<circle r="2" transform="matrix(-1 0 0 1 180 188)" fill="#044289"/>
<circle r="2" transform="matrix(-1 0 0 1 180 200)" fill="#044289"/>
<circle r="2" transform="matrix(-1 0 0 1 180 212)" fill="#044289"/>
<circle r="2" transform="matrix(-1 0 0 1 180 224)" fill="#044289"/>
<circle r="2" transform="matrix(-1 0 0 1 180 236)" fill="#044289"/>
<circle r="2" transform="matrix(-1 0 0 1 180 248)" fill="#044289"/>
<circle r="2" transform="matrix(-1 0 0 1 180 260)" fill="#044289"/>
<circle r="2" transform="matrix(-1 0 0 1 180 272)" fill="#044289"/>
<circle r="2" transform="matrix(-1 0 0 1 180 284)" fill="#044289"/>
<circle r="2" transform="matrix(-1 0 0 1 180 296)" fill="#044289"/>
<circle r="2" transform="matrix(-1 0 0 1 180 308)" fill="#044289"/>
<circle r="2" transform="matrix(-1 0 0 1 168 164)" fill="#044289"/>
<circle r="2" transform="matrix(-1 0 0 1 168 176)" fill="#044289"/>
<circle r="2" transform="matrix(-1 0 0 1 168 188)" fill="#044289"/>
<circle r="2" transform="matrix(-1 0 0 1 168 200)" fill="#044289"/>
<circle r="2" transform="matrix(-1 0 0 1 168 212)" fill="#044289"/>
<circle r="2" transform="matrix(-1 0 0 1 168 224)" fill="#044289"/>
<circle r="2" transform="matrix(-1 0 0 1 168 236)" fill="#044289"/>
<circle r="2" transform="matrix(-1 0 0 1 168 248)" fill="#044289"/>
<circle r="2" transform="matrix(-1 0 0 1 168 260)" fill="#044289"/>
<circle r="2" transform="matrix(-1 0 0 1 168 272)" fill="#044289"/>
<circle r="2" transform="matrix(-1 0 0 1 168 284)" fill="#044289"/>
<circle r="2" transform="matrix(-1 0 0 1 168 296)" fill="#044289"/>
<circle r="2" transform="matrix(-1 0 0 1 168 308)" fill="#044289"/>
<circle r="2" transform="matrix(-1 0 0 1 156 164)" fill="#044289"/>
<circle r="2" transform="matrix(-1 0 0 1 156 176)" fill="#044289"/>
<circle r="2" transform="matrix(-1 0 0 1 156 188)" fill="#044289"/>
<circle r="2" transform="matrix(-1 0 0 1 156 200)" fill="#044289"/>
<circle r="2" transform="matrix(-1 0 0 1 156 212)" fill="#044289"/>
<circle r="2" transform="matrix(-1 0 0 1 156 224)" fill="#044289"/>
<circle r="2" transform="matrix(-1 0 0 1 156 236)" fill="#044289"/>
<circle r="2" transform="matrix(-1 0 0 1 156 248)" fill="#044289"/>
<circle r="2" transform="matrix(-1 0 0 1 156 260)" fill="#044289"/>
<circle r="2" transform="matrix(-1 0 0 1 156 272)" fill="#044289"/>
<circle r="2" transform="matrix(-1 0 0 1 156 284)" fill="#044289"/>
<circle r="2" transform="matrix(-1 0 0 1 156 296)" fill="#044289"/>
<circle r="2" transform="matrix(-1 0 0 1 156 308)" fill="#044289"/>
<circle r="2" transform="matrix(-1 0 0 1 144 164)" fill="#044289"/>
<circle r="2" transform="matrix(-1 0 0 1 144 176)" fill="#044289"/>
<circle r="2" transform="matrix(-1 0 0 1 144 188)" fill="#044289"/>
<circle r="2" transform="matrix(-1 0 0 1 144 200)" fill="#044289"/>
<circle r="2" transform="matrix(-1 0 0 1 144 212)" fill="#044289"/>
<circle r="2" transform="matrix(-1 0 0 1 144 224)" fill="#044289"/>
<circle r="2" transform="matrix(-1 0 0 1 144 236)" fill="#044289"/>
<circle r="2" transform="matrix(-1 0 0 1 144 248)" fill="#044289"/>
<circle r="2" transform="matrix(-1 0 0 1 144 260)" fill="#044289"/>
<circle r="2" transform="matrix(-1 0 0 1 144 272)" fill="#044289"/>
<circle r="2" transform="matrix(-1 0 0 1 144 284)" fill="#044289"/>
<circle r="2" transform="matrix(-1 0 0 1 144 296)" fill="#044289"/>
<circle r="2" transform="matrix(-1 0 0 1 144 308)" fill="#044289"/>
<circle r="2" transform="matrix(-1 0 0 1 132 164)" fill="#044289"/>
<circle r="2" transform="matrix(-1 0 0 1 132 176)" fill="#044289"/>
<circle r="2" transform="matrix(-1 0 0 1 132 188)" fill="#044289"/>
<circle r="2" transform="matrix(-1 0 0 1 132 200)" fill="#044289"/>
<circle r="2" transform="matrix(-1 0 0 1 132 212)" fill="#044289"/>
<circle r="2" transform="matrix(-1 0 0 1 132 224)" fill="#044289"/>
<circle r="2" transform="matrix(-1 0 0 1 132 236)" fill="#044289"/>
<circle r="2" transform="matrix(-1 0 0 1 132 248)" fill="#044289"/>
<circle r="2" transform="matrix(-1 0 0 1 132 260)" fill="#044289"/>
<circle r="2" transform="matrix(-1 0 0 1 132 272)" fill="#044289"/>
<circle r="2" transform="matrix(-1 0 0 1 132 284)" fill="#044289"/>
<circle r="2" transform="matrix(-1 0 0 1 132 296)" fill="#044289"/>
<circle r="2" transform="matrix(-1 0 0 1 132 308)" fill="#044289"/>
<circle r="2" transform="matrix(-1 0 0 1 120 164)" fill="#044289"/>
<circle r="2" transform="matrix(-1 0 0 1 120 176)" fill="#044289"/>
<circle r="2" transform="matrix(-1 0 0 1 120 188)" fill="#044289"/>
<circle r="2" transform="matrix(-1 0 0 1 120 200)" fill="#044289"/>
<circle r="2" transform="matrix(-1 0 0 1 120 212)" fill="#044289"/>
<circle r="2" transform="matrix(-1 0 0 1 120 224)" fill="#044289"/>
<circle r="2" transform="matrix(-1 0 0 1 120 236)" fill="#044289"/>
<circle r="2" transform="matrix(-1 0 0 1 120 248)" fill="#044289"/>
<circle r="2" transform="matrix(-1 0 0 1 120 260)" fill="#044289"/>
<circle r="2" transform="matrix(-1 0 0 1 120 272)" fill="#044289"/>
<circle r="2" transform="matrix(-1 0 0 1 120 284)" fill="#044289"/>
<circle r="2" transform="matrix(-1 0 0 1 120 296)" fill="#044289"/>
<circle r="2" transform="matrix(-1 0 0 1 120 308)" fill="#044289"/>
<circle r="2" transform="matrix(-1 0 0 1 108 164)" fill="#044289"/>
<circle r="2" transform="matrix(-1 0 0 1 96 164)" fill="#044289"/>
<circle r="2" transform="matrix(-1 0 0 1 96 176)" fill="#044289"/>
<circle r="2" transform="matrix(-1 0 0 1 96 188)" fill="#044289"/>
<circle r="2" transform="matrix(-1 0 0 1 96 200)" fill="#044289"/>
<circle r="2" transform="matrix(-1 0 0 1 96 212)" fill="#044289"/>
<circle r="2" transform="matrix(-1 0 0 1 96 224)" fill="#044289"/>
<circle r="2" transform="matrix(-1 0 0 1 96 236)" fill="#044289"/>
<circle r="2" transform="matrix(-1 0 0 1 96 248)" fill="#044289"/>
<circle r="2" transform="matrix(-1 0 0 1 96 260)" fill="#044289"/>
<circle r="2" transform="matrix(-1 0 0 1 96 272)" fill="#044289"/>
<circle r="2" transform="matrix(-1 0 0 1 96 284)" fill="#044289"/>
<circle r="2" transform="matrix(-1 0 0 1 96 296)" fill="#044289"/>
<circle r="2" transform="matrix(-1 0 0 1 96 308)" fill="#044289"/>
<circle r="2" transform="matrix(-1 0 0 1 108 176)" fill="#044289"/>
<circle r="2" transform="matrix(-1 0 0 1 108 188)" fill="#044289"/>
<circle r="2" transform="matrix(-1 0 0 1 108 200)" fill="#044289"/>
<circle r="2" transform="matrix(-1 0 0 1 108 212)" fill="#044289"/>
<circle r="2" transform="matrix(-1 0 0 1 108 224)" fill="#044289"/>
<circle r="2" transform="matrix(-1 0 0 1 108 236)" fill="#044289"/>
<circle r="2" transform="matrix(-1 0 0 1 108 248)" fill="#044289"/>
<circle r="2" transform="matrix(-1 0 0 1 108 260)" fill="#044289"/>
<circle r="2" transform="matrix(-1 0 0 1 108 272)" fill="#044289"/>
<circle r="2" transform="matrix(-1 0 0 1 108 284)" fill="#044289"/>
<circle r="2" transform="matrix(-1 0 0 1 108 296)" fill="#044289"/>
<circle r="2" transform="matrix(-1 0 0 1 108 308)" fill="#044289"/>
<circle r="2" transform="matrix(-1 0 0 1 240 320)" fill="#044289"/>
<circle r="2" transform="matrix(-1 0 0 1 228 320)" fill="#044289"/>
<circle r="2" transform="matrix(-1 0 0 1 216 320)" fill="#044289"/>
<circle r="2" transform="matrix(-1 0 0 1 204 320)" fill="#044289"/>
<circle r="2" transform="matrix(-1 0 0 1 192 320)" fill="#044289"/>
<circle r="2" transform="matrix(-1 0 0 1 252 320)" fill="#044289"/>
<circle r="2" transform="matrix(-1 0 0 1 180 320)" fill="#044289"/>
<circle r="2" transform="matrix(-1 0 0 1 168 320)" fill="#044289"/>
<circle r="2" transform="matrix(-1 0 0 1 156 320)" fill="#044289"/>
<circle r="2" transform="matrix(-1 0 0 1 144 320)" fill="#044289"/>
<circle r="2" transform="matrix(-1 0 0 1 132 320)" fill="#044289"/>
<circle r="2" transform="matrix(-1 0 0 1 120 320)" fill="#044289"/>
<circle r="2" transform="matrix(-1 0 0 1 96 320)" fill="#044289"/>
<circle r="2" transform="matrix(-1 0 0 1 108 320)" fill="#044289"/>
<circle r="2" transform="matrix(-1 0 0 1 72 164)" fill="#044289"/>
<circle r="2" transform="matrix(-1 0 0 1 60 164)" fill="#044289"/>
<circle r="2" transform="matrix(-1 0 0 1 48 164)" fill="#044289"/>
<circle r="2" transform="matrix(-1 0 0 1 36 164)" fill="#044289"/>
<circle r="2" transform="matrix(-1 0 0 1 24 164)" fill="#044289"/>
<circle r="2" transform="matrix(-1 0 0 1 72 176)" fill="#044289"/>
<circle r="2" transform="matrix(-1 0 0 1 60 176)" fill="#044289"/>
<circle r="2" transform="matrix(-1 0 0 1 48 176)" fill="#044289"/>
<circle r="2" transform="matrix(-1 0 0 1 36 176)" fill="#044289"/>
<circle r="2" transform="matrix(-1 0 0 1 24 176)" fill="#044289"/>
<circle r="2" transform="matrix(-1 0 0 1 72 188)" fill="#044289"/>
<circle r="2" transform="matrix(-1 0 0 1 60 188)" fill="#044289"/>
<circle r="2" transform="matrix(-1 0 0 1 48 188)" fill="#044289"/>
<circle r="2" transform="matrix(-1 0 0 1 36 188)" fill="#044289"/>
<circle r="2" transform="matrix(-1 0 0 1 24 188)" fill="#044289"/>
<circle r="2" transform="matrix(-1 0 0 1 84 164)" fill="#044289"/>
<circle r="2" transform="matrix(-1 0 0 1 84 176)" fill="#044289"/>
<circle r="2" transform="matrix(-1 0 0 1 84 188)" fill="#044289"/>
<circle r="2" transform="matrix(-1 0 0 1 72 200)" fill="#044289"/>
<circle r="2" transform="matrix(-1 0 0 1 60 200)" fill="#044289"/>
<circle r="2" transform="matrix(-1 0 0 1 48 200)" fill="#044289"/>
<circle r="2" transform="matrix(-1 0 0 1 36 200)" fill="#044289"/>
<circle r="2" transform="matrix(-1 0 0 1 24 200)" fill="#044289"/>
<circle r="2" transform="matrix(-1 0 0 1 84 200)" fill="#044289"/>
<circle r="2" transform="matrix(-1 0 0 1 72 212)" fill="#044289"/>
<circle r="2" transform="matrix(-1 0 0 1 60 212)" fill="#044289"/>
<circle r="2" transform="matrix(-1 0 0 1 48 212)" fill="#044289"/>
<circle r="2" transform="matrix(-1 0 0 1 36 212)" fill="#044289"/>
<circle r="2" transform="matrix(-1 0 0 1 24 212)" fill="#044289"/>
<circle r="2" transform="matrix(-1 0 0 1 84 212)" fill="#044289"/>
<circle r="2" transform="matrix(-1 0 0 1 72 224)" fill="#044289"/>
<circle r="2" transform="matrix(-1 0 0 1 60 224)" fill="#044289"/>
<circle r="2" transform="matrix(-1 0 0 1 48 224)" fill="#044289"/>
<circle r="2" transform="matrix(-1 0 0 1 36 224)" fill="#044289"/>
<circle r="2" transform="matrix(-1 0 0 1 24 224)" fill="#044289"/>
<circle r="2" transform="matrix(-1 0 0 1 84 224)" fill="#044289"/>
<circle r="2" transform="matrix(-1 0 0 1 72 236)" fill="#044289"/>
<circle r="2" transform="matrix(-1 0 0 1 60 236)" fill="#044289"/>
<circle r="2" transform="matrix(-1 0 0 1 48 236)" fill="#044289"/>
<circle r="2" transform="matrix(-1 0 0 1 36 236)" fill="#044289"/>
<circle r="2" transform="matrix(-1 0 0 1 24 236)" fill="#044289"/>
<circle r="2" transform="matrix(-1 0 0 1 84 236)" fill="#044289"/>
<circle r="2" transform="matrix(-1 0 0 1 72 248)" fill="#044289"/>
<circle r="2" transform="matrix(-1 0 0 1 60 248)" fill="#044289"/>
<circle r="2" transform="matrix(-1 0 0 1 48 248)" fill="#044289"/>
<circle r="2" transform="matrix(-1 0 0 1 36 248)" fill="#044289"/>
<circle r="2" transform="matrix(-1 0 0 1 24 248)" fill="#044289"/>
<circle r="2" transform="matrix(-1 0 0 1 84 248)" fill="#044289"/>
<circle r="2" transform="matrix(-1 0 0 1 72 260)" fill="#044289"/>
<circle r="2" transform="matrix(-1 0 0 1 60 260)" fill="#044289"/>
<circle r="2" transform="matrix(-1 0 0 1 48 260)" fill="#044289"/>
<circle r="2" transform="matrix(-1 0 0 1 36 260)" fill="#044289"/>
<circle r="2" transform="matrix(-1 0 0 1 24 260)" fill="#044289"/>
<circle r="2" transform="matrix(-1 0 0 1 84 260)" fill="#044289"/>
<circle r="2" transform="matrix(-1 0 0 1 72 272)" fill="#044289"/>
<circle r="2" transform="matrix(-1 0 0 1 60 272)" fill="#044289"/>
<circle r="2" transform="matrix(-1 0 0 1 48 272)" fill="#044289"/>
<circle r="2" transform="matrix(-1 0 0 1 36 272)" fill="#044289"/>
<circle r="2" transform="matrix(-1 0 0 1 24 272)" fill="#044289"/>
<circle r="2" transform="matrix(-1 0 0 1 84 272)" fill="#044289"/>
<circle r="2" transform="matrix(-1 0 0 1 72 284)" fill="#044289"/>
<circle r="2" transform="matrix(-1 0 0 1 60 284)" fill="#044289"/>
<circle r="2" transform="matrix(-1 0 0 1 48 284)" fill="#044289"/>
<circle r="2" transform="matrix(-1 0 0 1 36 284)" fill="#044289"/>
<circle r="2" transform="matrix(-1 0 0 1 24 284)" fill="#044289"/>
<circle r="2" transform="matrix(-1 0 0 1 84 284)" fill="#044289"/>
<circle r="2" transform="matrix(-1 0 0 1 72 296)" fill="#044289"/>
<circle r="2" transform="matrix(-1 0 0 1 60 296)" fill="#044289"/>
<circle r="2" transform="matrix(-1 0 0 1 48 296)" fill="#044289"/>
<circle r="2" transform="matrix(-1 0 0 1 36 296)" fill="#044289"/>
<circle r="2" transform="matrix(-1 0 0 1 24 296)" fill="#044289"/>
<circle r="2" transform="matrix(-1 0 0 1 84 296)" fill="#044289"/>
<circle r="2" transform="matrix(-1 0 0 1 72 308)" fill="#044289"/>
<circle r="2" transform="matrix(-1 0 0 1 60 308)" fill="#044289"/>
<circle r="2" transform="matrix(-1 0 0 1 48 308)" fill="#044289"/>
<circle r="2" transform="matrix(-1 0 0 1 36 308)" fill="#044289"/>
<circle r="2" transform="matrix(-1 0 0 1 24 308)" fill="#044289"/>
<circle r="2" transform="matrix(-1 0 0 1 84 308)" fill="#044289"/>
<circle r="2" transform="matrix(-1 0 0 1 12 164)" fill="#044289"/>
<circle r="2" transform="matrix(-1 0 0 1 12 176)" fill="#044289"/>
<circle r="2" transform="matrix(-1 0 0 1 12 188)" fill="#044289"/>
<circle r="2" transform="matrix(-1 0 0 1 12 200)" fill="#044289"/>
<circle r="2" transform="matrix(-1 0 0 1 12 212)" fill="#044289"/>
<circle r="2" transform="matrix(-1 0 0 1 12 224)" fill="#044289"/>
<circle r="2" transform="matrix(-1 0 0 1 12 236)" fill="#044289"/>
<circle r="2" transform="matrix(-1 0 0 1 12 248)" fill="#044289"/>
<circle r="2" transform="matrix(-1 0 0 1 12 260)" fill="#044289"/>
<circle r="2" transform="matrix(-1 0 0 1 12 272)" fill="#044289"/>
<circle r="2" transform="matrix(-1 0 0 1 12 284)" fill="#044289"/>
<circle r="2" transform="matrix(-1 0 0 1 12 296)" fill="#044289"/>
<circle r="2" transform="matrix(-1 0 0 1 12 308)" fill="#044289"/>
<circle r="2" transform="matrix(-1 0 0 1 72 320)" fill="#044289"/>
<circle r="2" transform="matrix(-1 0 0 1 60 320)" fill="#044289"/>
<circle r="2" transform="matrix(-1 0 0 1 48 320)" fill="#044289"/>
<circle r="2" transform="matrix(-1 0 0 1 36 320)" fill="#044289"/>
<circle r="2" transform="matrix(-1 0 0 1 24 320)" fill="#044289"/>
<circle r="2" transform="matrix(-1 0 0 1 84 320)" fill="#044289"/>
<circle r="2" transform="matrix(-1 0 0 1 12 320)" fill="#044289"/>
</g>
<rect x="-0.5" y="0.5" width="255" height="255" transform="matrix(-1 0 0 1 285 130)" fill="#1B1F23" stroke="#79B8FF"/>
</g>
<rect width="29.3729" height="24" transform="matrix(-1 0 0 1 220 309)" fill="#044289"/>
<rect width="29.9723" height="24" transform="matrix(-1 0 0 1 131.282 309)" fill="#044289"/>
<rect width="30.5718" height="24" transform="matrix(-1 0 0 1 77.3317 309)" fill="#044289"/>
<rect width="11.3895" height="24" transform="matrix(-1 0 0 1 166.649 309)" fill="#044289"/>
<rect width="37.0656" height="36" transform="matrix(-1 0 0 1 233 254)" fill="#005CC5"/>
<rect width="98.2239" height="36" transform="matrix(-1 0 0 1 171.224 254)" fill="#005CC5"/>
<path fill-rule="evenodd" clip-rule="evenodd" d="M105.04 385C113.919 371.203 126.719 321.529 126.719 282.312C126.719 230.788 106.346 205.127 97.3284 205.127C88.3109 205.127 67.9377 230.788 67.9377 282.312C67.9377 321.529 80.7375 371.203 89.6172 385H105.04Z" fill="#2188FF"/>
<mask id="mask0" mask-type="alpha" maskUnits="userSpaceOnUse" x="67" y="205" width="60" height="180">
<path fill-rule="evenodd" clip-rule="evenodd" d="M105.04 385C113.919 371.203 126.719 321.529 126.719 282.312C126.719 230.788 106.346 205.127 97.3284 205.127C88.3109 205.127 67.9377 230.788 67.9377 282.312C67.9377 321.529 80.7375 371.203 89.6172 385H105.04Z" fill="#005CC5"/>
</mask>
<g mask="url(#mask0)">
<path d="M77.2164 256.979V235.564H76.2164V256.979H77.2164ZM87.8112 267.857C81.9716 267.857 77.2164 262.999 77.2164 256.979H76.2164C76.2164 263.527 81.3958 268.857 87.8112 268.857V267.857ZM98.4059 256.979C98.4059 262.999 93.6507 267.857 87.8112 267.857V268.857C94.2266 268.857 99.4059 263.527 99.4059 256.979H98.4059ZM98.4059 235.564V256.979H99.4059V235.564H98.4059ZM103.322 244.264C103.322 233.65 94.9282 225.025 84.548 225.025V226.025C94.3524 226.025 102.322 234.179 102.322 244.264H103.322ZM103.322 269.695V244.264H102.322V269.695H103.322ZM84.548 288.934C94.9282 288.934 103.322 280.308 103.322 269.695H102.322C102.322 279.78 94.3524 287.934 84.548 287.934V288.934ZM65.7742 269.695C65.7742 280.308 74.1678 288.934 84.548 288.934V287.934C74.7436 287.934 66.7742 279.78 66.7742 269.695H65.7742ZM65.7742 244.264V269.695H66.7742V244.264H65.7742ZM84.548 225.025C74.1678 225.025 65.7742 233.65 65.7742 244.264H66.7742C66.7742 234.179 74.7436 226.025 84.548 226.025V225.025ZM143.132 316.769C143.132 307.635 135.908 300.208 126.969 300.208V301.208C135.332 301.208 142.132 308.163 142.132 316.769H143.132ZM143.132 394.402V316.769H142.132V394.402H143.132ZM126.969 410.963C135.908 410.963 143.132 403.537 143.132 394.402H142.132C142.132 403.008 135.332 409.963 126.969 409.963V410.963ZM108.695 410.963H126.969V409.963H108.695V410.963ZM92.5322 394.402C92.5322 403.537 99.757 410.963 108.695 410.963V409.963C100.333 409.963 93.5322 403.008 93.5322 394.402H92.5322ZM92.5322 316.769V394.402H93.5322V316.769H92.5322ZM108.695 300.208C99.757 300.208 92.5322 307.635 92.5322 316.769H93.5322C93.5322 308.163 100.333 301.208 108.695 301.208V300.208ZM126.969 300.208H108.695V301.208H126.969V300.208ZM135.301 327.477C135.301 321.299 130.414 316.269 124.359 316.269V317.269C129.838 317.269 134.301 321.828 134.301 327.477H135.301ZM135.301 363.616V327.477H134.301V363.616H135.301ZM124.359 374.824C130.414 374.824 135.301 369.794 135.301 363.616H134.301C134.301 369.266 129.838 373.824 124.359 373.824V374.824ZM113.917 374.824H124.359V373.824H113.917V374.824ZM102.974 363.616C102.974 369.794 107.862 374.824 113.917 374.824V373.824C108.437 373.824 103.974 369.266 103.974 363.616H102.974ZM102.974 327.477V363.616H103.974V327.477H102.974ZM113.917 316.269C107.862 316.269 102.974 321.299 102.974 327.477H103.974C103.974 321.828 108.437 317.269 113.917 317.269V316.269ZM124.359 316.269H113.917V317.269H124.359V316.269ZM132.69 336.847C132.69 332.147 128.972 328.316 124.359 328.316V329.316C128.396 329.316 131.69 332.676 131.69 336.847H132.69ZM132.69 356.924V336.847H131.69V356.924H132.69ZM124.359 365.455C128.972 365.455 132.69 361.624 132.69 356.924H131.69C131.69 361.095 128.396 364.455 124.359 364.455V365.455ZM117.832 365.455H124.359V364.455H117.832V365.455ZM109.501 356.924C109.501 361.624 113.219 365.455 117.832 365.455V364.455C113.795 364.455 110.501 361.095 110.501 356.924H109.501ZM109.501 336.847V356.924H110.501V336.847H109.501ZM117.832 328.316C113.219 328.316 109.501 332.147 109.501 336.847H110.501C110.501 332.676 113.795 329.316 117.832 329.316V328.316ZM124.359 328.316H117.832V329.316H124.359V328.316Z" fill="#C8E1FF"/>
</g>
<path d="M122.747 245.628H71.9094C78.2964 218.602 90.7939 205.127 97.3283 205.127C103.863 205.127 116.36 218.602 122.747 245.628Z" fill="#044289"/>
<path d="M89.2577 209.617C90.8873 210.495 93.8917 211.083 97.3284 211.083C100.765 211.083 103.769 210.495 105.399 209.617C102.345 206.623 99.5055 205.127 97.3284 205.127C97.3284 205.127 97.3284 205.127 97.3284 205.127C95.1512 205.127 92.3122 206.623 89.2577 209.617Z" fill="#032F62"/>
<path d="M129.601 176.015C129.601 193.685 115.285 208.01 97.6253 208.01C79.9655 208.01 65.6494 193.685 65.6494 176.015C65.6494 155.351 96.2929 130.688 97.6253 114.691C98.9576 130.688 129.601 156.018 129.601 176.015Z" fill="#005CC5" stroke="#005CC5" stroke-width="1.18421" stroke-linecap="round" stroke-linejoin="round"/>
<mask id="mask1" mask-type="alpha" maskUnits="userSpaceOnUse" x="65" y="114" width="66" height="95">
<path d="M129.601 176.015C129.601 193.685 115.285 208.01 97.6253 208.01C79.9655 208.01 65.6494 193.685 65.6494 176.015C65.6494 155.351 96.2929 130.688 97.6253 114.691C98.9576 130.688 129.601 156.018 129.601 176.015Z" fill="#C8E1FF" stroke="#C8E1FF" stroke-width="1.18421"/>
</mask>
<g mask="url(#mask1)">
<ellipse cx="87.4511" cy="184.533" rx="36.3363" ry="36.3884" fill="#2188FF"/>
</g>
<path d="M178 169C178 104.5 233.766 30.4242 316 49.4999C351.069 57.6347 367.5 92.9995 300 137C235.722 178.9 233.312 279.516 316 288C466.131 303.403 551.578 6.61722 696.5 11.4998C790.157 14.6552 707.41 144.539 731.5 209C751.425 262.317 826 267.5 847 267.5" stroke="#C8E1FF"/>
<rect x="367" y="125" width="29.0937" height="23.7719" fill="#044289"/>
<rect x="454.875" y="125" width="29.6875" height="23.7719" fill="#044289"/>
<rect x="508.312" y="125" width="30.2813" height="23.7719" fill="#044289"/>
<rect x="419.844" y="125" width="11.2812" height="23.7719" fill="#044289"/>
<rect width="16" height="16" transform="matrix(0.707107 0.707107 -0.707311 0.706902 40.9755 70.9998)" stroke="#2188FF" stroke-width="2" stroke-linejoin="round"/>
<path d="M1012 38.9998C1016 38.9998 1016 30.9998 1020 30.9998C1024 30.9998 1024 38.9998 1028 38.9998C1032 38.9998 1032 30.9998 1036 30.9998C1040 30.9998 1040 38.9998 1044 38.9998C1048 38.9998 1048 30.9998 1052 30.9998" stroke="#2188FF" stroke-width="2" stroke-linecap="round" stroke-linejoin="round"/>
<path d="M723 342C725 342 725 338 727 338C729 338 729 342 731 342C733 342 733 338 735 338C737 338 737 342 739 342C741 342 741 338 743 338" stroke="#C8E1FF" stroke-linecap="round" stroke-linejoin="round"/>
<circle cx="518" cy="388" r="18" fill="#1B1F23" stroke="#C8E1FF"/>
<path d="M492 370L476 370L484 356L492 370Z" stroke="#2188FF" stroke-width="2" stroke-linejoin="round"/>
<rect x="838" y="252" width="38" height="31" fill="#1B1F23"/>
<path fill-rule="evenodd" clip-rule="evenodd" d="M851.286 253.625H854.143V256.5H851.286V253.625ZM845.571 253.625H848.429V256.5H845.571V253.625ZM839.857 253.625H842.714V256.5H839.857V253.625ZM874.143 282.375H839.857V259.375H874.143V282.375ZM874.143 256.5H857V253.625H874.143V256.5ZM877 253.625C877 252.044 875.714 250.75 874.143 250.75H839.857C838.286 250.75 837 252.044 837 253.625V282.375C837 283.956 838.286 285.25 839.857 285.25H874.143C875.714 285.25 877 283.956 877 282.375V253.625Z" fill="#79B8FF"/>
<rect x="315" y="285" width="28" height="7" fill="#1B1F23"/>
<path fill-rule="evenodd" clip-rule="evenodd" d="M341.857 278.375H329C327.821 278.375 326.857 279.331 326.857 280.5V297.5C326.857 298.669 327.821 299.625 329 299.625H341.857C343.036 299.625 344 298.669 344 297.5V280.5C344 279.331 343.036 278.375 341.857 278.375ZM339.714 295.375H331.143V282.625H339.714V295.375ZM322.571 280.5H324.714V282.625H322.571V295.375H324.714V297.5H322.571C321.393 297.5 320.429 296.544 320.429 295.375V282.625C320.429 281.456 321.393 280.5 322.571 280.5ZM316.143 282.625H318.286V284.75H316.143V293.25H318.286V295.375H316.143C314.964 295.375 314 294.419 314 293.25V284.75C314 283.581 314.964 282.625 316.143 282.625Z" fill="#79B8FF"/>
<path d="M262 52.9998V41.9998L273 43.9998L283 41.9998V52.9998L273 55.9998L262 52.9998Z" fill="#1B1F23"/>
<path fill-rule="evenodd" clip-rule="evenodd" d="M261.5 41.4047V52.6097C261.5 53.2847 261.95 53.8697 262.625 54.0647L272.375 56.6597C272.615 56.7348 272.885 56.7348 273.125 56.6597L282.875 54.0647C283.55 53.8697 284 53.2847 284 52.6097V41.4047C284 40.7297 283.55 40.1447 282.875 39.9497L273.125 37.3397C272.885 37.2947 272.615 37.2947 272.375 37.3397L262.625 39.9497C261.95 40.1447 261.5 40.7297 261.5 41.4047ZM272 55.0397L263 52.6547V42.4997L272 44.9147V55.0397ZM263 40.9997L266.75 39.9947L276.5 42.5897L272.75 43.5947L263 40.9997ZM282.5 52.6547L273.5 55.0397V44.9147L276.5 44.0897V47.7497L279.5 46.9548V43.2947L282.5 42.4997V52.6547ZM279.5 41.7947L269.75 39.1997L272.75 38.4047L282.5 40.9997L279.5 41.7947Z" fill="#79B8FF"/>
<path fill-rule="evenodd" clip-rule="evenodd" d="M197.175 183.65L194.475 180.3C194.05 179.75 193.775 179.1 193.7 178.375L193.225 174.125C193.025 172.375 191.65 171 189.9 170.8L185.65 170.325C184.9 170.25 184.25 169.925 183.7 169.5L180.35 166.8C178.975 165.7 177.025 165.7 175.65 166.8L172.3 169.5C171.75 169.925 171.1 170.2 170.375 170.275L166.125 170.75C164.375 170.95 163 172.325 162.8 174.075L162.325 178.325C162.25 179.075 161.925 179.725 161.5 180.275L158.8 183.625C157.7 185 157.7 186.95 158.8 188.325L161.5 191.675C161.925 192.225 162.2 192.875 162.275 193.6L162.75 197.85C162.95 199.6 164.325 200.975 166.075 201.175L170.325 201.65C171.075 201.725 171.725 202.05 172.275 202.475L175.625 205.175C177 206.275 178.95 206.275 180.325 205.175L183.675 202.475C184.225 202.05 184.875 201.775 185.6 201.7L189.85 201.225C191.6 201.025 192.975 199.65 193.175 197.9L193.65 193.65C193.725 192.9 194.05 192.25 194.475 191.7L197.175 188.35C198.275 186.975 198.275 185.025 197.175 183.65ZM174.25 196L165.5 187.25L169.25 183.5L174.25 188.5L186.75 176L190.5 179.875L174.25 196Z" fill="#79B8FF"/>
<path d="M719 138H734.529L741 144.265V164H719V138Z" fill="#1B1F23"/>
<path fill-rule="evenodd" clip-rule="evenodd" d="M735 136H720C718.9 136 718 136.9 718 138V162C718 163.1 718.9 164 720 164H740C741.1 164 742 163.1 742 162V143L735 136ZM740 162H720V138H734L740 144V162ZM728 147.96L725 151L728 154L727 156L722 151L727 146L728 147.96ZM733 146L738 151L733 156L732 154.04L735 151L732 148L733 146Z" fill="#79B8FF"/>
<path d="M103 223C107 223 107 231 111 231C115 231 115 223 119 223C123 223 123 231 127 231C131 231 131 223 135 223C139 223 139 231 143 231" stroke="#2188FF" stroke-width="2" stroke-linecap="round" stroke-linejoin="round"/>
<defs>
<clipPath id="clip0">
<rect width="276" height="276" fill="white" transform="matrix(1 0 0 -1 782 362)"/>
</clipPath>
<clipPath id="clip1">
<rect width="250" height="248" fill="white" transform="matrix(1 0 0 -1 810 334)"/>
</clipPath>
<clipPath id="clip2">
<rect width="276" height="276" fill="white" transform="translate(406 48)"/>
</clipPath>
<clipPath id="clip3">
<rect width="250" height="248" fill="white" transform="translate(434 76)"/>
</clipPath>
<clipPath id="clip4">
<rect width="276" height="276" fill="white" transform="matrix(-1 0 0 1 286 130)"/>
</clipPath>
<clipPath id="clip5">
<rect width="250" height="248" fill="white" transform="matrix(-1 0 0 1 258 158)"/>
</clipPath>
</defs>
</svg>
