<svg width="100%" viewBox="0 0 1068 427" fill="none" xmlns="http://www.w3.org/2000/svg">
<path d="M1064 45C1064 46.1046 1064.9 47 1066 47C1067.1 47 1068 46.1046 1068 45C1068 43.8954 1067.1 43 1066 43C1064.9 43 1064 43.8954 1064 45Z" fill="#044289"/>
<path d="M1044 45C1044 46.1046 1044.9 47 1046 47C1047.1 47 1048 46.1046 1048 45C1048 43.8954 1047.1 43 1046 43C1044.9 43 1044 43.8954 1044 45Z" fill="#044289"/>
<path d="M1024 45C1024 46.1046 1024.9 47 1026 47C1027.1 47 1028 46.1046 1028 45C1028 43.8954 1027.1 43 1026 43C1024.9 43 1024 43.8954 1024 45Z" fill="#044289"/>
<path d="M1004 45C1004 46.1046 1004.9 47 1006 47C1007.1 47 1008 46.1046 1008 45C1008 43.8954 1007.1 43 1006 43C1004.9 43 1004 43.8954 1004 45Z" fill="#044289"/>
<path d="M984 45C984 46.1046 984.895 47 986 47C987.105 47 988 46.1046 988 45C988 43.8954 987.105 43 986 43C984.895 43 984 43.8954 984 45Z" fill="#044289"/>
<path d="M1054 57C1054 58.1046 1054.9 59 1056 59C1057.1 59 1058 58.1046 1058 57C1058 55.8954 1057.1 55 1056 55C1054.9 55 1054 55.8954 1054 57Z" fill="#044289"/>
<path d="M1034 57C1034 58.1046 1034.9 59 1036 59C1037.1 59 1038 58.1046 1038 57C1038 55.8954 1037.1 55 1036 55C1034.9 55 1034 55.8954 1034 57Z" fill="#044289"/>
<path d="M1014 57C1014 58.1046 1014.9 59 1016 59C1017.1 59 1018 58.1046 1018 57C1018 55.8954 1017.1 55 1016 55C1014.9 55 1014 55.8954 1014 57Z" fill="#044289"/>
<path d="M994 57C994 58.1046 994.895 59 996 59C997.105 59 998 58.1046 998 57C998 55.8954 997.105 55 996 55C994.895 55 994 55.8954 994 57Z" fill="#044289"/>
<path d="M974 57C974 58.1046 974.895 59 976 59C977.105 59 978 58.1046 978 57C978 55.8954 977.105 55 976 55C974.895 55 974 55.8954 974 57Z" fill="#044289"/>
<path d="M1064 69C1064 70.1046 1064.9 71 1066 71C1067.1 71 1068 70.1046 1068 69C1068 67.8954 1067.1 67 1066 67C1064.9 67 1064 67.8954 1064 69Z" fill="#044289"/>
<path d="M1044 69C1044 70.1046 1044.9 71 1046 71C1047.1 71 1048 70.1046 1048 69C1048 67.8954 1047.1 67 1046 67C1044.9 67 1044 67.8954 1044 69Z" fill="#044289"/>
<path d="M1024 69C1024 70.1046 1024.9 71 1026 71C1027.1 71 1028 70.1046 1028 69C1028 67.8954 1027.1 67 1026 67C1024.9 67 1024 67.8954 1024 69Z" fill="#044289"/>
<path d="M1004 69C1004 70.1046 1004.9 71 1006 71C1007.1 71 1008 70.1046 1008 69C1008 67.8954 1007.1 67 1006 67C1004.9 67 1004 67.8954 1004 69Z" fill="#044289"/>
<path d="M984 69C984 70.1046 984.895 71 986 71C987.105 71 988 70.1046 988 69C988 67.8954 987.105 67 986 67C984.895 67 984 67.8954 984 69Z" fill="#044289"/>
<path d="M1054 81C1054 82.1046 1054.9 83 1056 83C1057.1 83 1058 82.1046 1058 81C1058 79.8954 1057.1 79 1056 79C1054.9 79 1054 79.8954 1054 81Z" fill="#044289"/>
<path d="M1034 81C1034 82.1046 1034.9 83 1036 83C1037.1 83 1038 82.1046 1038 81C1038 79.8954 1037.1 79 1036 79C1034.9 79 1034 79.8954 1034 81Z" fill="#044289"/>
<path d="M1014 81C1014 82.1046 1014.9 83 1016 83C1017.1 83 1018 82.1046 1018 81C1018 79.8954 1017.1 79 1016 79C1014.9 79 1014 79.8954 1014 81Z" fill="#044289"/>
<path d="M994 81C994 82.1046 994.895 83 996 83C997.105 83 998 82.1046 998 81C998 79.8954 997.105 79 996 79C994.895 79 994 79.8954 994 81Z" fill="#044289"/>
<path d="M974 81C974 82.1046 974.895 83 976 83C977.105 83 978 82.1046 978 81C978 79.8954 977.105 79 976 79C974.895 79 974 79.8954 974 81Z" fill="#044289"/>
<path d="M1064 93C1064 94.1046 1064.9 95 1066 95C1067.1 95 1068 94.1046 1068 93C1068 91.8954 1067.1 91 1066 91C1064.9 91 1064 91.8954 1064 93Z" fill="#044289"/>
<path d="M1044 93C1044 94.1046 1044.9 95 1046 95C1047.1 95 1048 94.1046 1048 93C1048 91.8954 1047.1 91 1046 91C1044.9 91 1044 91.8954 1044 93Z" fill="#044289"/>
<path d="M1024 93C1024 94.1046 1024.9 95 1026 95C1027.1 95 1028 94.1046 1028 93C1028 91.8954 1027.1 91 1026 91C1024.9 91 1024 91.8954 1024 93Z" fill="#044289"/>
<path d="M1004 93C1004 94.1046 1004.9 95 1006 95C1007.1 95 1008 94.1046 1008 93C1008 91.8954 1007.1 91 1006 91C1004.9 91 1004 91.8954 1004 93Z" fill="#044289"/>
<path d="M984 93C984 94.1046 984.895 95 986 95C987.105 95 988 94.1046 988 93C988 91.8954 987.105 91 986 91C984.895 91 984 91.8954 984 93Z" fill="#044289"/>
<path d="M1054 105C1054 106.105 1054.9 107 1056 107C1057.1 107 1058 106.105 1058 105C1058 103.895 1057.1 103 1056 103C1054.9 103 1054 103.895 1054 105Z" fill="#044289"/>
<path d="M1034 105C1034 106.105 1034.9 107 1036 107C1037.1 107 1038 106.105 1038 105C1038 103.895 1037.1 103 1036 103C1034.9 103 1034 103.895 1034 105Z" fill="#044289"/>
<path d="M1014 105C1014 106.105 1014.9 107 1016 107C1017.1 107 1018 106.105 1018 105C1018 103.895 1017.1 103 1016 103C1014.9 103 1014 103.895 1014 105Z" fill="#044289"/>
<path d="M994 105C994 106.105 994.895 107 996 107C997.105 107 998 106.105 998 105C998 103.895 997.105 103 996 103C994.895 103 994 103.895 994 105Z" fill="#044289"/>
<path d="M974 105C974 106.105 974.895 107 976 107C977.105 107 978 106.105 978 105C978 103.895 977.105 103 976 103C974.895 103 974 103.895 974 105Z" fill="#044289"/>
<path d="M1064 117C1064 118.105 1064.9 119 1066 119C1067.1 119 1068 118.105 1068 117C1068 115.895 1067.1 115 1066 115C1064.9 115 1064 115.895 1064 117Z" fill="#044289"/>
<path d="M1044 117C1044 118.105 1044.9 119 1046 119C1047.1 119 1048 118.105 1048 117C1048 115.895 1047.1 115 1046 115C1044.9 115 1044 115.895 1044 117Z" fill="#044289"/>
<path d="M1024 117C1024 118.105 1024.9 119 1026 119C1027.1 119 1028 118.105 1028 117C1028 115.895 1027.1 115 1026 115C1024.9 115 1024 115.895 1024 117Z" fill="#044289"/>
<path d="M1004 117C1004 118.105 1004.9 119 1006 119C1007.1 119 1008 118.105 1008 117C1008 115.895 1007.1 115 1006 115C1004.9 115 1004 115.895 1004 117Z" fill="#044289"/>
<path d="M984 117C984 118.105 984.895 119 986 119C987.105 119 988 118.105 988 117C988 115.895 987.105 115 986 115C984.895 115 984 115.895 984 117Z" fill="#044289"/>
<rect x="782.5" y="77.5" width="255" height="255" fill="#1B1F23" stroke="#79B8FF"/>
<circle cx="954" cy="8.01416" r="5.5" stroke="#0366D6"/>
<path d="M4 251C4 252.105 3.10457 253 2 253C0.895431 253 0 252.105 0 251C0 249.895 0.895431 249 2 249C3.10457 249 4 249.895 4 251Z" fill="#044289"/>
<path d="M24 251C24 252.105 23.1046 253 22 253C20.8954 253 20 252.105 20 251C20 249.895 20.8954 249 22 249C23.1046 249 24 249.895 24 251Z" fill="#044289"/>
<path d="M44 251C44 252.105 43.1046 253 42 253C40.8954 253 40 252.105 40 251C40 249.895 40.8954 249 42 249C43.1046 249 44 249.895 44 251Z" fill="#044289"/>
<path d="M64 251C64 252.105 63.1046 253 62 253C60.8954 253 60 252.105 60 251C60 249.895 60.8954 249 62 249C63.1046 249 64 249.895 64 251Z" fill="#044289"/>
<path d="M84 251C84 252.105 83.1046 253 82 253C80.8954 253 80 252.105 80 251C80 249.895 80.8954 249 82 249C83.1046 249 84 249.895 84 251Z" fill="#044289"/>
<path d="M14 263C14 264.105 13.1046 265 12 265C10.8954 265 10 264.105 10 263C10 261.895 10.8954 261 12 261C13.1046 261 14 261.895 14 263Z" fill="#044289"/>
<path d="M34 263C34 264.105 33.1046 265 32 265C30.8954 265 30 264.105 30 263C30 261.895 30.8954 261 32 261C33.1046 261 34 261.895 34 263Z" fill="#044289"/>
<path d="M54 263C54 264.105 53.1046 265 52 265C50.8954 265 50 264.105 50 263C50 261.895 50.8954 261 52 261C53.1046 261 54 261.895 54 263Z" fill="#044289"/>
<path d="M74 263C74 264.105 73.1046 265 72 265C70.8954 265 70 264.105 70 263C70 261.895 70.8954 261 72 261C73.1046 261 74 261.895 74 263Z" fill="#044289"/>
<path d="M94 263C94 264.105 93.1046 265 92 265C90.8954 265 90 264.105 90 263C90 261.895 90.8954 261 92 261C93.1046 261 94 261.895 94 263Z" fill="#044289"/>
<path d="M4 275C4 276.105 3.10457 277 2 277C0.895431 277 0 276.105 0 275C0 273.895 0.895431 273 2 273C3.10457 273 4 273.895 4 275Z" fill="#044289"/>
<path d="M24 275C24 276.105 23.1046 277 22 277C20.8954 277 20 276.105 20 275C20 273.895 20.8954 273 22 273C23.1046 273 24 273.895 24 275Z" fill="#044289"/>
<path d="M44 275C44 276.105 43.1046 277 42 277C40.8954 277 40 276.105 40 275C40 273.895 40.8954 273 42 273C43.1046 273 44 273.895 44 275Z" fill="#044289"/>
<path d="M64 275C64 276.105 63.1046 277 62 277C60.8954 277 60 276.105 60 275C60 273.895 60.8954 273 62 273C63.1046 273 64 273.895 64 275Z" fill="#044289"/>
<path d="M84 275C84 276.105 83.1046 277 82 277C80.8954 277 80 276.105 80 275C80 273.895 80.8954 273 82 273C83.1046 273 84 273.895 84 275Z" fill="#044289"/>
<path d="M14 287C14 288.105 13.1046 289 12 289C10.8954 289 10 288.105 10 287C10 285.895 10.8954 285 12 285C13.1046 285 14 285.895 14 287Z" fill="#044289"/>
<path d="M34 287C34 288.105 33.1046 289 32 289C30.8954 289 30 288.105 30 287C30 285.895 30.8954 285 32 285C33.1046 285 34 285.895 34 287Z" fill="#044289"/>
<path d="M54 287C54 288.105 53.1046 289 52 289C50.8954 289 50 288.105 50 287C50 285.895 50.8954 285 52 285C53.1046 285 54 285.895 54 287Z" fill="#044289"/>
<path d="M74 287C74 288.105 73.1046 289 72 289C70.8954 289 70 288.105 70 287C70 285.895 70.8954 285 72 285C73.1046 285 74 285.895 74 287Z" fill="#044289"/>
<path d="M94 287C94 288.105 93.1046 289 92 289C90.8954 289 90 288.105 90 287C90 285.895 90.8954 285 92 285C93.1046 285 94 285.895 94 287Z" fill="#044289"/>
<path d="M4 299C4 300.105 3.10457 301 2 301C0.895431 301 0 300.105 0 299C0 297.895 0.895431 297 2 297C3.10457 297 4 297.895 4 299Z" fill="#044289"/>
<path d="M24 299C24 300.105 23.1046 301 22 301C20.8954 301 20 300.105 20 299C20 297.895 20.8954 297 22 297C23.1046 297 24 297.895 24 299Z" fill="#044289"/>
<path d="M44 299C44 300.105 43.1046 301 42 301C40.8954 301 40 300.105 40 299C40 297.895 40.8954 297 42 297C43.1046 297 44 297.895 44 299Z" fill="#044289"/>
<path d="M64 299C64 300.105 63.1046 301 62 301C60.8954 301 60 300.105 60 299C60 297.895 60.8954 297 62 297C63.1046 297 64 297.895 64 299Z" fill="#044289"/>
<path d="M84 299C84 300.105 83.1046 301 82 301C80.8954 301 80 300.105 80 299C80 297.895 80.8954 297 82 297C83.1046 297 84 297.895 84 299Z" fill="#044289"/>
<path d="M14 311C14 312.105 13.1046 313 12 313C10.8954 313 10 312.105 10 311C10 309.895 10.8954 309 12 309C13.1046 309 14 309.895 14 311Z" fill="#044289"/>
<path d="M34 311C34 312.105 33.1046 313 32 313C30.8954 313 30 312.105 30 311C30 309.895 30.8954 309 32 309C33.1046 309 34 309.895 34 311Z" fill="#044289"/>
<path d="M54 311C54 312.105 53.1046 313 52 313C50.8954 313 50 312.105 50 311C50 309.895 50.8954 309 52 309C53.1046 309 54 309.895 54 311Z" fill="#044289"/>
<path d="M74 311C74 312.105 73.1046 313 72 313C70.8954 313 70 312.105 70 311C70 309.895 70.8954 309 72 309C73.1046 309 74 309.895 74 311Z" fill="#044289"/>
<path d="M94 311C94 312.105 93.1046 313 92 313C90.8954 313 90 312.105 90 311C90 309.895 90.8954 309 92 309C93.1046 309 94 309.895 94 311Z" fill="#044289"/>
<path d="M4 323C4 324.105 3.10457 325 2 325C0.895431 325 0 324.105 0 323C0 321.895 0.895431 321 2 321C3.10457 321 4 321.895 4 323Z" fill="#044289"/>
<path d="M24 323C24 324.105 23.1046 325 22 325C20.8954 325 20 324.105 20 323C20 321.895 20.8954 321 22 321C23.1046 321 24 321.895 24 323Z" fill="#044289"/>
<path d="M44 323C44 324.105 43.1046 325 42 325C40.8954 325 40 324.105 40 323C40 321.895 40.8954 321 42 321C43.1046 321 44 321.895 44 323Z" fill="#044289"/>
<path d="M64 323C64 324.105 63.1046 325 62 325C60.8954 325 60 324.105 60 323C60 321.895 60.8954 321 62 321C63.1046 321 64 321.895 64 323Z" fill="#044289"/>
<path d="M84 323C84 324.105 83.1046 325 82 325C80.8954 325 80 324.105 80 323C80 321.895 80.8954 321 82 321C83.1046 321 84 321.895 84 323Z" fill="#044289"/>
<rect x="30.5" y="37.5142" width="255" height="255" fill="#1B1F23" stroke="#79B8FF"/>
<path fill-rule="evenodd" clip-rule="evenodd" d="M596 303H588L594 289L576 307H584L578 321L596 303V303Z" fill="#C8E1FF"/>
<rect x="62" y="175" width="24" height="32" fill="#044289"/>
<rect x="118" y="175" width="144" height="32" fill="#044289"/>
<rect x="298" y="175" width="40" height="32" fill="#044289"/>
<rect x="18" y="77" width="24" height="48" fill="#005CC5"/>
<rect x="66" y="77" width="116" height="48" fill="#005CC5"/>
<path d="M178 217C170 217 170 201 162 201C154 201 154 217 146 217C138 217 138 201 130 201C122 201 122 217 114 217C106 217 106 201 98 201" stroke="#79B8FF" stroke-linecap="round" stroke-linejoin="round"/>
<path d="M180 130L175 138.66H165L160 130L165 121.34H175L180 130Z" stroke="#79B8FF" stroke-linecap="round" stroke-linejoin="round"/>
<rect x="742.313" y="132" width="16" height="16" transform="rotate(45 742.313 132)" stroke="#C8E1FF" stroke-linejoin="round"/>
<path d="M687 353C687 354.105 687.895 355 689 355C690.105 355 691 354.105 691 353C691 351.895 690.105 351 689 351C687.895 351 687 351.895 687 353Z" fill="#044289"/>
<path d="M667 353C667 354.105 667.895 355 669 355C670.105 355 671 354.105 671 353C671 351.895 670.105 351 669 351C667.895 351 667 351.895 667 353Z" fill="#044289"/>
<path d="M647 353C647 354.105 647.895 355 649 355C650.105 355 651 354.105 651 353C651 351.895 650.105 351 649 351C647.895 351 647 351.895 647 353Z" fill="#044289"/>
<path d="M627 353C627 354.105 627.895 355 629 355C630.105 355 631 354.105 631 353C631 351.895 630.105 351 629 351C627.895 351 627 351.895 627 353Z" fill="#044289"/>
<path d="M607 353C607 354.105 607.895 355 609 355C610.105 355 611 354.105 611 353C611 351.895 610.105 351 609 351C607.895 351 607 351.895 607 353Z" fill="#044289"/>
<path d="M677 365C677 366.105 677.895 367 679 367C680.105 367 681 366.105 681 365C681 363.895 680.105 363 679 363C677.895 363 677 363.895 677 365Z" fill="#044289"/>
<path d="M657 365C657 366.105 657.895 367 659 367C660.105 367 661 366.105 661 365C661 363.895 660.105 363 659 363C657.895 363 657 363.895 657 365Z" fill="#044289"/>
<path d="M637 365C637 366.105 637.895 367 639 367C640.105 367 641 366.105 641 365C641 363.895 640.105 363 639 363C637.895 363 637 363.895 637 365Z" fill="#044289"/>
<path d="M617 365C617 366.105 617.895 367 619 367C620.105 367 621 366.105 621 365C621 363.895 620.105 363 619 363C617.895 363 617 363.895 617 365Z" fill="#044289"/>
<path d="M597 365C597 366.105 597.895 367 599 367C600.105 367 601 366.105 601 365C601 363.895 600.105 363 599 363C597.895 363 597 363.895 597 365Z" fill="#044289"/>
<path d="M687 377C687 378.105 687.895 379 689 379C690.105 379 691 378.105 691 377C691 375.895 690.105 375 689 375C687.895 375 687 375.895 687 377Z" fill="#044289"/>
<path d="M667 377C667 378.105 667.895 379 669 379C670.105 379 671 378.105 671 377C671 375.895 670.105 375 669 375C667.895 375 667 375.895 667 377Z" fill="#044289"/>
<path d="M647 377C647 378.105 647.895 379 649 379C650.105 379 651 378.105 651 377C651 375.895 650.105 375 649 375C647.895 375 647 375.895 647 377Z" fill="#044289"/>
<path d="M627 377C627 378.105 627.895 379 629 379C630.105 379 631 378.105 631 377C631 375.895 630.105 375 629 375C627.895 375 627 375.895 627 377Z" fill="#044289"/>
<path d="M607 377C607 378.105 607.895 379 609 379C610.105 379 611 378.105 611 377C611 375.895 610.105 375 609 375C607.895 375 607 375.895 607 377Z" fill="#044289"/>
<path d="M677 389C677 390.105 677.895 391 679 391C680.105 391 681 390.105 681 389C681 387.895 680.105 387 679 387C677.895 387 677 387.895 677 389Z" fill="#044289"/>
<path d="M657 389C657 390.105 657.895 391 659 391C660.105 391 661 390.105 661 389C661 387.895 660.105 387 659 387C657.895 387 657 387.895 657 389Z" fill="#044289"/>
<path d="M637 389C637 390.105 637.895 391 639 391C640.105 391 641 390.105 641 389C641 387.895 640.105 387 639 387C637.895 387 637 387.895 637 389Z" fill="#044289"/>
<path d="M617 389C617 390.105 617.895 391 619 391C620.105 391 621 390.105 621 389C621 387.895 620.105 387 619 387C617.895 387 617 387.895 617 389Z" fill="#044289"/>
<path d="M597 389C597 390.105 597.895 391 599 391C600.105 391 601 390.105 601 389C601 387.895 600.105 387 599 387C597.895 387 597 387.895 597 389Z" fill="#044289"/>
<path d="M687 401C687 402.105 687.895 403 689 403C690.105 403 691 402.105 691 401C691 399.895 690.105 399 689 399C687.895 399 687 399.895 687 401Z" fill="#044289"/>
<path d="M667 401C667 402.105 667.895 403 669 403C670.105 403 671 402.105 671 401C671 399.895 670.105 399 669 399C667.895 399 667 399.895 667 401Z" fill="#044289"/>
<path d="M647 401C647 402.105 647.895 403 649 403C650.105 403 651 402.105 651 401C651 399.895 650.105 399 649 399C647.895 399 647 399.895 647 401Z" fill="#044289"/>
<path d="M627 401C627 402.105 627.895 403 629 403C630.105 403 631 402.105 631 401C631 399.895 630.105 399 629 399C627.895 399 627 399.895 627 401Z" fill="#044289"/>
<path d="M607 401C607 402.105 607.895 403 609 403C610.105 403 611 402.105 611 401C611 399.895 610.105 399 609 399C607.895 399 607 399.895 607 401Z" fill="#044289"/>
<path d="M677 413C677 414.105 677.895 415 679 415C680.105 415 681 414.105 681 413C681 411.895 680.105 411 679 411C677.895 411 677 411.895 677 413Z" fill="#044289"/>
<path d="M657 413C657 414.105 657.895 415 659 415C660.105 415 661 414.105 661 413C661 411.895 660.105 411 659 411C657.895 411 657 411.895 657 413Z" fill="#044289"/>
<path d="M637 413C637 414.105 637.895 415 639 415C640.105 415 641 414.105 641 413C641 411.895 640.105 411 639 411C637.895 411 637 411.895 637 413Z" fill="#044289"/>
<path d="M617 413C617 414.105 617.895 415 619 415C620.105 415 621 414.105 621 413C621 411.895 620.105 411 619 411C617.895 411 617 411.895 617 413Z" fill="#044289"/>
<path d="M597 413C597 414.105 597.895 415 599 415C600.105 415 601 414.105 601 413C601 411.895 600.105 411 599 411C597.895 411 597 411.895 597 413Z" fill="#044289"/>
<path d="M687 425C687 426.105 687.895 427 689 427C690.105 427 691 426.105 691 425C691 423.895 690.105 423 689 423C687.895 423 687 423.895 687 425Z" fill="#044289"/>
<path d="M667 425C667 426.105 667.895 427 669 427C670.105 427 671 426.105 671 425C671 423.895 670.105 423 669 423C667.895 423 667 423.895 667 425Z" fill="#044289"/>
<path d="M647 425C647 426.105 647.895 427 649 427C650.105 427 651 426.105 651 425C651 423.895 650.105 423 649 423C647.895 423 647 423.895 647 425Z" fill="#044289"/>
<path d="M627 425C627 426.105 627.895 427 629 427C630.105 427 631 426.105 631 425C631 423.895 630.105 423 629 423C627.895 423 627 423.895 627 425Z" fill="#044289"/>
<path d="M607 425C607 426.105 607.895 427 609 427C610.105 427 611 426.105 611 425C611 423.895 610.105 423 609 423C607.895 423 607 423.895 607 425Z" fill="#044289"/>
<rect x="406.5" y="138.5" width="255" height="255" fill="#1B1F23" stroke="#79B8FF"/>
<rect width="116" height="48" transform="matrix(-1 0 0 1 938 125)" fill="#044289"/>
<rect width="32" height="32" transform="matrix(-1 0 0 1 854 189)" fill="#0366D6"/>
<path d="M1018 262L1013 270.66H1003L998 262L1003 253.34H1013L1018 262Z" stroke="#79B8FF" stroke-linecap="round" stroke-linejoin="round"/>
<path d="M971.713 339.856L957.857 363.856L944 339.856L971.713 339.856Z" stroke="#2188FF" stroke-linecap="round" stroke-linejoin="round"/>
<circle cx="1012" cy="252" r="5.5" stroke="#79B8FF"/>
<path d="M985 320C979.343 314.343 990.657 303.029 985 297.373C979.343 291.716 968.03 303.029 962.373 297.373C956.716 291.716 968.03 280.402 962.373 274.745C956.716 269.088 945.402 280.402 939.745 274.745C934.088 269.088 945.402 257.775 939.745 252.118" stroke="#2188FF" stroke-linecap="round" stroke-linejoin="round"/>
<path d="M951.569 308.882C945.912 303.225 957.225 291.912 951.569 286.255C945.912 280.598 934.598 291.912 928.941 286.255C923.284 280.598 934.598 269.284 928.941 263.627C923.284 257.971 911.971 269.284 906.314 263.627C900.657 257.971 911.971 246.657 906.314 241" stroke="#79B8FF" stroke-linecap="round" stroke-linejoin="round"/>
<path d="M151 58.0141C245 -40.9859 421 1.0141 330 92.0141C239 183.014 230.256 442.231 357 311.014C484.5 179.014 567.5 208.014 585 298.514C603.341 393.366 683.384 399.698 695 216.014C711 -36.9858 1054.5 -29.4858 903 122.014" stroke="#005CC5"/>
<path fill-rule="evenodd" clip-rule="evenodd" d="M900 114.014V116.014L901.25 118.514L890 126.014H880.5C879.4 126.014 878.825 127.339 879.65 128.164L887.5 136.014L877.5 148.514L890 138.514L897.85 146.364C898.675 147.189 900 146.589 900 145.514V136.014L907.5 124.764L910 126.014H912C913.1 126.014 913.675 124.689 912.85 123.864L902.15 113.164C901.325 112.339 900 112.939 900 114.014V114.014Z" fill="#C8E1FF"/>
<ellipse cx="363.305" cy="304.896" rx="11.7904" ry="4.33694" transform="rotate(-44.8239 363.305 304.896)" fill="#1B1F23"/>
<path fill-rule="evenodd" clip-rule="evenodd" d="M368.412 299.747C367.877 299.202 367.482 298.639 367.168 297.976C366.853 297.353 366.639 296.652 366.506 295.93C365.34 296.58 364.173 297.31 363.026 298.16C361.858 299.03 360.73 300.02 359.62 301.09C358.208 302.478 356.929 304.687 356.018 305.959L350.018 305.907L343.966 311.874L349.965 311.927L354 307.962C353.307 309.496 351.908 313.904 351.948 313.944L353.93 315.961C353.97 316.002 358.401 314.72 359.948 314.014L355.913 317.979L355.86 323.979L361.913 318.031L361.965 312.031C363.253 311.143 365.484 309.882 366.896 308.514C368.005 307.424 369.015 306.273 369.865 305.14C370.755 303.988 371.506 302.834 372.175 301.72C371.457 301.554 370.779 301.328 370.121 301.022C369.504 300.697 368.948 300.292 368.412 299.747V299.747ZM376.139 292.154C376.139 292.154 375.952 292.913 375.52 294.269C375.108 295.665 374.393 297.419 373.354 299.57C371.956 299.398 370.82 298.888 370.047 298.101C369.274 297.315 368.803 296.21 368.675 294.809C370.844 293.788 372.591 293.083 373.974 292.695C375.378 292.308 376.139 292.154 376.139 292.154V292.154Z" fill="#C8E1FF"/>
<path fill-rule="evenodd" clip-rule="evenodd" d="M102 95.0142V107.014H114L146 75.0142L134 63.0142L102 95.0142V95.0142ZM114 103.014H106V95.0142H110V99.0142H114V103.014V103.014ZM155.2 65.8142L150 71.0142L138 59.0142L143.2 53.8142C144.76 52.2542 147.28 52.2542 148.84 53.8142L155.2 60.1742C156.76 61.7342 156.76 64.2542 155.2 65.8142V65.8142Z" fill="#C8E1FF"/>
<path fill-rule="evenodd" clip-rule="evenodd" d="M700 213C698.06 213 696.62 213.84 695.6 215C694.58 216.16 694.04 216.84 694 217C693.96 216.84 693.44 216.16 692.4 215C691.36 213.84 690.06 213 688 213C684.736 213.172 682.093 215.665 682 219C682 220.04 682.18 222.04 683.34 224.34C684.5 226.64 688.02 230.22 694 235C699.96 230.22 703.54 226.66 704.68 224.34C705.82 222.02 706 220 706 219C705.906 215.62 703.316 213.175 700 213Z" fill="#C8E1FF"/>
<path d="M343.713 87.8564L329.856 111.856L316 87.8564L343.713 87.8564Z" stroke="#79B8FF" stroke-linecap="round" stroke-linejoin="round"/>
<circle cx="58" cy="18.014" r="5.5" stroke="#0366D6"/>
<circle cx="623" cy="106" r="9.5" stroke="#0366D6"/>
<circle cx="640" cy="87" r="5.5" stroke="#0366D6"/>
<rect x="465" y="333" width="30" height="24" fill="#044289"/>
<rect x="555" y="333" width="30" height="24" fill="#044289"/>
<rect x="519" y="333" width="12" height="24" fill="#044289"/>
<rect x="434" y="283" width="33.0236" height="33.0159" fill="#2188FF"/>
<rect x="494.543" y="283" width="88.0628" height="33.0159" fill="#2188FF"/>
  <g id="brush" transform="translate(431,108) scale(1.5)">
    <rect fill="transparent" x="81" y="3" width="50" height="190" />
    <path fill-rule="evenodd" clip-rule="evenodd" d="M111.247 190C117.29 180.642 126 146.951 126 120.351C126 85.4048 112.136 68.0005 106 68.0005C99.8637 68.0005 86 85.4048 86 120.351C86 146.951 94.7101 180.642 100.753 190H111.247Z" fill="#005CC5"/>
    <g mask="url(#mask0)">
      <path fill-rule="evenodd" clip-rule="evenodd" d="M106.889 90.761C106.889 86.487 103.506 83.0222 99.3336 83.0222C95.1608 83.0222 91.7781 86.487 91.7781 90.761V105.328C91.7781 109.602 95.1608 113.067 99.3336 113.067C103.506 113.067 106.889 109.602 106.889 105.328V90.761ZM99.3336 83.9327C103.016 83.9327 106 86.9898 106 90.761V105.328C106 109.099 103.016 112.157 99.3336 112.157C95.6517 112.157 92.667 109.099 92.667 105.328V90.761C92.667 86.9898 95.6517 83.9327 99.3336 83.9327Z" fill="#79B8FF"/>
      <path fill-rule="evenodd" clip-rule="evenodd" d="M110.445 96.6789C110.445 89.1365 104.475 83.0222 97.1114 83.0222C89.7476 83.0222 83.7781 89.1365 83.7781 96.6789V113.977C83.7781 121.52 89.7476 127.634 97.1114 127.634C104.475 127.634 110.445 121.52 110.445 113.977V96.6789ZM97.1114 83.9327C103.984 83.9327 109.556 89.6394 109.556 96.6789V113.977C109.556 121.017 103.984 126.724 97.1114 126.724C90.2385 126.724 84.667 121.017 84.667 113.977V96.6789C84.667 89.6394 90.2385 83.9327 97.1114 83.9327Z" fill="#79B8FF"/>
      <path fill-rule="evenodd" clip-rule="evenodd" d="M126 131.731H113.556C107.174 131.731 102 137.03 102 143.567V196.373C102 202.91 107.174 208.209 113.556 208.209H126C132.382 208.209 137.556 202.91 137.556 196.373V143.567C137.556 137.03 132.382 131.731 126 131.731ZM126 132.642C131.891 132.642 136.667 137.533 136.667 143.567V196.373C136.667 202.407 131.891 207.298 126 207.298H113.556C107.665 207.298 102.889 202.407 102.889 196.373V143.567C102.889 137.533 107.665 132.642 113.556 132.642H126Z" fill="#79B8FF"/>
      <path fill-rule="evenodd" clip-rule="evenodd" d="M124.223 142.657H117.111C112.693 142.657 109.111 146.325 109.111 150.851V175.433C109.111 179.958 112.693 183.627 117.111 183.627H124.223C128.641 183.627 132.223 179.958 132.223 175.433V150.851C132.223 146.325 128.641 142.657 124.223 142.657ZM124.223 143.567C128.15 143.567 131.334 146.828 131.334 150.851V175.433C131.334 179.455 128.15 182.716 124.223 182.716H117.111C113.184 182.716 110 179.455 110 175.433V150.851C110 146.828 113.184 143.567 117.111 143.567H124.223Z" fill="#79B8FF"/>
      <path fill-rule="evenodd" clip-rule="evenodd" d="M124.223 150.851H119.778C116.342 150.851 113.556 153.704 113.556 157.224V170.88C113.556 174.4 116.342 177.254 119.778 177.254H124.223C127.659 177.254 130.445 174.4 130.445 170.88V157.224C130.445 153.704 127.659 150.851 124.223 150.851ZM124.223 151.761C127.168 151.761 129.556 154.207 129.556 157.224V170.88C129.556 173.897 127.168 176.343 124.223 176.343H119.778C116.833 176.343 114.445 173.897 114.445 170.88V157.224C114.445 154.207 116.833 151.761 119.778 151.761H124.223Z" fill="#79B8FF"/>
    </g>
    <path fill-rule="evenodd" clip-rule="evenodd" d="M123.26 95.3132H88.74C93.0974 77.0872 101.566 68 106 68C110.434 68 118.903 77.0872 123.26 95.3132Z" fill="#044289"/>
    <path d="M128 48.0571C128 60.1758 118.15 70 106 70C93.8497 70 84 60.1758 84 48.0571C84 33.8857 105.083 16.9714 106 6C106.917 16.9714 128 34.3429 128 48.0571Z" fill="#005CC5" stroke="#005CC5" stroke-width="2" stroke-linecap="round" stroke-linejoin="round"/>
    <g mask="url(#mask1)">
      <circle cx="98.9863" cy="53.9714" r="24" fill="#79B8FF" stroke="#79B8FF" stroke-width="2"/>
    </g>
  </g>
  <mask id="mask0" style="mask-type: alpha" maskUnits="userSpaceOnUse" x="86" y="68" width="40" height="122">
    <path fill-rule="evenodd" clip-rule="evenodd" d="M111.247 190C117.29 180.642 126 146.951 126 120.351C126 85.4048 112.136 68.0005 106 68.0005C99.8637 68.0005 86 85.4048 86 120.351C86 146.951 94.7101 180.642 100.753 190H111.247Z" fill="#005CC5"/>
  </mask>
  <mask id="mask1" style="mask-type: alpha" maskUnits="userSpaceOnUse" x="83" y="5" width="46" height="67">
    <path d="M128 48.0571C128 60.1758 118.15 70 106 70C93.8497 70 84 60.1758 84 48.0571C84 33.8857 105.083 16.9714 106 6C106.917 16.9714 128 34.3429 128 48.0571Z" fill="#C8E1FF" stroke="#C8E1FF" stroke-width="2"/>
  </mask>
<path d="M534 167C546 167 546 191 558 191C570 191 570 167 582 167C594 167 594 191 606 191" stroke="#005CC5" stroke-linecap="round"/>
</svg>
