<svg xmlns="http://www.w3.org/2000/svg" viewBox="0 0 53.46 55.1" width="60"><title>objects</title><path d="M38.1 41.9L2 41.8a2.08 2.08 0 0 1-2-2L.1 2a2 2 0 0 1 2-2l36.1.1a2 2 0 0 1 2 2l-.1 37.8a2 2 0 0 1-2 2zM2 39.75l36.1.16.1-37.8L2.1 2z" fill="#2088ff"></path><path d="M44.9 48.5L8 48.4a1 1 0 1 1 0-2l36.8.1.1-38.4a1 1 0 0 1 1-1 1 1 0 0 1 1 1l-.1 38.5a1.9 1.9 0 0 1-1.9 1.9z" fill="#79b8ff"></path><path d="M51.5 55.1L14.56 55a1 1 0 1 1 0-2l36.8.1.1-38.4a1 1 0 0 1 1-1 1 1 0 0 1 1 1l-.06 38.49a1.9 1.9 0 0 1-1.89 1.91z" fill="#79b8ff"></path><path d="M29.7 32.6H10.5a1 1 0 1 1 0-2h19.2a1 1 0 0 1 0 2zM29.7 25.5H10.5a1 1 0 1 1 0-2h19.2a1 1 0 0 1 0 2zM29.7 18.4H10.5a1 1 0 1 1 0-2h19.2a1 1 0 1 1 0 2zM20.1 11.3h-9.6a1 1 0 1 1 0-2h9.6a1 1 0 1 1 0 2z" fill="#2088ff"></path></svg>
