<svg xmlns="http://www.w3.org/2000/svg" viewBox="0 0 58.5 58.7" width="62"><title>utilities</title><path d="M41.6 15.6l-1.4-1.4a1 1 0 1 0-1.4 1.4l1.4 1.4a1 1 0 0 0 1.4 0 1 1 0 0 0 0-1.4zM33.9 7.9a1 1 0 1 0-1.4 1.4l1.4 1.4a1 1 0 0 0 1.4 0 1 1 0 0 0 0-1.4zM27.9 26.6a1 1 0 0 0-1.4 1.4l1.4 1.4a1 1 0 0 0 1.4 0 1 1 0 0 0 0-1.4zM21.6 20.2a1 1 0 0 0-1.4 1.4l1.4 1.4a1 1 0 0 0 1.4 0 1 1 0 0 0 0-1.4zM15.4 38.7a1 1 0 0 0-1.4 1.4l1.4 1.4a1 1 0 0 0 1.4 0 1 1 0 0 0 0-1.4zM9.3 32.7a1 1 0 1 0-1.4 1.4l1.4 1.4a1 1 0 0 0 1.4 0 1 1 0 0 0 0-1.4z" fill="#6bbcff"></path><path d="M26.6 13.4V1a.94.94 0 0 0-1-1H1a.94.94 0 0 0-1 1v24.8a.94.94 0 0 0 1 1h12.4a.94.94 0 0 0 1-1V14.4h11.2a1.08 1.08 0 0 0 1-1zm-2-1H13.4a.94.94 0 0 0-1 1v11.4H2V2h22.6v10.4zM58.2 19.9a.91.91 0 0 0-.7-.3H45.1a.94.94 0 0 0-1 1v11.3H33.9a1.9 1.9 0 0 0-1.9 1.9v10.6H21.5a1.9 1.9 0 0 0-1.9 1.9v10.5a1.9 1.9 0 0 0 1.9 1.9h36a.94.94 0 0 0 1-1V20.6a.91.91 0 0 0-.3-.7zm-1.7 1.7v22.8H46.1V21.7zM44.1 34v21.1L33.9 44.9 33.8 34h10.3zM21.5 46.4h11l10.4 10.4H21.5V46.4zm24.6 10.3V46.4h10.4v10.4z" fill="#008fff"></path></svg>
