<?xml version="1.0" standalone="no"?>
<!DOCTYPE svg PUBLIC "-//W3C//DTD SVG 1.1//EN" "http://www.w3.org/Graphics/SVG/1.1/DTD/svg11.dtd" >
<svg xmlns="http://www.w3.org/2000/svg">
<metadata></metadata>
<defs>
<font id="octiconsregular" horiz-adv-x="2048" >
<font-face units-per-em="2048" ascent="1638" descent="-410" />
<missing-glyph horiz-adv-x="500" />
<glyph />
<glyph />
<glyph unicode="&#xd;" />
<glyph unicode="&#xe000;" horiz-adv-x="500" d="M0 0z" />
<glyph unicode="&#xf000;" d="M1792 128q0 -5 -1 -13.5t-7.5 -31t-18.5 -39t-38.5 -30.5t-62.5 -14h-640v-256l-192 192l-192 -192v256h-256q-26 0 -47 7t-34 18.5t-23 25t-14 27t-6.5 25t-3.5 18.5v7v1536q0 26 7 47t18.5 34t25 23t27 14t25 6.5t18.5 3.5h7h1280q48 0 88 -40t40 -88v-1536zM384 512 h128v1152h-128v-1152zM896 768h512v384q0 96 -80 176t-176 80t-176 -80t-80 -176v-384zM1024 1152q0 48 40 88t88 40t88 -40t40 -88h-256zM1536 128q5 0 13.5 1t31 7.5t39 18.5t30.5 38.5t14 62.5v128h-1280v-128q0 -5 1 -13.5t7.5 -31t18.5 -39t38.5 -30.5t62.5 -14h128 v128h384v-128h512z" />
<glyph unicode="&#xf001;" d="M1792 128q0 -5 -1 -13.5t-7.5 -31t-18.5 -39t-38.5 -30.5t-62.5 -14h-640v-256l-192 192l-192 -192v256h-256q-26 0 -47 7t-34 18.5t-23 25t-14 27t-6.5 25t-3.5 18.5v7v1536q0 26 7 47t18.5 34t25 23t27 14t25 6.5t18.5 3.5h7h1280q5 0 13.5 -1t31 -7.5t39 -18.5 t30.5 -38.5t14 -62.5v-1536zM1664 1664h-1024v-1152h1024v1152zM896 1408h-128v128h128v-128zM896 1152h-128v128h128v-128zM896 896h-128v128h128v-128zM896 640h-128v128h128v-128zM1024 128h512q5 0 13.5 1t31 7.5t39 18.5t30.5 38.5t14 62.5v128h-1280v-128 q0 -5 1 -13.5t7.5 -31t18.5 -39t38.5 -30.5t62.5 -14h128v128h384v-128z" />
<glyph unicode="&#xf002;" d="M1792 128q0 -5 -1 -13.5t-7.5 -31t-18.5 -39t-38.5 -30.5t-62.5 -14h-640v-256l-192 192l-192 -192v256h-256q-26 0 -47 7t-34 18.5t-23 25t-14 27t-6.5 25t-3.5 18.5v7v1536q0 26 7 47t18.5 34t25 23t27 14t25 6.5t18.5 3.5h7h1280q48 0 88 -40t40 -88v-1536zM1664 1664 h-1024v-1152h1024v1152zM1024 896l-256 256v384h256v-256l128 -128l128 128v256h256v-384l-256 -256v-256h-256v256zM1024 128h512q5 0 13.5 1t31 7.5t39 18.5t30.5 38.5t14 62.5v128h-1280v-128q0 -5 1 -13.5t7.5 -31t18.5 -39t38.5 -30.5t62.5 -14h128v128h384v-128z" />
<glyph unicode="&#xf003;" d="M1792 896v-768q0 -5 -1 -13.5t-7.5 -31t-18.5 -39t-38.5 -30.5t-62.5 -14h-640v-256l-192 192l-192 -192v256h-256q-26 0 -47 7t-34 18.5t-23 25t-14 27t-6.5 25t-3.5 18.5v7v1536q0 26 7 47t18.5 34t25 23t27 14t25 6.5t18.5 3.5h7h768v-128h-512v-1152h1024v384h128z M1920 1536v-256h-256v-256h-256v256h-256v256h256v256h256v-256h256zM896 1408h-128v128h128v-128zM896 1152h-128v128h128v-128zM896 896h-128v128h128v-128zM768 768h128v-128h-128v128zM1024 128h512q5 0 13.5 1t31 7.5t39 18.5t30.5 38.5t14 62.5v128h-1280v-128 q0 -5 1 -13.5t7.5 -31t18.5 -39t38.5 -30.5t62.5 -14h128v128h384v-128z" />
<glyph unicode="&#xf004;" d="M1536 1664h-1280l128 128h1152v-128zM640 1408h-384v128h384v-128zM896 1408h-128v128h128v-128zM1920 1536v-256h-768v256h768zM640 1152h-384v128h384v-128zM896 1152h-128v128h128v-128zM640 896h-384v128h384v-128zM896 896h-128v128h128v-128zM640 640h-384v128h384 v-128zM768 768h128v-128h-128v128zM1664 768h128v-128h-128v128zM256 512h1536v-128h-1536v128zM256 256h1536l-128 -128h-1280zM640 0h128l-128 -128v128zM896 0h128v-128z" />
<glyph unicode="&#xf005;" d="M1792 128q0 -5 -1 -13.5t-7.5 -31t-18.5 -39t-38.5 -30.5t-62.5 -14h-256v128h128q5 0 13.5 1t31 7.5t39 18.5t30.5 38.5t14 62.5v128h-256v128h256v1152h-1024v-1152h256v-128h-512v-128q0 -5 1 -13.5t7.5 -31t18.5 -39t38.5 -30.5t62.5 -14h128v128h256v-256l-256 -256 v256h-256q-26 0 -47 7t-34 18.5t-23 25t-14 27t-6.5 25t-3.5 18.5v7v1536q0 26 7 47t18.5 34t25 23t27 14t25 6.5t18.5 3.5h7h1280q5 0 13.5 -1t31 -7.5t39 -18.5t30.5 -38.5t14 -62.5v-1536zM896 1408h-128v128h128v-128zM768 1280h128v-128h-128v128zM1536 640h-256v-896 h-256v896h-256l384 512z" />
<glyph unicode="&#xf006;" d="M1536 896v-384v-384q0 -5 -1 -13.5t-7.5 -31t-18.5 -39t-38.5 -30.5t-62.5 -14h-640v-256l-192 192l-192 -192v256h-256q-26 0 -47 7t-34 18.5t-23 25t-14 27t-6.5 25t-3.5 18.5v7v1536q0 26 7 47t18.5 34t25 23t27 14t25 6.5t18.5 3.5h7h1280q5 0 13.5 -1t31 -7.5 t39 -18.5t30.5 -38.5t14 -62.5v-256h-128v256h-1024v-1152h1024v384h128zM640 1408h-128v128h128v-128zM1664 768v256h-768v256h768v256l384 -384zM640 1152h-128v128h128v-128zM640 896h-128v128h128v-128zM512 768h128v-128h-128v128zM768 128h512q5 0 13.5 1t31 7.5 t39 18.5t30.5 38.5t14 62.5v128h-1280v-128q0 -5 1 -13.5t7.5 -31t18.5 -39t38.5 -30.5t62.5 -14h128v128h384v-128z" />
<glyph unicode="&#xf007;" d="M2048 1280v-1152h-256l-128 128h-384l-128 -128h-256l-128 128h-384l-128 -128h-256v1152l256 256h640l128 -128l128 128h640zM1920 1280l-128 128h-640l-128 -128l-128 128h-640l-128 -128v-896l128 128h512l128 -128h128v-128h128v128l128 128h512l128 -128v896z M256 1280h512v-128h-512v128zM1024 1152v128h128v-128h-128zM1280 1280h512v-128h-512v128zM896 1152h128v-128h-128v128zM256 1024h512v-128h-512v128zM1024 896v128h128v-128h-128zM1280 1024h512v-128h-512v128zM896 896h128v-128h-128v128zM256 768h512v-128h-512v128z M1024 640v128h128v-128h-128zM1280 768h512v-128h-512v128zM896 640h128v-128h-128v128zM1152 512v-128h-128v128h128z" />
<glyph unicode="&#xf008;" d="M1882 1237q166 -181 166 -429q0 -139 -26 -251.5t-72.5 -195.5t-118 -146t-155 -103t-190.5 -65t-218 -35t-245 -10q-133 0 -244 10t-217.5 35t-189.5 65.5t-154 103t-117 145.5t-72 195.5t-26 251.5q0 248 166 429q-9 23 -16.5 54t-14 87.5t5 130.5t42.5 151 q6 2 16.5 3.5t50.5 -2.5t86 -17.5t123.5 -52t162.5 -96.5q146 40 400 40q255 0 401 -40q85 58 161.5 96.5t125 52t85 18t51.5 1.5l16 -3q31 -77 42.5 -151t5 -130.5t-14 -87.5t-16.5 -54zM1019 128q82 0 138 1t128 6t120.5 13.5t105 24t94 37.5t74.5 54t58 73.5t34 97 t13 122.5q0 146 -131 264q-39 36 -91 54.5t-117.5 21t-125.5 -1t-148 -9.5t-152 -6q-56 0 -128 4.5t-124 8.5t-112 4.5t-104.5 -5t-88.5 -23.5t-77 -48q-131 -120 -131 -264q0 -67 13 -122.5t34 -97t58 -73.5t74.5 -54t93.5 -37.5t105 -24t121 -13.5t128 -6t138 -1zM699 768 q64 0 108.5 -66.5t44.5 -161.5t-44.5 -161.5t-108.5 -66.5t-109 67t-45 161t45 161t109 67zM1341 768q64 0 109 -67t45 -161t-45 -161t-109 -67q-31 0 -59.5 18t-49 48.5t-32.5 73t-12 88.5q0 94 45 161t108 67z" />
<glyph unicode="&#xf009;" d="M1022 1792q139 0 271.5 -36.5t244.5 -102.5t206 -160.5t160 -206.5t102.5 -244.5t36.5 -271.5q0 -119 -27 -234t-77 -216t-120 -190.5t-158.5 -159.5t-189 -121t-215.5 -78t-234 -27q-139 0 -271.5 37t-244.5 103.5t-206.5 161.5t-160.5 207.5t-102.5 245t-36.5 271.5 t36.5 271.5t102.5 244.5t160.5 206.5t206.5 160.5t244.5 102.5t271.5 36.5zM1277 -64q131 47 242.5 129.5t192 189.5t126 240t45.5 275q0 117 -31 229t-86.5 206.5t-135 174t-174 135t-206 86.5t-228.5 31t-229 -31t-206.5 -86.5t-174 -135t-135 -174t-86.5 -206.5t-31 -229 q0 -115 29.5 -224.5t84.5 -203.5t131 -173t170.5 -138t200.5 -95v164q0 122 82 178q-52 5 -95.5 14t-92 26t-87 40.5t-74 61t-59.5 85t-38 114t-14 146.5q0 155 101 264q-4 11 -8 24t-8 40t-3.5 54.5t7.5 66t22 76.5q3 1 10 2t31.5 -1t53 -10.5t76 -32t100.5 -59.5 q117 33 246 33q128 0 247 -33q53 36 100 59.5t76.5 31.5t52 11t31.5 1l10 -2q19 -47 26 -92.5t3 -80.5t-8.5 -53.5t-10.5 -34.5q101 -109 101 -264q0 -63 -8.5 -117t-23.5 -96.5t-38 -78t-48.5 -62t-58.5 -47.5t-65 -35t-70.5 -24.5t-73 -16.5t-74.5 -10q83 -57 83 -178 v-164z" />
<glyph unicode="&#xf00a;" d="M761 -192q-161 24 -303 110.5t-242 215t-158 293.5t-58 341q0 139 36.5 271.5t102.5 245t160.5 207t206.5 160t244.5 102.5t271.5 37t271 -37t244 -102.5t206.5 -160t160 -207t102.5 -245t37 -271.5q0 -176 -58 -341t-158 -293.5t-242 -215t-303 -110.5v285 q0 127 -86 186q54 6 99.5 14.5t96 26.5t90 42.5t76.5 63.5t62 88.5t39.5 118.5t14.5 153q0 159 -105 274q47 126 -10 272q-4 1 -10.5 2t-32 -1.5t-55.5 -11t-79.5 -33t-104.5 -61.5q-125 34 -255 34q-131 0 -256 -34q-55 37 -104 61.5t-80 33t-54 11.5t-33 1l-10 -2 q-58 -146 -11 -272q-105 -115 -105 -274q0 -65 9 -121.5t24.5 -101t39 -81.5t50.5 -64t61 -49t67.5 -36.5t73.5 -25.5t76 -17.5t77 -10.5q-85 -59 -86 -186v-285z" />
<glyph unicode="&#xf00b;" d="M768 391q-160 23 -267 142q-60 -21 -117 -21q-104 0 -192.5 51.5t-140 140t-51.5 192.5t51.5 192.5t140 140t192.5 51.5q8 0 51 -5q75 174 234.5 281.5t354.5 107.5t354.5 -107.5t234.5 -281.5q43 5 51 5q104 0 192.5 -51.5t140 -140t51.5 -192.5q0 -78 -30.5 -149 t-82 -122.5t-122.5 -82t-149 -30.5q-1 0 -3 0.5t-3 0.5q-62 -61 -143 -95t-171 -34q-22 0 -64 6v130q34 -8 64 -8q53 0 102.5 17t89.5 47.5t69 71.5q30 -8 59 -8q106 0 181 75t75 181t-75 181t-181 75q-73 0 -139 -41q-12 72 -43 137t-78 117t-105.5 90.5t-129 59.5 t-145.5 21q-124 0 -232.5 -56t-179 -152.5t-91.5 -215.5q-64 40 -137 40q-106 0 -181 -75t-75 -181t75 -181t181 -75q87 0 159 57q32 -68 91 -114t134 -62v-130zM1152 256h256l-384 -384l-384 384h256v640h256v-640z" />
<glyph unicode="&#xf00c;" d="M768 263q-160 23 -267 142q-60 -21 -117 -21q-52 0 -102 14t-92 38.5t-77.5 60t-60 77.5t-38.5 92t-14 102q0 104 51.5 192.5t140 140t192.5 51.5q8 0 51 -5q75 174 234.5 281.5t354.5 107.5t354.5 -107.5t234.5 -281.5q43 5 51 5q104 0 192.5 -51.5t140 -140 t51.5 -192.5q0 -78 -30.5 -149t-82 -122.5t-122.5 -82t-149 -30.5q-1 0 -3 0.5t-3 0.5q-62 -61 -143 -95t-171 -34q-22 0 -64 6v130q34 -8 64 -8q53 0 102.5 17t89.5 47.5t69 71.5q30 -8 59 -8q106 0 181 75t75 181t-75 181t-181 75q-73 0 -139 -41q-12 72 -43 137t-78 117 t-105.5 90.5t-129 59.5t-145.5 21q-93 0 -179 -32.5t-152 -89t-111 -135t-61 -167.5q-64 40 -137 40q-106 0 -181 -75t-75 -181t75 -181t181 -75q87 0 159 57q32 -68 91 -114t134 -62v-130zM1408 640h-256v-640h-256v640h-256l384 384z" />
<glyph unicode="&#xf00d;" d="M2048 1536v-1536h-2048v1536h2048zM1920 1408h-1792v-1280h1792v1280zM512 1024h-256v256h256v-256zM768 1024h-128v256h128v-256zM1024 1024h-128v256h128v-256zM1280 1024h-128v256h128v-256zM1536 1024h-128v256h128v-256zM1536 896h128v384h128v-640h-256v256z M384 640h-128v256h128v-256zM512 896h128v-256h-128v256zM768 896h128v-256h-128v256zM1024 896h128v-256h-128v256zM1280 896h128v-256h-128v256zM384 256h-128v256h128v-256zM512 512h128v-256h-128v256zM768 512h640v-256h-640v256zM1536 512h256v-256h-256v256z" />
<glyph unicode="&#xf00e;" d="M1792 1664v-1664h-1536v1664h1536zM1664 1536h-1280v-1408h1280v1408zM512 1280q0 5 1 13.5t7.5 31t18.5 39t38.5 30.5t62.5 14h768q26 0 47 -7t34 -18.5t23 -25t14 -27t6.5 -25t3.5 -18.5v-7h-1024zM832 384l-320 320l320 320l128 -128l-192 -192l192 -192zM1216 1024 l320 -320l-320 -320l-128 128l192 192l-192 192z" />
<glyph unicode="&#xf00f;" d="M1792 1664v-1664h-1536v1664h1536zM1664 1536h-1280v-1408h1280v1408zM512 1280q0 5 1 13.5t7.5 31t18.5 39t38.5 30.5t62.5 14h768q26 0 47 -7t34 -18.5t23 -25t14 -27t6.5 -25t3.5 -18.5v-7h-1024zM768 768q0 96 80 176t176 80t176 -80t80 -176v-384h-512v384z M1152 768q0 48 -40 88t-88 40t-88 -40t-40 -88h256z" />
<glyph unicode="&#xf010;" d="M1792 1280v-1408h-1536v1792h1152zM1664 1152l-384 384h-896v-1536h1280v1152zM960 896l-192 -192l192 -192l-128 -128l-320 320l320 320zM1216 1024l320 -320l-320 -320l-128 128l192 192l-192 192z" />
<glyph unicode="&#xf011;" d="M1792 1280v-1408h-1536v1792h1152zM1664 1152l-384 384h-896v-1536h1280v1152zM1152 1152h-640v128h640v-128zM512 896h1024v-128h-1024v128zM512 640h1024v-128h-1024v128zM512 384h1024v-128h-1024v128z" />
<glyph unicode="&#xf012;" d="M1792 -128v1408l-384 384h-1152v-1792h1536zM1664 0h-1280v1536h896l384 -384v-1152zM768 256q0 96 80 176t176 80q-96 0 -176 80t-80 176t80 176t176 80t176 -80t80 -176t-80 -176t-176 -80q96 0 176 -80t80 -176h256v768l-256 256h-768v-1024h256z" />
<glyph unicode="&#xf013;" d="M1792 1280v-1408h-1536v1792h1152zM1664 1152l-384 384h-384v-128h-128v128h-384v-1536h1280v1152zM640 1408h128v-128h-128v128zM768 1152v128h128v-128h-128zM640 1152h128v-128h-128v128zM768 896v128h128v-128h-128zM640 896h128v-128h-128v128zM768 640v128h128 v-128h-128zM640 640h128v-128h128l128 -128v-256h-512v256l128 128v128zM640 384v-128h256v128h-256z" />
<glyph unicode="&#xf014;" d="M1792 1280v-1408h-1536v1792h1152zM384 335q38 33 86.5 61t77 39.5t51.5 19.5q12 21 61 121t112.5 241.5t85.5 214.5q-34 117 -43 230.5t11 187.5q19 71 70 86h-512v-1201zM1664 1152l-384 384h-324q49 0 81 -36.5t23 -109.5q0 -6 0.5 -16.5t0 -46t-2.5 -73.5t-8.5 -95.5 t-15.5 -115.5q16 -46 33.5 -86.5t33.5 -71.5t35 -58.5t33.5 -46t33 -36t30.5 -27.5t29.5 -20.5t25.5 -14.5t23 -11t18 -9q84 9 157 9q100 0 178 -50v531zM950 921q-35 -135 -186 -437l-8 -17q60 27 115 45.5t122.5 33t102.5 20.5t125 20q-8 4 -29.5 12.5t-31 13t-30 17.5 t-33 26t-32.5 38t-36 55t-37 74t-42 99zM1664 397q-35 -5 -48 -4q-65 4 -161 30.5t-174 65.5q-187 -19 -375 -66q-3 -1 -19.5 -7t-35.5 -12.5t-47.5 -17t-54.5 -21.5q-55 -93 -105 -161.5t-86 -107t-69.5 -61t-55.5 -29t-45 -6.5q-1 0 -2 0.5t-2 0.5v-1h1280v397z" />
<glyph unicode="&#xf015;" d="M1920 640l-768 -768l-1024 1024v512l256 256h512zM1152 64l564 576l-896 896h-372l-192 -192v-384zM768 1216q0 -79 -56.5 -135.5t-135.5 -56.5q-80 0 -136 56t-56 136q0 79 56.5 135.5t135.5 56.5t135.5 -56.5t56.5 -135.5zM576 1152q26 0 45 19t19 45t-19 45t-45 19 t-45 -19t-19 -45t19 -45t45 -19zM1536 640l-384 -384l-512 512l384 384zM1152 452l196 188l-324 324l-192 -196z" />
<glyph unicode="&#xf016;" d="M128 1408q0 5 1 13.5t7.5 31t18.5 39t38.5 30.5t62.5 14h640q5 0 13.5 -1t31 -7.5t39 -18.5t30.5 -38.5t14 -62.5q0 -5 1 -13.5t7.5 -31t18.5 -39t38.5 -30.5t62.5 -14h640q5 0 13.5 -1t31 -7.5t39 -18.5t30.5 -38.5t14 -62.5v-1024h-1792v1280zM896 1408h-640v-128h640 v128z" />
<glyph unicode="&#xf017;" d="M128 1408q0 5 1 13.5t7.5 31t18.5 39t38.5 30.5t62.5 14h640q5 0 13.5 -1t31 -7.5t39 -18.5t30.5 -38.5t14 -62.5q0 -5 1 -13.5t7.5 -31t18.5 -39t38.5 -30.5t62.5 -14h640q5 0 13.5 -1t31 -7.5t39 -18.5t30.5 -38.5t14 -62.5v-256h-384q0 5 -1 13.5t-7.5 31t-18.5 39 t-38.5 30.5t-62.5 14h-512q-5 0 -13.5 -1t-31 -7.5t-39 -18.5t-30.5 -38.5t-14 -62.5v-768h-640v1280zM896 1408h-640v-128h640v128zM1792 768q5 0 13.5 -1t31 -7.5t39 -18.5t30.5 -38.5t14 -62.5v-512h-1024v640q0 5 1 13.5t7.5 31t18.5 39t38.5 30.5t62.5 14h256 q26 0 47 -7t34 -18.5t23 -25t14 -27t6.5 -25t3.5 -18.5v-7h384zM1280 768h-256v-128h256v128z" />
<glyph unicode="&#xf018;" d="M1408 1408q0 -78 -30.5 -149t-82 -122.5t-122.5 -82t-149 -30.5q-104 0 -192.5 51.5t-140 140t-51.5 192.5t51.5 192.5t140 140t192.5 51.5t192.5 -51.5t140 -140t51.5 -192.5zM1024 1152q106 0 181 75t75 181t-75 181t-181 75t-181 -75t-75 -181t75 -181t181 -75z M1280 1024q106 0 181 -75t75 -181v-256q0 -106 -75 -181t-181 -75v-512h-512v512q-106 0 -181 75t-75 181v256q0 106 75 181t181 75h512zM1408 768q0 53 -37.5 90.5t-90.5 37.5h-512q-53 0 -90.5 -37.5t-37.5 -90.5v-256q0 -53 37.5 -90.5t90.5 -37.5v256h128v-768h256v768 h128v-256q53 0 90.5 37.5t37.5 90.5v256z" />
<glyph unicode="&#xf019;" d="M735 1157q-33 -60 -92.5 -96.5t-130.5 -36.5q-106 0 -181 75t-75 181t75 181t181 75q76 0 139 -41q30 129 134 213t239 84t239 -84t134 -213q63 41 139 41q106 0 181 -75t75 -181t-75 -181t-181 -75q-29 0 -56.5 6t-51.5 18t-45.5 28t-39 36.5t-30.5 44.5 q-36 -41 -80.5 -70.5t-98 -46t-110.5 -16.5q-85 0 -159.5 35.5t-129.5 97.5zM1024 1664q-106 0 -181 -75t-75 -181t75 -181t181 -75t181 75t75 181t-75 181t-181 75zM512 1152q53 0 90.5 37.5t37.5 90.5t-37.5 90.5t-90.5 37.5q-26 0 -50 -10t-41 -27t-27 -41t-10 -50 q0 -53 37.5 -90.5t90.5 -37.5zM1536 1408q-35 0 -64.5 -17t-46.5 -46.5t-17 -64.5q0 -53 37.5 -90.5t90.5 -37.5t90.5 37.5t37.5 90.5t-37.5 90.5t-90.5 37.5zM1664 1024q106 0 181 -75t75 -181v-128q0 -69 -35 -127.5t-93 -92.5v-420h-512v-256h-512v256h-512v420 q-29 17 -52.5 40t-40 51t-26 61t-9.5 68v128q0 106 75 181t181 75h1280zM640 292q-58 34 -93 92.5t-35 127.5v256q0 66 36 128h-164q-21 0 -40.5 -6.5t-35.5 -18t-27.5 -27.5t-18 -35.5t-6.5 -40.5v-128h128v-512h256v164zM1280 384q53 0 90.5 37.5t37.5 90.5v256 q0 53 -37.5 90.5t-90.5 37.5h-512q-53 0 -90.5 -37.5t-37.5 -90.5v-256q0 -53 37.5 -90.5t90.5 -37.5v256h128v-768h256v768h128v-256zM1792 768q0 53 -37.5 90.5t-90.5 37.5h-164q36 -60 36 -128v-256q0 -46 -16 -88.5t-45 -76t-67 -55.5v-164h256v512h128v128z" />
<glyph unicode="&#xf01a;" d="M1024 1408q0 -78 -30.5 -149t-82 -122.5t-122.5 -82t-149 -30.5q-104 0 -192.5 51.5t-140 140t-51.5 192.5t51.5 192.5t140 140t192.5 51.5t192.5 -51.5t140 -140t51.5 -192.5zM640 1152q106 0 181 75t75 181t-75 181t-181 75t-181 -75t-75 -181t75 -181t181 -75z M1920 1408v-256h-256v-256h-256v256h-256v256h256v256h256v-256h256zM896 1024q106 0 181 -75t75 -181v-256q0 -106 -75 -181t-181 -75v-512h-512v512q-106 0 -181 75t-75 181v256q0 106 75 181t181 75h512zM1024 768q0 53 -37.5 90.5t-90.5 37.5h-512q-53 0 -90.5 -37.5 t-37.5 -90.5v-256q0 -53 37.5 -90.5t90.5 -37.5v256h128v-768h256v768h128v-256q53 0 90.5 37.5t37.5 90.5v256z" />
<glyph unicode="&#xf01b;" d="M896 1664h-512l256 128zM256 1408l-2 123l130 5v-128h-128zM1024 1408h-128v128h128v-128zM1920 1408v-256h-768v256h768zM384 1280l128 -128h-128l-128 128h128zM896 1280h128l-128 -128h-128zM896 1024l256 -128h-1024l256 128h512zM128 768h128v-128h-128v128z M1024 768h128v-128h-128v128zM128 512h128v-128h-128v128zM512 384h-128v128h128v-128zM768 512h128v-128h-128v128zM1024 512h128v-128h-128v128zM384 256h128v-128h-128v128zM768 256h128v-128h-128v128zM384 0h512v-128h-512v128z" />
<glyph unicode="&#xf01c;" d="M1792 1408q0 -78 -30.5 -149t-82 -122.5t-122.5 -82t-149 -30.5q-104 0 -192.5 51.5t-140 140t-51.5 192.5t51.5 192.5t140 140t192.5 51.5t192.5 -51.5t140 -140t51.5 -192.5zM1408 1152q106 0 181 75t75 181t-75 181t-181 75t-181 -75t-75 -181t75 -181t181 -75z M384 1152l384 -384l-384 -384v256h-256v256h256v256zM1664 1024q106 0 181 -75t75 -181v-256q0 -106 -75 -181t-181 -75v-512h-512v512q-106 0 -181 75t-75 181v256q0 106 75 181t181 75h512zM1792 768q0 53 -37.5 90.5t-90.5 37.5h-512q-53 0 -90.5 -37.5t-37.5 -90.5v-256 q0 -53 37.5 -90.5t90.5 -37.5v256h128v-768h256v768h128v-256q53 0 90.5 37.5t37.5 90.5v256z" />
<glyph unicode="&#xf01d;" d="M2048 1536v-256h-256v-256h-256v256h-256v256h256v256h256v-256h256zM1920 1024q43 -57 75 -121t42 -99l11 -36q-3 -8 -9.5 -22.5t-31 -58t-54 -86t-79.5 -100t-106.5 -107t-136.5 -100t-168 -86t-202 -58t-237 -22.5t-237 22t-202.5 59t-167.5 85t-136.5 101t-106 106 t-80 101t-53.5 85t-31 59l-10 22q3 10 9.5 27t31 69.5t54 103.5t79.5 120t106.5 128.5t136.5 120t168 103t202 69.5t237 27h32l64 -256h-96q-130 0 -242.5 -28t-188.5 -73.5t-138 -100t-97.5 -109t-60 -100t-32.5 -73.5l-9 -28q2 -7 5.5 -18t18 -46t33.5 -69t53 -80 t74.5 -85.5t100.5 -80t128 -69t160 -46.5t195 -18t195 17.5t160.5 47t128 68t100.5 81t74 85t53 81t33.5 68t18.5 46.5l5 18q0 32 -32 96l160 32v128zM832 768q47 0 92 27.5t72.5 72.5t27.5 92q0 26 -7 52.5t-21 51.5t-40 40.5t-60 15.5q30 15 55.5 22.5t38.5 8.5t34 1 q168 0 276 -108t108 -276q0 -111 -49 -198.5t-136.5 -136.5t-198.5 -49q-168 0 -276 108t-108 276q0 21 1 34t8.5 38.5t22.5 55.5q0 -34 15.5 -60t40.5 -40t51.5 -21t52.5 -7z" />
<glyph unicode="&#xf01e;" d="M1326 1203l205 205l-205 205l133 133l205 -205l205 205l133 -133l-205 -205l205 -205l-133 -133l-205 205l-205 -205zM1984 896l64 -128q-5 -13 -15.5 -36t-51 -89.5t-90.5 -127t-136.5 -134.5t-186 -127t-242.5 -89.5t-302 -36.5q-125 0 -240 22t-204 59t-168 85 t-136.5 101t-105 106t-78.5 101t-52.5 85t-30.5 59l-9 22q3 10 9.5 27t31 69.5t54 103.5t79.5 120t106.5 128.5t136.5 120t168 103t202 69.5t237 27q96 0 128 -8v-248h-128q-130 0 -242.5 -28t-188.5 -73.5t-138 -100t-97.5 -109t-60 -100t-32.5 -73.5l-9 -28q2 -7 5.5 -18 t18 -46t33.5 -69t53 -80t74.5 -85.5t100.5 -80t128 -69t160 -46.5t195 -18t195 17.5t160.5 47t128 68t100.5 81t74 85t53 81t33.5 68t18.5 46.5l5 18q0 7 -2 19.5t-18 46.5t-44 62h256zM928 1120q15 15 33 22.5t30 8.5t33 1q168 0 276 -108t108 -276t-108 -276t-276 -108 t-276 108t-108 276q0 21 1 33t8.5 30t22.5 33q23 -46 66.5 -71t93.5 -25q47 0 92 27.5t72.5 72.5t27.5 92q0 50 -25 93.5t-71 66.5z" />
<glyph unicode="&#xf01f;" d="M1920 896v-256h-416q-16 -109 -88 -198t-176 -137.5t-216 -48.5t-216 48.5t-176 137.5t-88 198h-416v256h416q16 109 88 198t176 137.5t216 48.5t216 -48.5t176 -137.5t88 -198h416zM1024 512q96 0 176 80t80 176t-80 176t-176 80t-176 -80t-80 -176t80 -176t176 -80z " />
<glyph unicode="&#xf020;" d="M1280 932q-38 22 -67 55t-45 75.5t-16 89.5q0 106 75 181t181 75t181 -75t75 -181q0 -70 -35 -128t-93 -92v-36q0 -11 -1.5 -29.5t-11.5 -71.5t-28 -101.5t-56.5 -107.5t-90.5 -101.5t-136 -71.5t-188 -29q-129 0 -196 -83q68 -73 68 -173q0 -64 -34 -123t-94 -96 t-128 -37t-128 37t-94 96t-34 123q0 69 35 127.5t93 92.5v840q-58 34 -93 92t-35 128q0 106 75 181t181 75t181 -75t75 -181q0 -70 -35 -128t-93 -92v-606q111 58 256 58q52 0 94.5 14t68.5 36.5t45 50t28 55t14 50t6 36.5v14v36zM640 1536q-53 0 -90.5 -37.5t-37.5 -90.5 t37.5 -90.5t90.5 -37.5t90.5 37.5t37.5 90.5t-37.5 90.5t-90.5 37.5zM1408 1024q53 0 90.5 37.5t37.5 90.5t-37.5 90.5t-90.5 37.5q-35 0 -64.5 -17t-46.5 -46.5t-17 -64.5q0 -53 37.5 -90.5t90.5 -37.5zM640 0q53 0 90.5 37.5t37.5 90.5t-37.5 90.5t-90.5 37.5t-90.5 -37.5 t-37.5 -90.5t37.5 -90.5t90.5 -37.5z" />
<glyph unicode="&#xf021;" d="M768 569q123 71 256 71q106 0 181 75t75 181h256q0 -104 -40.5 -199t-109 -163.5t-163.5 -109t-199 -40.5q-114 0 -192 -88q64 -74 64 -168q0 -98 -76 -177t-180 -79t-180 79t-76 177q0 69 35 127.5t93 92.5v840q-58 34 -93 92t-35 128q0 106 75 181t181 75t181 -75 t75 -181q0 -70 -35 -128t-93 -92v-619zM1152 1408q0 106 75 181t181 75t181 -75t75 -181v-384h-512v384zM640 1536q-53 0 -90.5 -37.5t-37.5 -90.5t37.5 -90.5t90.5 -37.5t90.5 37.5t37.5 90.5t-37.5 90.5t-90.5 37.5zM1536 1408q0 53 -37.5 90.5t-90.5 37.5t-90.5 -37.5 t-37.5 -90.5h256zM640 0q53 0 90.5 37.5t37.5 90.5t-37.5 90.5t-90.5 37.5t-90.5 -37.5t-37.5 -90.5t37.5 -90.5t90.5 -37.5z" />
<glyph unicode="&#xf022;" d="M1280 1536q8 0 22 -1t53.5 -8.5t76 -20.5t81 -41.5t76 -67.5t53.5 -102.5t22 -142.5v-804q38 -22 67 -55.5t45 -76t16 -88.5q0 -64 -34 -123t-94 -96t-128 -37t-128 37t-94 96t-34 123q0 69 35 127.5t93 92.5v804q-1 5 -2.5 13.5t-10 31t-21.5 39t-37.5 30.5t-56.5 14 h-128v-256l-384 384l384 384v-256h128zM384 1188q-58 34 -93 92t-35 128q0 106 75 181t181 75t181 -75t75 -181q0 -47 -16 -89.5t-45 -75.5t-67 -55v-840q38 -22 67 -55.5t45 -76t16 -88.5q0 -64 -34 -123t-94 -96t-128 -37t-128 37t-94 96t-34 123q0 69 35 127.5t93 92.5 v840zM512 1280q53 0 90.5 37.5t37.5 90.5t-37.5 90.5t-90.5 37.5q-26 0 -50 -10t-41 -27t-27 -41t-10 -50q0 -53 37.5 -90.5t90.5 -37.5zM512 0q53 0 90.5 37.5t37.5 90.5t-37.5 90.5t-90.5 37.5q-35 0 -64.5 -17t-46.5 -46.5t-17 -64.5q0 -53 37.5 -90.5t90.5 -37.5z M1536 0q53 0 90.5 37.5t37.5 90.5t-37.5 90.5t-90.5 37.5q-35 0 -64.5 -17t-46.5 -46.5t-17 -64.5q0 -53 37.5 -90.5t90.5 -37.5z" />
<glyph unicode="&#xf023;" d="M384 1188q-58 34 -93 92t-35 128q0 106 75 181t181 75t181 -75t75 -181q0 -57 -24 -107t-66 -86q34 -92 97 -174t142 -142t174 -95.5t189 -35.5l35 -2q34 59 92.5 94.5t128.5 35.5q106 0 181 -75t75 -181t-75 -181t-181 -75q-47 0 -89.5 16t-76 45t-55.5 67h-35 q-93 0 -179.5 21.5t-166.5 64.5t-147.5 92t-146.5 119v-461q58 -34 93 -92t35 -128q0 -64 -34 -123t-94 -96t-128 -37t-128 37t-94 96t-34 123q0 70 35 128t93 92v840zM512 1280q53 0 90.5 37.5t37.5 90.5t-37.5 90.5t-90.5 37.5q-26 0 -50 -10t-41 -27t-27 -41t-10 -50 q0 -53 37.5 -90.5t90.5 -37.5zM1536 512q53 0 90.5 37.5t37.5 90.5t-37.5 90.5t-90.5 37.5t-90.5 -37.5t-37.5 -90.5t37.5 -90.5t90.5 -37.5zM512 0q53 0 90.5 37.5t37.5 90.5t-37.5 90.5t-90.5 37.5q-35 0 -64.5 -17t-46.5 -46.5t-17 -64.5q0 -53 37.5 -90.5t90.5 -37.5z " />
<glyph unicode="&#xf024;" d="M2048 1152v-1408l-1024 512l-1024 -512v1408l1024 640zM1920 1024l-768 512v-512h-256v512l-768 -512v-1024l768 384v128h256v-128l768 -384v1024zM640 896h768v256l384 -384l-384 -384v256h-768v-256l-384 384l384 384v-256z" />
<glyph unicode="&#xf025;" d="M2048 1280v-1536l-1024 512l-1024 -512v1536l1024 512zM1920 1152l-768 384v-256h-256v256l-768 -384v-1152l768 384h256l768 -384v1152zM256 832l384 320v-640zM768 896q0 5 0.5 14.5t5.5 36t14 50.5t28 53.5t45 51t68.5 36t94.5 14.5t94.5 -14t68.5 -36.5t45 -50 t28 -55t14 -50t6 -36.5v-14v-384h-512v384zM1792 832l-384 -320v640zM1152 896q0 5 -1 13.5t-7.5 31t-18.5 39t-38.5 30.5t-62.5 14q-26 0 -47 -7t-34 -18.5t-23 -25t-14 -27t-6.5 -25t-3.5 -18.5v-7h256z" />
<glyph unicode="&#xf026;" d="M1024 1664q182 0 348 -71t286 -191t191 -286t71 -348t-71 -348t-191 -286t-286 -191t-348 -71t-348 71t-286 191t-191 286t-71 348t71 348t191 286t286 191t348 71zM1024 128q174 0 321 85.5t233 233t86 321.5q0 130 -51 248.5t-136.5 204t-204 136.5t-248.5 51 t-248.5 -51t-204.5 -136.5t-136.5 -204t-50.5 -248.5q0 -174 86 -321.5t233 -233t321 -85.5zM896 1280h256v-640h-256v640zM896 512h256v-256h-256v256z" />
<glyph unicode="&#xf027;" d="M448 1472q288 192 576 192q189 0 355.5 -68.5t285 -187t187 -285t68.5 -355.5q0 -69 -9.5 -130t-31.5 -121.5t-38.5 -96.5t-48.5 -100v192h-192q64 64 64 256q0 288 -176 464t-464 176q-60 0 -132.5 -21.5t-119.5 -42.5t-132 -64l128 -128h-384v384zM1152 640h-256v640 h256v-640zM448 1024q-64 -64 -64 -256q0 -288 176 -464t464 -176q60 0 132.5 21.5t119.5 42.5t132 64l-128 128h384v-384l-64 64q-288 -192 -576 -192q-189 0 -355.5 68.5t-285 187t-187 285t-68.5 355.5q0 69 9.5 130t31.5 121.5t38.5 96.5t48.5 100v-192h192zM896 512h256 v-256h-256v256z" />
<glyph unicode="&#xf028;" d="M1472 1216q-71 95 -186.5 143.5t-261.5 48.5q-130 0 -248.5 -51t-204 -136.5t-136.5 -204t-51 -248.5t51 -248.5t136.5 -204t204 -136.5t248.5 -51q66 0 127 12t109.5 33.5t88.5 44.5t73.5 52t53.5 48.5t39 41.5t21 24l384 384q0 -182 -71 -348t-191 -286t-286 -191 t-348 -71t-348 71t-286 191t-191 286t-71 348t71 348t191 286t286 191t348 71t345.5 -69t288.5 -194zM1536 1024l320 320l192 -192l-512 -512l-320 320l192 192zM1152 640h-256v640h256v-640zM896 512h256v-256h-256v256z" />
<glyph unicode="&#xf029;" d="M1731 445q-65 -167 -188 -296.5t-291.5 -203t-355.5 -73.5q-92 0 -180.5 18.5t-168 52t-152 82.5t-133 109.5t-109.5 133t-82.5 152t-52 168t-18.5 180.5q0 122 32 238t90 214.5t140.5 181t181 140.5t214.5 90t238 32q120 0 234.5 -31.5t212.5 -88t180 -136.5h-627 q-130 0 -248.5 -50.5t-204 -136.5t-136.5 -204.5t-51 -248.5q0 -104 32.5 -202t91.5 -176.5t138 -138t176.5 -91.5t201.5 -32q152 0 285.5 67t223 183.5t118.5 261.5zM1024 640h-256v640h256v-640zM1404 768q-5 0 -13.5 1.5t-29.5 9.5t-37.5 20t-30 37.5t-13.5 59.5v256 q0 5 1 13.5t7.5 31t18.5 39t38.5 30.5t62.5 14h512q5 0 13.5 -1t31 -7.5t39 -18.5t30.5 -38.5t14 -62.5v-256q0 -35 -13 -61t-32 -38t-38 -19.5t-32 -8.5l-13 -1v-256l-260 256h-256zM768 512h256v-256h-256v256z" />
<glyph unicode="&#xf02a;" d="M755 1105l-627 -77l461 -422l-119 -606l554 298l554 -298l-119 606l461 422l-627 77l-269 559z" />
<glyph unicode="&#xf02b;" d="M384 256q-63 0 -122.5 37t-96.5 96.5t-37 122.5v768q0 47 22.5 94t58.5 82.5t83 57.5t92 22h1280q62 0 122 -38t97 -97.5t37 -120.5v-768q0 -59 -37.5 -119t-98 -98.5t-120.5 -38.5h-640l-512 -512v512h-128z" />
<glyph unicode="&#xf02c;" d="M1024 1792q212 0 402 -79.5t326.5 -216t216 -326.5t79.5 -402t-79.5 -402t-216 -326.5t-326.5 -216t-402 -79.5t-402 79.5t-326.5 216t-216 326.5t-79.5 402t79.5 402t216 326.5t326.5 216t402 79.5zM1024 0q153 0 295 62t245.5 165.5t165.5 245.5t62 295t-62 295 t-165.5 245.5t-245.5 165.5t-295 62t-295 -62t-245.5 -165.5t-165.5 -245.5t-62 -295t62 -295t165.5 -245.5t245.5 -165.5t295 -62zM640 896q0 8 1 22t7.5 53.5t18.5 76t38.5 81t62.5 76t94 53.5t130 22q79 0 143.5 -11t107 -29t74 -43.5t48.5 -50.5t27.5 -55.5t13 -52.5 t2.5 -46q0 -52 -14 -92t-36.5 -64t-50 -43t-55 -33.5t-50 -29.5t-36.5 -37.5t-14 -52.5h-256q-7 39 4 70t33 50.5t50.5 34.5t58 26t54 21t40.5 23.5t16 30.5q0 67 -27 97.5t-101 30.5q-41 0 -69.5 -13t-39.5 -32t-16 -38t-4 -32l1 -13h-256zM896 512h256v-256h-256v256z" />
<glyph unicode="&#xf02d;" d="M2048 0h-2048l1024 1792zM256 128h1536l-768 1408zM1152 1024v-512h-256v512h256zM896 384h256v-128h-256v128z" />
<glyph unicode="&#xf02e;" d="M1920 128q26 -26 26 -64t-26 -64l-128 -128q-26 -48 -64 -48t-64 48l-498 498q-186 -114 -398 -114q-156 0 -298.5 61t-245 163.5t-163.5 245t-61 298.5t61 298.5t163.5 245t245 163.5t298.5 61t298.5 -61t245 -163.5t163.5 -245t61 -298.5q0 -210 -114 -398zM768 512 q104 0 199 40.5t163.5 109t109 163.5t40.5 199q0 83 -26 161.5t-73 141.5t-110 110t-141.5 73t-161.5 26q-104 0 -199 -40.5t-163.5 -109t-109 -163.5t-40.5 -199t40.5 -199t109 -163.5t163.5 -109t199 -40.5z" />
<glyph unicode="&#xf02f;" d="M1024 1664q182 0 348 -71t286 -191t191 -286t71 -348t-71 -348t-191 -286t-286 -191t-348 -71t-348 71t-286 191t-191 286t-71 348t71 348t191 286t286 191t348 71zM1734 691v161l-196 64l-46 112l89 187l-114 115l-184 -94l-112 47l-70 195h-161l-64 -196l-112 -46 l-187 89l-115 -114l94 -184l-46 -111l-196 -71v-161l196 -64l46 -112l-89 -187l114 -115l184 94l112 -47l70 -195h161l64 196l112 46l187 -89l115 114l-94 184l47 111zM1024 1025q106 0 181 -75t75 -182t-75 -182t-181 -75t-181.5 75t-75.5 181.5t75.5 182t181.5 75.5z" />
<glyph unicode="&#xf030;" d="M296 1726q25 -25 25 -60.5t-25 -60.5q-64 -66 -97 -150t-33 -174t33 -174.5t97 -150.5q25 -25 25 -60t-25 -60q-24 -26 -58 -26t-59 26q-59 60 -99.5 133.5t-60 152t-19.5 159.5q0 122 45.5 238t133.5 207q27 25 59 25q33 0 58 -25zM1865 1724q44 -45 78.5 -98t56.5 -110 t33.5 -116.5t11.5 -120.5q0 -123 -46 -239t-134 -206q-25 -25 -58 -25q-32 0 -59 25q-24 25 -24 60t24 61q65 65 98 149t33 174.5t-33 175t-98 150.5q-24 25 -24 60t24 60q25 25 59 25t58 -25zM612 1010q-24 -25 -57.5 -25t-57.5 25q-53 55 -81 125.5t-28 145.5 q0 74 28 144.5t81 125.5q24 25 58 25q33 0 57 -25q24 -24 24 -58.5t-24 -59.5q-61 -62 -61 -152q0 -89 61 -153q24 -24 24 -58.5t-24 -59.5zM1433 1550q23 25 57 25t58 -25q53 -55 81 -125.5t28 -145.5q0 -74 -28 -144.5t-81 -125.5q-24 -25 -58 -25q-33 0 -57 25 q-24 24 -24 58.5t24 59.5q61 62 61 152q0 89 -61 153q-24 24 -24 58.5t24 59.5zM1024 1072q-56 0 -103.5 28t-75.5 75.5t-28 104.5q0 86 60.5 147t146.5 61t147 -61t61 -147t-61 -147t-147 -61zM871 945q72 -39 154 -39q79 0 152 38l402 -1072h-191l-108 128h-511l-110 -128 h-191zM896 384h256l-128 460zM1280 128l-128 128h-256l-127 -128h511z" />
<glyph unicode="&#xf031;" d="M459 59l-66 -123l-281 -192l-46 64l178 274l127 68l552 571l-112 116l923 955l313 -324l-923 -954l-113 116zM736 692q-129 136 -163 170q-112 -40 -234 -11t-211 121q-143 148 -112 437l247 -256l242 67l65 251l-247 255q108 32 223 1.5t200 -117.5q85 -88 114 -208 t-3 -233q-23 21 3 -6l52 -51l-216 -230l112 -116zM1398 614l485 -503q23 -25 38 -57.5t19.5 -67t0 -68t-19.5 -62.5t-38 -48q-15 -23 -32 -37t-38.5 -19.5t-35.5 -6.5t-40 -1q-27 0 -41 1t-35.5 6.5t-38.5 19.5t-31 37l-492 511z" />
<glyph unicode="&#xf032;" d="M1280 768h128v-640h-640v-384l-768 384v1664h1408v-512h-128v384h-1024l512 -256v-1152h512v512zM1536 640v256h-512v256h512v256l512 -384z" />
<glyph unicode="&#xf033;" d="M1571 1617q119 59 237.5 102t178.5 57l59 14q-2 -8 -5.5 -24t-17.5 -66t-32 -102.5t-49.5 -130t-68.5 -152.5q-139 15 -212 90q-75 73 -90 212zM775 950q100 139 221 260q188 188 436 332q31 -151 124 -242q91 -93 242 -124q-142 -245 -332 -436q-124 -124 -260 -219 l-66 -358l-419 -419l-11 373l268 269q-86 -42 -167 -68.5t-120 -32.5l-38 -6l-118 118q1 14 5 40.5t29.5 110t66.5 169.5l-263 -263l-373 11l419 419z" />
<glyph unicode="&#xf034;" d="M512 1536q174 0 340 -46t306.5 -128.5t258.5 -200.5t200.5 -258.5t128.5 -306.5t46 -340q0 -5 -1 -13.5t-7.5 -31t-18.5 -39t-38.5 -30.5t-62.5 -14q-26 0 -47 7t-34 18.5t-23 25t-14 27t-6.5 25t-3.5 18.5v7q0 208 -81 397.5t-218.5 327t-327 218.5t-397.5 81 q-5 0 -13.5 1t-31 7.5t-39 18.5t-30.5 38.5t-14 62.5q0 26 7 47t18.5 34t25 23t27 14t25 6.5t18.5 3.5h7zM512 1024q156 0 298.5 -61t245 -163.5t163.5 -245t61 -298.5q0 -5 -1 -13.5t-7.5 -31t-18.5 -39t-38.5 -30.5t-62.5 -14q-26 0 -47 7t-34 18.5t-23 25t-14 27t-6.5 25 t-3.5 18.5v7q0 83 -26 161.5t-73 141.5t-110 110t-141.5 73t-161.5 26q-3 0 -7.5 0.5t-17.5 3.5t-25.5 7.5t-27 14t-25 22.5t-18 34t-7.5 46q0 35 13 61t32 38t38 19.5t32 8.5zM512 512q106 0 181 -75t75 -181t-75 -181t-181 -75t-181 75t-75 181t75 181t181 75z" />
<glyph unicode="&#xf035;" d="M1536 256h128v-256q0 -48 -40 -88t-88 -40h-1280q-48 0 -88 40t-40 88v1408q0 48 40 88t88 40h384q0 5 0.5 14.5t5.5 36t14 50.5t28 53.5t45 51t68.5 36t94.5 14.5t94.5 -14t68.5 -36.5t45 -50t28 -55t14 -50t6 -36.5v-14h384q48 0 88 -40t40 -88v-640h-128v384h-1280 v-1152h1280v256zM1024 1536q0 48 -40 88t-88 40t-88 -40t-40 -88l-384 -256h1024zM1024 896h-640v128h640v-128zM1920 640v-256h-640v-256l-512 384l512 384v-256h640zM640 640h-256v128h256v-128zM384 512h256v-128h-256v128zM384 256h384v-128h-384v128z" />
<glyph unicode="&#xf036;" d="M1280 1504q-24 -36 -58.5 -65t-73.5 -47t-79.5 -23t-76.5 7q0 74 24.5 141.5t71.5 114.5q47 70 130.5 115t157.5 45q0 -78 -25.5 -160.5t-70.5 -127.5zM1728 1184q-70 -39 -117 -99t-66 -126.5t-12.5 -138.5t36.5 -136t87.5 -118.5t135.5 -85.5q-11 -34 -26 -64 t-24.5 -45.5t-37 -55t-40.5 -59.5q-4 -7 -14 -21q-18 -28 -29 -43.5t-32 -44.5t-36.5 -45.5t-38.5 -38.5t-43 -34t-45 -20.5t-50 -8.5q-42 0 -81.5 10t-66.5 22t-72.5 22t-99.5 10t-99.5 -10t-72.5 -22t-66.5 -22t-81.5 -10q-160 0 -288 256q-110 157 -159.5 330t-32.5 322 t96 244q47 95 150.5 159.5t201.5 64.5q52 0 104 -14.5t83.5 -29.5t77.5 -23.5t87 3.5q38 0 93 16t123 32t136 16q76 0 163.5 -50t156.5 -142z" />
<glyph unicode="&#xf037;" d="M931 924q-75 47 -136.5 71t-147.5 30q-200 14 -376 -73l-39 21l178 593q7 5 20 13t57 27.5t91 33t119.5 21.5t145.5 1q91 -8 156 -37t147 -85l-178 -597zM2047 1395l-181 -607q-27 -14 -71.5 -30.5t-112.5 -34.5t-138.5 -24t-148.5 1q-47 6 -90.5 19t-86.5 35t-70 38 t-71 45l178 596l41 21q4 -3 13 -9q53 -35 82 -51.5t80 -35t108 -25.5q71 -7 134.5 -2t117 19t92.5 28.5t61 25.5l22 11zM182 754q7 5 20 13t57 27t91.5 32.5t120 21.5t145.5 2q63 -6 118 -24t92.5 -39t92.5 -59l-183 -609l-37 -19q-75 47 -137 71t-147 30q-198 13 -375 -73 l-39 21zM1069 642q38 -25 52.5 -34.5t47 -28t55 -27t57 -18t71.5 -13.5q193 -23 387 62l40 20l41 -21l-185 -646q-22 0 -99.5 -16t-182 -32t-190.5 -16q-90 0 -164.5 37t-153.5 104l183 608z" />
<glyph unicode="&#xf038;" d="M1536 1792q53 0 90.5 -37.5t37.5 -90.5v-1792q0 -49 -38 -88.5t-90 -39.5h-1024q-52 0 -90 39.5t-38 88.5v1792q0 53 37.5 90.5t90.5 37.5h1024zM960 1664q-26 0 -45 -19t-19 -45t19 -45t45 -19h128q26 0 45 19t19 45t-19 45t-45 19h-128zM1536 1408h-1024v-1280h1024 v1280zM1088 -128q17 0 25.5 1t19 6.5t15 19.5t4.5 37t-4.5 37t-15 19.5t-19 6.5t-25.5 1h-128q-17 0 -25.5 -1t-19 -6.5t-15 -19.5t-4.5 -37t4.5 -37t15 -19.5t19 -6.5t25.5 -1h128z" />
<glyph unicode="&#xf039;" d="M1434 1380q102 -104 102 -228h-1024q0 124 102 228l-93 178q-14 25 -7 53t30 42q23 15 48.5 7.5t38.5 -32.5l89 -168q137 76 304 76q165 0 304 -76l89 170q13 25 38.5 32.5t48.5 -6.5q23 -15 30 -43.5t-7 -53.5zM832 1280q26 0 45 19t19 45t-19 45t-45 19t-45 -19 t-19 -45t19 -45t45 -19zM1216 1280q26 0 45 19t19 45t-19 45t-45 19t-45 -19t-19 -45t19 -45t45 -19zM256 1075q0 32 19 54.5t45 22.5t45 -22.5t19 -54.5v-486q0 -32 -19 -54.5t-45 -22.5q-13 0 -25 6t-20.5 16.5t-13.5 24.5t-5 30v486zM1664 1075q0 32 19 54.5t45 22.5 t45 -22.5t19 -54.5v-486q0 -32 -19 -54.5t-45 -22.5t-45 22.5t-19 54.5v486zM512 1024h1024v-768q0 -53 -37.5 -90.5t-90.5 -37.5h-128v-192q-3 -7 -9 -17.5t-23 -28.5t-32.5 -18t-31.5 16t-24 32l-8 16v192h-256v-192q-3 -7 -9 -17.5t-23 -28.5t-32.5 -18t-31.5 16t-24 32 l-8 16v192h-128q-53 0 -90.5 37.5t-37.5 90.5v768z" />
<glyph unicode="&#xf03a;" d="M1792 1152l-1024 -1024l-512 512l256 256l256 -256l768 768z" />
<glyph unicode="&#xf03b;" d="M1920 1408v-1280h-1792v1280h1792zM384 1280l640 -528l640 528h-1280zM256 384l504 385l-504 383v-768zM1792 1152l-505 -384l505 -384v768zM1664 256l-508 412l-132 -100l-132 100l-508 -412h1280z" />
<glyph unicode="&#xf03c;" d="M1920 1152v-1280h-1792v1280l256 183v201h282l358 256l358 -256h282v-201zM512 918l512 -422l512 422v490h-1024v-490zM896 1152h-256v128h256v-128zM1280 896h-640v128h640v-128zM256 128l504 385l-504 383v-768zM1792 896l-505 -384l505 -384v768zM1664 0l-508 412 l-132 -100l-132 100l-508 -412h1280z" />
<glyph unicode="&#xf03d;" d="M1664 640h-384v-512h-512v512h-384l640 768z" />
<glyph unicode="&#xf03e;" d="M896 128v384h-512v512h512v384l768 -640z" />
<glyph unicode="&#xf03f;" d="M1664 896l-640 -768l-640 768h384v512h512v-512h384z" />
<glyph unicode="&#xf040;" d="M1664 1024v-512h-512v-384l-768 640l768 640v-384h512z" />
<glyph unicode="&#xf041;" d="M1271 1309q21 36 56 75q48 43 48 90q0 83 -92.5 136.5t-258.5 53.5q-167 0 -266 -54t-99 -136q0 -47 47 -89q36 -39 65 -88v-129q-29 -56 -70.5 -108t-69.5 -76l-27 -24h1q-101 -69 -101 -153q0 -56 37 -108.5t103 -94t165.5 -67t214.5 -25.5t214.5 25t165 67t102.5 94.5 t37 108.5q0 50 -36.5 95t-102.5 81q-82 80 -133 173v153zM1151 384q-60 -6 -123 -6q-73 0 -133 7l127 -641z" />
<glyph unicode="&#xf042;" d="M896 1024q-133 31 -174 35q-83 9 -157.5 57.5t-123 123t-57.5 156.5q-14 126 65 205t205 65q97 -10 180 -74.5t126 -156.5q43 92 126 156.5t180 74.5q126 14 205 -65t65 -205q-14 -125 -113 -224t-225 -113q-18 -2 -61.5 -10.5t-77.5 -16t-34 -8.5h-129zM718 1183 q44 -5 79.5 12.5t53.5 53t13 79.5q-8 68 -61.5 121.5t-121.5 61.5q-68 7 -110.5 -35.5t-35 -110.5t61 -121.5t121.5 -60.5zM1056 1328q-8 -68 35.5 -110.5t110.5 -34.5q68 7 121 60.5t61 121.5t-34.5 111t-110.5 35q-45 -5 -85 -31.5t-66.5 -66.5t-31.5 -85zM128 1024h768 v-384h-768v384zM1792 1024v-384h-768v384h768zM256 512h640v-640h-640v640zM1024 512h640v-640h-640v640z" />
<glyph unicode="&#xf043;" d="M2048 -128v-128h-2048v2048h256v-128h-128v-256h128v-128h-128v-256h128v-128h-128v-256h128v-128h-128v-256h128v-128h-128v-256h1920zM1408 0h-384v1280h384v-1280zM1920 0h-384v896h384v-896zM896 0h-384v640h384v-640z" />
<glyph unicode="&#xf044;" d="M1920 1344v-64q0 -94 -55.5 -183.5t-145 -145t-183.5 -55.5h-128l-512 -512v-128q0 -94 -55.5 -183.5t-145 -145t-183.5 -55.5h-64l192 192l-64 256l-256 64l-192 -192v64q0 94 55.5 183.5t145 145t183.5 55.5h128l512 512v128q0 94 55.5 183.5t145 145t183.5 55.5h64 l-192 -192l64 -256l256 -64z" />
<glyph unicode="&#xf045;" d="M1920 1408q48 0 88 -40t40 -88v-1024q0 -48 -40 -88t-88 -40h-1792q-48 0 -88 40t-40 88v1024q0 48 40 88t88 40h1792zM256 1280q-48 0 -88 -40t-40 -88h1792q0 48 -40 88t-88 40h-1536zM1792 256q48 0 88 40t40 88v512h-1792v-512q0 -48 40 -88t88 -40h1536zM768 640 h-512v128h512v-128zM1280 640h-384v128h384v-128zM512 384h-256v128h256v-128zM640 512h256v-128h-256v128z" />
<glyph unicode="&#xf046;" d="M1024 1664q189 0 355.5 -68.5t285 -187t187 -285t68.5 -355.5t-68.5 -355.5t-187 -285t-285 -187t-355.5 -68.5t-355.5 68.5t-285 187t-187 285t-68.5 355.5t68.5 355.5t187 285t285 187t355.5 68.5zM1024 128q288 0 464 176t176 464q0 120 -47 235t-128.5 205 t-203.5 145t-261 55t-261 -55t-203.5 -145t-128.5 -205t-47 -235q0 -288 176 -464t464 -176zM896 1280l128 128l128 -128v-384h256l128 -128l-128 -128h-512v640z" />
<glyph unicode="&#xf047;" d="M2048 1024l-1024 -1024l-1024 1024l512 512h1024zM1024 256l768 768l-384 384h-768l-384 -384zM1664 1024l-640 -640v896h384z" />
<glyph unicode="&#xf048;" d="M738 51q-132 45 -244.5 127.5t-193.5 191.5t-126.5 245t-45.5 281q0 122 32 238t90 214.5t140.5 181t181 140.5t214.5 90t238 32t238 -32t214.5 -90t181 -140.5t140.5 -181t90 -214.5t32 -238q0 -145 -45.5 -281t-126.5 -245t-193.5 -191.5t-244.5 -127.5l24 143 q205 91 331.5 280.5t126.5 421.5q0 156 -61 298.5t-163.5 245t-245 163.5t-298.5 61q-104 0 -204 -27.5t-184 -77t-155 -120.5t-120.5 -155t-77 -184t-27.5 -204q0 -232 126.5 -421.5t331.5 -280.5zM1391 539q69 71 107 163t38 194q0 104 -40.5 199t-109 163.5t-163.5 109 t-199 40.5t-199 -40.5t-163.5 -109t-109 -163.5t-40.5 -199q0 -102 38 -194t107 -163l31 -185q-92 56 -160 138.5t-106 186.5t-38 217q0 130 51 248.5t136.5 204.5t204 136.5t248.5 50.5t248.5 -50.5t204.5 -136.5t136.5 -204.5t50.5 -248.5q0 -169 -82.5 -312.5 t-221.5 -229.5zM1280 1024q0 -106 -75 -181t-181 -75t-181 75t-75 181t75 181t181 75t181 -75t75 -181zM1152 768q40 0 67.5 -13t39 -32t17 -38t5.5 -32l-1 -13v-256q0 -3 0.5 -7.5t-1 -17.5t-5 -25.5t-13 -27t-22.5 -25t-35.5 -18t-51.5 -7.5v-512h-256v512q-29 0 -51.5 7 t-35.5 18.5t-22.5 25t-13 27t-5 25t-0.5 18.5v7v256q0 3 -0.5 7.5t1 17.5t5 25.5t13 27t22.5 25t35.5 18t51.5 7.5h256z" />
<glyph unicode="&#xf049;" d="M2048 1024v-256l-128 -128l-256 256l-256 -256l-256 256l-256 -256h-128v-128h-128q0 -5 -1 -13.5t-7.5 -31t-18.5 -39t-38.5 -30.5t-62.5 -14h-256q-9 -1 -23 -0.5t-48 16.5t-57 48q-15 20 -33.5 47.5t-34.5 51.5t-30 45.5t-22 34.5l-8 13v384q88 152 128 212 q18 27 50 38t55 8l23 -2h256q37 0 64 -13t38.5 -32t18 -38t7.5 -32v-13h128v-128h1280zM512 1152h-256l256 -128v128zM512 832l-192 192l-192 -192l192 -192zM512 640l-256 -128h256v128z" />
<glyph unicode="&#xf04a;" d="M1792 128q0 -5 -0.5 -13.5t-7.5 -31t-19.5 -39t-40 -30.5t-64.5 -14h-252v128h124q3 0 7.5 0.5t18.5 3.5t26.5 7.5t27.5 14.5t26 23t18.5 33.5t7.5 45.5v128h-256v128h256v1152h-1024v-1152h256v-128h-512v-128q0 -5 0.5 -13.5t6.5 -31t17.5 -39t37.5 -30.5t62 -14h132 v128h256v-256l-256 -256v256h-256q-34 0 -59.5 12t-38 27.5t-20 35.5t-9 32t-1.5 21v1536q0 27 7 48t18.5 34t25 22.5t27 14t25 7t18.5 2.5h7h1280h4.5t11 -1t17 -3t19.5 -6.5t21 -11t20 -16t17.5 -22t12 -30t5.5 -38.5v-1536zM1536 640h-256v-896h-256v896h-256l288 384 h-288l384 512l384 -512h-288z" />
<glyph unicode="&#xf04b;" d="M512 512h1152v-384q0 -5 -1 -13.5t-7.5 -31t-18.5 -39t-38.5 -30.5t-62.5 -14h-640v-256l-192 192l-192 -192v256h-256q-26 0 -47 7t-34 18.5t-23 25t-14 27t-6.5 25t-3.5 18.5v7v1536q0 26 7 47t18.5 34t25 23t27 14t25 6.5t18.5 3.5h7h1280q5 0 13.5 -1t31 -7.5 t39 -18.5t30.5 -38.5t14 -62.5v-128h-128v128h-1024v-1152zM768 1408h-128v128h128v-128zM1280 1280v-128h192l-256 -320l-256 320h192v256h384v-128h-256zM768 1152h-128v128h128v-128zM1984 896h-192v-256h-384v128h256v128h-192l256 320zM768 896h-128v128h128v-128z M640 768h128v-128h-128v128zM896 128h512q5 0 13.5 1t31 7.5t39 18.5t30.5 38.5t14 62.5v128h-1280v-128q0 -5 1 -13.5t7.5 -31t18.5 -39t38.5 -30.5t62.5 -14h128v128h384v-128z" />
<glyph unicode="&#xf04c;" d="M384 512h1152v-384q0 -5 -1 -13.5t-7.5 -31t-18.5 -39t-38.5 -30.5t-62.5 -14h-640v-256l-192 192l-192 -192v256h-256q-26 0 -47 7t-34 18.5t-23 25t-14 27t-6.5 25t-3.5 18.5v7v1536q0 26 7 47t18.5 34t25 23t27 14t25 6.5t18.5 3.5h7h768v-128h-512v-1152zM2048 1664 v-768l-128 -128h-384v-128h-128v128h-128l-128 128v768l128 128h640zM1920 1664h-512v-512h512v512zM640 1408h-128v128h128v-128zM768 1536l256 -320l-256 -320v640zM640 1152h-128v128h128v-128zM640 896h-128v128h128v-128zM1408 1024h-128v-128h128v128zM1920 1024h-384 v-128h384v128zM512 768h128v-128h-128v128zM768 128h512q5 0 13.5 1t31 7.5t39 18.5t30.5 38.5t14 62.5v128h-1280v-128q0 -5 1 -13.5t7.5 -31t18.5 -39t38.5 -30.5t62.5 -14h128v128h384v-128z" />
<glyph unicode="&#xf04d;" d="M1920 0v1408l-384 384h-1152v-128h1088l320 -320v-1344h128zM1280 1536h-1152v-1792h1536v1408zM1216 1408l320 -320v-1216h-1280v1536h960zM1024 768h256v256h-256v256h-256v-256h-256v-256h256v-256h256v256zM512 0h768v256h-768v-256z" />
<glyph unicode="&#xf04e;" d="M1024 1536q123 0 237 -26.5t202.5 -70.5t167.5 -102t136.5 -121.5t106 -127t80 -121.5t53.5 -102t31 -71l10 -26q-5 -13 -15.5 -36t-51 -89.5t-90.5 -127t-136.5 -134.5t-186 -127t-242.5 -89.5t-302 -36.5q-125 0 -240 22t-204 59t-168 85t-136.5 101t-105 106 t-78.5 101t-52.5 85t-30.5 59l-9 22q3 10 9.5 27t31 69.5t54 103.5t79.5 120t106.5 128.5t136.5 120t168 103t202 69.5t237 27zM1024 256q103 0 195 17.5t160.5 47t128 68t100.5 81t74 85t53 81t33.5 68t18.5 46.5l5 18q-2 7 -5.5 18t-18.5 46t-34 69t-53 80t-74.5 85.5 t-100.5 80t-128.5 69t-160 46.5t-193.5 18t-193.5 -17.5t-160 -47t-128 -68t-100.5 -81t-74.5 -85t-54 -81t-34 -68t-18.5 -46.5l-5 -18q2 -7 5.5 -18t18 -46t33.5 -69t53 -80t74.5 -85.5t100.5 -80t128 -69t160 -46.5t195 -18zM1024 1152q168 0 276 -108t108 -276 q0 -111 -49 -198.5t-136.5 -136.5t-198.5 -49q-105 0 -193 48.5t-139.5 137t-51.5 198.5q0 21 1 34t8.5 38.5t22.5 55.5q0 -34 15.5 -60t40.5 -40t51.5 -21t52.5 -7q79 0 135.5 56t56.5 136q0 26 -7 52.5t-21 51.5t-40 40.5t-60 15.5q30 15 55.5 22.5t38.5 8.5t34 1z" />
<glyph unicode="&#xf04f;" d="M892 640q-5 0 -13.5 1.5t-30 9.5t-37.5 20t-29.5 37.5t-13.5 59.5v640q0 5 1 13.5t7.5 31t18.5 39t38.5 30.5t62.5 14h896q5 0 13.5 -1t31 -7.5t39 -18.5t30.5 -38.5t14 -62.5v-640q0 -35 -13 -61t-32 -38t-38 -19.5t-32 -8.5l-13 -1h-128v-384l-388 384h-384zM640 768 q0 -5 0.5 -14.5t5.5 -36t14 -50.5t28 -53.5t45 -51t68.5 -36t94.5 -14.5h384v-128q0 -24 -7 -44.5t-18 -33.5t-24 -23t-26 -14.5t-24 -8t-18 -3.5l-7 -1h-384l-388 -384v384h-128q-5 0 -13.5 1t-31 8.5t-39 19.5t-30.5 38t-14 61v640q0 5 1 13.5t7.5 31t18.5 39t38.5 30.5 t62.5 14h384v-384z" />
<glyph unicode="&#xf050;" d="M1024 -128q182 0 348 71t286 191t191 286t71 348t-71 348t-191 286t-286 191t-348 71t-348 -71t-286 -191t-191 -286t-71 -348t71 -348t191 -286t286 -191t348 -71zM1024 1408q130 0 248.5 -51t204 -136.5t136.5 -204t51 -248.5q0 -174 -86 -321.5t-233 -233t-321 -85.5 t-321 85.5t-233 233t-86 321.5q0 130 50.5 248.5t136.5 204t204.5 136.5t248.5 51zM1402 555l-213 213l213 213l-165 165l-213 -213l-213 213l-165 -165l213 -213l-213 -213l165 -165l213 213l213 -213z" />
<glyph unicode="&#xf051;" d="M640 1088l-384 320l384 316v-188h384q5 1 13.5 2t31 -2.5t39 -14.5t30.5 -40t14 -73v-768h-256v640h-256v-192zM1920 1024v-1280h-1792v1280h640v-128h-384l640 -528l640 528h-384v128h640zM256 0l504 385l-504 383v-768zM1792 768l-505 -384l505 -384v768zM1664 -128 l-508 412l-132 -100l-132 100l-508 -412h1280z" />
<glyph unicode="&#xf052;" d="M1024 248q-104 0 -199 40.5t-163.5 109t-109 163.5t-40.5 199t40.5 199t109 163.5t163.5 109t199 40.5t199 -40.5t163.5 -109t109 -163.5t40.5 -199t-40.5 -199t-109 -163.5t-163.5 -109t-199 -40.5z" />
<glyph unicode="&#xf053;" d="M1536 1280v-1024h-1024v1024h1024z" />
<glyph unicode="&#xf054;" d="M1792 768l128 -128l-768 -768l-1024 1024v512l256 256h512l128 -128q-1 -4 -3 -10.5t-7 -28t-7.5 -41.5t-4.5 -50t2 -54l-184 184h-372l-192 -192v-384l896 -896l564 576l-128 128h204zM1920 1408v-256h-256v-256h-256v256h-256v256h256v256h256v-256h256zM576 1408 q79 0 135.5 -56.5t56.5 -135.5t-56.5 -135.5t-135.5 -56.5t-135.5 56.5t-56.5 135.5t56.5 135.5t135.5 56.5zM576 1152q26 0 45 19t19 45t-19 45t-45 19t-45 -19t-19 -45t19 -45t45 -19zM1152 256l-512 512l384 384l512 -512zM832 768l320 -316l196 188l-324 324z" />
<glyph unicode="&#xf055;" d="M1797 1408l205 -205l-133 -133l-205 205l-205 -205l-133 133l205 205l-205 205l133 133l205 -205l205 205l133 -133zM1664 896l256 -256l-768 -768l-1024 1024v512l256 256h512l256 -256v-204l-332 332h-372l-192 -192v-384l896 -896l564 576l-256 256h204zM576 1408 q79 0 135.5 -56.5t56.5 -135.5t-56.5 -135.5t-135.5 -56.5t-135.5 56t-56.5 136q0 39 15 74.5t41 61.5t61.5 41t74.5 15zM576 1152q24 0 44 20t20 44t-20 44t-44 20t-44 -20t-20 -44t20 -44t44 -20zM1152 256l-512 512l384 384l512 -512zM832 768l320 -316l196 188l-324 324 z" />
<glyph unicode="&#xf056;" d="M1792 1536v-256h-256v-256h-256v256h-256v256h256v256h256v-256h256zM768 576q128 64 256 64q52 0 94.5 14t68.5 36.5t45 50t28 55t14 50t5 36.5l1 14h256q0 -11 -1.5 -29.5t-11.5 -71.5t-28 -101.5t-56.5 -107.5t-90.5 -101.5t-136 -71.5t-188 -29q-144 0 -192 -96 q26 -26 45 -69.5t19 -90.5q0 -68 -37 -128t-96 -94t-123 -34t-123 34t-96 94t-37 128q0 69 39 134t89 90v832q-50 25 -89 90t-39 134q0 63 37 122.5t96.5 96.5t122.5 37t122.5 -37t96.5 -96.5t37 -122.5q0 -69 -39 -134t-89 -90v-608zM640 1536q-48 0 -88 -40t-40 -88 t40 -88t88 -40t88 40t40 88t-40 88t-88 40zM640 0q48 0 88 40t40 88t-40 88t-88 40t-88 -40t-40 -88t40 -88t88 -40z" />
<glyph unicode="&#xf057;" d="M1541 1408l219 -192l-147 -146l-205 205l-205 -205l-147 146l219 192l-219 192l147 146l205 -205l205 205l147 -146zM1408 1024l128 -128q0 -7 -0.5 -18t-5.5 -46t-13.5 -69t-27 -80t-43 -85.5t-64.5 -80t-88.5 -69t-118 -46.5t-151.5 -18q-144 0 -192 -96 q17 -17 31 -40.5t23.5 -55.5t9.5 -64q0 -68 -37 -128t-96 -94t-123 -34t-123 34t-96 94t-37 128q0 46 18.5 93t48 81t61.5 50v832q-50 25 -89 90t-39 134q0 63 37 122.5t96.5 96.5t122.5 37t122.5 -37t96.5 -96.5t37 -122.5q0 -69 -39 -134t-89 -90v-608q128 64 256 64 q52 0 94.5 14t68.5 36.5t45 50t28 55t14 50t6 36.5v14zM640 1536q-48 0 -88 -40t-40 -88t40 -88t88 -40t88 40t40 88t-40 88t-88 40zM640 0q48 0 88 40t40 88t-40 88t-88 40t-88 -40t-40 -88t40 -88t88 -40z" />
<glyph unicode="&#xf058;" d="M1920 1280l-256 -256l-384 384l256 256zM1152 1280l384 -384l-1024 -1025h-384v385zM512 128h-128v128h-128v-256h256v128z" />
<glyph unicode="&#xf059;" d="M1024 1664q118 0 233 -33t213 -92t182 -143t143 -182t92 -213t33 -233t-33 -233t-92 -213t-143 -182t-182 -143t-213 -92t-233 -33t-233 33t-213 92t-182 143t-143 182t-92 213t-33 233q0 101 24.5 200.5t69.5 187.5t107.5 166t140.5 140.5t166 107.5t187.5 69.5 t200.5 24.5zM1024 128q130 0 248.5 51t204 136.5t136.5 204t51 248.5t-51 248.5t-136.5 204t-204 136.5t-248.5 51t-248.5 -51t-204 -136.5t-136.5 -204t-51 -248.5q0 -173 86 -320.5t233.5 -233.5t320.5 -86zM1024 1024q-48 0 -88 40t-40 88t40 88t88 40t88 -40t40 -88 t-40 -88t-88 -40zM768 768q0 5 1 13.5t7.5 31t18.5 39t38.5 30.5t62.5 14h128q5 0 13.5 -0.5t31 -7t39 -18.5t30.5 -38.5t14 -63.5v-384h128q0 -5 -1 -13.5t-7.5 -31t-18.5 -39t-38.5 -30.5t-62.5 -14h-128q-5 0 -13.5 1t-31 7.5t-39 18.5t-30.5 38.5t-14 62.5v384h-128z " />
<glyph unicode="&#xf05a;" d="M1536 768l-768 -768v1536z" />
<glyph unicode="&#xf05b;" d="M1792 1024l-768 -768l-768 768h1536z" />
<glyph unicode="&#xf05c;" d="M1376 640q32 32 32 128q0 106 -39 201.5t-104.5 163t-153.5 107.5t-183 40h-448q-95 0 -183 -40t-153.5 -107.5t-104.5 -163t-39 -201.5t39 -201.5t104.5 -163t153.5 -107.5t183 -40h160q-36 36 -62.5 75.5t-38.5 70.5t-18.5 56.5t-7.5 39.5l-1 14q-63 0 -122.5 37 t-96.5 96.5t-37 122.5t37 122.5t96.5 96.5t122.5 37h384q63 0 122.5 -37t96.5 -96.5t37 -122.5q0 -96 -32 -128h256zM1568 256q95 0 183 40t153.5 107.5t104.5 163t39 201.5q0 71 -18 138t-49.5 123t-76.5 103t-97.5 79.5t-114 50.5t-124.5 18h-160q36 -36 62.5 -75.5 t38.5 -70.5t18.5 -56.5t7.5 -39.5l1 -14q63 0 122.5 -37t96.5 -96.5t37 -122.5t-37 -122.5t-96.5 -96.5t-122.5 -37h-384q-63 0 -122.5 37t-96.5 96.5t-37 122.5q0 96 32 128h-256q-32 -32 -32 -128q0 -85 25 -163.5t70.5 -141t105 -109.5t131.5 -72.5t148 -25.5h448z" />
<glyph unicode="&#xf05d;" d="M1664 896v-256h-512v-512h-256v512h-512v256h512v512h256v-512h512z" />
<glyph unicode="&#xf05e;" d="M1664 1408v-256h-1280v256h1280zM1664 896v-256h-1280v256h1280zM1664 384v-256h-1280v256h1280z" />
<glyph unicode="&#xf05f;" d="M896 1216l-427 -448l427 -448l-160 -192l-608 640l608 640zM1920 768l-608 -640l-160 192l427 448l-427 448l160 192z" />
<glyph unicode="&#xf060;" d="M1024 1792q130 0 248.5 -51t204 -136.5t136.5 -204t51 -248.5q0 -99 -66 -280t-160 -369.5t-188 -362.5t-160 -285l-66 -111q-13 22 -36 61t-89.5 155.5t-127 228t-134.5 260t-127 272t-89.5 241.5t-36.5 190q0 130 51 248.5t136.5 204t204 136.5t248.5 51zM1024 896 q63 0 122.5 37t96.5 96.5t37 122.5t-37 122.5t-96.5 96.5t-122.5 37t-122.5 -37t-96.5 -96.5t-37 -122.5t37 -122.5t96.5 -96.5t122.5 -37z" />
<glyph unicode="&#xf061;" d="M128 1664h256v-256h-256v256zM1920 1664v-256h-1280v256h1280zM128 1152h256v-256h-256v256zM640 1152h1280v-256h-1280v256zM128 640h256v-256h-256v256zM640 640h1280v-256h-1280v256zM128 128h256v-256h-256v256zM640 128h1280v-256h-1280v256z" />
<glyph unicode="&#xf062;" d="M512 1664h128v-768h-128v512h-256v128h256v128zM1920 1664v-256h-1024v256h1024zM896 1152h1024v-256h-1024v256zM128 640h512v-332l-384 -308h384v-128h-512v208l384 308v124h-256v-128h-128v256zM896 640h1024v-256h-1024v256zM896 128h1024v-256h-1024v256z" />
<glyph unicode="&#xf063;" d="M384 768q0 216 148 364t364 148v-256q-96 0 -176 -80t-80 -176h256v-512h-512v512zM1664 1024q-38 0 -76 -14t-70 -39.5t-57 -57t-39 -69.5t-14 -76h256v-512h-512v512q0 106 40 201t108 163t163 108t201 40v-256z" />
<glyph unicode="&#xf064;" d="M1920 1408v-1280h-1024v1280h1024zM512 1280h256v-128h-128v-768h128v-128h-256v1024zM128 1152h256v-128h-128v-512h128v-128h-256v768zM1664 1152h-512v-768h512v768z" />
<glyph unicode="&#xf065;" d="M1792 1536v-1536h-1536v1536h1536zM1664 1408h-1280v-1280z" />
<glyph unicode="&#xf066;" d="M256 1024h-128v512h512v-128h-384v-384zM1920 1536v-512h-128v384h-384v128h512zM384 1280h1280v-1024h-1280v1024zM640 512h768v512h-768v-512zM256 128h384v-128h-512v512h128v-384zM1792 512h128v-512h-512v128h384v384z" />
<glyph unicode="&#xf067;" d="M512 1280h-384v128h256v256h128v-384zM1920 1408v-128h-384v384h128v-256h256zM512 1152h1024v-768h-1024v768zM768 640h512v256h-512v-256zM128 256h384v-384h-128v256h-256v128zM1536 256h384v-128h-256v-256h-128v384z" />
<glyph unicode="&#xf068;" d="M512 1536h-128v256h128v-256zM1536 1536h-128v256h128v-256zM1920 1664v-1792h-1920v1792h256v-256h384v256h640v-256h384v256h256zM1792 1280h-1664v-1280h1664v1280zM640 896h-128v256h128v-256zM896 896h-128v256h128v-256zM1152 896h-128v256h128v-256zM1408 896 h-128v256h128v-256zM1664 896h-128v256h128v-256zM384 512h-128v256h128v-256zM640 512h-128v256h128v-256zM896 512h-128v256h128v-256zM1152 512h-128v256h128v-256zM1408 512h-128v256h128v-256zM1664 512h-128v256h128v-256zM384 128h-128v256h128v-256zM640 128h-128 v256h128v-256zM896 128h-128v256h128v-256zM1152 128h-128v256h128v-256zM1408 128h-128v256h128v-256z" />
<glyph unicode="&#xf069;" d="M1920 1280q5 0 13.5 -1t31 -7.5t39 -18.5t30.5 -38.5t14 -62.5v-768q0 -26 -7 -47t-18.5 -34t-25 -23t-27 -14t-25 -6.5t-18.5 -3.5h-7h-384v-256q0 -69 -95.5 -128t-257.5 -93.5t-351 -34.5t-351 34.5t-257.5 93.5t-95.5 128v1536q0 63 94.5 122.5t259 96.5t350.5 37 t350.5 -37t259 -96.5t94.5 -122.5v-256h384zM832 1408q187 0 317.5 39t130.5 89t-130.5 89t-317.5 39t-317.5 -39t-130.5 -89t130.5 -89t317.5 -39zM512 1152h-128v-1024h128v1024zM1280 1152h-128v-1024h128v1024zM896 1024h-128v-1024h128v1024zM1792 1024h-256v-512h256 v512z" />
<glyph unicode="&#xf06a;" d="M1664 896q48 0 88 -40t40 -88v-896q0 -52 -39.5 -90t-88.5 -38h-1280q-24 0 -47 10t-41 27t-29 41t-11 50v896q0 48 40 88t88 40h128v384q0 106 40 201t108 163t163 108t201 40q216 0 364 -148t148 -364v-384h128zM1280 896v384q0 63 -37 122.5t-96.5 96.5t-122.5 37 t-122.5 -37t-96.5 -96.5t-37 -122.5v-384h512zM1280 768h-896v-896h896v128h-768v128h768v128h-768v128h768v128h-768v128h768v128z" />
<glyph unicode="&#xf06b;" d="M1792 1664q26 0 47 -7t34 -18.5t23 -25t14 -27t6.5 -25t3.5 -18.5v-7v-1536q0 -26 -7 -47t-18.5 -34t-25 -23t-27 -14t-25 -6.5t-18.5 -3.5h-7h-1536q-26 0 -47 7t-34 18.5t-23 25t-14 27t-6.5 25t-3.5 18.5v7v1536q0 26 7 47t18.5 34t25 23t27 14t25 6.5t18.5 3.5h7 h1536zM1664 1408h-1280v-1280h1280v1280zM896 640h-256v256h256v256h256v-256h256v-256h-256v-256h-256v256z" />
<glyph unicode="&#xf06c;" d="M1792 1664q26 0 47 -7t34 -18.5t23 -25t14 -27t6.5 -25t3.5 -18.5v-7v-1536q0 -26 -7 -47t-18.5 -34t-25 -23t-27 -14t-25 -6.5t-18.5 -3.5h-7h-1536q-26 0 -47 7t-34 18.5t-23 25t-14 27t-6.5 25t-3.5 18.5v7v1536q0 26 7 47t18.5 34t25 23t27 14t25 6.5t18.5 3.5h7 h1536zM1664 1408h-1280v-1280h1280v1280zM1408 640h-768v256h768v-256z" />
<glyph unicode="&#xf06d;" d="M1792 1664q26 0 47 -7t34 -18.5t23 -25t14 -27t6.5 -25t3.5 -18.5v-7v-1536q0 -26 -7 -47t-18.5 -34t-25 -23t-27 -14t-25 -6.5t-18.5 -3.5h-7h-1536q-26 0 -47 7t-34 18.5t-23 25t-14 27t-6.5 25t-3.5 18.5v7v1536q0 26 7 47t18.5 34t25 23t27 14t25 6.5t18.5 3.5h7 h1536zM1664 1408h-1280v-1280h1280v1280zM1024 512q-96 0 -176 80t-80 176t80 176t176 80t176 -80t80 -176t-80 -176t-176 -80z" />
<glyph unicode="&#xf06e;" d="M1792 1664q26 0 47 -7t34 -18.5t23 -25t14 -27t6.5 -25t3.5 -18.5v-7v-1536q0 -26 -7 -47t-18.5 -34t-25 -23t-27 -14t-25 -6.5t-18.5 -3.5h-7h-1536q-26 0 -47 7t-34 18.5t-23 25t-14 27t-6.5 25t-3.5 18.5v7v1536q0 26 7 47t18.5 34t25 23t27 14t25 6.5t18.5 3.5h7 h1536zM1664 1408h-1280v-1280h1280v1280zM1024 640h-384v256h384v256l512 -384l-512 -384v256z" />
<glyph unicode="&#xf06f;" d="M1664 1664q96 0 176 -80t80 -176v-768q0 -52 -14 -94.5t-36.5 -68.5t-50 -45t-55 -28t-50 -14t-36.5 -6h-14h-128v-512l-512 512h-640q-96 0 -176 80t-80 176v768q0 96 80 176t176 80h1280zM1408 1152h-256v256h-256v-256h-256v-256h256v-256h256v256h256v256z" />
<glyph unicode="&#xf070;" d="M512 640h-128v768h128v-384h256v384h128v-768h-128v256h-256v-256zM1536 1024v-128h-256v-256h-128v768h384v-128h-256v-256h256zM1536 1024v256h128v-256h-128zM1536 640v256h128v-256h-128zM384 384h1280v-256h-1280v256z" />
<glyph unicode="&#xf071;" d="M896 384v256h-256v256h256v256l512 -384z" />
<glyph unicode="&#xf072;" d="M1024 640l-768 768h1536zM1792 384v-256h-1536v256h1536z" />
<glyph unicode="&#xf073;" d="M1792 1408v-256h-1536v256h1536zM1792 128h-1536l768 768z" />
<glyph unicode="&#xf074;" d="M0 1408h384v-1280h-384v1280zM2048 1024v-512h-640v-384l-768 640l768 640v-384h640z" />
<glyph unicode="&#xf075;" d="M1152 1536h-256v256h256v-256zM1920 1152l-256 -256h-1408v512h1408zM1152 1280h-256v-256h256v256zM896 768h256v-1024h-256v1024z" />
<glyph unicode="&#xf076;" d="M704 640q-48 -72 -48 -160t48 -160l192 -192h-640v1408h1152v-640l-224 -224l-64 64q-48 48 -148 48t-172 -48zM512 1408h-128v-128h128v128zM640 1280h640v128h-640v-128zM512 1152h-128v-128h128v128zM640 1024h640v128h-640v-128zM512 896h-128v-128h128v128zM640 768 h128v128h-128v-128zM1792 768v-64l-576 -576h-64l-96 96l-192 224q-11 0 -17.5 5t-6.5 11t6.5 11t17.5 5l96 128h32l192 -192l448 448h32z" />
<glyph unicode="&#xf077;" d="M384 512h-128q-48 0 -94 40t-82 107.5t-58 163.5t-22 201t22 201t58 163.5t82 107.5t94 40q236 -1 428 13t314 36.5t216 49.5t153 55t106 50.5t93.5 37t97.5 14.5q109 0 198 -105t137.5 -280.5t48.5 -382.5t-48.5 -382.5t-137.5 -280.5t-198 -105q-53 0 -102 13.5 t-101.5 38t-113 52t-162.5 61t-225 59.5l192 -480l-128 -256l-384 128zM1664 512q48 0 94 40t82 107.5t58 163.5t22 201t-22 201t-58 163.5t-82 107.5t-94 40t-94 -40t-82 -107.5t-58 -163.5t-22 -201t22 -201t58 -163.5t82 -107.5t94 -40zM640 1024q253 -25 400.5 -53.5 t239.5 -74.5v128q0 192 64 384q-7 -2 -59 -15t-77 -19t-82 -19t-103.5 -21.5t-109.5 -19.5t-131.5 -19t-141.5 -15v-256zM512 1280h-256v-256h256v256z" />
<glyph unicode="&#xf078;" d="M1536 768l-640 -640l-256 256l384 384l-384 384l256 256z" />
<glyph unicode="&#xf079;" d="M1792 1664v-1664h-1536v1664h1536zM1664 1536h-1280v-1408h1280v1408zM512 1280q0 5 1 13.5t7.5 31t18.5 39t38.5 30.5t62.5 14h768q35 0 61 -13t38 -32t19.5 -38t8.5 -32l1 -13h-1024zM1152 1152h256v-384l-256 -256v-256h-256v256l-256 256v384h256v-260l128 -124 l128 128v256z" />
<glyph unicode="&#xf07a;" d="M1792 1664v-1664h-1536v1664h1536zM1664 1536h-1280v-1408h1280v1408zM512 1280q0 5 1 13.5t7.5 31t18.5 39t38.5 30.5t62.5 14h768q35 0 61 -13t38 -32t19.5 -38t8.5 -32l1 -13h-1024zM1152 896h256v-256h-256v-256h-256v256h-256v256h256v256h256v-256z" />
<glyph unicode="&#xf07b;" d="M1408 1536v-1536l-384 256l-384 -256v1536h768z" />
<glyph unicode="&#xf07c;" d="M768 896h-256v512h256v-512zM1536 1280h-256v128h256v-128zM1664 1152v-256h-512v256h512zM384 768h512v-256h-512v256zM1280 768h256v-640h-256v640zM512 384h256v-256h-256v256z" />
<glyph unicode="&#xf07d;" d="M1728 1056q21 -64 32 -99t21.5 -89.5t10.5 -99.5q0 -153 -62 -295t-165.5 -245.5t-245.5 -165.5t-295 -62t-295 62t-245.5 165.5t-165.5 245.5t-62 295t62 295t165.5 245.5t245.5 165.5t295 62q28 0 59 -4t55.5 -9t59.5 -15t55.5 -16.5t58.5 -19.5l-256 -192h-32 q-106 0 -201 -40t-163 -108t-108 -163t-40 -201t40 -201t108 -163t163 -108t201 -40t201 40t163 108t108 163t40 201v32zM1280 800v-32q0 -63 -37 -122.5t-96.5 -96.5t-122.5 -37t-122.5 37t-96.5 96.5t-37 122.5t37 122.5t96.5 96.5t122.5 37h32l480 384h128v-128z" />
<glyph unicode="&#xf07e;" d="M544 1504q213 160 480 160q118 0 233 -33t213 -92t182 -143t143 -182t92 -213t33 -233t-33 -233t-92 -213t-143 -182t-182 -143t-213 -92t-233 -33t-233 33t-213 92t-182 143t-143 182t-92 213t-33 233q0 192 128 448v-192h182q-54 -157 -54 -256q0 -130 51 -248.5 t136.5 -204t204 -136.5t248.5 -51t248.5 51t204 136.5t136.5 204t51 248.5t-51 248.5t-136.5 204t-204 136.5t-248.5 51q-73 0 -159 -22.5t-145 -57.5l176 -176h-512v512zM896 256v384l-128 128l256 256l128 -128h256l128 -128l-128 -128h-256v-384l-128 -128z" />
<glyph unicode="&#xf07f;" d="M1536 640h256v-640h-1536v1536h512v-256h-256v-1024h1024v384zM1792 1536v-768l-256 256l-384 -384l-256 256l384 384l-256 256h768z" />
<glyph unicode="&#xf080;" d="M1024 1408h128v-1280h-128l-512 384h-256v512h256zM1792 768l190 -193l-129 -129l-189 194l-197 -194l-121 129l190 193l-190 193l125 125l193 -190l189 190l129 -125z" />
<glyph unicode="&#xf081;" d="M1312 736l416 -416l-256 -256l-416 416l-416 -416l-256 256l416 416l-416 416l256 256l416 -416l416 416l256 -256z" />
<glyph unicode="&#xf082;" d="M2048 1536v-256h-256v-256h-256v256h-256v256h256v256h256v-256h256zM1792 896l-320 -288l96 -608l-544 288l-544 -288l96 608l-448 416l640 96l256 544l128 -256v-256h256v-256h384z" />
<glyph unicode="&#xf083;" d="M1797 1408l205 -205l-133 -133l-205 205l-205 -205l-133 133l205 205l-205 205l133 133l205 -205l205 205l133 -133zM1792 896l-320 -288l96 -608l-544 288l-544 -288l96 608l-448 416l640 96l256 544l128 -256v-128l128 -256z" />
<glyph unicode="&#xf084;" d="M1024 1408q130 0 248.5 -51t204 -136.5t136.5 -204t51 -248.5t-51 -248.5t-136.5 -204t-204 -136.5t-248.5 -51t-248.5 51t-204 136.5t-136.5 204t-51 248.5t51 248.5t136.5 204t204 136.5t248.5 51zM1184 1120q-44 22 -74 27t-86 5q-104 0 -192.5 -51.5t-140 -140 t-51.5 -192.5q0 -39 1 -57.5t8.5 -45t22.5 -57.5zM864 416q31 -15 57.5 -22.5t45 -8.5t57.5 -1q83 0 154.5 28.5t122 79t79 122t28.5 154.5v30t-1 25.5t-3 25t-5.5 23.5t-9 27t-13.5 29z" />
<glyph unicode="&#xf085;" d="M1280 704l203 -192h437v256h-320l-320 320l-320 -384l-128 864l-384 -800h-320v-256h448l128 224l128 -672z" />
<glyph unicode="&#xf086;" d="M1824 -128v1408l-384 384h-1152v-1792h1536zM1696 0h-1280v1536h926l354 -352v-1184zM1184 640h256v256h-256v256h-256v-256h-256v-256h256v-256h256v256z" />
<glyph unicode="&#xf087;" d="M256 736q0 156 55 309.5t169 266.5q107 95 236 149t259.5 63.5t260.5 -28t236 -120.5l160 160l96 -544l-544 96l160 128q-169 119 -364 100t-340 -164q-98 -98 -141 -214t-19 -234zM1792 800q0 -156 -55.5 -309.5t-168.5 -266.5q-143 -127 -319.5 -180.5t-353.5 -23.5 t-319 140l-160 -160l-96 544l544 -96l-128 -128q71 -59 159 -84t177 -16t177 51t159 113q98 98 141 214t19 234z" />
<glyph unicode="&#xf200;" d="M640 0h-256q-34 0 -59.5 11.5t-38 27t-20 36t-9 32t-1.5 20.5v1537q0 47 40 87.5t88 40.5h1280q48 0 88 -40t40 -88v-1536q0 -5 -0.5 -13.5t-6.5 -31t-18 -39t-38.5 -30.5t-64.5 -14h-640v-256l-192 192l-192 -192v256zM384 510h128v1154h-128v-1154zM896 766h512v383v3 q0 106 -75 181t-181 75q-69 0 -128 -34.5t-93.5 -93.5t-34.5 -128v-3v-383zM1024 1149v3q0 53 37.5 90.5t90.5 37.5t90.5 -37.5t37.5 -90.5v-3h-256zM1024 127l576 1q3 0 7 0.5t15 4t19.5 9.5t15.5 19t7 31v191q-212 0 -687.5 0.5t-592.5 0.5v-192q0 -3 0.5 -7t4 -15 t9.5 -19.5t19 -15.5t31 -7q34 0 101.5 -0.5t90.5 -0.5v128h384v-128z" />
<glyph unicode="&#xf201;" d="M1664 1792q5 0 13.5 -1t31 -7.5t39 -18.5t30.5 -38.5t14 -62.5v-1536q0 -5 -1 -13.5t-7.5 -31t-18.5 -39t-38.5 -30.5t-62.5 -14h-640v-256l-192 192l-192 -192v256h-256q-26 0 -47 7t-34 18.5t-23 25t-14 27t-6.5 25t-3.5 18.5v7v1536q0 26 7 47t18.5 34t25 23t27 14 t25 6.5t18.5 3.5h7h1280zM1664 1664h-1024v-1152h1024v1152zM896 1408h-128v128h128v-128zM896 1152h-128v128h128v-128zM896 896h-128v128h128v-128zM896 640h-128v128h128v-128zM1024 128h576q3 0 7 0.5t15 4t19.5 9.5t15.5 19t7 31v192h-1280v-192q0 -3 0.5 -7t4 -15 t9.5 -19.5t19 -15.5t31 -7h192v128h384v-128z" />
<glyph unicode="&#xf202;" d="M1664 1792q48 0 88 -40t40 -88v-1536q0 -5 -0.5 -13.5t-6.5 -31t-18 -39t-38.5 -30.5t-64.5 -14h-640v-256l-192 192l-192 -192v256h-256q-34 0 -59.5 11.5t-38 27t-20 36t-9 32t-1.5 20.5v1537q0 47 40 87.5t88 40.5h1280zM1664 1664h-1024v-1154h1024v1154zM832 1298 q-29 17 -46.5 46t-17.5 64q0 53 37.5 90.5t90.5 37.5t90.5 -37.5t37.5 -90.5q0 -35 -17.5 -64t-46.5 -46v-22l192 -188l192 192v18q-29 17 -46.5 46t-17.5 64q0 53 37.5 90.5t90.5 37.5t90.5 -37.5t37.5 -90.5q0 -35 -17.5 -64t-46.5 -46v-82l-256 -256v-82q29 -17 46.5 -46 t17.5 -64q0 -53 -37.5 -90.5t-90.5 -37.5t-90.5 37.5t-37.5 90.5q0 35 17.5 64t46.5 46v82l-256 256v82zM1024 127l576 1q3 0 7 0.5t15 4t19.5 9.5t15.5 19t7 31v191q-212 0 -687.5 0.5t-592.5 0.5v-192q0 -3 0.5 -7t4 -15t9.5 -19.5t19 -15.5t31 -7h64.5t72.5 -0.5t55 -0.5 v128h384v-128z" />
<glyph unicode="&#xf203;" d="M1664 896h128v-768q0 -5 -0.5 -13.5t-6.5 -31t-18 -39t-38.5 -30.5t-64.5 -14h-640v-256l-192 192l-192 -192v256h-256q-34 0 -59.5 12t-38 27.5t-20 35.5t-9 32t-1.5 21v1536q0 48 40.5 88t87.5 40h768v-128h-512v-1154h1024v386zM1920 1536v-256h-256v-256h-256v256 h-256v256h256v256h256v-256h256zM896 1408h-128v128h128v-128zM896 1152h-128v128h128v-128zM896 896h-128v128h128v-128zM768 768h128v-128h-128v128zM1600 128q3 0 7 0.5t15 4t19.5 10t15.5 19.5t7 30v192h-1280v-192q0 -3 0.5 -7t4 -15t9.5 -19.5t19 -15.5t31 -7l192 -1 v128h384v-127h576z" />
<glyph unicode="&#xf204;" d="M1152 1728h-896l128 64h768v-64zM640 1600h-384v64h384v-64zM640 1472h-384v64h384v-64zM896 1472h-128v64h128v-64zM1920 1536v-256h-768v256h768zM640 1344h-384v64h384v-64zM640 1216h-384v64h384v-64zM896 1216h-128v64h128v-64zM640 1088h-384v64h384v-64zM640 960 h-384v64h384v-64zM896 960h-128v64h128v-64zM640 832h-384v64h384v-64zM1664 896h128v-64h-128v64zM640 704h-384v64h384v-64zM768 768h128v-64h-128v64zM1664 768h128v-64h-128v64zM640 576h-384v64h384v-64zM1664 640h128v-64h-128v64zM256 512h1536v-64h-1536v64z M384 320h-128v64h128v-64zM1664 384h128v-64h-128v64zM384 192h-128v64h128v-64zM1664 256h128v-64h-128v64zM1024 255v-63h-384v63h384zM256 128h1536l-64 -64h-1408zM640 0h384v-64h-384v64zM640 -128h128l-64 -64h-64v64zM896 -128h128v-64h-64z" />
<glyph unicode="&#xf205;" d="M1664 1790q3 1 7.5 1.5t17 0.5t24.5 -2.5t26.5 -11t25.5 -22t18.5 -38t8.5 -56.5v-1534q0 -5 -0.5 -13.5t-6.5 -31t-18 -39t-38.5 -30.5t-64.5 -14h-256v128h192h3.5t9 1.5t12.5 4t13.5 7.5t13 11.5t9 16.5t3.5 23v191h-256v128h256v1151h-1024v-1151h256v-128h-512v-191 v-7t3.5 -15t9.5 -19.5t19.5 -15.5t31.5 -7h192v127h256v-255l-256 -256v256h-256q-34 0 -59.5 11.5t-38 27t-20 36t-9 32t-1.5 20.5v1v1534q0 27 7 48t18.5 34t25 22.5t27 14t25 7t18.5 2.5h7h1280zM896 1406h-128v128h128v-128zM768 1278h128v-127h-128v127zM1536 639h-256 v-895h-256v895h-256l384 512z" />
<glyph unicode="&#xf206;" d="M1408 894h128v-766q0 -5 -0.5 -13.5t-6.5 -31t-18 -39t-38.5 -30.5t-64.5 -14h-640v-256l-192 192l-192 -192v256h-256q-34 0 -59.5 12t-38 27.5t-20 35.5t-9 32t-1.5 21v1536q0 27 7 48t18.5 34t25 22.5t27 14t25 7t18.5 2.5h7h1280q3 0 7.5 -0.5t17.5 -3t25 -6.5 t26.5 -14t25 -23t18 -34t8.5 -47v-256h-128v256h-1024v-1154h1024v384zM640 1408h-128v128h128v-128zM1664 768v256h-768v256h768v256l384 -384zM640 1152h-128v128h128v-128zM640 896h-128v128h128v-128zM512 766l128 2v-128h-128v126zM768 127l576 1q7 0 17.5 2t28.5 18 t18 44v192h-1280v-192q0 -3 0.5 -7t4 -15t9.5 -19.5t19 -15.5t31 -7q33 0 100 -0.5t92 -0.5v128h384v-128z" />
<glyph unicode="&#xf207;" d="M0 1408q13 3 37.5 7t110.5 15t182 19.5t250 15.5t316 7q36 0 62.5 -13t38.5 -32t18.5 -38t7.5 -32l1 -13q0 5 1 13.5t8.5 31t19.5 39t38 30.5t61 14q162 0 313.5 -6.5t253 -16t179.5 -19t114 -15.5l36 -7v-1280q-12 3 -35.5 7t-107 15t-179 19.5t-251 15.5t-323.5 7 q0 -29 -16 -45t-32 -17l-16 -2h-128q-3 0 -7 0.5t-15 4t-19.5 9.5t-15.5 19t-7 31q-285 0 -509 -16t-305 -32l-82 -16v1280zM960 1280q0 3 -1 7t-7.5 15t-18.5 19.5t-38.5 15.5t-62.5 7q-171 0 -347 -16t-266 -32l-91 -16v-960q13 3 37 7t100 15t154 19.5t191.5 15.5 t221.5 7q36 0 62.5 -6.5t38.5 -16t18.5 -19t7.5 -15.5l1 -7v960zM1920 1280q-13 3 -37 7t-100 15t-154 19.5t-191.5 15.5t-221.5 7q-36 0 -62.5 -6.5t-38.5 -16t-18.5 -19t-7.5 -15.5l-1 -7v-960q0 3 1 7t7.5 15t18.5 19.5t38.5 15.5t62.5 7q125 0 244 -6.5t198.5 -16 t141.5 -19t91 -15.5l29 -7v960zM256 1152q0 3 0.5 7t4 15t9.5 19.5t19 15.5t31 7h448q18 0 31 -6.5t19 -16t9.5 -19t4.5 -15.5v-7h-576zM1216 1152q0 3 0.5 7t4 15t9.5 19.5t19 15.5t31 7h448q18 0 31 -6.5t19 -16t9.5 -19t4.5 -15.5v-7h-576zM256 1024q0 3 0.5 7t4 15 t9.5 19.5t19 15.5t31 7h448q18 0 31 -6.5t19 -16t9.5 -19t4.5 -15.5v-7h-576zM1216 1024q0 3 0.5 7t4 15t9.5 19.5t19 15.5t31 7h448q18 0 31 -6.5t19 -16t9.5 -19t4.5 -15.5v-7h-576zM256 896q0 3 0.5 7t4 15t9.5 19.5t19 15.5t31 7h448q18 0 31 -6.5t19 -16t9.5 -19 t4.5 -15.5v-7h-576zM1216 896q0 3 0.5 7t4 15t9.5 19.5t19 15.5t31 7h448q18 0 31 -6.5t19 -16t9.5 -19t4.5 -15.5v-7h-576zM256 768q0 3 0.5 7t4 15t9.5 19.5t19 15.5t31 7h448q18 0 31 -6.5t19 -16t9.5 -19t4.5 -15.5v-7h-576zM1216 768q0 3 0.5 7t4 15t9.5 19.5t19 15.5 t31 7h448q18 0 31 -6.5t19 -16t9.5 -19t4.5 -15.5v-7h-576zM256 640q0 3 0.5 7t4 15t9.5 19.5t19 15.5t31 7h448q18 0 31 -6.5t19 -16t9.5 -19t4.5 -15.5v-7h-576zM1216 640q0 3 0.5 7t4 15t9.5 19.5t19 15.5t31 7h448q18 0 31 -6.5t19 -16t9.5 -19t4.5 -15.5v-7h-576z M256 512q0 3 0.5 7t4 15t9.5 19.5t19 15.5t31 7h448q18 0 31 -6.5t19 -16t9.5 -19t4.5 -15.5v-7h-576zM1216 512q0 3 0.5 7t4 15t9.5 19.5t19 15.5t31 7h448q18 0 31 -6.5t19 -16t9.5 -19t4.5 -15.5v-7h-576z" />
<glyph unicode="&#xf208;" d="M1829 1236q156 -180 156 -429q0 -139 -24.5 -252t-68 -196t-110.5 -145.5t-145.5 -103t-179 -65.5t-205 -35t-229.5 -10q-97 0 -180 6t-165.5 20t-151 37t-132.5 57t-113.5 79.5t-91 106t-68.5 134.5t-41.5 166.5t-14.5 200.5q0 250 156 429q-9 23 -16 55t-13 88t5 130 t40 151q5 2 15.5 3.5t47.5 -2.5t80.5 -18t116 -52t152.5 -97q137 41 376 41t375 -41q80 59 152 97.5t117.5 51.5t79.5 18t49 2l15 -3q29 -77 39.5 -151t4.5 -130.5t-12.5 -87.5t-15.5 -55zM1024 128q75 0 127 1t118 6t111 13.5t97 24t86 37t68 54t53.5 73.5t31.5 96t12 122 q0 145 -120 263q-36 36 -84 54.5t-108.5 21t-115.5 -1t-136 -9.5t-140 -6t-140 6t-136 9.5t-115.5 1t-108 -21t-83.5 -54.5q-120 -118 -120 -263q0 -67 12 -122t31.5 -96t53.5 -73.5t68 -54t86 -37t97 -24t110.5 -13.5t117.5 -6t127 -1zM672 738q40 0 68 -46.5t28 -113.5 q0 -43 -13 -80t-35 -58.5t-48 -21.5q-19 0 -37 12.5t-31 34t-20.5 51.5t-7.5 62q0 67 28 113.5t68 46.5zM1374 738q40 0 68 -46.5t28 -113.5q0 -66 -28 -113t-68 -47q-19 0 -37 12.5t-31 34t-20.5 51.5t-7.5 62q0 67 28 113.5t68 46.5zM1023 384q-26 0 -45 9.5t-19 22.5 q0 7 5 13t14 10t20.5 6.5t24.5 2.5t25 -2.5t20.5 -6.5t13.5 -10t5 -13q0 -13 -19 -22.5t-45 -9.5zM1118 308q1 5 5 8.5t8 4.5t9 -1q7 -2 10 -9.5t1 -15.5q-9 -31 -28.5 -54.5t-45 -36t-53.5 -12.5q-43 0 -78 28.5t-49 74.5q-2 8 1 15.5t10 9.5q7 3 13.5 -0.5t8.5 -11.5 q7 -22 21 -39.5t33 -27t40 -9.5q31 0 57 21t37 55z" />
<glyph unicode="&#xf209;" d="M1023 1792q139 0 272 -37t245.5 -103t207 -160.5t160 -206.5t102.5 -245t37 -272t-37 -272t-102.5 -245.5t-160 -207t-207 -160t-245.5 -102.5t-272 -37t-271.5 37t-245 102.5t-207 160t-160 207t-102.5 245.5t-37 272t37 272t102.5 245t160 206.5t207 160.5t245 103 t271.5 37zM1280 -64q131 43 243 124.5t192.5 189t126 241.5t45.5 277q0 117 -31 229t-87 207t-135.5 174.5t-174.5 135.5t-207 87t-229 31q-101 0 -197.5 -22.5t-181.5 -65.5t-160 -102t-134 -134t-102 -160t-65.5 -182t-22.5 -198q0 -115 29.5 -224.5t83.5 -203.5t129 -173 t168.5 -138t198.5 -93v163q-54 -12 -96.5 -11.5t-74.5 10t-55 24t-38.5 31t-24.5 31t-12 23.5l-4 10q-8 21 -18 39.5t-19 31.5t-18.5 23.5t-17 17t-13 11t-9.5 5.5l-3 2q-23 15 -30.5 26.5t-2.5 16.5t13.5 8t17.5 3h8q18 -1 35.5 -7t30.5 -14t25 -17.5t20 -18.5t13.5 -17 t8.5 -12l3 -5q24 -41 56 -64.5t61 -29.5t61 -2.5t51.5 10.5t36.5 15q5 22 14.5 38t24 25t21 11.5t18.5 6.5q-53 6 -97.5 14.5t-94.5 26t-89 42t-75.5 63t-60.5 87t-38.5 116.5t-14.5 150q0 157 103 270q-6 16 -10.5 35t-9 54.5t3 82.5t26.5 95l28 2q100 -4 249 -105 q118 32 252 34q133 -2 252 -34q54 36 102 60t78.5 32.5t53 11.5t32.5 1l10 -2q19 -48 26.5 -95t3.5 -82t-9 -55.5t-11 -34.5q104 -112 104 -270q0 -82 -14.5 -150t-38.5 -116.5t-60.5 -87t-75.5 -62.5t-89 -41.5t-94.5 -26t-97.5 -14.5q84 -57 84 -182v-203z" />
<glyph unicode="&#xf20a;" d="M766 -192q-162 24 -305 110.5t-243.5 214.5t-159 294t-58.5 342q0 119 27 234t77.5 216t120.5 190t158.5 158.5t189.5 120t216 77.5t235 27q139 0 271.5 -37t245 -102.5t207 -160t160 -207t102.5 -245t37 -271.5q0 -176 -58.5 -342t-159 -294t-243.5 -214.5t-305 -110.5 v321q-1 127 -85 183q54 6 98.5 14.5t94.5 26t89 42t75.5 63t61 87.5t39 117.5t14.5 150.5q0 158 -104 272q6 14 11 34t9 55t-3 82.5t-26 95.5q-3 1 -10 2t-32.5 -1t-54.5 -10.5t-78.5 -32.5t-103.5 -61q-118 32 -253 34q-135 -2 -253 -34q-54 37 -103 61t-79.5 32t-53.5 11 t-33 1l-10 -2q-16 -39 -23 -78.5t-7.5 -68t4 -56t8.5 -40.5t8 -24q-104 -115 -104 -272q0 -65 9 -120.5t24.5 -99.5t39 -80.5t50 -63.5t60 -48.5t66.5 -36t73 -25.5t75.5 -17t76.5 -10q-62 -41 -79 -122q-17 -9 -37 -15.5t-52 -10.5t-61 2t-61.5 29.5t-56.5 64.5 q-2 3 -5.5 9t-16.5 21t-28 27t-38.5 22.5t-48.5 12.5h-5t-10.5 -1t-13 -2.5t-9 -5.5t-2.5 -9.5t9 -15t25 -20.5q2 -1 6.5 -3.5t16.5 -13t24 -23.5t26.5 -37.5t25.5 -53.5q1 -2 2.5 -5.5t7 -14.5t13.5 -21.5t21.5 -24t29.5 -24t40 -19.5t51 -14t63.5 -4t77.5 9v-241z" />
<glyph unicode="&#xf20b;" d="M768 391q-162 25 -267 142q-60 -21 -117 -21q-104 0 -192.5 51.5t-140 140t-51.5 192.5t51.5 192.5t140 140t192.5 51.5q8 0 51 -5q75 174 234.5 281.5t354.5 107.5t354.5 -107.5t234.5 -281.5q43 5 51 5q104 0 192.5 -51.5t140 -140t51.5 -192.5q0 -78 -30.5 -149 t-82 -122.5t-122.5 -82t-149 -30.5q-1 0 -3 0.5t-3 0.5q-62 -61 -143 -95t-171 -34q-22 0 -64 6v130q34 -8 64 -8q53 0 102.5 17t89.5 47.5t69 71.5q30 -8 59 -8q106 0 181 75t75 181t-75 181t-181 75q-76 0 -139 -41q-12 72 -43 137t-78 117t-105.5 90.5t-129 59.5 t-145.5 21q-124 0 -232.5 -56t-179 -152.5t-91.5 -215.5q-64 40 -137 40q-106 0 -181 -75t-75 -181t75 -181t181 -75q87 0 159 57q32 -68 91 -114t134 -62v-130zM1152 256h256l-384 -384l-384 384h256v640h256v-640z" />
<glyph unicode="&#xf20c;" d="M768 391q-162 25 -267 142q-60 -21 -117 -21q-104 0 -192.5 51.5t-140 140t-51.5 192.5t51.5 192.5t140 140t192.5 51.5q8 0 51 -5q75 174 234.5 281.5t354.5 107.5t354.5 -107.5t234.5 -281.5q43 5 51 5q104 0 192.5 -51.5t140 -140t51.5 -192.5q0 -78 -30.5 -149 t-82 -122.5t-122.5 -82t-149 -30.5q-1 0 -3 0.5t-3 0.5q-62 -61 -143 -95t-171 -34q-22 0 -64 6v130q34 -8 64 -8q53 0 102.5 17t89.5 47.5t69 71.5q30 -8 59 -8q106 0 181 75t75 181t-75 181t-181 75q-76 0 -139 -41q-12 72 -43 137t-78 117t-105.5 90.5t-129 59.5 t-145.5 21q-124 0 -232.5 -56t-179 -152.5t-91.5 -215.5q-64 40 -137 40q-106 0 -181 -75t-75 -181t75 -181t181 -75q87 0 159 57q32 -68 91 -114t134 -62v-130zM1408 768h-256v-640h-256v640h-256l384 384z" />
<glyph unicode="&#xf20d;" d="M2048 1408v-1280h-2048v1280h2048zM1920 1280h-1792v-1024h1792v1024zM384 1024h-128v128h128v-128zM576 1024h-128v128h128v-128zM768 1024h-128v128h128v-128zM960 1024h-128v128h128v-128zM1152 1024h-128v128h128v-128zM1344 1024h-128v128h128v-128zM1536 1024h-128 v128h128v-128zM1792 1024h-192v128h192v-128zM448 768h-192v128h192v-128zM512 896h128v-128h-128v128zM704 896h128v-128h-128v128zM896 896h128v-128h-128v128zM1088 896h128v-128h-128v128zM1280 896h128v-128h-128v128zM1472 896h128v-128h-128v128zM1664 896h128v-320 h-256v128h128v192zM320 576h-64v128h64v-128zM512 576h-128v128h128v-128zM704 576h-128v128h128v-128zM896 704v-128h-128v128h128zM1088 704v-128h-128v128h128zM1280 704v-128h-128v128h128zM1344 704h128v-128h-128v128zM384 384h-128v128h128v-128zM448 512h128v-128 h-128v128zM640 512h832v-128h-832v128zM1536 512h256v-128h-256v128z" />
<glyph unicode="&#xf20e;" d="M1792 1664v-1664h-1536v1664h1536zM1664 1536h-1280v-1408h1280v1408zM512 1280q0 5 1 13.5t8.5 31t19.5 39t38 30.5t61 14h768q26 0 47 -7t34 -18.5t23 -25t14 -27t6.5 -25t3.5 -18.5v-7h-1024zM864 356l-352 348l352 352l96 -96l-256 -256l256 -256zM1182 1056 l354 -352l-352 -352l-96 96l256 256l-256 256z" />
<glyph unicode="&#xf20f;" d="M1792 1664v-1664h-1536v1664h1536zM1664 1536h-1280v-1408h1280v1408zM512 1280q0 5 1 13.5t7.5 31t18.5 39t38.5 30.5t62.5 14h768q35 0 61 -13t38 -32t19.5 -38t8.5 -32l1 -13h-1024zM768 768q0 106 75 181t181 75t181 -75t75 -181v-384h-512v384zM1152 768 q0 53 -37.5 90.5t-90.5 37.5t-90.5 -37.5t-37.5 -90.5h256z" />
<glyph unicode="&#xf210;" d="M1792 1280v-1408h-1536v1792h1152zM1664 1184l-354 352h-926v-1536h1280v1184zM960 960l-256 -256l256 -256l-96 -96l-352 352l350 354zM1184 1056l352 -352l-356 -350l-92 94l256 256l-256 256z" />
<glyph unicode="&#xf211;" d="M1792 1280v-1408h-1536v1792h1152zM1664 1216l-320 320h-960v-1536h1280v1216zM768 1344h-256v64h256v-64zM896 1216h-384v64h384v-64zM704 1024h-192v64h192v-64zM768 1088h256v-64h-256v64zM1088 1088h384v-64h-384v64zM832 896h-320v64h320v-64zM896 960h384v-64h-384 v64zM1344 960h192v-64h-192v64zM640 768h-128v64h128v-64zM832 768h-128v64h128v-64zM1152 832v-64h-256v64h256zM1216 832h192v-64h-192v64zM768 640h-256v64h256v-64zM1216 640h-384v64h384v-64zM1280 704h192v-64h-192v64zM704 512h-192v64h192v-64zM768 576h256v-64 h-256v64zM1088 576h448v-64h-448v64zM832 384h-320v64h320v-64zM1280 384h-384v64h384v-64zM1408 448v-64h-64v64h64zM640 256h-128v64h128v-64zM704 256v64h128v-64h-128zM896 320h256v-64h-256v64zM1472 256h-256v64h256v-64zM512 192h256v-64h-256v64zM832 192h384v-64 h-384v64zM1280 192h256v-64h-256v64z" />
<glyph unicode="&#xf212;" d="M1792 1280v-1408h-1536v1792h1152zM1664 1216l-320 320h-960v-1536h1280v1216zM576 1216h768l128 -128v-768h-192v192q0 53 -37.5 90.5t-90.5 37.5h-256q-53 0 -90.5 -37.5t-37.5 -90.5v-192h-192v896zM1024 1088q-79 0 -135.5 -56.5t-56.5 -135.5q0 -80 56 -136t136 -56 q79 0 135.5 56.5t56.5 135.5t-56.5 135.5t-135.5 56.5z" />
<glyph unicode="&#xf213;" d="M1792 1280v-1408h-1536v1792h1152zM1664 1216l-320 320h-448v-64h-128v64h-384v-1536h1280v1216zM640 1472h128v-64h-128v64zM768 1344v64h128v-64h-128zM640 1344h128v-64h-128v64zM768 1216v64h128v-64h-128zM640 1216h128v-64h-128v64zM768 1088v64h128v-64h-128z M640 1088h128v-64h-128v64zM768 960v64h128v-64h-128zM640 960h128v-64h-128v64zM768 832v64h128v-64h-128zM640 832h128v-64h-128v64zM768 704v64h128v-64h-128zM640 704h128v-64h-128v64zM768 576v64h128v-64h-128zM640 576h128v-64h128q26 0 47 -7t34 -18.5t23 -25 t14 -27t6.5 -25t3.5 -18.5v-7v-256h-512v256q0 5 1 13.5t7.5 31t18.5 39t38.5 30.5t62.5 14v64zM640 384v-128h256v128h-256z" />
<glyph unicode="&#xf214;" d="M1792 1280v-1408h-1536v1792h1152zM1664 1216l-320 320h-960v-1536h1280v1216zM1032 975q13 -38 27.5 -71.5t30 -58.5t29 -45.5t29.5 -36t27 -26.5t26 -20t21.5 -12.5t18.5 -9.5t13 -6q12 1 54 7t63 6q62 0 108.5 -10.5t74.5 -29t40 -44.5q7 -15 8.5 -36t-5 -45 t-20.5 -43.5t-42 -31.5t-66 -9q-47 2 -119 32.5t-132 73.5q-107 -11 -231.5 -43t-169.5 -50q-51 -87 -95 -145t-77 -84t-55.5 -35.5t-44.5 -9.5q-52 0 -78 27.5t-20 67.5q6 38 37 79t73 73.5t80 56.5t67 37q25 45 98.5 200.5t96.5 232.5q-36 94 -45 182t8 139q8 32 40 49.5 t69.5 13.5t60.5 -30q6 -6 13 -18.5t16.5 -43t12 -67t-7.5 -94.5t-34 -122zM965 1293q-11 1 -23.5 -7t-22 -28t-11.5 -49t12.5 -76.5t45.5 -104.5q28 45 40.5 107t2 109t-43.5 49zM792 518q185 82 395 113q-12 6 -33.5 22.5t-54.5 48t-68.5 87t-61.5 122.5 q-21 -78 -81.5 -205t-95.5 -188zM1537 553q5 14 -5 29t-63 32.5t-177 -0.5q18 -9 44 -23t45 -24t41.5 -21t39 -16t32 -6.5t26.5 6t17 23.5zM518 254q79 1 212 226q-14 -6 -36 -18t-48 -30t-51 -40t-44.5 -44.5t-29 -47.5t-3.5 -46z" />
<glyph unicode="&#xf215;" d="M1920 640l-768 -768l-1024 1024v512l256 256h512zM1152 64l564 576l-896 896h-372l-192 -192v-384zM768 1216q0 -79 -56.5 -135.5t-135.5 -56.5q-80 0 -136 56t-56 136q0 79 56.5 135.5t135.5 56.5t135.5 -56.5t56.5 -135.5zM576 1152q26 0 45 19t19 45t-19 45t-45 19 t-45 -19t-19 -45t19 -45t45 -19zM1536 640l-384 -384l-512 512l384 384zM1152 452l196 188l-324 324l-192 -196z" />
<glyph unicode="&#xf216;" d="M128 1408q0 5 1 13.5t7.5 31t18.5 39t38.5 30.5t62.5 14h640q5 0 13.5 -1t31 -7.5t39 -18.5t30.5 -38.5t14 -62.5q0 -5 1 -13.5t7.5 -31t18.5 -39t38.5 -30.5t62.5 -14h640q5 0 13.5 -1t31 -7.5t39 -18.5t30.5 -38.5t14 -62.5v-1024h-1792v1280zM896 1408h-512h-128v-128 h640v128z" />
<glyph unicode="&#xf217;" d="M128 1664q0 5 1 13.5t7.5 31t18.5 39t38.5 30.5t62.5 14h640q5 0 13.5 -1t31 -7.5t39 -18.5t30.5 -38.5t14 -62.5q0 -5 1 -13.5t7.5 -31t18.5 -39t38.5 -30.5t62.5 -14h640q5 0 13.5 -1t31 -7.5t39 -18.5t30.5 -38.5t14 -62.5v-384h-256q0 5 -1 13.5t-7.5 31t-18.5 39 t-38.5 30.5t-62.5 14h-640q-5 0 -13.5 -1t-31 -7.5t-39 -18.5t-30.5 -38.5t-14 -62.5v-640h-640v1280zM896 1536q0 5 -1 13.5t-7.5 31t-18.5 39t-38.5 30.5t-62.5 14h-384q-26 0 -47 -7t-34 -18.5t-23 -25t-14 -27t-6.5 -25t-3.5 -18.5v-7h640zM1792 896q5 0 13.5 -1 t31 -7.5t39 -18.5t30.5 -38.5t14 -62.5v-384h-1024v512q0 5 1 13.5t7.5 31t18.5 39t38.5 30.5t62.5 14h384q26 0 47 -7t34 -18.5t23 -25t14 -27t6.5 -25t3.5 -18.5v-7h256zM1408 768v128h-128h-256v-128h384z" />
<glyph unicode="&#xf218;" d="M1024 1088q-133 0 -226.5 93.5t-93.5 226.5t93.5 226.5t226.5 93.5t226.5 -93.5t93.5 -226.5q0 -65 -25.5 -124.5t-68 -102t-102 -68t-124.5 -25.5zM1024 1599q-79 0 -135 -56t-56 -135.5t55.5 -135t135 -55.5t135.5 56t56 135t-56 135t-135 56zM1280 1024q106 0 181 -75 t75 -181v-256q0 -106 -75 -181t-181 -75v-512h-512v512q-106 0 -181 75t-75 181v256q0 106 75 181t181 75h512zM1408 768q0 53 -37.5 90.5t-90.5 37.5h-512q-53 0 -90.5 -37.5t-37.5 -90.5v-256q0 -53 37.5 -90.5t90.5 -37.5v256h128v-768h256v768h128v-256q53 0 90.5 37.5 t37.5 90.5v256z" />
<glyph unicode="&#xf219;" d="M749 1311q-19 -46 -54 -82t-82.5 -56.5t-100.5 -20.5q-106 0 -181 75t-75 181t75 181t181 75q63 0 116.5 -28t89.5 -77q29 102 113.5 167.5t192.5 65.5t192.5 -65.5t113.5 -167.5q36 49 89.5 77t116.5 28q106 0 181 -75t75 -181q0 -69 -34.5 -128t-93.5 -93.5t-128 -34.5 q-79 0 -143.5 44t-93.5 115q-42 -73 -115 -116t-160 -43t-160 43t-115 116zM1024.5 1663q-79.5 0 -135.5 -56t-56 -135.5t56 -135t135.5 -55.5t135 56t55.5 135t-55.5 135t-135 56zM512 1280q53 0 90.5 37.5t37.5 90.5t-37.5 90.5t-90.5 37.5q-26 0 -50 -10t-41 -27t-27 -41 t-10 -50q0 -53 37.5 -90.5t90.5 -37.5zM1536 1536q-53 0 -90.5 -37.5t-37.5 -90.5t37.5 -90.5t90.5 -37.5t90.5 37.5t37.5 90.5t-37.5 90.5t-90.5 37.5zM1664 1152q106 0 181 -75t75 -181v-192q0 -69 -35 -127.5t-93 -92.5v-420h-512v-320h-512v320h-512v420 q-58 34 -93 92.5t-35 127.5v192q0 106 75 181t181 75h320q94 0 168 -64h304q74 64 168 64h320zM640 292q-38 22 -67 55.5t-45 76t-16 88.5v320q0 56 23.5 106t64.5 86h-216q-26 0 -50 -10t-41 -27t-27 -41t-10 -50v-192h128v-512h256v100zM1792 896q0 53 -37.5 90.5 t-90.5 37.5h-216q20 -18 36 -39t27.5 -45.5t18 -52t6.5 -55.5v-320q0 -46 -16 -88.5t-45 -76t-67 -55.5v-100h256v512h128v192zM1280 384q53 0 90.5 37.5t37.5 90.5v320q0 53 -37.5 90.5t-90.5 37.5h-512q-53 0 -90.5 -37.5t-37.5 -90.5v-320q0 -53 37.5 -90.5t90.5 -37.5 v256h128v-768h256v768h128v-256z" />
<glyph unicode="&#xf21a;" d="M640 1088q-133 0 -226.5 93.5t-93.5 226.5t93.5 226.5t226.5 93.5t226.5 -93.5t93.5 -226.5t-93.5 -226.5t-226.5 -93.5zM1920 1408v-256h-256v-256h-256v256h-256v256h256v256h256v-256h256zM640 1600q-79 0 -135.5 -56.5t-56.5 -135.5q0 -80 56 -136t136 -56 q79 0 135.5 56.5t56.5 135.5t-56.5 135.5t-135.5 56.5zM896 1024q106 0 181 -75t75 -181v-256q0 -106 -75 -181t-181 -75v-512h-512v512q-106 0 -181 75t-75 181v256q0 106 75 181t181 75h512zM1024 768q0 53 -37.5 90.5t-90.5 37.5h-512q-53 0 -90.5 -37.5t-37.5 -90.5 v-256q0 -53 37.5 -90.5t90.5 -37.5v256h128v-768h256v768h128v-256q53 0 90.5 37.5t37.5 90.5v256z" />
<glyph unicode="&#xf21b;" d="M431 1728q96 64 209 64t209 -64h-418zM640 1664q-94 0 -168 -64h-163q20 33 48 64h283zM808 1600q-74 64 -168 64h283q28 -31 48 -64h-163zM420 1536q-18 -30 -27 -64h-131q6 32 18 64h140zM887 1472q-9 34 -27 64h140q12 -32 18 -64h-131zM262 1344q-6 42 -6 64h128 q0 -26 9 -64h-131zM1024 1408q0 -22 -6 -64h-131q9 38 9 64h128zM1920 1408v-256h-768v256h768zM420 1280q17 -31 54 -64h-164q-18 31 -30 64h140zM1000 1280q-12 -33 -30 -64h-165q37 32 55 64h140zM433 1088q-45 29 -76 64h566q-31 -35 -76 -64h-414zM896 1024 q94 0 168 -64h-848q74 64 168 64h512zM384 896q-35 0 -64 -17.5t-46 -46.5h-137q9 34 27 64h220zM1006 832q-17 29 -46 46.5t-64 17.5h220q18 -30 27 -64h-137zM256 704h-128v64h128v-64zM1024 768h128v-64h-128v64zM256 576h-128v64h128v-64zM512 576h-128v64h128v-64z M896 576h-128v64h128v-64zM1024 640h128v-64h-128v64zM256 512q0 -33 18 -64h-137q-9 38 -9 64h128zM384 512h128v-64h-128v64zM768 512h128v-64h-128v64zM1006 448q18 31 18 64h128q0 -26 -9 -64h-137zM512 320h-294q-37 33 -54 64h348v-64zM768 384h348q-18 -32 -55 -64 h-293v64zM512 192h-128v64h128v-64zM768 256h128v-64h-128v64zM512 64h-128v64h128v-64zM768 128h128v-64h-128v64zM384 0h128v-64h-128v64zM768 0h128v-64h-128v64zM384 -128h512v-64h-512v64z" />
<glyph unicode="&#xf21c;" d="M1408 1088q-133 0 -226.5 93.5t-93.5 226.5t93.5 226.5t226.5 93.5t226.5 -93.5t93.5 -226.5q0 -65 -25.5 -124.5t-68 -102t-102 -68t-124.5 -25.5zM1408 1600q-79 0 -135.5 -56.5t-56.5 -135.5q0 -80 56 -136t136 -56q79 0 135.5 56.5t56.5 135.5t-56.5 135.5 t-135.5 56.5zM448 1152l384 -384l-384 -384v256h-320v256h320v256zM1664 1024q106 0 181 -75t75 -181v-256q0 -106 -75 -181t-181 -75v-512h-512v512q-106 0 -181 75t-75 181v256q0 106 75 181t181 75h512zM1792 768q0 53 -37.5 90.5t-90.5 37.5h-512q-53 0 -90.5 -37.5 t-37.5 -90.5v-256q0 -53 37.5 -90.5t90.5 -37.5v256h128v-768h256v768h128v-256q53 0 90.5 37.5t37.5 90.5v256z" />
<glyph unicode="&#xf21d;" d="M2048 1536v-256h-256v-256h-256v256h-256v256h256v256h256v-256h256zM1920 992q43 -57 75 -113t42 -83l11 -28q-3 -8 -9.5 -22.5t-31 -58t-54 -86t-79.5 -100t-106.5 -107t-136.5 -100t-168 -86t-202 -58t-237 -22.5t-237 22t-202.5 59t-167.5 85t-136.5 101t-106 106 t-80 101t-53.5 85t-31 59l-10 22q3 9 9.5 24.5t31 63.5t54 95t79.5 110t106.5 117.5t136.5 110.5t168 95t202 63.5t237 24.5h128v-192h-128q-131 0 -247.5 -28t-198 -73.5t-150 -100t-111 -109t-72 -100t-41.5 -73.5l-12 -28q2 -7 7 -18t24 -46t42 -69t63 -80t85.5 -85.5 t110.5 -80t137 -69t166 -46.5t197 -18t197 17.5t166.5 47t136.5 68t110.5 81t85 85t63 81t42 68t24.5 46.5l7 18l-64 128h128v96zM640 768q0 111 49 198.5t136.5 136.5t198.5 49q168 0 276 -108t108 -276q0 -111 -49 -198.5t-136.5 -136.5t-198.5 -49q-168 0 -276 108 t-108 276zM864 832q96 0 96 96t-96 96t-96 -96t96 -96z" />
<glyph unicode="&#xf21e;" d="M1322 1207l209 209l-201 201l133 133l201 -201l201 201l119 -118l-192 -224l214 -201l-118 -119l-224 192l-224 -192zM1920 1024q27 -45 50 -87.5t36.5 -72t23.5 -52t14 -33.5l4 -11q-5 -13 -16 -36t-53 -89.5t-92.5 -127t-137.5 -134.5t-186 -127t-240.5 -89.5 t-298.5 -36.5q-123 0 -237 22t-202.5 59t-167.5 85t-136.5 101t-106 106t-80 101t-53.5 85t-31 59l-10 22q3 9 9.5 24.5t31 63.5t54 95t79.5 110.5t106.5 117.5t136.5 110t168 95t202 63.5t237 24.5q32 0 49.5 -0.5t45 -3.5t51 -10t46.5 -18l64 -64l-128 -96h-128 q-102 0 -196 -17.5t-166 -47t-136 -68t-110.5 -81t-85.5 -85t-64 -81t-42 -68t-25 -46.5l-7 -18q2 -7 7 -18t24 -46t42 -69t63 -80t85.5 -85.5t110.5 -80t137 -69t166 -46.5t197 -18t197 17.5t166.5 47t136.5 68t110.5 81t85 85t63 81t42 68t24.5 46.5l7 18q-32 64 -96 128z M640 768q0 111 49 198.5t136.5 136.5t198.5 49q168 0 276 -108t108 -276t-108 -276t-276 -108t-276 108t-108 276zM864 832q96 0 96 96t-96 96t-96 -96t96 -96z" />
<glyph unicode="&#xf21f;" d="M1920 896v-256h-480q-16 -93 -79 -167t-152 -113.5t-185 -39.5t-185 39.5t-152 113.5t-79 167h-480v256h480q16 93 79 167t152 113.5t185 39.5t185 -39.5t152 -113.5t79 -167h480zM1024 512q96 0 176 80t80 176t-80 176t-176 80t-176 -80t-80 -176t80 -176t176 -80z" />
<glyph unicode="&#xf220;" d="M1280 931q-38 23 -66.5 56t-45 75.5t-16.5 89.5q0 106 75 181t181 75t181 -75t75 -181q0 -70 -35 -128t-93 -93v-35q0 -11 -1.5 -29.5t-11.5 -71.5t-28 -101.5t-56.5 -107.5t-90.5 -101.5t-136 -71.5t-188 -29q-128 0 -197 -83q69 -72 69 -173q0 -64 -34 -123t-94 -96 t-128 -37t-128 37t-94 96t-34 123q0 69 35 127.5t93 92.5v840q-58 34 -93 92t-35 128q0 106 75 181t181 75t181 -75t75 -181q0 -70 -35 -128t-93 -92v-606q111 58 256 58q52 0 94.5 14t68.5 36.5t45 50t28 55t14 50t5 36.5l1 14v35zM640 1536q-53 0 -90.5 -37.5t-37.5 -90.5 t37.5 -90.5t90.5 -37.5t90.5 37.5t37.5 90.5t-37.5 90.5t-90.5 37.5zM1408 1024q53 0 90.5 37.5t37.5 90.5t-37.5 90.5t-90.5 37.5q-35 0 -64.5 -17t-46.5 -46.5t-17 -64.5q0 -53 37.5 -90.5t90.5 -37.5zM640 0q53 0 90.5 37.5t37.5 90.5t-37.5 90.5t-90.5 37.5t-90.5 -37.5 t-37.5 -90.5t37.5 -90.5t90.5 -37.5z" />
<glyph unicode="&#xf221;" d="M768 582q38 20 68.5 31t78.5 19t109 8q52 0 94.5 14t68.5 36.5t45 50t28 55t14 50t5 36.5l1 14h256q0 -7 -0.5 -18t-5.5 -46t-13.5 -69t-27 -80t-43 -85.5t-64.5 -80t-88.5 -69t-118 -46.5t-151.5 -18q-128 0 -197 -83q69 -72 69 -173q0 -64 -34 -123t-94 -96t-128 -37 t-128 37t-94 96t-34 123q0 69 35 127.5t93 92.5v840q-58 34 -93 92t-35 128q0 106 75 181t181 75t181 -75t75 -181q0 -70 -35 -128t-93 -92v-606zM1152 1405v3q0 106 75 181t181 75t181 -75t75 -181v-384h-512v381zM640 1536q-53 0 -90.5 -37.5t-37.5 -90.5t37.5 -90.5 t90.5 -37.5t90.5 37.5t37.5 90.5t-37.5 90.5t-90.5 37.5zM1536 1408q0 53 -37.5 90.5t-90.5 37.5q-52 0 -90 -39.5t-38 -88.5h256zM640 0q53 0 90.5 37.5t37.5 90.5t-37.5 90.5t-90.5 37.5q-26 0 -50 -10t-41 -27t-27 -41t-10 -50q0 -53 37.5 -90.5t90.5 -37.5z" />
<glyph unicode="&#xf222;" d="M1280 1536q8 0 22 -1t53.5 -8.5t76 -20.5t81 -41.5t76 -67.5t53.5 -102.5t22 -142.5v-804q38 -22 67 -55.5t45 -76t16 -88.5q0 -64 -34 -123t-94 -96t-128 -37t-128 37t-94 96t-34 123q0 69 35 127.5t93 92.5v804q-1 5 -2.5 13.5t-10 31t-21.5 39t-37.5 30.5t-56.5 14 h-128v-256l-384 384l384 384v-256h128zM384 1188q-58 34 -93 92t-35 128q0 106 75 181t181 75t181 -75t75 -181q0 -47 -16 -89.5t-45 -75.5t-67 -55v-840q38 -22 67 -55.5t45 -76t16 -88.5q0 -64 -34 -123t-94 -96t-128 -37t-128 37t-94 96t-34 123q0 69 35 127.5t93 92.5 v840zM512 1280q53 0 90.5 37.5t37.5 90.5t-37.5 90.5t-90.5 37.5q-26 0 -50 -10t-41 -27t-27 -41t-10 -50q0 -53 37.5 -90.5t90.5 -37.5zM512 0q53 0 90.5 37.5t37.5 90.5t-37.5 90.5t-90.5 37.5q-35 0 -64.5 -17t-46.5 -46.5t-17 -64.5q0 -53 37.5 -90.5t90.5 -37.5z M1536 0q53 0 90.5 37.5t37.5 90.5t-37.5 90.5t-90.5 37.5q-35 0 -64.5 -17t-46.5 -46.5t-17 -64.5q0 -53 37.5 -90.5t90.5 -37.5z" />
<glyph unicode="&#xf223;" d="M384 1188q-38 22 -67 55t-45 75.5t-16 89.5q0 106 75 181t181 75t181 -75t75 -181q0 -59 -25.5 -110.5t-69.5 -87.5q13 -44 30 -84t44 -85.5t61 -83.5t81.5 -74t103.5 -60.5t129.5 -39.5t157.5 -15h36q34 58 92 93t128 35q106 0 181 -75t75 -181t-75 -181t-181 -75 q-70 0 -128 35t-92 93h-36q-407 0 -640 242v-406q38 -22 67 -55.5t45 -76t16 -88.5q0 -64 -34 -123t-94 -96t-128 -37t-128 37t-94 96t-34 123q0 69 35 127.5t93 92.5v840zM512 1280q53 0 90.5 37.5t37.5 90.5t-37.5 90.5t-90.5 37.5q-26 0 -50 -10t-41 -27t-27 -41t-10 -50 q0 -53 37.5 -90.5t90.5 -37.5zM1536 512q53 0 90.5 37.5t37.5 90.5t-37.5 90.5t-90.5 37.5t-90.5 -37.5t-37.5 -90.5t37.5 -90.5t90.5 -37.5zM512 0q53 0 90.5 37.5t37.5 90.5t-37.5 90.5t-90.5 37.5q-35 0 -64.5 -17t-46.5 -46.5t-17 -64.5q0 -53 37.5 -90.5t90.5 -37.5z " />
<glyph unicode="&#xf224;" d="M2048 1152v-1408l-1024 512l-1024 -512v1408l1024 640zM1920 1024l-768 512v-448h-256v448l-768 -512v-1024l768 384v192h256v-192l768 -384v1024zM640 960h768v256l384 -384l-384 -384v256h-768v-256l-384 384l384 384v-256z" />
<glyph unicode="&#xf225;" d="M2048 1280v-1536l-1024 512l-1024 -512v1536l1024 512zM1920 1152l-768 384v-192h-256v192l-768 -384v-1152l768 384v64h256v-64l768 -384v1152zM768 960q0 106 75 181t181 75t181 -75t75 -181v-384h-512v384zM320 832l320 256v-512zM1152 960q0 53 -37.5 90.5 t-90.5 37.5t-90.5 -37.5t-37.5 -90.5h256zM1728 832l-320 -256v512z" />
<glyph unicode="&#xf226;" d="M1024 1664q182 0 348 -71t286 -191t191 -286t71 -348t-71 -348t-191 -286t-286 -191t-348 -71t-348 71t-286 191t-191 286t-71 348t71 348t191 286t286 191t348 71zM1024 51q146 0 278.5 57t228.5 153t153 228.5t57 278.5t-57 278.5t-153 228.5t-228.5 153t-278.5 57 t-278.5 -57t-228.5 -153t-153 -228.5t-57 -278.5t57 -278.5t153 -228.5t228.5 -153t278.5 -57zM1088 1280q26 0 45 -19t19 -45v-576q0 -26 -19 -45t-45 -19h-128q-26 0 -45 19t-19 45v576q0 26 19 45t45 19h128zM1024 512q53 0 90.5 -37.5t37.5 -90.5t-37.5 -90.5 t-90.5 -37.5t-90.5 37.5t-37.5 90.5t37.5 90.5t90.5 37.5z" />
<glyph unicode="&#xf227;" d="M480 1472q118 95 258 143.5t286 48.5q118 0 233 -33t213 -92t182 -143t143 -182t92 -213t33 -233q0 -160 -64 -352l-224 32q49 74 72.5 150t23.5 170q0 141 -56.5 271.5t-151 225t-225 151t-271.5 56.5q-126 0 -220.5 -29.5t-163.5 -98.5l64 -64l-352 -32l32 320z M960 576q-24 0 -44 20t-20 44v576q0 24 20 44t44 20h128q24 0 44 -20t20 -44v-576q0 -24 -20 -44t-44 -20h-128zM1344 256l352 32l-32 -320l-96 96q-118 -95 -258 -143.5t-286 -48.5q-118 0 -233 33t-213 92t-182 143t-143 182t-92 213t-33 233q0 160 64 352h224 q-51 -101 -73.5 -180.5t-22.5 -171.5q0 -141 56.5 -271.5t151 -225t225 -151t271.5 -56.5q126 0 220.5 29.5t163.5 98.5zM1024 256q-48 0 -88 40t-40 88t40 88t88 40t88 -40t40 -88t-40 -88t-88 -40z" />
<glyph unicode="&#xf228;" d="M1485 1299q-27 23 -55.5 43.5t-59.5 38t-63 32t-66.5 25.5t-70 18.5t-72.5 11.5t-74 4q-143 0 -273.5 -55.5t-225 -150t-150 -225t-55.5 -273.5t55.5 -273.5t150 -225t225 -150t273.5 -55.5q137 0 262.5 51t218.5 138.5t152 209t68 256.5l195 49q0 -182 -71 -348 t-191 -286t-286 -191t-348 -71t-348 71t-286 191t-191 286t-71 348t71 348t191 286t286 191t348 71q159 0 304.5 -53t263.5 -150zM1536 1024l384 384l128 -128l-512 -512l-256 256l128 128zM1152 640q0 -26 -19 -45t-45 -19h-128q-26 0 -45 19t-19 45v576q0 26 19 45t45 19 h128q26 0 45 -19t19 -45v-576zM1024 512q53 0 90.5 -37.5t37.5 -90.5q0 -26 -10 -50t-27 -41t-41 -27t-50 -10q-53 0 -90.5 37.5t-37.5 90.5t37.5 90.5t90.5 37.5z" />
<glyph unicode="&#xf229;" d="M966 1469q-134 -11 -253.5 -70.5t-205.5 -152.5t-136.5 -217.5t-50.5 -260.5q0 -143 55.5 -273.5t150 -225t225 -150t273.5 -55.5q153 0 290 62.5t234.5 172t143.5 249.5l148 -148q-70 -156 -191.5 -275t-284 -186t-340.5 -67q-82 0 -161.5 14.5t-151.5 42t-139 66 t-125 88.5t-108 108t-89 125t-66 139.5t-41.5 151.5t-14.5 161q0 105 23.5 205.5t67.5 188.5t105.5 166t139.5 139.5t166 105.5t188.5 67.5t205.5 23.5q155 0 296 -50.5t257 -144.5h-611zM1404 832q-5 0 -13.5 1.5t-30 9.5t-37.5 20t-29.5 37.5t-13.5 59.5v256q0 5 1 13.5 t7.5 31t18.5 39t38.5 30.5t62.5 14h512q5 0 13.5 -1t31 -7.5t39 -18.5t30.5 -38.5t14 -62.5v-256q0 -35 -13 -61t-32 -38t-38 -19.5t-32 -8.5l-13 -1v-256l-260 256h-256zM1152 640q0 -26 -19 -45t-45 -19h-128q-26 0 -45 19t-19 45v576q0 17 8.5 32t23.5 23.5t32 8.5h128 q26 0 45 -19t19 -45v-576zM1024 512q53 0 90.5 -37.5t37.5 -90.5q0 -26 -10 -50t-27 -41t-41 -27t-50 -10q-53 0 -90.5 37.5t-37.5 90.5t37.5 90.5t90.5 37.5z" />
<glyph unicode="&#xf22a;" d="M1459 606l119 -606l-554 298l-554 -298l119 606l-461 422l627 77l269 559l269 -559l627 -77z" />
<glyph unicode="&#xf22b;" d="M1664 1664q96 0 176 -80t80 -176v-768q0 -96 -80 -176t-176 -80h-640l-512 -512v512h-128q-5 0 -14.5 0.5t-36 5.5t-50.5 14t-53.5 28t-51 45t-36 68.5t-14.5 94.5v768q0 96 80 176t176 80h1280z" />
<glyph unicode="&#xf22c;" d="M1024 1664q182 0 348 -71t286 -191t191 -286t71 -348t-71 -348t-191 -286t-286 -191t-348 -71t-348 71t-286 191t-191 286t-71 348t71 348t191 286t286 191t348 71zM1024 64q143 0 273.5 55.5t225 150t150 225t55.5 273.5t-55.5 273.5t-150 225t-225 150t-273.5 55.5 t-273.5 -55.5t-225 -150t-150 -225t-55.5 -273.5t55.5 -273.5t150 -225t225 -150t273.5 -55.5zM651 955q9 214 149 304q88 57 218 57q169 0 282 -81q112 -81 112 -241q0 -98 -48 -164q-29 -41 -110 -104l-53 -41q-44 -35 -57 -79q-10 -32 -10 -89h-204q4 126 24 176 q19 47 101 111l54 43q30 23 44 45q30 40 30 90q0 58 -34 104q-32 47 -121 47q-88 0 -124 -57q-36 -59 -36 -121h-217zM925 415h225v-218h-225v218z" />
<glyph unicode="&#xf22d;" d="M2048 0h-2048l1024 1792zM256 128h1536l-768 1408zM1152 1088v-512h-256v512h256zM896 448h256v-192h-256v192z" />
<glyph unicode="&#xf22e;" d="M1984 0q28 -48 28 -64t-28 -64l-64 -64q-28 -48 -64 -48t-64 48l-530 530q-209 -147 -462 -147q-163 0 -311 63.5t-255 171t-170.5 255.5t-63.5 311t63.5 311t170.5 255t255 170.5t311 63.5t311.5 -63.5t255.5 -170.5t170.5 -255t63.5 -311q0 -253 -147 -462zM799 384 q124 0 236.5 48.5t194 130t130 194t48.5 236.5t-48.5 236.5t-130 194t-194 129.5t-236.5 48t-236.5 -48t-194 -129.5t-129.5 -194t-48 -236.5t48 -236.5t129.5 -194t194 -130t236.5 -48.5z" />
<glyph unicode="&#xf22f;" d="M1024 1664q182 0 348 -71t286 -191t191 -286t71 -348t-71 -348t-191 -286t-286 -191t-348 -71t-348 71t-286 191t-191 286t-71 348t71 348t191 286t286 191t348 71zM1728 691v161l-194 63l-46 110l88 187l-113 113l-182 -93l-111 46l-69 194h-160l-64 -194l-110 -46 l-187 88l-113 -113l93 -182l-46 -111l-194 -69v-161l194 -63l46 -110l-88 -187l113 -113l182 93l111 -46l69 -194h161l63 194l110 46l187 -88l113 113l-93 182l46 111zM1024 1025q106 0 181 -75t75 -182t-75 -182t-181 -75t-181.5 75.5t-75.5 182t75.5 181.5t181.5 75z M1024 640q53 0 90.5 37.5t37.5 90.5t-37.5 90.5t-90.5 37.5t-90.5 -37.5t-37.5 -90.5t37.5 -90.5t90.5 -37.5z" />
<glyph unicode="&#xf230;" d="M394 953q21 -22 21 -54t-21 -54q-22 -22 -53 -22t-52 22q-79 81 -120 184.5t-41 213.5t41 214t120 185q14 15 33 20t38.5 0t33.5 -20q21 -23 21 -54.5t-21 -53.5q-58 -59 -88 -134.5t-30 -156.5q0 -80 30 -155.5t88 -134.5zM1759 1642q79 -81 120 -185t41 -214 t-41 -213.5t-120 -184.5q-21 -22 -52 -22t-52 22q-22 22 -22 53.5t22 54.5q57 59 87 134.5t30 155.5q0 81 -29.5 156.5t-87.5 134.5q-22 22 -22 53.5t22 54t52 22.5t52 -22zM578 975q-31 0 -52 22q-49 50 -74.5 114t-25.5 132t25.5 132.5t74.5 114.5q22 23 52.5 23 t52.5 -22.5t22 -54t-22 -54.5q-56 -56 -56 -139q0 -82 56 -139q22 -22 22 -53t-22 -54q-22 -22 -53 -22zM1417 1490.5q22 22.5 52.5 22t52.5 -22.5q49 -50 74.5 -114.5t24.5 -132.5q1 -68 -24.5 -132t-74.5 -114q-21 -22 -52 -22t-53 22q-22 23 -22 54t22 53q56 57 56 139 q0 83 -56 139q-22 23 -22 54.5t22 54zM1023 1017q-91 0 -155.5 66t-64.5 160t64.5 160.5t155.5 66.5t155.5 -66.5t64.5 -160.5q0 -62 -29.5 -114t-80 -82t-110.5 -30zM1025 906q80 0 151 39l403 -1073h-191l-44 128h-640l-46 -128h-190l402 1073q72 -39 154 -39h1zM960 704 h128l-65 140zM832 384l194 67l190 -67l-64 192h-256zM1273 178l-248 155l-249 -148l-8 -57h512z" />
<glyph unicode="&#xf231;" d="M1011 666l-552 -553l-66 -113l-281 -192l-46 64l178 264l127 65l552 553l-112 113l128 128q23 -3 46.5 0t46 10.5t43.5 20.5t39 31q23 24 38 52.5t20.5 59.5t2.5 63l559 560l313 -314l-559 -560q-48 5 -94 -10.5t-81 -50.5t-50.5 -81t-10.5 -94l-128 -128zM574 890l-1 1 q-112 -38 -234 -10.5t-211 116.5q-143 144 -112 424l247 -248l242 65l65 243l-247 247q108 31 223 1.5t200 -113.5q85 -86 114 -202t-3 -225l105 -104q-16 -7 -35.5 -7.5t-30.5 3.5l-12 3l-180 -180l112 -113l-72 -72zM1280 1216l64 -64l448 448l-64 64zM1152 1024l128 -128 l64 64l-128 128zM960 768l128 128l-64 64l-128 -128zM1883 163q39 -39 53.5 -95.5t0 -110.5t-53.5 -85q-15 -23 -32 -37t-38.5 -19.5t-35.5 -6.5t-40 -1q-27 0 -41 1t-35.5 6.5t-38.5 19.5t-31 37l-608 609l71 72l113 -113l180 180q-14 40 1 79zM1835 43l-84 84l-103 -28 l-28 -99l84 -64h103z" />
<glyph unicode="&#xf232;" d="M1280 704h128v-576h-640v-384l-768 384v1664h1408v-576h-128v448h-1024l512 -256v-1152h512v448zM1536 576v256h-512v256h512v256l512 -384z" />
<glyph unicode="&#xf233;" d="M1571 1617q119 59 237.5 102t178.5 57l59 14q-2 -8 -5.5 -24t-17.5 -66t-32 -102.5t-49.5 -130t-68.5 -152.5q-139 15 -212 90q-75 73 -90 212zM1920 1664q-53 -10 -117 -42t-102 -59l-37 -27l64 -64zM775 950q100 139 221 260q191 190 436 332q32 -151 124 -242 q91 -93 242 -124q-142 -245 -332 -436q-124 -124 -260 -219l-66 -358l-419 -419l-11 373l268 269q-86 -42 -167 -68.5t-120 -32.5l-38 -6l-118 118q0 5 1.5 15t8 42t16 67t29.5 88.5t46 107.5l-263 -263l-373 11l419 419zM1159 780q80 75 140.5 142t241.5 284q-24 16 -44 36 t-33 39t-23.5 38t-16.5 35t-10 28t-5 19l-1 7q-63 -40 -132 -94.5t-123 -103.5t-99 -92t-70 -68l-24 -26q42 -128 199 -244zM832 512q112 91 175 147q-28 22 -52.5 47t-41.5 47t-31.5 44t-23.5 39.5t-15 31t-8 21.5l-3 7l-128 -256zM768 448l-128 128v-128l64 -64z" />
<glyph unicode="&#xf234;" d="M512 1536q131 0 258 -26t240.5 -74.5t217 -118.5t189.5 -156t156 -189.5t118.5 -217t74.5 -240.5t26 -258q0 -5 -1 -13.5t-7.5 -31t-18.5 -39t-38.5 -30.5t-62.5 -14q-26 0 -47 7t-34 18.5t-23 25t-14 27t-6.5 25t-3.5 18.5v7q0 139 -37 272t-102.5 245.5t-160 207 t-207 160t-245.5 102.5t-272 37q-5 0 -13.5 1t-31 7.5t-39 18.5t-30.5 38.5t-14 62.5q0 26 7 47t18.5 34t25 23t27 14t25 6.5t18.5 3.5h7zM512 1024q156 0 298.5 -61t245 -163.5t163.5 -245t61 -298.5q0 -5 -1 -13.5t-7.5 -31t-18.5 -39t-38.5 -30.5t-62.5 -14q-26 0 -47 7 t-34 18.5t-23 25t-14 27t-6.5 25t-3.5 18.5v7q0 104 -40.5 199t-109 163.5t-163.5 109t-199 40.5q-3 0 -7.5 0.5t-17.5 3.5t-25.5 7.5t-27 14t-25 22.5t-18 34t-7.5 46t7 46t18.5 34t25 22.5t27 14t25 7.5t18.5 3zM512 512q106 0 181 -75t75 -181t-75 -181t-181 -75t-181 75 t-75 181t75 181t181 75z" />
<glyph unicode="&#xf235;" d="M1600 256h128v-320q0 -49 -38 -88.5t-90 -39.5h-1280q-52 0 -90 39.5t-38 88.5v1472q0 53 37.5 90.5t90.5 37.5h384q0 106 75 181t181 75t181 -75t75 -181h384q53 0 90.5 -37.5t37.5 -90.5v-640h-128v384h-1280v-1216h1280v320zM448 1280h1024l-384 256q0 53 -37.5 90.5 t-90.5 37.5t-90.5 -37.5t-37.5 -90.5zM960 1472q-26 0 -45 19t-19 45t19 45t45 19t45 -19t19 -45t-19 -45t-45 -19zM768 1344q0 3 0.5 7t4 15t9.5 19.5t19 15.5t31 7h256q28 0 44 -16t18 -32l2 -16h-384zM448 1024h256v-64h-256v64zM960 960h-192v64h192v-64zM1344 960h-320 v64h320v-64zM448 896h64v-64h-64v64zM576 896h320v-64h-320v64zM1984 640v-256h-512v-256l-512 384l512 384v-256h512zM1152 832h-192v64h192v-64zM448 768h192v-64h-192v64zM960 704h-256v64h256v-64zM448 640h128v-64h-128v64zM640 640h192v-64h-192v64zM448 512h384v-64 h-384v64zM448 384h192v-64h-192v64zM704 384h256v-64h-256v64zM448 256h128v-64h-128v64zM768 192h-128v64h128v-64zM832 256h256v-64h-256v64zM448 128h256v-64h-256v64zM1024 64h-256v64h256v-64zM1088 128h192v-64h-192v64z" />
<glyph unicode="&#xf236;" d="M1280 1504q-24 -36 -58.5 -65t-73.5 -47t-79.5 -23t-76.5 7q0 74 24.5 141.5t71.5 114.5q47 70 130.5 115t157.5 45q0 -78 -25.5 -160.5t-70.5 -127.5zM1728 1184q-70 -39 -117 -99t-66 -126.5t-12.5 -138.5t36.5 -136t87.5 -118.5t135.5 -85.5q-11 -34 -26 -64 t-24.5 -45.5t-37 -55t-40.5 -59.5q-4 -7 -14 -21q-18 -28 -29 -43.5t-32 -44.5t-36.5 -45.5t-38.5 -38.5t-43 -34t-45 -20.5t-50 -8.5q-42 0 -81.5 10t-66.5 22t-72.5 22t-99.5 10t-99.5 -10t-72.5 -22t-66.5 -22t-81.5 -10q-160 0 -288 256q-110 157 -159.5 330t-32.5 322 t96 244q47 95 150.5 159.5t201.5 64.5q52 0 104 -14.5t83.5 -29.5t77.5 -23.5t87 3.5q38 0 93 16t123 32t136 16q76 0 163.5 -50t156.5 -142z" />
<glyph unicode="&#xf237;" d="M939 468q-80 50 -150 79t-154 34q-197 14 -376 -73l-39 21l190 653q7 5 20 13t57 27.5t91 33t119.5 21.5t145.5 1q90 -8 164 -42t159 -92l-190 -657zM1268 1074q78 -51 150.5 -83t160.5 -42q71 -7 134.5 -2t117 19t92.5 28.5t61 25.5l22 11l41 -20l-193 -667 q-27 -15 -71.5 -31t-112.5 -34t-139 -24t-149 1q-160 19 -345 141l190 656zM190 418q7 5 20 13t57 27t91.5 32.5t119.5 21.5t145 2q90 -8 164 -42t159 -92l-190 -636l-37 -64q-41 30 -69 48t-68 39t-81.5 31t-85.5 10q-67 0 -99.5 -0.5t-83.5 -3.5t-80 -9.5t-60.5 -19 t-52.5 -31.5h-38zM1049 310q76 -51 149.5 -83t161.5 -42q71 -7 134 -2t117 19t92.5 28.5t60.5 25.5l22 11l42 -21l-194 -694q-22 0 -99.5 -16t-181.5 -32t-190 -16q-166 0 -346 128l191 673z" />
<glyph unicode="&#xf238;" d="M1472 1792q53 0 90.5 -37.5t37.5 -90.5v-1792q0 -49 -38 -88.5t-90 -39.5h-896q-52 0 -90 39.5t-38 88.5v1792q0 53 37.5 90.5t90.5 37.5h896zM896 1664q-26 0 -45 -19t-19 -45t19 -45t45 -19h256q26 0 45 19t19 45t-19 45t-45 19h-256zM1472 1408h-896v-1280h896v1280z M1024 -192q52 0 90 39.5t38 88.5q0 53 -37.5 90.5t-90.5 37.5t-90.5 -37.5t-37.5 -90.5q0 -49 38 -88.5t90 -39.5z" />
<glyph unicode="&#xf239;" d="M1427 1364q109 -122 109 -276h-1024q0 155 109 277l-100 189q-14 25 -7 53t30 42q23 15 48.5 7.5t38.5 -32.5l92 -173q136 85 301 85t301 -85l92 175q13 25 38.5 32.5t48.5 -6.5q23 -15 30 -43t-7 -53zM832 1213q26 0 45 18.5t19 45.5q0 26 -19 45t-45 19t-45 -19 t-19 -45q0 -18 8.5 -32.5t23.5 -23t32 -8.5zM1216 1213q26 0 45 18.5t19 45.5q0 26 -19 45t-45 19t-45 -19t-19 -45q0 -27 19 -45.5t45 -18.5zM256 988q0 41 28 70t68 29t68 -29t28 -70v-567q0 -41 -28 -70.5t-68 -29.5t-68 29.5t-28 70.5v567zM1600 988q0 41 28 70t68 29 t68 -29t28 -70v-567q0 -41 -28 -70.5t-68 -29.5t-68 29.5t-28 70.5v567zM512 1021h1024v-766q0 -53 -37.5 -90.5t-90.5 -37.5h-128v-191q0 -49 -28.5 -88.5t-67.5 -39.5t-67.5 39.5t-28.5 88.5v191h-128v-191q0 -49 -28.5 -88.5t-67.5 -39.5t-67.5 39.5t-28.5 88.5v191h-128 q-53 0 -90.5 37.5t-37.5 90.5v766z" />
<glyph unicode="&#xf23a;" d="M1728 1152l-896 -896l-448 448l192 192l256 -256l704 704z" />
<glyph unicode="&#xf23b;" d="M1920 1408v-1280h-1792v1280h1792zM348 1280l676 -528l672 528h-1348zM256 348l543 426l-543 412v-838zM1792 1186l-543 -412l543 -426v838zM1696 256l-560 433l-112 -85l-114 86l-562 -434h1348z" />
</font>
</defs>
</svg>
